<?xml version="1.0" encoding="UTF-8" standalone="no"?>
<!-- Created with Inkscape (http://www.inkscape.org/) -->

<svg
   xmlns:dc="http://purl.org/dc/elements/1.1/"
   xmlns:cc="http://creativecommons.org/ns#"
   xmlns:rdf="http://www.w3.org/1999/02/22-rdf-syntax-ns#"
   xmlns:svg="http://www.w3.org/2000/svg"
   xmlns="http://www.w3.org/2000/svg"
   xmlns:sodipodi="http://sodipodi.sourceforge.net/DTD/sodipodi-0.dtd"
   xmlns:inkscape="http://www.inkscape.org/namespaces/inkscape"
   version="1.1"
   id="svg869"
   width="1117.9904"
   height="478.6087"
   viewBox="0 0 1117.9904 478.6087"
   sodipodi:docname="repository.svg"
   inkscape:version="0.92.3 (2405546, 2018-03-11)">
  <metadata
     id="metadata875">
    <rdf:RDF>
      <cc:Work
         rdf:about="">
        <dc:format>image/svg+xml</dc:format>
        <dc:type
           rdf:resource="http://purl.org/dc/dcmitype/StillImage" />
        <dc:title />
      </cc:Work>
    </rdf:RDF>
  </metadata>
  <defs
     id="defs873">
    <clipPath
       id="clipPath3748"
       clipPathUnits="userSpaceOnUse">
      <path
         id="path3746"
         d="M 7.2,7.2 H 230.4 V 173.52 H 7.2 Z"
         inkscape:connector-curvature="0" />
    </clipPath>
    <clipPath
       id="clipPath3758"
       clipPathUnits="userSpaceOnUse">
      <path
         id="path3756"
         d="M 7.2,7.2 H 230.4 V 173.52 H 7.2 Z"
         inkscape:connector-curvature="0" />
    </clipPath>
    <clipPath
       id="clipPath4617"
       clipPathUnits="userSpaceOnUse">
      <path
         id="path4615"
         d="M 7.2,7.2 H 230.4 V 173.52 H 7.2 Z"
         inkscape:connector-curvature="0" />
    </clipPath>
    <clipPath
       id="clipPath4627"
       clipPathUnits="userSpaceOnUse">
      <path
         id="path4625"
         d="M 7.2,7.2 H 230.4 V 173.52 H 7.2 Z"
         inkscape:connector-curvature="0" />
    </clipPath>
    <clipPath
       id="clipPath943"
       clipPathUnits="userSpaceOnUse">
      <path
         id="path941"
         d="M 7.2,7.2 H 230.4 V 173.52 H 7.2 Z"
         inkscape:connector-curvature="0" />
    </clipPath>
    <clipPath
       id="clipPath953"
       clipPathUnits="userSpaceOnUse">
      <path
         id="path951"
         d="M 7.2,7.2 H 230.4 V 173.52 H 7.2 Z"
         inkscape:connector-curvature="0" />
    </clipPath>
    <clipPath
       id="clipPath3748-3"
       clipPathUnits="userSpaceOnUse">
      <path
         id="path3746-6"
         d="M 7.2,7.2 H 230.4 V 173.52 H 7.2 Z"
         inkscape:connector-curvature="0" />
    </clipPath>
    <clipPath
       id="clipPath3758-7"
       clipPathUnits="userSpaceOnUse">
      <path
         id="path3756-5"
         d="M 7.2,7.2 H 230.4 V 173.52 H 7.2 Z"
         inkscape:connector-curvature="0" />
    </clipPath>
    <clipPath
       id="clipPath4617-3"
       clipPathUnits="userSpaceOnUse">
      <path
         id="path4615-5"
         d="M 7.2,7.2 H 230.4 V 173.52 H 7.2 Z"
         inkscape:connector-curvature="0" />
    </clipPath>
    <clipPath
       id="clipPath4627-6"
       clipPathUnits="userSpaceOnUse">
      <path
         id="path4625-2"
         d="M 7.2,7.2 H 230.4 V 173.52 H 7.2 Z"
         inkscape:connector-curvature="0" />
    </clipPath>
    <clipPath
       id="clipPath943-9"
       clipPathUnits="userSpaceOnUse">
      <path
         id="path941-1"
         d="M 7.2,7.2 H 230.4 V 173.52 H 7.2 Z"
         inkscape:connector-curvature="0" />
    </clipPath>
    <clipPath
       id="clipPath953-2"
       clipPathUnits="userSpaceOnUse">
      <path
         id="path951-7"
         d="M 7.2,7.2 H 230.4 V 173.52 H 7.2 Z"
         inkscape:connector-curvature="0" />
    </clipPath>
    <clipPath
       id="clipPath175"
       clipPathUnits="userSpaceOnUse">
      <path
         inkscape:connector-curvature="0"
         id="path173"
         d="M 0,0 H 218.285 V 163.785 H 0 Z" />
    </clipPath>
    <clipPath
       id="clipPath185"
       clipPathUnits="userSpaceOnUse">
      <path
         inkscape:connector-curvature="0"
         id="path183"
         d="M 0,0 H 570 V 164 H 0 Z" />
    </clipPath>
    <clipPath
       id="clipPath201"
       clipPathUnits="userSpaceOnUse">
      <path
         inkscape:connector-curvature="0"
         id="path199"
         d="M 0,0 H 570 V 164 H 0 Z" />
    </clipPath>
  </defs>
  <sodipodi:namedview
     pagecolor="#ffffff"
     bordercolor="#666666"
     borderopacity="1"
     objecttolerance="10"
     gridtolerance="10"
     guidetolerance="10"
     inkscape:pageopacity="0"
     inkscape:pageshadow="2"
     inkscape:window-width="2382"
     inkscape:window-height="1196"
     id="namedview871"
     showgrid="false"
     inkscape:zoom="1.1435242"
     inkscape:cx="620.79567"
     inkscape:cy="206.87118"
     inkscape:window-x="0"
     inkscape:window-y="370"
     inkscape:window-maximized="0"
     inkscape:current-layer="svg869" />
  <rect
     style="fill:#ffffff;fill-opacity:1;stroke-width:1.01130593"
     id="rect996"
     width="1117.9904"
     height="478.6087"
     x="0"
     y="0"
     ry="0" />
  <text
     xml:space="preserve"
     style="font-style:normal;font-variant:normal;font-weight:normal;font-stretch:normal;font-size:40px;line-height:1.25;font-family:sans-serif;-inkscape-font-specification:'sans-serif, Normal';font-variant-ligatures:normal;font-variant-caps:normal;font-variant-numeric:normal;font-feature-settings:normal;text-align:center;letter-spacing:0px;word-spacing:0px;writing-mode:lr-tb;text-anchor:middle;fill:#000000;fill-opacity:1;stroke:none"
     x="558.88776"
     y="365.52655"
     id="text4820"><tspan
       sodipodi:role="line"
       id="tspan4818"
       x="565.25494"
       y="365.52655"
       style="font-style:normal;font-variant:normal;font-weight:normal;font-stretch:normal;font-size:40px;font-family:serif;-inkscape-font-specification:'serif, Normal';font-variant-ligatures:normal;font-variant-caps:normal;font-variant-numeric:normal;font-feature-settings:normal;text-align:center;writing-mode:lr-tb;text-anchor:middle">Simple, but essential </tspan><tspan
       sodipodi:role="line"
       x="558.88776"
       y="415.52655"
       id="tspan4822"
       style="font-style:normal;font-variant:normal;font-weight:normal;font-stretch:normal;font-size:40px;font-family:serif;-inkscape-font-specification:'serif, Normal';font-variant-ligatures:normal;font-variant-caps:normal;font-variant-numeric:normal;font-feature-settings:normal;text-align:center;writing-mode:lr-tb;text-anchor:middle">Bayesian optimization pacakage</tspan></text>
  <g
     transform="matrix(1.4756507,0,0,1.4756507,138.99519,51.142662)"
     inkscape:label="logo_bayeso"
     id="g161">
    <g
       id="g163">
      <text
         id="text167"
         style="font-variant:normal;font-weight:normal;font-size:100px;font-family:'DejaVu Serif';-inkscape-font-specification:DejaVuSerif;writing-mode:lr-tb;fill:#c80150;fill-opacity:1;fill-rule:nonzero;stroke:none"
         transform="translate(223.66461,141.41831)">
        <tspan
           id="tspan165"
           sodipodi:role="line"
           y="0"
           x="0 64 123.60001 180 239.10001 290.39999">bayeso</tspan>
      </text>
    </g>
    <g
       id="g169">
      <g
         clip-path="url(#clipPath175)"
         id="g171">
        <g
           id="g177">
          <g
             id="g179">
            <g
               clip-path="url(#clipPath185)"
               id="g181">
              <g
                 id="g187">
                <g
                   transform="scale(1,-1)"
                   id="g189">
                  <path
                     inkscape:connector-curvature="0"
                     id="path191"
                     style="fill:none;stroke:#ffb300;stroke-width:8;stroke-linecap:square;stroke-linejoin:round;stroke-miterlimit:10;stroke-dasharray:none;stroke-opacity:1"
                     d="m 5.23,-70.152 2.051,-4.926 2.047,-4.902 2.051,-4.868 2.051,-4.828 2.047,-4.777 2.05,-4.711 2.051,-4.633 2.047,-4.547 2.051,-4.445 2.051,-4.332 2.05,-4.199 2.047,-4.055 2.051,-3.891 2.051,-3.714 2.047,-3.516 2.05,-3.301 2.051,-3.066 2.047,-2.809 2.051,-2.531 2.051,-2.231 2.047,-1.902 2.05,-1.559 2.051,-1.179 2.051,-0.785 2.047,-0.368 2.051,0.071 2.05,0.519 2.047,0.973 2.051,1.434 2.051,1.882 2.047,2.317 2.05,2.726 2.051,3.102 2.047,3.441 2.051,3.727 2.051,3.965 2.05,4.144 2.047,4.27 4.102,8.656 2.047,4.262 2.05,4.136 2.051,3.95 2.047,3.707 2.051,3.414 2.051,3.07 2.047,2.684 2.05,2.261 2.051,1.821 2.051,1.351 2.047,0.883 2.051,0.414 2.05,-0.047 2.047,-0.476 2.051,-0.891 2.051,-1.262 2.047,-1.593 2.05,-1.879 2.051,-2.121 2.051,-2.305 2.047,-2.434 2.051,-2.511 2.05,-2.528 2.047,-2.492 2.051,-2.394 2.051,-2.254 2.047,-2.051 2.051,-1.813 2.05,-1.527 2.047,-1.203 2.051,-0.852 2.051,-0.476 2.051,-0.086 2.046,0.32 2.051,0.734 2.051,1.149 2.047,1.562 2.051,1.969 2.05,2.371 2.047,2.758 2.051,3.129 2.051,3.488 2.047,3.828 2.051,4.141 2.05,4.438 2.051,4.714 2.047,4.961 2.051,5.196 2.051,5.398 2.046,5.582 2.051,5.746 2.051,5.895 2.047,6.015 2.051,6.125 2.05,6.219 2.051,6.293 2.047,6.352 2.051,6.402 2.051,6.43" />
                </g>
              </g>
            </g>
          </g>
        </g>
        <g
           id="g193">
          <g
             id="g195">
            <g
               clip-path="url(#clipPath201)"
               id="g197">
              <g
                 id="g203">
                <g
                   transform="scale(1,-1)"
                   id="g205">
                  <path
                     inkscape:connector-curvature="0"
                     id="path207"
                     style="fill:#c80150;fill-opacity:1;fill-rule:nonzero;stroke:#c80150;stroke-width:6;stroke-linecap:butt;stroke-linejoin:round;stroke-miterlimit:10;stroke-dasharray:none;stroke-opacity:1"
                     d="m 47.77,-155.656 h 18 m -9,-9 v 18" />
                </g>
              </g>
            </g>
          </g>
        </g>
      </g>
    </g>
  </g>
</svg>
