<?xml version="1.0" encoding="UTF-8" standalone="no"?>
<svg
   xmlns:dc="http://purl.org/dc/elements/1.1/"
   xmlns:cc="http://creativecommons.org/ns#"
   xmlns:rdf="http://www.w3.org/1999/02/22-rdf-syntax-ns#"
   xmlns:svg="http://www.w3.org/2000/svg"
   xmlns="http://www.w3.org/2000/svg"
   viewBox="0 0 717.02502 538.43414"
   height="538.43414"
   width="717.02502"
   xml:space="preserve"
   id="svg29"
   version="1.1"><metadata
     id="metadata35"><rdf:RDF><cc:Work
         rdf:about=""><dc:format>image/svg+xml</dc:format><dc:type
           rdf:resource="http://purl.org/dc/dcmitype/StillImage" /><dc:title></dc:title></cc:Work></rdf:RDF></metadata><defs
     id="defs33"><clipPath
       id="clipPath45"
       clipPathUnits="userSpaceOnUse"><path
         id="path43"
         d="m 77.16875,70.465625 h 446.4 V 396.62563 h -446.4 z" /></clipPath><clipPath
       id="clipPath55"
       clipPathUnits="userSpaceOnUse"><path
         id="path53"
         d="m 77.16875,70.465625 h 446.4 V 396.62563 h -446.4 z" /></clipPath><clipPath
       id="clipPath73"
       clipPathUnits="userSpaceOnUse"><path
         id="path71"
         d="m 77.16875,70.465625 h 446.4 V 396.62563 h -446.4 z" /></clipPath><clipPath
       id="clipPath91"
       clipPathUnits="userSpaceOnUse"><path
         id="path89"
         d="m 77.16875,70.465625 h 446.4 V 396.62563 h -446.4 z" /></clipPath><clipPath
       id="clipPath109"
       clipPathUnits="userSpaceOnUse"><path
         id="path107"
         d="m 77.16875,70.465625 h 446.4 V 396.62563 h -446.4 z" /></clipPath><clipPath
       id="clipPath127"
       clipPathUnits="userSpaceOnUse"><path
         id="path125"
         d="m 77.16875,70.465625 h 446.4 V 396.62563 h -446.4 z" /></clipPath><clipPath
       id="clipPath145"
       clipPathUnits="userSpaceOnUse"><path
         id="path143"
         d="m 77.16875,70.465625 h 446.4 V 396.62563 h -446.4 z" /></clipPath><clipPath
       id="clipPath163"
       clipPathUnits="userSpaceOnUse"><path
         id="path161"
         d="m 77.16875,70.465625 h 446.4 V 396.62563 h -446.4 z" /></clipPath><clipPath
       id="clipPath187"
       clipPathUnits="userSpaceOnUse"><path
         id="path185"
         d="m 77.16875,70.465625 h 446.4 V 396.62563 h -446.4 z" /></clipPath><clipPath
       id="clipPath205"
       clipPathUnits="userSpaceOnUse"><path
         id="path203"
         d="m 77.16875,70.465625 h 446.4 V 396.62563 h -446.4 z" /></clipPath><clipPath
       id="clipPath223"
       clipPathUnits="userSpaceOnUse"><path
         id="path221"
         d="m 77.16875,70.465625 h 446.4 V 396.62563 h -446.4 z" /></clipPath><clipPath
       id="clipPath241"
       clipPathUnits="userSpaceOnUse"><path
         id="path239"
         d="m 77.16875,70.465625 h 446.4 V 396.62563 h -446.4 z" /></clipPath><clipPath
       id="clipPath265"
       clipPathUnits="userSpaceOnUse"><path
         id="path263"
         d="m 77.16875,70.465625 h 446.4 V 396.62563 h -446.4 z" /></clipPath><clipPath
       id="clipPath275"
       clipPathUnits="userSpaceOnUse"><path
         id="path273"
         d="m 77.16875,70.465625 h 446.4 V 396.62563 h -446.4 z" /></clipPath><clipPath
       id="clipPath285"
       clipPathUnits="userSpaceOnUse"><path
         id="path283"
         d="m 77.16875,70.465625 h 446.4 V 396.62563 h -446.4 z" /></clipPath><clipPath
       id="clipPath295"
       clipPathUnits="userSpaceOnUse"><path
         id="path293"
         d="M -7,-7 H 7 V 7 H -7 Z" /></clipPath><clipPath
       id="clipPath307"
       clipPathUnits="userSpaceOnUse"><path
         id="path305"
         d="M -7,-7 H 7 V 7 H -7 Z" /></clipPath><clipPath
       id="clipPath319"
       clipPathUnits="userSpaceOnUse"><path
         id="path317"
         d="M -7,-7 H 7 V 7 H -7 Z" /></clipPath><clipPath
       id="clipPath331"
       clipPathUnits="userSpaceOnUse"><path
         id="path329"
         d="M -7,-7 H 7 V 7 H -7 Z" /></clipPath><clipPath
       id="clipPath343"
       clipPathUnits="userSpaceOnUse"><path
         id="path341"
         d="M -7,-7 H 7 V 7 H -7 Z" /></clipPath><clipPath
       id="clipPath355"
       clipPathUnits="userSpaceOnUse"><path
         id="path353"
         d="M -7,-7 H 7 V 7 H -7 Z" /></clipPath></defs><g
     transform="matrix(1.3333333,0,0,-1.3333333,0,538.43417)"
     id="g37"><g
       id="g39"><g
         clip-path="url(#clipPath45)"
         id="g41"><path
           id="path47"
           style="fill:#0000ff;fill-opacity:0.3;fill-rule:nonzero;stroke:#0000ff;stroke-width:1;stroke-linecap:butt;stroke-linejoin:round;stroke-miterlimit:10;stroke-dasharray:none;stroke-opacity:0.3"
           d="m 77.16875,309.83977 v -1.56911 l 2.243216,1.11831 2.243216,0.30641 2.243216,0.072 2.243216,-0.10681 2.243216,-0.25277 2.243216,-0.36921 2.243217,-0.45702 2.243216,-0.51668 2.243216,-0.54885 2.243216,-0.55432 2.243219,-0.53415 2.24321,-0.4896 2.24322,-0.42208 2.24321,-0.33316 2.24322,-0.22461 2.24322,-0.0982 2.24321,0.044 2.24322,0.20018 2.24322,0.36807 2.24321,0.54559 2.24322,0.73051 2.24321,0.92061 2.24322,1.1136 2.24322,1.30716 2.24321,1.49899 2.24322,1.6867 2.24321,1.86789 2.24322,2.04009 2.24322,2.2006 2.24321,2.34602 2.24322,2.47042 2.24321,2.55269 2.24322,2.31888 2.24322,-0.26688 2.24321,-1.10499 2.24322,-1.05265 2.24321,-0.9333 2.24322,-0.7878 2.24322,-0.62444 2.24321,-0.44704 2.24322,-0.25854 2.24321,-0.0614 2.24322,0.14182 2.24322,0.34881 2.24321,0.55717 2.24322,0.76457 2.24322,0.96867 2.24321,1.16722 2.24322,1.35793 2.24321,1.53863 2.24322,1.70717 2.24322,1.86147 2.24321,1.99955 2.24322,2.1195 2.24321,2.21955 2.24322,2.29804 2.24322,2.35351 2.24321,2.38464 2.24322,2.3903 2.24321,2.36968 2.24322,2.32208 2.24322,2.24705 2.24321,2.14402 2.24322,2.01101 2.24321,1.83679 2.24322,1.47491 2.24322,-1.43091 2.24321,-3.27183 2.24322,-3.61369 2.24322,-3.86462 2.24321,-4.07677 2.24322,-4.25594 2.24321,-4.40319 2.24322,-4.51878 2.24322,-4.60304 2.24321,-4.65638 2.24322,-4.67949 2.24321,-4.67318 2.24322,-4.63842 2.24322,-4.57633 2.24321,-4.48813 2.24322,-4.37511 2.24322,-4.23862 2.24321,-4.08004 2.24322,-3.90081 2.24321,-3.70236 2.24322,-3.48616 2.24321,-3.25362 2.24322,-3.0062 2.24322,-2.74536 2.24321,-2.47247 2.24322,-2.18899 2.24321,-1.89628 2.24322,-1.59574 2.24322,-1.28873 2.24321,-0.97661 2.24322,-0.66076 2.24322,-0.34249 2.24321,-0.0232 2.24322,0.29582 2.24321,0.61317 2.24322,0.92749 2.24322,1.2374 2.24321,1.54151 2.24322,1.83841 2.24321,2.12663 2.24322,2.40474 2.24322,2.67124 2.24321,2.92459 2.24322,3.16328 2.24321,3.38572 2.24322,3.59031 2.24322,3.77543 2.24321,3.93947 2.24322,4.08076 2.24321,4.19766 2.24322,4.28855 2.24322,4.35182 2.24321,4.3859 2.24322,4.38928 2.24322,4.36059 2.24321,4.2985 2.24322,4.20189 2.24321,4.06981 2.24322,3.90158 2.24322,3.69679 2.24321,3.45539 2.24322,3.17779 2.24321,2.86482 2.24322,2.51791 2.24322,2.13901 2.24321,1.73041 2.24322,1.29425 2.24321,0.83036 2.24322,0.33167 2.24322,-0.20826 2.24321,-0.68703 2.24322,-0.93892 2.24321,-1.09879 2.24322,-1.36055 2.24322,-1.64809 2.24321,-1.83967 2.24322,-1.9393 2.24322,-1.97053 2.24321,-1.94881 2.24322,-1.8849 2.24321,-1.78755 2.24322,-1.66442 2.24322,-1.52248 2.24321,-1.36821 2.24322,-1.20766 2.24321,-1.04641 2.24322,-0.8897 2.24322,-0.74237 2.24321,-0.60884 2.24322,-0.49317 2.24321,-0.399 2.24322,-0.32954 2.24322,-0.28763 2.24321,-0.27562 2.24322,-0.2955 2.24321,-0.34906 2.24322,-0.43859 2.24322,-0.57041 2.24321,-0.78442 2.24322,-1.85646 2.24321,-4.62062 2.24322,-5.3524 2.24322,-5.76885 2.24321,-6.13504 2.24322,-6.46895 2.24322,-6.77314 2.24321,-7.04796 2.24322,-7.29344 2.24321,-7.5098 2.24322,-7.69742 2.24322,-7.85695 2.24321,-7.98918 2.24322,-8.09513 2.24321,-8.17588 2.24322,-8.23265 2.24322,-8.26673 2.24321,-8.27941 2.24322,-8.2721 2.24321,-8.24611 2.24322,-8.20285 2.24322,-8.14363 2.24321,-8.06979 2.24322,-7.9826 2.24322,-7.88331 2.24321,-7.77313 2.24322,-7.65319 2.24321,-7.52461 2.24322,-7.3884 2.24322,-7.24558 2.24321,-7.09705 2.24322,-6.943707 2.24321,-6.78636 2.24322,-6.625773 v 116.94555 0 l -2.24322,4.77349 -2.24321,4.82808 -2.24322,4.87583 -2.24321,4.9161 -2.24322,4.94827 -2.24322,4.97167 -2.24321,4.98567 -2.24322,4.9896 -2.24321,4.98281 -2.24322,4.96464 -2.24322,4.93448 -2.24321,4.89169 -2.24322,4.83573 -2.24322,4.76603 -2.24321,4.68215 -2.24322,4.58367 -2.24321,4.47025 -2.24322,4.34171 -2.24322,4.19794 -2.24321,4.03899 -2.24322,3.8651 -2.24321,3.6767 -2.24322,3.47444 -2.24322,3.25925 -2.24321,3.0324 -2.24322,2.79549 -2.24321,2.55059 -2.24322,2.30029 -2.24322,2.04796 -2.24321,1.79832 -2.24322,1.55946 -2.24322,1.35622 -2.24321,1.46221 -2.24322,3.60464 -2.24321,4.0706 -2.24322,3.70482 -2.24322,3.29188 -2.24321,2.8786 -2.24322,2.47659 -2.24321,2.09202 -2.24322,1.72926 -2.24322,1.39172 -2.24321,1.08212 -2.24322,0.80268 -2.24321,0.55517 -2.24322,0.34089 -2.24322,0.16083 -2.24321,0.0156 -2.24322,-0.0946 -2.24321,-0.16974 -2.24322,-0.21025 -2.24322,-0.21687 -2.24321,-0.19066 -2.24322,-0.13299 -2.24321,-0.0454 -2.24322,0.0707 -2.24322,0.21479 -2.24321,0.39017 -2.24322,0.60684 -2.24322,0.85401 -2.24321,0.99411 -2.24322,0.93889 -2.24321,0.88104 -2.24322,0.9664 -2.24322,1.04933 -2.24321,1.04798 -2.24322,0.98643 -2.24321,0.88678 -2.24322,0.76175 -2.24322,0.61981 -2.24321,0.46736 -2.24322,0.3095 -2.24321,0.15054 -2.24322,-0.006 -2.24322,-0.15702 -2.24321,-0.30016 -2.24322,-0.43337 -2.24321,-0.55505 -2.24322,-0.66392 -2.24322,-0.75905 -2.24321,-0.83978 -2.24322,-0.90569 -2.24322,-0.95661 -2.24321,-0.99254 -2.24322,-1.01365 -2.24321,-1.02029 -2.24322,-1.01289 -2.24322,-0.99204 -2.24321,-0.95843 -2.24322,-0.91278 -2.24321,-0.85596 -2.24322,-0.78886 -2.24322,-0.71242 -2.24321,-0.62765 -2.24322,-0.5356 -2.24321,-0.43733 -2.24322,-0.33395 -2.24322,-0.2266 -2.24321,-0.1164 -2.24322,-0.005 -2.24321,0.10784 -2.24322,0.21955 -2.24322,0.32937 -2.24321,0.43616 -2.24322,0.53871 -2.24322,0.63585 -2.24321,0.7264 -2.24322,0.80922 -2.24321,0.88318 -2.24322,0.94718 -2.24322,1.00011 -2.24321,1.04098 -2.24322,1.06878 -2.24321,1.08258 -2.24322,1.08156 -2.24321,1.0649 -2.24322,1.03197 -2.24322,0.98219 -2.24321,0.91513 -2.24322,0.83054 -2.24322,0.72832 -2.24321,0.60862 -2.24322,0.47179 -2.24321,0.31846 -2.24322,0.14964 -2.24322,-0.0333 -2.24321,-0.22866 -2.24322,-0.4339 -2.24321,-0.64577 -2.24322,-0.85922 -2.24322,-1.06323 -2.24321,-1.19919 -2.24322,0.1491 -2.24322,2.55708 -2.24321,2.4259 -2.24322,2.12035 -2.24321,1.79383 -2.24322,1.46306 -2.24322,1.13424 -2.24321,0.81115 -2.24322,0.49645 -2.24321,0.19216 -2.24322,-0.10014 -2.24322,-0.37931 -2.24321,-0.6445 -2.24322,-0.89512 -2.24321,-1.13078 -2.24322,-1.35132 -2.24322,-1.55665 -2.24321,-1.74684 -2.24322,-1.922 -2.24321,-2.08232 -2.24322,-2.22796 -2.24322,-2.35915 -2.24321,-2.47601 -2.24322,-2.57868 -2.24322,-2.66717 -2.24321,-2.74142 -2.24322,-2.80122 -2.24321,-2.84619 -2.24322,-2.87564 -2.24322,-2.8884 -2.24321,-2.88203 -2.24322,-2.84945 -2.24321,-2.75065 -2.24322,-1.76269 -2.24322,0.97155 -2.24321,1.35246 -2.24322,1.41577 -2.24321,1.43476 -2.24322,1.42958 -2.24322,1.40493 -2.24321,1.3627 -2.24322,1.30384 -2.24321,1.22891 -2.24322,1.13826 -2.24322,1.03203 -2.24321,0.91026 -2.24322,0.7729 -2.24321,0.61981 -2.24322,0.45084 -2.24322,0.26576 -2.24321,0.0644 -2.24322,-0.15341 -2.24322,-0.3878 -2.24321,-0.6388 -2.24322,-0.90635 -2.24321,-1.19024 -2.243219,-1.49008 -2.243216,-1.80525 -2.243216,-2.13492 -2.243216,-2.47786 -2.243217,-2.83253 -2.243216,-3.19681 -2.243216,-3.56792 -2.243216,-3.94177 -2.243216,-4.31067 -2.243216,-4.64645 -2.243216,-4.42016 z" /></g></g><g
       id="g49"><g
         clip-path="url(#clipPath55)"
         id="g51"><path
           id="path57"
           style="fill:none;stroke:#b0b0b0;stroke-width:0.80000001;stroke-linecap:square;stroke-linejoin:round;stroke-miterlimit:10;stroke-dasharray:none;stroke-opacity:1"
           d="M 77.16875,70.465625 V 396.62563" /></g></g><g
       id="g59"><path
         id="path61"
         style="fill:#000000;fill-opacity:1;fill-rule:nonzero;stroke:#000000;stroke-width:0.80000001;stroke-linecap:butt;stroke-linejoin:round;stroke-miterlimit:10;stroke-dasharray:none;stroke-opacity:1"
         d="m 77.16875,70.465625 v -3.5" /><text
         id="text65"
         style="font-variant:normal;font-weight:normal;font-size:22px;font-family:'DejaVu Sans';-inkscape-font-specification:DejaVuSans;writing-mode:lr-tb;fill:#000000;fill-opacity:1;fill-rule:nonzero;stroke:none"
         transform="matrix(1,0,0,-1,60.95,46.746875)"><tspan
           id="tspan63"
           y="0"
           x="0 18.436001">−3</tspan></text>
</g><g
       id="g67"><g
         clip-path="url(#clipPath73)"
         id="g69"><path
           id="path75"
           style="fill:none;stroke:#b0b0b0;stroke-width:0.80000001;stroke-linecap:square;stroke-linejoin:round;stroke-miterlimit:10;stroke-dasharray:none;stroke-opacity:1"
           d="M 151.56875,70.465625 V 396.62563" /></g></g><g
       id="g77"><path
         id="path79"
         style="fill:#000000;fill-opacity:1;fill-rule:nonzero;stroke:#000000;stroke-width:0.80000001;stroke-linecap:butt;stroke-linejoin:round;stroke-miterlimit:10;stroke-dasharray:none;stroke-opacity:1"
         d="m 151.56875,70.465625 v -3.5" /><text
         id="text83"
         style="font-variant:normal;font-weight:normal;font-size:22px;font-family:'DejaVu Sans';-inkscape-font-specification:DejaVuSans;writing-mode:lr-tb;fill:#000000;fill-opacity:1;fill-rule:nonzero;stroke:none"
         transform="matrix(1,0,0,-1,135.35,46.746875)"><tspan
           id="tspan81"
           y="0"
           x="0 18.436001">−2</tspan></text>
</g><g
       id="g85"><g
         clip-path="url(#clipPath91)"
         id="g87"><path
           id="path93"
           style="fill:none;stroke:#b0b0b0;stroke-width:0.80000001;stroke-linecap:square;stroke-linejoin:round;stroke-miterlimit:10;stroke-dasharray:none;stroke-opacity:1"
           d="M 225.96875,70.465625 V 396.62563" /></g></g><g
       id="g95"><path
         id="path97"
         style="fill:#000000;fill-opacity:1;fill-rule:nonzero;stroke:#000000;stroke-width:0.80000001;stroke-linecap:butt;stroke-linejoin:round;stroke-miterlimit:10;stroke-dasharray:none;stroke-opacity:1"
         d="m 225.96875,70.465625 v -3.5" /><text
         id="text101"
         style="font-variant:normal;font-weight:normal;font-size:22px;font-family:'DejaVu Sans';-inkscape-font-specification:DejaVuSans;writing-mode:lr-tb;fill:#000000;fill-opacity:1;fill-rule:nonzero;stroke:none"
         transform="matrix(1,0,0,-1,209.75,46.746875)"><tspan
           id="tspan99"
           y="0"
           x="0 18.436001">−1</tspan></text>
</g><g
       id="g103"><g
         clip-path="url(#clipPath109)"
         id="g105"><path
           id="path111"
           style="fill:none;stroke:#b0b0b0;stroke-width:0.80000001;stroke-linecap:square;stroke-linejoin:round;stroke-miterlimit:10;stroke-dasharray:none;stroke-opacity:1"
           d="M 300.36875,70.465625 V 396.62563" /></g></g><g
       id="g113"><path
         id="path115"
         style="fill:#000000;fill-opacity:1;fill-rule:nonzero;stroke:#000000;stroke-width:0.80000001;stroke-linecap:butt;stroke-linejoin:round;stroke-miterlimit:10;stroke-dasharray:none;stroke-opacity:1"
         d="m 300.36875,70.465625 v -3.5" /><text
         id="text119"
         style="font-variant:normal;font-weight:normal;font-size:22px;font-family:'DejaVu Sans';-inkscape-font-specification:DejaVuSans;writing-mode:lr-tb;fill:#000000;fill-opacity:1;fill-rule:nonzero;stroke:none"
         transform="matrix(1,0,0,-1,293.36875,46.746875)"><tspan
           id="tspan117"
           y="0"
           x="0">0</tspan></text>
</g><g
       id="g121"><g
         clip-path="url(#clipPath127)"
         id="g123"><path
           id="path129"
           style="fill:none;stroke:#b0b0b0;stroke-width:0.80000001;stroke-linecap:square;stroke-linejoin:round;stroke-miterlimit:10;stroke-dasharray:none;stroke-opacity:1"
           d="M 374.76875,70.465625 V 396.62563" /></g></g><g
       id="g131"><path
         id="path133"
         style="fill:#000000;fill-opacity:1;fill-rule:nonzero;stroke:#000000;stroke-width:0.80000001;stroke-linecap:butt;stroke-linejoin:round;stroke-miterlimit:10;stroke-dasharray:none;stroke-opacity:1"
         d="m 374.76875,70.465625 v -3.5" /><text
         id="text137"
         style="font-variant:normal;font-weight:normal;font-size:22px;font-family:'DejaVu Sans';-inkscape-font-specification:DejaVuSans;writing-mode:lr-tb;fill:#000000;fill-opacity:1;fill-rule:nonzero;stroke:none"
         transform="matrix(1,0,0,-1,367.76875,46.746875)"><tspan
           id="tspan135"
           y="0"
           x="0">1</tspan></text>
</g><g
       id="g139"><g
         clip-path="url(#clipPath145)"
         id="g141"><path
           id="path147"
           style="fill:none;stroke:#b0b0b0;stroke-width:0.80000001;stroke-linecap:square;stroke-linejoin:round;stroke-miterlimit:10;stroke-dasharray:none;stroke-opacity:1"
           d="M 449.16875,70.465625 V 396.62563" /></g></g><g
       id="g149"><path
         id="path151"
         style="fill:#000000;fill-opacity:1;fill-rule:nonzero;stroke:#000000;stroke-width:0.80000001;stroke-linecap:butt;stroke-linejoin:round;stroke-miterlimit:10;stroke-dasharray:none;stroke-opacity:1"
         d="m 449.16875,70.465625 v -3.5" /><text
         id="text155"
         style="font-variant:normal;font-weight:normal;font-size:22px;font-family:'DejaVu Sans';-inkscape-font-specification:DejaVuSans;writing-mode:lr-tb;fill:#000000;fill-opacity:1;fill-rule:nonzero;stroke:none"
         transform="matrix(1,0,0,-1,442.16875,46.746875)"><tspan
           id="tspan153"
           y="0"
           x="0">2</tspan></text>
</g><g
       id="g157"><g
         clip-path="url(#clipPath163)"
         id="g159"><path
           id="path165"
           style="fill:none;stroke:#b0b0b0;stroke-width:0.80000001;stroke-linecap:square;stroke-linejoin:round;stroke-miterlimit:10;stroke-dasharray:none;stroke-opacity:1"
           d="M 523.56875,70.465625 V 396.62563" /></g></g><g
       id="g167"><path
         id="path169"
         style="fill:#000000;fill-opacity:1;fill-rule:nonzero;stroke:#000000;stroke-width:0.80000001;stroke-linecap:butt;stroke-linejoin:round;stroke-miterlimit:10;stroke-dasharray:none;stroke-opacity:1"
         d="m 523.56875,70.465625 v -3.5" /><text
         id="text173"
         style="font-variant:normal;font-weight:normal;font-size:22px;font-family:'DejaVu Sans';-inkscape-font-specification:DejaVuSans;writing-mode:lr-tb;fill:#000000;fill-opacity:1;fill-rule:nonzero;stroke:none"
         transform="matrix(1,0,0,-1,516.56875,46.746875)"><tspan
           id="tspan171"
           y="0"
           x="0">3</tspan></text>
<g
         transform="translate(290.86875,13.85625)"
         id="g175"><text
           id="text179"
           style="font-style:italic;font-variant:normal;font-size:32px;font-family:'DejaVu Sans';-inkscape-font-specification:DejaVuSans-Oblique;writing-mode:lr-tb;fill:#000000;fill-opacity:1;fill-rule:nonzero;stroke:none"
           transform="matrix(1,0,0,-1,0,0.5)"><tspan
             id="tspan177"
             y="0"
             x="0">x</tspan></text>
</g></g><g
       id="g181"><g
         clip-path="url(#clipPath187)"
         id="g183"><path
           id="path189"
           style="fill:none;stroke:#b0b0b0;stroke-width:0.80000001;stroke-linecap:square;stroke-linejoin:round;stroke-miterlimit:10;stroke-dasharray:none;stroke-opacity:1"
           d="m 77.16875,126.00104 h 446.4" /></g></g><g
       id="g191"><path
         id="path193"
         style="fill:#000000;fill-opacity:1;fill-rule:nonzero;stroke:#000000;stroke-width:0.80000001;stroke-linecap:butt;stroke-linejoin:round;stroke-miterlimit:10;stroke-dasharray:none;stroke-opacity:1"
         d="m 77.16875,126.00104 h -3.5" /><text
         id="text197"
         style="font-variant:normal;font-weight:normal;font-size:22px;font-family:'DejaVu Sans';-inkscape-font-specification:DejaVuSans;writing-mode:lr-tb;fill:#000000;fill-opacity:1;fill-rule:nonzero;stroke:none"
         transform="matrix(1,0,0,-1,56.16875,117.64166)"><tspan
           id="tspan195"
           y="0"
           x="0">4</tspan></text>
</g><g
       id="g199"><g
         clip-path="url(#clipPath205)"
         id="g201"><path
           id="path207"
           style="fill:none;stroke:#b0b0b0;stroke-width:0.80000001;stroke-linecap:square;stroke-linejoin:round;stroke-miterlimit:10;stroke-dasharray:none;stroke-opacity:1"
           d="m 77.16875,199.08769 h 446.4" /></g></g><g
       id="g209"><path
         id="path211"
         style="fill:#000000;fill-opacity:1;fill-rule:nonzero;stroke:#000000;stroke-width:0.80000001;stroke-linecap:butt;stroke-linejoin:round;stroke-miterlimit:10;stroke-dasharray:none;stroke-opacity:1"
         d="m 77.16875,199.08769 h -3.5" /><text
         id="text215"
         style="font-variant:normal;font-weight:normal;font-size:22px;font-family:'DejaVu Sans';-inkscape-font-specification:DejaVuSans;writing-mode:lr-tb;fill:#000000;fill-opacity:1;fill-rule:nonzero;stroke:none"
         transform="matrix(1,0,0,-1,56.16875,190.72831)"><tspan
           id="tspan213"
           y="0"
           x="0">6</tspan></text>
</g><g
       id="g217"><g
         clip-path="url(#clipPath223)"
         id="g219"><path
           id="path225"
           style="fill:none;stroke:#b0b0b0;stroke-width:0.80000001;stroke-linecap:square;stroke-linejoin:round;stroke-miterlimit:10;stroke-dasharray:none;stroke-opacity:1"
           d="m 77.16875,272.17434 h 446.4" /></g></g><g
       id="g227"><path
         id="path229"
         style="fill:#000000;fill-opacity:1;fill-rule:nonzero;stroke:#000000;stroke-width:0.80000001;stroke-linecap:butt;stroke-linejoin:round;stroke-miterlimit:10;stroke-dasharray:none;stroke-opacity:1"
         d="m 77.16875,272.17434 h -3.5" /><text
         id="text233"
         style="font-variant:normal;font-weight:normal;font-size:22px;font-family:'DejaVu Sans';-inkscape-font-specification:DejaVuSans;writing-mode:lr-tb;fill:#000000;fill-opacity:1;fill-rule:nonzero;stroke:none"
         transform="matrix(1,0,0,-1,56.16875,263.81497)"><tspan
           id="tspan231"
           y="0"
           x="0">8</tspan></text>
</g><g
       id="g235"><g
         clip-path="url(#clipPath241)"
         id="g237"><path
           id="path243"
           style="fill:none;stroke:#b0b0b0;stroke-width:0.80000001;stroke-linecap:square;stroke-linejoin:round;stroke-miterlimit:10;stroke-dasharray:none;stroke-opacity:1"
           d="m 77.16875,345.261 h 446.4" /></g></g><g
       id="g245"><path
         id="path247"
         style="fill:#000000;fill-opacity:1;fill-rule:nonzero;stroke:#000000;stroke-width:0.80000001;stroke-linecap:butt;stroke-linejoin:round;stroke-miterlimit:10;stroke-dasharray:none;stroke-opacity:1"
         d="m 77.16875,345.261 h -3.5" /><text
         id="text251"
         style="font-variant:normal;font-weight:normal;font-size:22px;font-family:'DejaVu Sans';-inkscape-font-specification:DejaVuSans;writing-mode:lr-tb;fill:#000000;fill-opacity:1;fill-rule:nonzero;stroke:none"
         transform="matrix(1,0,0,-1,42.16875,336.90162)"><tspan
           id="tspan249"
           y="0"
           x="0 13.992">10</tspan></text>
<g
         transform="rotate(90,-96.438437,127.60719)"
         id="g253"><text
           id="text257"
           style="font-style:italic;font-variant:normal;font-size:32px;font-family:'DejaVu Sans';-inkscape-font-specification:DejaVuSans-Oblique;writing-mode:lr-tb;fill:#000000;fill-opacity:1;fill-rule:nonzero;stroke:none"
           transform="matrix(1,0,0,-1,0,0.5)"><tspan
             id="tspan255"
             y="0"
             x="0">y</tspan></text>
</g></g><g
       id="g259"><g
         clip-path="url(#clipPath265)"
         id="g261"><path
           id="path267"
           style="fill:none;stroke:#008000;stroke-width:4;stroke-linecap:square;stroke-linejoin:round;stroke-miterlimit:10;stroke-dasharray:none;stroke-opacity:1"
           d="m 77.16875,309.08338 6.729648,0.61372 6.729648,0.90449 6.729649,1.18787 6.729645,1.46153 6.72965,1.72325 6.72965,1.97087 6.72965,2.20239 6.72965,2.41589 6.72964,2.60964 8.97287,3.74383 8.97286,3.9958 11.21608,5.26036 17.94573,8.74691 17.94573,8.70875 11.21608,5.19857 8.97286,3.92638 8.97287,3.65774 6.72965,2.53486 6.72965,2.33303 6.72964,2.11214 6.72965,1.87396 6.72965,1.62047 6.72965,1.35373 6.72965,1.07591 6.72964,0.78932 6.72965,0.49625 6.72965,0.19913 6.72965,-0.0996 6.72965,-0.39755 6.72965,-0.69222 6.72964,-0.98124 6.72965,-1.26225 6.72965,-1.53292 6.72965,-1.79107 6.72965,-2.03457 6.72965,-2.26143 6.72964,-2.46981 8.97287,-3.5821 8.97286,-3.86443 8.97287,-4.09062 11.21608,-5.34059 40.37789,-19.4871 8.97286,-3.9958 8.97287,-3.74383 6.72964,-2.60964 6.72965,-2.41589 6.72965,-2.20239 6.72965,-1.97087 6.72965,-1.72325 6.72965,-1.46153 6.72964,-1.18787 6.72965,-0.90449 6.72965,-0.61372 v 0" /></g></g><g
       id="g269"><g
         clip-path="url(#clipPath275)"
         id="g271"><path
           id="path277"
           style="fill:none;stroke:#0000ff;stroke-width:4;stroke-linecap:square;stroke-linejoin:round;stroke-miterlimit:10;stroke-dasharray:none;stroke-opacity:1"
           d="m 77.16875,309.05521 2.243216,2.76924 2.243216,2.47643 2.243216,2.19135 2.243216,1.91748 2.243216,1.65758 2.243216,1.41379 2.243217,1.18776 2.243216,0.98059 2.243216,0.79304 2.243216,0.62546 2.243219,0.47796 4.48643,0.59246 4.48643,0.23442 6.72965,-0.0154 8.97286,-0.0945 4.48644,0.12524 4.48643,0.32647 4.48643,0.57017 4.48643,0.84114 4.48643,1.12744 4.48644,1.42157 4.48643,1.72123 4.48643,2.02466 4.48643,2.32518 4.48643,2.61134 4.48644,2.86824 6.72965,4.67677 13.45929,9.71094 4.48643,2.93933 4.48644,2.5655 2.24321,1.09624 2.24322,0.94693 2.24321,0.77926 2.24322,0.59392 2.24322,0.39199 2.24321,0.1751 2.24322,-0.0547 2.24321,-0.29456 2.24322,-0.54108 2.24322,-0.79 2.24321,-1.03632 2.24322,-1.27523 2.24322,-1.50271 2.24321,-1.7155 2.24322,-1.91102 2.24321,-2.08726 4.48644,-4.61906 4.48643,-5.06306 8.97286,-10.72934 6.72965,-7.88641 4.48643,-4.88366 4.48643,-4.42476 2.24322,-2.00316 2.24322,-1.84627 2.24321,-1.67783 2.24322,-1.4991 2.24321,-1.31134 2.24322,-1.11579 2.24322,-0.91372 2.24321,-0.70639 2.24322,-0.49506 2.24322,-0.28102 2.24321,-0.0655 2.24322,0.15017 2.24321,0.36479 2.24322,0.57704 2.24322,0.78568 2.24321,0.98942 2.24322,1.187 2.24321,1.37714 2.24322,1.55858 2.24322,1.73005 2.24321,1.89027 4.48643,4.21011 4.48644,4.68534 4.48643,5.02708 13.4593,15.54569 4.48643,4.74441 2.24321,2.18499 2.24322,2.02929 2.24322,1.85138 2.24321,1.65242 2.24322,1.43414 2.24321,1.19874 2.24322,0.94904 2.24322,0.68863 2.24321,0.42182 2.24322,0.15391 2.24321,-0.10881 2.24322,-0.35883 2.24322,-0.58733 2.24321,-0.78404 4.48643,-1.98535 11.21609,-5.4473 4.48643,-1.82766 4.48643,-1.52222 4.48643,-1.25535 13.4593,-3.38435 2.24321,-0.74056 2.24322,-0.86063 2.24322,-1.00845 2.24321,-1.18382 2.24322,-1.38604 2.24321,-1.61383 2.24322,-1.86523 2.24322,-2.13762 2.24321,-2.42751 2.24322,-2.73055 2.24321,-3.04141 2.24322,-3.35432 2.24322,-3.66415 2.24321,-3.96668 2.24322,-4.25846 2.24322,-4.53671 4.48643,-9.84374 4.48643,-10.74944 4.48643,-11.49863 4.48643,-12.08755 6.72965,-18.89435 22.43216,-64.18389 6.72965,-18.28353 6.72965,-17.41662 v 0" /></g></g><g
       id="g279"><g
         clip-path="url(#clipPath285)"
         id="g281"><g
           transform="translate(77.16875,309.08338)"
           id="g287"><g
             id="g289"><g
               clip-path="url(#clipPath295)"
               id="g291"><path
                 id="path297"
                 style="fill:#ff0000;fill-opacity:1;fill-rule:nonzero;stroke:#ff0000;stroke-width:4;stroke-linecap:butt;stroke-linejoin:round;stroke-miterlimit:10;stroke-dasharray:none;stroke-opacity:1"
                 d="M -5,-5 5,5 M -5,5 5,-5" /></g></g><g
             transform="translate(74.4,20.97023)"
             id="g299"><g
               id="g301"><g
                 clip-path="url(#clipPath307)"
                 id="g303"><path
                   id="path309"
                   style="fill:#ff0000;fill-opacity:1;fill-rule:nonzero;stroke:#ff0000;stroke-width:4;stroke-linecap:butt;stroke-linejoin:round;stroke-miterlimit:10;stroke-dasharray:none;stroke-opacity:1"
                   d="M -5,-5 5,5 M -5,5 5,-5" /></g></g><g
               transform="translate(74.4,34.951834)"
               id="g311"><g
                 id="g313"><g
                   clip-path="url(#clipPath319)"
                   id="g315"><path
                     id="path321"
                     style="fill:#ff0000;fill-opacity:1;fill-rule:nonzero;stroke:#ff0000;stroke-width:4;stroke-linecap:butt;stroke-linejoin:round;stroke-miterlimit:10;stroke-dasharray:none;stroke-opacity:1"
                     d="M -5,-5 5,5 M -5,5 5,-5" /></g></g><g
                 transform="translate(223.2,-34.951834)"
                 id="g323"><g
                   id="g325"><g
                     clip-path="url(#clipPath331)"
                     id="g327"><path
                       id="path333"
                       style="fill:#ff0000;fill-opacity:1;fill-rule:nonzero;stroke:#ff0000;stroke-width:4;stroke-linecap:butt;stroke-linejoin:round;stroke-miterlimit:10;stroke-dasharray:none;stroke-opacity:1"
                       d="M -5,-5 5,5 M -5,5 5,-5" /></g></g><g
                   transform="translate(-59.52,28.449148)"
                   id="g335"><g
                     id="g337"><g
                       clip-path="url(#clipPath343)"
                       id="g339"><path
                         id="path345"
                         style="fill:#ff0000;fill-opacity:1;fill-rule:nonzero;stroke:#ff0000;stroke-width:4;stroke-linecap:butt;stroke-linejoin:round;stroke-miterlimit:10;stroke-dasharray:none;stroke-opacity:1"
                         d="M -5,-5 5,5 M -5,5 5,-5" /></g></g><g
                     transform="translate(-7.44,3.3341535)"
                     id="g347"><g
                       id="g349"><g
                         clip-path="url(#clipPath355)"
                         id="g351"><path
                           id="path357"
                           style="fill:#ff0000;fill-opacity:1;fill-rule:nonzero;stroke:#ff0000;stroke-width:4;stroke-linecap:butt;stroke-linejoin:round;stroke-miterlimit:10;stroke-dasharray:none;stroke-opacity:1"
                           d="M -5,-5 5,5 M -5,5 5,-5" /></g></g></g></g></g></g></g></g></g></g><g
       id="g359"><path
         id="path361"
         style="fill:none;stroke:#000000;stroke-width:0.80000001;stroke-linecap:square;stroke-linejoin:miter;stroke-miterlimit:10;stroke-dasharray:none;stroke-opacity:1"
         d="M 77.16875,70.465625 V 396.62563" /><path
         id="path363"
         style="fill:none;stroke:#000000;stroke-width:0.80000001;stroke-linecap:square;stroke-linejoin:miter;stroke-miterlimit:10;stroke-dasharray:none;stroke-opacity:1"
         d="M 523.56875,70.465625 V 396.62563" /><path
         id="path365"
         style="fill:none;stroke:#000000;stroke-width:0.80000001;stroke-linecap:square;stroke-linejoin:miter;stroke-miterlimit:10;stroke-dasharray:none;stroke-opacity:1"
         d="m 77.16875,70.465625 h 446.4" /><path
         id="path367"
         style="fill:none;stroke:#000000;stroke-width:0.80000001;stroke-linecap:square;stroke-linejoin:miter;stroke-miterlimit:10;stroke-dasharray:none;stroke-opacity:1"
         d="m 77.16875,396.62563 h 446.4" /></g></g></svg>