<?xml version="1.0" encoding="UTF-8" standalone="no"?>
<svg
   xmlns:dc="http://purl.org/dc/elements/1.1/"
   xmlns:cc="http://creativecommons.org/ns#"
   xmlns:rdf="http://www.w3.org/1999/02/22-rdf-syntax-ns#"
   xmlns:svg="http://www.w3.org/2000/svg"
   xmlns="http://www.w3.org/2000/svg"
   viewBox="0 0 722.94165 538.43414"
   height="538.43414"
   width="722.94165"
   xml:space="preserve"
   id="svg29"
   version="1.1"><metadata
     id="metadata35"><rdf:RDF><cc:Work
         rdf:about=""><dc:format>image/svg+xml</dc:format><dc:type
           rdf:resource="http://purl.org/dc/dcmitype/StillImage" /><dc:title></dc:title></cc:Work></rdf:RDF></metadata><defs
     id="defs33"><clipPath
       id="clipPath45"
       clipPathUnits="userSpaceOnUse"><path
         id="path43"
         d="m 81.60625,70.465625 h 446.4 V 396.62563 h -446.4 z" /></clipPath><clipPath
       id="clipPath55"
       clipPathUnits="userSpaceOnUse"><path
         id="path53"
         d="m 81.60625,70.465625 h 446.4 V 396.62563 h -446.4 z" /></clipPath><clipPath
       id="clipPath73"
       clipPathUnits="userSpaceOnUse"><path
         id="path71"
         d="m 81.60625,70.465625 h 446.4 V 396.62563 h -446.4 z" /></clipPath><clipPath
       id="clipPath91"
       clipPathUnits="userSpaceOnUse"><path
         id="path89"
         d="m 81.60625,70.465625 h 446.4 V 396.62563 h -446.4 z" /></clipPath><clipPath
       id="clipPath109"
       clipPathUnits="userSpaceOnUse"><path
         id="path107"
         d="m 81.60625,70.465625 h 446.4 V 396.62563 h -446.4 z" /></clipPath><clipPath
       id="clipPath127"
       clipPathUnits="userSpaceOnUse"><path
         id="path125"
         d="m 81.60625,70.465625 h 446.4 V 396.62563 h -446.4 z" /></clipPath><clipPath
       id="clipPath151"
       clipPathUnits="userSpaceOnUse"><path
         id="path149"
         d="m 81.60625,70.465625 h 446.4 V 396.62563 h -446.4 z" /></clipPath><clipPath
       id="clipPath169"
       clipPathUnits="userSpaceOnUse"><path
         id="path167"
         d="m 81.60625,70.465625 h 446.4 V 396.62563 h -446.4 z" /></clipPath><clipPath
       id="clipPath187"
       clipPathUnits="userSpaceOnUse"><path
         id="path185"
         d="m 81.60625,70.465625 h 446.4 V 396.62563 h -446.4 z" /></clipPath><clipPath
       id="clipPath205"
       clipPathUnits="userSpaceOnUse"><path
         id="path203"
         d="m 81.60625,70.465625 h 446.4 V 396.62563 h -446.4 z" /></clipPath><clipPath
       id="clipPath229"
       clipPathUnits="userSpaceOnUse"><path
         id="path227"
         d="m 81.60625,70.465625 h 446.4 V 396.62563 h -446.4 z" /></clipPath><clipPath
       id="clipPath239"
       clipPathUnits="userSpaceOnUse"><path
         id="path237"
         d="m 81.60625,70.465625 h 446.4 V 396.62563 h -446.4 z" /></clipPath><clipPath
       id="clipPath249"
       clipPathUnits="userSpaceOnUse"><path
         id="path247"
         d="m 81.60625,70.465625 h 446.4 V 396.62563 h -446.4 z" /></clipPath><clipPath
       id="clipPath259"
       clipPathUnits="userSpaceOnUse"><path
         id="path257"
         d="M -7,-7 H 7 V 7 H -7 Z" /></clipPath><clipPath
       id="clipPath271"
       clipPathUnits="userSpaceOnUse"><path
         id="path269"
         d="M -7,-7 H 7 V 7 H -7 Z" /></clipPath><clipPath
       id="clipPath283"
       clipPathUnits="userSpaceOnUse"><path
         id="path281"
         d="M -7,-7 H 7 V 7 H -7 Z" /></clipPath></defs><g
     transform="matrix(1.3333333,0,0,-1.3333333,0,538.43417)"
     id="g37"><g
       id="g39"><g
         clip-path="url(#clipPath45)"
         id="g41"><path
           id="path47"
           style="fill:#0000ff;fill-opacity:0.3;fill-rule:nonzero;stroke:#0000ff;stroke-width:1;stroke-linecap:butt;stroke-linejoin:round;stroke-miterlimit:10;stroke-dasharray:none;stroke-opacity:0.3"
           d="m 81.60625,304.03787 v -1.46252 l 2.243216,-3.99428 2.243216,-4.28193 2.243216,-3.87844 2.243216,-3.40601 2.243216,-2.88668 2.243216,-2.33157 2.243217,-1.7494 2.243216,-1.14765 2.243221,-0.53299 2.24321,0.0885 2.24322,0.7109 2.24321,1.32872 2.24322,1.93624 2.24322,2.52762 2.24321,3.09661 2.24322,3.63644 2.24321,4.13958 2.24322,4.59759 2.24322,5.00075 2.24321,5.33696 2.24322,5.58472 2.24321,5.43995 2.24322,-0.94488 2.24322,-1.99113 2.24321,-1.79032 2.24322,-1.50192 2.24321,-1.15509 2.24322,-0.76397 2.24322,-0.33998 2.24321,0.1066 2.24322,0.56635 2.24321,1.03041 2.24322,1.49039 2.24322,1.93831 2.24321,2.36642 2.24322,2.76719 2.24321,3.13322 2.24322,3.45723 2.24322,3.732 2.24321,3.95041 2.24322,4.10536 2.24322,4.18915 2.24321,4.18898 2.24322,3.95468 2.24321,-2.95277 2.24322,-5.47529 2.24322,-5.82646 2.24321,-6.07755 2.24322,-6.25422 2.24321,-6.36561 2.24322,-6.41915 2.24322,-6.42183 2.24321,-6.38039 2.24322,-6.30119 2.24321,-6.19021 2.24322,-6.05298 2.24322,-5.89452 2.24321,-5.7194 2.24322,-5.53167 2.24321,-5.33494 2.24322,-5.13234 2.24322,-4.92658 2.24321,-4.72002 2.24322,-4.51459 2.24321,-4.31196 2.24322,-4.11348 2.24322,-3.92022 2.24321,-3.73304 2.24322,-3.55262 2.24322,-3.3794 2.24321,-3.21372 2.24322,-3.05578 2.24321,-2.90567 2.24322,-2.76336 2.24322,-2.62877 2.24321,-2.50179 2.24322,-2.38219 2.24321,-2.26974 2.24322,-2.16421 2.24322,-2.06529 2.24321,-1.97269 2.24322,-1.88613 2.24321,-1.80528 2.24322,-1.72984 2.24322,-1.65952 2.24321,-1.59401 2.24322,-1.53304 2.24322,-1.47632 2.24321,-1.42359 2.24322,-1.3746 2.24321,-1.32911 2.24322,-1.28687 2.24321,-1.24769 2.24322,-1.21135 2.24322,-1.17766 2.24321,-1.14643 2.24322,-1.1175 2.24322,-1.09071 2.24321,-1.0659 2.24322,-1.04294 2.24321,-1.0217 2.24322,-1.00204 2.24322,-0.98387 2.24321,-0.96707 2.24322,-0.95153 2.24321,-0.93719 2.24322,-0.92393 2.24322,-0.9117 2.24321,-0.9004 2.24322,-0.88996 2.24321,-0.88035 2.24322,-0.87147 2.24322,-0.86328 2.24321,-0.85574 2.24322,-0.84879 2.24321,-0.84237 2.24322,-0.83648 2.24322,-0.83104 2.24321,-0.82605 2.24322,-0.82143 2.24322,-0.8172 2.24321,-0.81331 2.24322,-0.80972 2.24321,-0.80643 2.24322,-0.8034 2.24322,-0.80062 2.24321,-0.79806 2.24322,-0.79572 2.24321,-0.79356 2.24322,-0.79159 2.24322,-0.78978 2.24321,-0.78811 2.24322,-0.78658 2.24321,-0.78519 2.24322,-0.7839 2.24322,-0.78273 2.24321,-0.78166 2.24322,-0.78066 2.24321,-0.77976 2.24322,-0.77894 2.24322,-0.77818 2.24321,-0.77748 2.24322,-0.77685 2.24322,-0.77628 2.24321,-0.77574 2.24322,-0.77526 2.24321,-0.77481 2.24322,-0.77441 2.24322,-0.77404 2.24321,-0.7737 2.24322,-0.77339 2.24321,-0.77311 2.24322,-0.77285 2.24322,-0.77262 2.24321,-0.7724 2.24322,-0.77221 2.24321,-0.77202 2.24322,-0.77187 2.24322,-0.77171 2.24321,-0.77158 2.24322,-0.77146 2.24321,-0.77134 2.24322,-0.77125 2.24322,-0.77114 2.24321,-0.77107 2.24322,-0.77098 2.24321,-0.77091 2.24322,-0.77085 2.24322,-0.77079 2.24321,-0.77074 2.24322,-0.77069 2.24322,-0.77064 2.24321,-0.7706 2.24322,-0.77057 2.24321,-0.77053 2.24322,-0.77051 2.24322,-0.77047 2.24321,-0.77045 2.24322,-0.77043 2.24321,-0.770404 2.24322,-0.770387 2.24322,-0.770371 2.24321,-0.770354 2.24322,-0.77034 2.24321,-0.770327 2.24322,-0.770316 2.24322,-0.770305 2.24321,-0.770295 2.24322,-0.770286 2.24321,-0.770279 2.24322,-0.770271 2.24322,-0.770264 2.24321,-0.770259 2.24322,-0.770253 2.24322,-0.770248 2.24321,-0.770243 2.24322,-0.77024 2.24321,-0.770236 2.24322,-0.770232 v 162.86707 0 l -2.24322,0.77023 -2.24321,0.77024 -2.24322,0.77024 -2.24321,0.77024 -2.24322,0.77025 -2.24322,0.77025 -2.24321,0.77026 -2.24322,0.77027 -2.24322,0.77027 -2.24321,0.77027 -2.24322,0.77029 -2.24321,0.7703 -2.24322,0.7703 -2.24322,0.77032 -2.24321,0.77032 -2.24322,0.77034 -2.24321,0.77036 -2.24322,0.77037 -2.24322,0.77039 -2.24321,0.7704 -2.24322,0.77043 -2.24321,0.77045 -2.24322,0.77047 -2.24322,0.77051 -2.24321,0.77053 -2.24322,0.77057 -2.24321,0.7706 -2.24322,0.77064 -2.24322,0.77069 -2.24321,0.77074 -2.24322,0.77079 -2.24322,0.77085 -2.24321,0.77091 -2.24322,0.77098 -2.24321,0.77107 -2.24322,0.77114 -2.24322,0.77124 -2.24321,0.77135 -2.24322,0.77145 -2.24321,0.77158 -2.24322,0.77172 -2.24322,0.77186 -2.24321,0.77203 -2.24322,0.7722 -2.24321,0.7724 -2.24322,0.77262 -2.24322,0.77285 -2.24321,0.7731 -2.24322,0.77339 -2.24321,0.7737 -2.24322,0.77403 -2.24322,0.7744 -2.24321,0.77481 -2.24322,0.77524 -2.24321,0.77573 -2.24322,0.77626 -2.24322,0.77684 -2.24321,0.77746 -2.24322,0.77816 -2.24322,0.7789 -2.24321,0.77973 -2.24322,0.78062 -2.24321,0.7816 -2.24322,0.78267 -2.24322,0.78383 -2.24321,0.7851 -2.24322,0.78648 -2.24321,0.78799 -2.24322,0.78963 -2.24322,0.79141 -2.24321,0.79335 -2.24322,0.79546 -2.24321,0.79776 -2.24322,0.80026 -2.24322,0.80297 -2.24321,0.80591 -2.24322,0.80911 -2.24321,0.81257 -2.24322,0.81634 -2.24322,0.8204 -2.24321,0.82481 -2.24322,0.82959 -2.24322,0.83474 -2.24321,0.84033 -2.24322,0.84635 -2.24321,0.85285 -2.24322,0.85987 -2.24322,0.86742 -2.24321,0.87557 -2.24322,0.88431 -2.24321,0.89373 -2.24322,0.90383 -2.24322,0.91465 -2.24321,0.92627 -2.24322,0.93867 -2.24321,0.95195 -2.24322,0.9661 -2.24322,0.98119 -2.24321,0.99723 -2.24322,1.01429 -2.24321,1.03236 -2.24322,1.05148 -2.24322,1.07169 -2.24321,1.09297 -2.24322,1.11535 -2.24322,1.1388 -2.24321,1.16333 -2.24322,1.18888 -2.24321,1.21543 -2.24322,1.2429 -2.24321,1.2712 -2.24322,1.30023 -2.24322,1.32985 -2.24321,1.35987 -2.24322,1.39013 -2.24322,1.42035 -2.24321,1.45028 -2.24322,1.47958 -2.24321,1.50787 -2.24322,1.53473 -2.24322,1.55969 -2.24321,1.58219 -2.24322,1.60161 -2.24321,1.61729 -2.24322,1.62847 -2.24322,1.63436 -2.24321,1.63403 -2.24322,1.62653 -2.24321,1.61082 -2.24322,1.58579 -2.24322,1.55028 -2.24321,1.50303 -2.24322,1.44279 -2.24322,1.36823 -2.24321,1.27804 -2.24322,1.17086 -2.24321,1.04543 -2.24322,0.9005 -2.24322,0.73496 -2.24321,0.54783 -2.24322,0.33838 -2.24321,0.10609 -2.24322,-0.14911 -2.24322,-0.4269 -2.24321,-0.72635 -2.24322,-1.04587 -2.24321,-1.38302 -2.24322,-1.7343 -2.24322,-2.09507 -2.24321,-2.45917 -2.24322,-2.81869 -2.24321,-3.16332 -2.24322,-3.4785 -2.24322,-3.72999 -2.24321,-1.83383 -2.24322,4.44091 -2.24321,4.05528 -2.24322,3.46366 -2.24322,2.82699 -2.24321,2.16532 -2.24322,1.49069 -2.24322,0.81233 -2.24321,0.13777 -2.24322,-0.52663 -2.24321,-1.17542 -2.24322,-1.80368 -2.24322,-2.40679 -2.24321,-2.98023 -2.24322,-3.5193 -2.24321,-4.01901 -2.24322,-4.47382 -2.24322,-4.87752 -2.24321,-5.22296 -2.24322,-5.50171 -2.24321,-5.70248 -2.24322,-5.79893 -2.24322,-4.63429 -2.24321,1.88023 -2.24322,2.16341 -2.24321,2.06069 -2.24322,1.8746 -2.24322,1.62562 -2.24321,1.32521 -2.24322,0.98286 -2.24321,0.60707 -2.24322,0.2057 -2.24322,-0.21391 -2.24321,-0.6448 -2.24322,-1.08024 -2.24321,-1.51371 -2.243221,-1.93866 -2.243216,-2.34846 -2.243217,-2.73638 -2.243216,-3.09531 -2.243216,-3.41775 -2.243216,-3.69556 -2.243216,-3.91877 -2.243216,-4.06748 -2.243216,-3.52272 z" /></g></g><g
       id="g49"><g
         clip-path="url(#clipPath55)"
         id="g51"><path
           id="path57"
           style="fill:none;stroke:#b0b0b0;stroke-width:0.80000001;stroke-linecap:square;stroke-linejoin:round;stroke-miterlimit:10;stroke-dasharray:none;stroke-opacity:1"
           d="M 131.20625,70.465625 V 396.62563" /></g></g><g
       id="g59"><path
         id="path61"
         style="fill:#000000;fill-opacity:1;fill-rule:nonzero;stroke:#000000;stroke-width:0.80000001;stroke-linecap:butt;stroke-linejoin:round;stroke-miterlimit:10;stroke-dasharray:none;stroke-opacity:1"
         d="m 131.20625,70.465625 v -3.5" /><text
         id="text65"
         style="font-variant:normal;font-weight:normal;font-size:22px;font-family:'DejaVu Sans';-inkscape-font-specification:DejaVuSans;writing-mode:lr-tb;fill:#000000;fill-opacity:1;fill-rule:nonzero;stroke:none"
         transform="matrix(1,0,0,-1,114.9875,46.746875)"><tspan
           id="tspan63"
           y="0"
           x="0 18.436001">−2</tspan></text>
</g><g
       id="g67"><g
         clip-path="url(#clipPath73)"
         id="g69"><path
           id="path75"
           style="fill:none;stroke:#b0b0b0;stroke-width:0.80000001;stroke-linecap:square;stroke-linejoin:round;stroke-miterlimit:10;stroke-dasharray:none;stroke-opacity:1"
           d="M 230.40625,70.465625 V 396.62563" /></g></g><g
       id="g77"><path
         id="path79"
         style="fill:#000000;fill-opacity:1;fill-rule:nonzero;stroke:#000000;stroke-width:0.80000001;stroke-linecap:butt;stroke-linejoin:round;stroke-miterlimit:10;stroke-dasharray:none;stroke-opacity:1"
         d="m 230.40625,70.465625 v -3.5" /><text
         id="text83"
         style="font-variant:normal;font-weight:normal;font-size:22px;font-family:'DejaVu Sans';-inkscape-font-specification:DejaVuSans;writing-mode:lr-tb;fill:#000000;fill-opacity:1;fill-rule:nonzero;stroke:none"
         transform="matrix(1,0,0,-1,223.40625,46.746875)"><tspan
           id="tspan81"
           y="0"
           x="0">0</tspan></text>
</g><g
       id="g85"><g
         clip-path="url(#clipPath91)"
         id="g87"><path
           id="path93"
           style="fill:none;stroke:#b0b0b0;stroke-width:0.80000001;stroke-linecap:square;stroke-linejoin:round;stroke-miterlimit:10;stroke-dasharray:none;stroke-opacity:1"
           d="M 329.60625,70.465625 V 396.62563" /></g></g><g
       id="g95"><path
         id="path97"
         style="fill:#000000;fill-opacity:1;fill-rule:nonzero;stroke:#000000;stroke-width:0.80000001;stroke-linecap:butt;stroke-linejoin:round;stroke-miterlimit:10;stroke-dasharray:none;stroke-opacity:1"
         d="m 329.60625,70.465625 v -3.5" /><text
         id="text101"
         style="font-variant:normal;font-weight:normal;font-size:22px;font-family:'DejaVu Sans';-inkscape-font-specification:DejaVuSans;writing-mode:lr-tb;fill:#000000;fill-opacity:1;fill-rule:nonzero;stroke:none"
         transform="matrix(1,0,0,-1,322.60625,46.746875)"><tspan
           id="tspan99"
           y="0"
           x="0">2</tspan></text>
</g><g
       id="g103"><g
         clip-path="url(#clipPath109)"
         id="g105"><path
           id="path111"
           style="fill:none;stroke:#b0b0b0;stroke-width:0.80000001;stroke-linecap:square;stroke-linejoin:round;stroke-miterlimit:10;stroke-dasharray:none;stroke-opacity:1"
           d="M 428.80625,70.465625 V 396.62563" /></g></g><g
       id="g113"><path
         id="path115"
         style="fill:#000000;fill-opacity:1;fill-rule:nonzero;stroke:#000000;stroke-width:0.80000001;stroke-linecap:butt;stroke-linejoin:round;stroke-miterlimit:10;stroke-dasharray:none;stroke-opacity:1"
         d="m 428.80625,70.465625 v -3.5" /><text
         id="text119"
         style="font-variant:normal;font-weight:normal;font-size:22px;font-family:'DejaVu Sans';-inkscape-font-specification:DejaVuSans;writing-mode:lr-tb;fill:#000000;fill-opacity:1;fill-rule:nonzero;stroke:none"
         transform="matrix(1,0,0,-1,421.80625,46.746875)"><tspan
           id="tspan117"
           y="0"
           x="0">4</tspan></text>
</g><g
       id="g121"><g
         clip-path="url(#clipPath127)"
         id="g123"><path
           id="path129"
           style="fill:none;stroke:#b0b0b0;stroke-width:0.80000001;stroke-linecap:square;stroke-linejoin:round;stroke-miterlimit:10;stroke-dasharray:none;stroke-opacity:1"
           d="M 528.00625,70.465625 V 396.62563" /></g></g><g
       id="g131"><path
         id="path133"
         style="fill:#000000;fill-opacity:1;fill-rule:nonzero;stroke:#000000;stroke-width:0.80000001;stroke-linecap:butt;stroke-linejoin:round;stroke-miterlimit:10;stroke-dasharray:none;stroke-opacity:1"
         d="m 528.00625,70.465625 v -3.5" /><text
         id="text137"
         style="font-variant:normal;font-weight:normal;font-size:22px;font-family:'DejaVu Sans';-inkscape-font-specification:DejaVuSans;writing-mode:lr-tb;fill:#000000;fill-opacity:1;fill-rule:nonzero;stroke:none"
         transform="matrix(1,0,0,-1,521.00625,46.746875)"><tspan
           id="tspan135"
           y="0"
           x="0">6</tspan></text>
<g
         transform="translate(295.30625,13.85625)"
         id="g139"><text
           id="text143"
           style="font-style:italic;font-variant:normal;font-size:32px;font-family:'DejaVu Sans';-inkscape-font-specification:DejaVuSans-Oblique;writing-mode:lr-tb;fill:#000000;fill-opacity:1;fill-rule:nonzero;stroke:none"
           transform="matrix(1,0,0,-1,0,0.5)"><tspan
             id="tspan141"
             y="0"
             x="0">x</tspan></text>
</g></g><g
       id="g145"><g
         clip-path="url(#clipPath151)"
         id="g147"><path
           id="path153"
           style="fill:none;stroke:#b0b0b0;stroke-width:0.80000001;stroke-linecap:square;stroke-linejoin:round;stroke-miterlimit:10;stroke-dasharray:none;stroke-opacity:1"
           d="m 81.60625,132.66435 h 446.4" /></g></g><g
       id="g155"><path
         id="path157"
         style="fill:#000000;fill-opacity:1;fill-rule:nonzero;stroke:#000000;stroke-width:0.80000001;stroke-linecap:butt;stroke-linejoin:round;stroke-miterlimit:10;stroke-dasharray:none;stroke-opacity:1"
         d="m 81.60625,132.66435 h -3.5" /><text
         id="text161"
         style="font-variant:normal;font-weight:normal;font-size:22px;font-family:'DejaVu Sans';-inkscape-font-specification:DejaVuSans;writing-mode:lr-tb;fill:#000000;fill-opacity:1;fill-rule:nonzero;stroke:none"
         transform="matrix(1,0,0,-1,42.16875,124.30497)"><tspan
           id="tspan159"
           y="0"
           x="0 18.436001">−4</tspan></text>
</g><g
       id="g163"><g
         clip-path="url(#clipPath169)"
         id="g165"><path
           id="path171"
           style="fill:none;stroke:#b0b0b0;stroke-width:0.80000001;stroke-linecap:square;stroke-linejoin:round;stroke-miterlimit:10;stroke-dasharray:none;stroke-opacity:1"
           d="m 81.60625,200.78425 h 446.4" /></g></g><g
       id="g173"><path
         id="path175"
         style="fill:#000000;fill-opacity:1;fill-rule:nonzero;stroke:#000000;stroke-width:0.80000001;stroke-linecap:butt;stroke-linejoin:round;stroke-miterlimit:10;stroke-dasharray:none;stroke-opacity:1"
         d="m 81.60625,200.78425 h -3.5" /><text
         id="text179"
         style="font-variant:normal;font-weight:normal;font-size:22px;font-family:'DejaVu Sans';-inkscape-font-specification:DejaVuSans;writing-mode:lr-tb;fill:#000000;fill-opacity:1;fill-rule:nonzero;stroke:none"
         transform="matrix(1,0,0,-1,42.16875,192.42488)"><tspan
           id="tspan177"
           y="0"
           x="0 18.436001">−2</tspan></text>
</g><g
       id="g181"><g
         clip-path="url(#clipPath187)"
         id="g183"><path
           id="path189"
           style="fill:none;stroke:#b0b0b0;stroke-width:0.80000001;stroke-linecap:square;stroke-linejoin:round;stroke-miterlimit:10;stroke-dasharray:none;stroke-opacity:1"
           d="m 81.60625,268.90416 h 446.4" /></g></g><g
       id="g191"><path
         id="path193"
         style="fill:#000000;fill-opacity:1;fill-rule:nonzero;stroke:#000000;stroke-width:0.80000001;stroke-linecap:butt;stroke-linejoin:round;stroke-miterlimit:10;stroke-dasharray:none;stroke-opacity:1"
         d="m 81.60625,268.90416 h -3.5" /><text
         id="text197"
         style="font-variant:normal;font-weight:normal;font-size:22px;font-family:'DejaVu Sans';-inkscape-font-specification:DejaVuSans;writing-mode:lr-tb;fill:#000000;fill-opacity:1;fill-rule:nonzero;stroke:none"
         transform="matrix(1,0,0,-1,60.60625,260.54478)"><tspan
           id="tspan195"
           y="0"
           x="0">0</tspan></text>
</g><g
       id="g199"><g
         clip-path="url(#clipPath205)"
         id="g201"><path
           id="path207"
           style="fill:none;stroke:#b0b0b0;stroke-width:0.80000001;stroke-linecap:square;stroke-linejoin:round;stroke-miterlimit:10;stroke-dasharray:none;stroke-opacity:1"
           d="m 81.60625,337.02406 h 446.4" /></g></g><g
       id="g209"><path
         id="path211"
         style="fill:#000000;fill-opacity:1;fill-rule:nonzero;stroke:#000000;stroke-width:0.80000001;stroke-linecap:butt;stroke-linejoin:round;stroke-miterlimit:10;stroke-dasharray:none;stroke-opacity:1"
         d="m 81.60625,337.02406 h -3.5" /><text
         id="text215"
         style="font-variant:normal;font-weight:normal;font-size:22px;font-family:'DejaVu Sans';-inkscape-font-specification:DejaVuSans;writing-mode:lr-tb;fill:#000000;fill-opacity:1;fill-rule:nonzero;stroke:none"
         transform="matrix(1,0,0,-1,60.60625,328.66468)"><tspan
           id="tspan213"
           y="0"
           x="0">2</tspan></text>
<g
         transform="rotate(90,-96.438437,127.60719)"
         id="g217"><text
           id="text221"
           style="font-style:italic;font-variant:normal;font-size:32px;font-family:'DejaVu Sans';-inkscape-font-specification:DejaVuSans-Oblique;writing-mode:lr-tb;fill:#000000;fill-opacity:1;fill-rule:nonzero;stroke:none"
           transform="matrix(1,0,0,-1,0,0.5)"><tspan
             id="tspan219"
             y="0"
             x="0">y</tspan></text>
</g></g><g
       id="g223"><g
         clip-path="url(#clipPath229)"
         id="g225"><path
           id="path231"
           style="fill:none;stroke:#008000;stroke-width:4;stroke-linecap:square;stroke-linejoin:round;stroke-miterlimit:10;stroke-dasharray:none;stroke-opacity:1"
           d="m 81.60625,303.30496 4.486432,0.57202 4.486432,0.84302 4.486432,1.10715 4.486433,1.36221 4.486431,1.60614 4.48643,1.83694 4.48644,2.05272 4.48643,2.25171 6.72965,3.71001 6.72964,4.04779 6.72965,4.31116 8.97287,6.02045 20.18894,13.71737 6.72965,4.32614 6.72965,4.06797 6.72965,3.73504 4.48643,2.27087 4.48643,2.07366 4.48643,1.85951 4.48643,1.63014 4.48644,1.38746 4.48643,1.13343 4.48643,0.87013 4.48643,0.59971 4.48643,0.32439 4.48644,0.0464 4.48643,-0.23192 4.48643,-0.50838 4.48643,-0.78067 4.48644,-1.04658 4.48643,-1.30394 4.48643,-1.55064 4.48643,-1.78465 4.48643,-2.00408 4.48644,-2.20712 4.48643,-2.39211 6.72965,-3.89188 6.72964,-4.19226 8.97287,-5.92315 26.91859,-18.18893 6.72965,-4.20364 6.72965,-3.90651 4.48643,-2.40354 4.48643,-2.21978 4.48644,-2.01788 4.48643,-1.79947 4.48643,-1.56634 4.48643,-1.32042 4.48643,-1.0637 4.48644,-0.79827 4.48643,-0.52633 4.48643,-0.25008 4.48643,0.0282 4.48643,0.30628 4.48644,0.58183 4.48643,0.85264 4.48643,1.11647 4.48643,1.37118 4.48644,1.61466 4.48643,1.84496 4.48643,2.06016 4.48643,2.25852 6.72965,3.71892 6.72965,4.05498 6.72965,4.31651 8.97286,6.02455 20.18895,13.71345 6.72964,4.32088 6.72965,4.06086 6.72965,3.7262 4.48643,2.2641 4.48643,2.06626 4.48644,1.85153 4.48643,1.62165 4.48643,1.37853 4.48643,1.12412 2.24322,0.4637 v 0" /></g></g><g
       id="g233"><g
         clip-path="url(#clipPath239)"
         id="g235"><path
           id="path241"
           style="fill:none;stroke:#0000ff;stroke-width:4;stroke-linecap:square;stroke-linejoin:round;stroke-miterlimit:10;stroke-dasharray:none;stroke-opacity:1"
           d="m 81.60625,303.30661 2.243216,-0.23578 2.243216,-0.10723 2.243216,0.0202 2.243216,0.14477 2.243216,0.26554 4.486433,0.87536 4.486437,1.30324 4.48643,1.69666 4.48643,2.06183 4.48643,2.40574 4.48643,2.73397 4.48644,3.04906 4.48643,3.34879 4.48643,3.62457 4.48643,3.85998 6.72965,6.0906 8.97286,8.17787 4.48644,3.81959 4.48643,3.41783 2.24321,1.49772 2.24322,1.32245 2.24322,1.12065 2.24321,0.89255 2.24322,0.63918 2.24322,0.36275 2.24321,0.0668 2.24322,-0.24311 2.24321,-0.55947 2.24322,-0.87266 2.24322,-1.17397 2.24321,-1.45712 2.24322,-1.71777 2.24321,-1.95322 2.24322,-2.16203 4.48643,-4.84246 4.48643,-5.35958 6.72965,-8.5985 13.4593,-17.44905 6.72965,-8.21735 4.48643,-5.16949 4.48643,-4.89487 4.48643,-4.611 4.48644,-4.32748 4.48643,-4.05144 4.48643,-3.78791 4.48643,-3.5403 4.48643,-3.31063 4.48644,-3.09992 4.48643,-2.90838 6.72965,-4.04442 6.72964,-3.71566 6.72965,-3.44128 6.72965,-3.21482 8.97287,-4.00468 8.97286,-3.75563 11.21608,-4.43937 13.4593,-5.07072 17.94573,-6.49526 24.67537,-8.67608 47.10754,-16.27646 91.97186,-31.59462 v 0" /></g></g><g
       id="g243"><g
         clip-path="url(#clipPath249)"
         id="g245"><g
           transform="translate(81.60625,303.30496)"
           id="g251"><g
             id="g253"><g
               clip-path="url(#clipPath259)"
               id="g255"><path
                 id="path261"
                 style="fill:#ff0000;fill-opacity:1;fill-rule:nonzero;stroke:#ff0000;stroke-width:4;stroke-linecap:butt;stroke-linejoin:round;stroke-miterlimit:10;stroke-dasharray:none;stroke-opacity:1"
                 d="M -5,-5 5,5 M -5,5 5,-5" /></g></g><g
             transform="translate(49.6,19.545156)"
             id="g263"><g
               id="g265"><g
                 clip-path="url(#clipPath271)"
                 id="g267"><path
                   id="path273"
                   style="fill:#ff0000;fill-opacity:1;fill-rule:nonzero;stroke:#ff0000;stroke-width:4;stroke-linecap:butt;stroke-linejoin:round;stroke-miterlimit:10;stroke-dasharray:none;stroke-opacity:1"
                   d="M -5,-5 5,5 M -5,5 5,-5" /></g></g><g
               transform="translate(49.6,32.576612)"
               id="g275"><g
                 id="g277"><g
                   clip-path="url(#clipPath283)"
                   id="g279"><path
                     id="path285"
                     style="fill:#ff0000;fill-opacity:1;fill-rule:nonzero;stroke:#ff0000;stroke-width:4;stroke-linecap:butt;stroke-linejoin:round;stroke-miterlimit:10;stroke-dasharray:none;stroke-opacity:1"
                     d="M -5,-5 5,5 M -5,5 5,-5" /></g></g></g></g></g></g></g><g
       id="g287"><path
         id="path289"
         style="fill:none;stroke:#000000;stroke-width:0.80000001;stroke-linecap:square;stroke-linejoin:miter;stroke-miterlimit:10;stroke-dasharray:none;stroke-opacity:1"
         d="M 81.60625,70.465625 V 396.62563" /><path
         id="path291"
         style="fill:none;stroke:#000000;stroke-width:0.80000001;stroke-linecap:square;stroke-linejoin:miter;stroke-miterlimit:10;stroke-dasharray:none;stroke-opacity:1"
         d="M 528.00625,70.465625 V 396.62563" /><path
         id="path293"
         style="fill:none;stroke:#000000;stroke-width:0.80000001;stroke-linecap:square;stroke-linejoin:miter;stroke-miterlimit:10;stroke-dasharray:none;stroke-opacity:1"
         d="m 81.60625,70.465625 h 446.4" /><path
         id="path295"
         style="fill:none;stroke:#000000;stroke-width:0.80000001;stroke-linecap:square;stroke-linejoin:miter;stroke-miterlimit:10;stroke-dasharray:none;stroke-opacity:1"
         d="m 81.60625,396.62563 h 446.4" /></g></g></svg>