<?xml version="1.0" encoding="UTF-8" standalone="no"?>
<svg
   xmlns:dc="http://purl.org/dc/elements/1.1/"
   xmlns:cc="http://creativecommons.org/ns#"
   xmlns:rdf="http://www.w3.org/1999/02/22-rdf-syntax-ns#"
   xmlns:svg="http://www.w3.org/2000/svg"
   xmlns="http://www.w3.org/2000/svg"
   viewBox="0 0 722.94165 541.75482"
   height="541.75482"
   width="722.94165"
   xml:space="preserve"
   id="svg834"
   version="1.1"><metadata
     id="metadata840"><rdf:RDF><cc:Work
         rdf:about=""><dc:format>image/svg+xml</dc:format><dc:type
           rdf:resource="http://purl.org/dc/dcmitype/StillImage" /><dc:title></dc:title></cc:Work></rdf:RDF></metadata><defs
     id="defs838"><clipPath
       id="clipPath850"
       clipPathUnits="userSpaceOnUse"><path
         id="path848"
         d="m 81.60625,70.465625 h 446.4 V 396.62563 h -446.4 z" /></clipPath><clipPath
       id="clipPath860"
       clipPathUnits="userSpaceOnUse"><path
         id="path858"
         d="m 81.60625,70.465625 h 446.4 V 396.62563 h -446.4 z" /></clipPath><clipPath
       id="clipPath878"
       clipPathUnits="userSpaceOnUse"><path
         id="path876"
         d="m 81.60625,70.465625 h 446.4 V 396.62563 h -446.4 z" /></clipPath><clipPath
       id="clipPath896"
       clipPathUnits="userSpaceOnUse"><path
         id="path894"
         d="m 81.60625,70.465625 h 446.4 V 396.62563 h -446.4 z" /></clipPath><clipPath
       id="clipPath914"
       clipPathUnits="userSpaceOnUse"><path
         id="path912"
         d="m 81.60625,70.465625 h 446.4 V 396.62563 h -446.4 z" /></clipPath><clipPath
       id="clipPath932"
       clipPathUnits="userSpaceOnUse"><path
         id="path930"
         d="m 81.60625,70.465625 h 446.4 V 396.62563 h -446.4 z" /></clipPath><clipPath
       id="clipPath956"
       clipPathUnits="userSpaceOnUse"><path
         id="path954"
         d="m 81.60625,70.465625 h 446.4 V 396.62563 h -446.4 z" /></clipPath><clipPath
       id="clipPath974"
       clipPathUnits="userSpaceOnUse"><path
         id="path972"
         d="m 81.60625,70.465625 h 446.4 V 396.62563 h -446.4 z" /></clipPath><clipPath
       id="clipPath992"
       clipPathUnits="userSpaceOnUse"><path
         id="path990"
         d="m 81.60625,70.465625 h 446.4 V 396.62563 h -446.4 z" /></clipPath><clipPath
       id="clipPath1010"
       clipPathUnits="userSpaceOnUse"><path
         id="path1008"
         d="m 81.60625,70.465625 h 446.4 V 396.62563 h -446.4 z" /></clipPath><clipPath
       id="clipPath1028"
       clipPathUnits="userSpaceOnUse"><path
         id="path1026"
         d="m 81.60625,70.465625 h 446.4 V 396.62563 h -446.4 z" /></clipPath><clipPath
       id="clipPath1046"
       clipPathUnits="userSpaceOnUse"><path
         id="path1044"
         d="m 81.60625,70.465625 h 446.4 V 396.62563 h -446.4 z" /></clipPath><clipPath
       id="clipPath1064"
       clipPathUnits="userSpaceOnUse"><path
         id="path1062"
         d="m 81.60625,70.465625 h 446.4 V 396.62563 h -446.4 z" /></clipPath><clipPath
       id="clipPath1088"
       clipPathUnits="userSpaceOnUse"><path
         id="path1086"
         d="m 81.60625,70.465625 h 446.4 V 396.62563 h -446.4 z" /></clipPath><clipPath
       id="clipPath1098"
       clipPathUnits="userSpaceOnUse"><path
         id="path1096"
         d="m 81.60625,70.465625 h 446.4 V 396.62563 h -446.4 z" /></clipPath><clipPath
       id="clipPath1108"
       clipPathUnits="userSpaceOnUse"><path
         id="path1106"
         d="m 81.60625,70.465625 h 446.4 V 396.62563 h -446.4 z" /></clipPath><clipPath
       id="clipPath1118"
       clipPathUnits="userSpaceOnUse"><path
         id="path1116"
         d="M -7,-7 H 7 V 7 H -7 Z" /></clipPath><clipPath
       id="clipPath1130"
       clipPathUnits="userSpaceOnUse"><path
         id="path1128"
         d="M -7,-7 H 7 V 7 H -7 Z" /></clipPath><clipPath
       id="clipPath1142"
       clipPathUnits="userSpaceOnUse"><path
         id="path1140"
         d="M -7,-7 H 7 V 7 H -7 Z" /></clipPath></defs><g
     transform="matrix(1.3333333,0,0,-1.3333333,0,541.75481)"
     id="g842"><g
       id="g844"><g
         clip-path="url(#clipPath850)"
         id="g846"><path
           id="path852"
           style="fill:#0000ff;fill-opacity:0.3;fill-rule:nonzero;stroke:#0000ff;stroke-width:1;stroke-linecap:butt;stroke-linejoin:round;stroke-miterlimit:10;stroke-dasharray:none;stroke-opacity:0.3"
           d="m 81.60625,235.26805 v -2.24646 l 2.243216,0.40461 2.243216,0.36916 2.243216,0.4105 2.243216,0.4996 2.243216,0.61214 2.243216,0.73553 2.243217,0.86354 2.243216,0.99287 2.243221,1.12153 2.24321,1.24816 2.24322,1.3717 2.24321,1.49126 2.24322,1.60594 2.24322,1.71486 2.24321,1.817 2.24322,1.91109 2.24321,1.99553 2.24322,2.06801 2.24322,2.1253 2.24321,2.16308 2.24322,2.17718 2.24321,2.16753 2.24322,2.14358 2.24322,2.12172 2.24321,2.11366 2.24322,2.12111 2.24321,2.14039 2.24322,2.16709 2.24322,2.19783 2.24321,2.23024 2.24322,2.26267 2.24321,2.29397 2.24322,2.32321 2.24322,2.34968 2.24321,2.37264 2.24322,2.39146 2.24321,2.40531 2.24322,2.41316 2.24322,2.41347 2.24321,2.40355 2.24322,2.37834 2.24322,2.32738 2.24321,2.22959 2.24322,2.05465 2.24321,1.80407 2.24322,1.54737 2.24322,1.33548 2.24321,1.16173 2.24322,1.00829 2.24321,0.86427 2.24322,0.72439 2.24322,0.58608 2.24321,0.44812 2.24322,0.30992 2.24321,0.17122 2.24322,0.032 2.24322,-0.10783 2.24321,-0.24806 2.24322,-0.38857 2.24321,-0.52923 2.24322,-0.66985 2.24322,-0.81025 2.24321,-0.95023 2.24322,-1.08961 2.24321,-1.22817 2.24322,-1.36571 2.24322,-1.50205 2.24321,-1.63697 2.24322,-1.77026 2.24322,-1.90174 2.24321,-2.03121 2.24322,-2.15845 2.24321,-2.28329 2.24322,-2.40553 2.24322,-2.52499 2.24321,-2.64149 2.24322,-2.75483 2.24321,-2.86485 2.24322,-2.97138 2.24322,-3.07426 2.24321,-3.17332 2.24322,-3.26841 2.24321,-3.35938 2.24322,-3.44611 2.24322,-3.52843 2.24321,-3.60624 2.24322,-3.67942 2.24322,-3.74784 2.24321,-3.81141 2.24322,-3.87003 2.24321,-3.9236 2.24322,-3.97207 2.24321,-4.01533 2.24322,-4.05335 2.24322,-4.08606 2.24321,-4.11341 2.24322,-4.13539 2.24322,-4.15194 2.24321,-4.16308 2.24322,-4.16876 2.24321,-4.16903 2.24322,-4.16386 2.24322,-4.15329 2.24321,-4.13736 2.24322,-4.11609 2.24321,-4.08955 2.24322,-4.05778 2.24322,-4.02086 2.24321,-3.97886 2.24322,-3.93188 2.24321,-3.88001 2.24322,-3.82334 2.24322,-3.76201 2.24321,-3.69611 2.24322,-3.6258 2.24321,-3.55121 2.24322,-3.47246 2.24322,-3.38973 2.24321,-3.30318 2.24322,-3.21297 2.24322,-3.11926 2.24321,-3.02226 2.24322,-2.92212 2.24321,-2.81907 2.24322,-2.71327 2.24322,-2.60495 2.24321,-2.4943 2.24322,-2.38153 2.24321,-2.26686 2.24322,-2.1505 2.24322,-2.03269 2.24321,-1.913622 2.24322,-1.793538 2.24321,-1.672661 2.24322,-1.551218 2.24322,-1.429435 2.24321,-1.307541 2.24322,-1.185765 2.24321,-1.064332 2.24322,-0.943468 2.24322,-0.8234 2.24321,-0.704348 2.24322,-0.586534 2.24322,-0.470175 2.24321,-0.355483 2.24322,-0.242673 2.24321,-0.131947 2.24322,-0.02351 2.24322,0.08244 2.24321,0.185715 2.24322,0.286127 2.24321,0.383492 2.24322,0.477642 2.24322,0.568405 2.24321,0.655622 2.24322,0.73914 2.24321,0.818815 2.24322,0.894507 2.24322,0.966088 2.24321,1.033437 2.24322,1.096441 2.24321,1.154999 2.24322,1.209012 2.24322,1.258399 2.24321,1.303084 2.24322,1.342997 2.24321,1.378088 2.24322,1.4083 2.24322,1.43362 2.24321,1.45398 2.24322,1.4694 2.24322,1.47986 2.24321,1.48537 2.24322,1.48592 2.24321,1.48157 2.24322,1.47232 2.24322,1.45823 2.24321,1.43934 2.24322,1.41574 2.24321,1.38748 2.24322,1.35463 2.24322,1.31731 2.24321,1.2756 2.24322,1.22961 2.24321,1.17946 2.24322,1.12527 2.24322,1.06719 2.24321,1.00535 2.24322,0.93989 2.24321,0.87097 2.24322,0.79876 2.24322,0.72344 2.24321,0.64514 2.24322,0.5641 2.24322,0.48046 2.24321,0.39444 2.24322,0.30622 2.24321,0.21601 2.24322,0.12401 v 246.18565 0 l -2.24322,-0.52926 -2.24321,-0.63132 -2.24322,-0.7318 -2.24321,-0.83049 -2.24322,-0.92719 -2.24322,-1.02174 -2.24321,-1.1139 -2.24322,-1.20353 -2.24322,-1.29043 -2.24321,-1.37442 -2.24322,-1.45536 -2.24321,-1.53306 -2.24322,-1.6074 -2.24322,-1.67819 -2.24321,-1.74534 -2.24322,-1.80868 -2.24321,-1.86811 -2.24322,-1.9235 -2.24322,-1.97475 -2.24321,-2.02178 -2.24322,-2.06447 -2.24321,-2.10276 -2.24322,-2.13658 -2.24322,-2.16586 -2.24321,-2.19055 -2.24322,-2.21062 -2.24321,-2.22602 -2.24322,-2.23675 -2.24322,-2.24278 -2.24321,-2.24411 -2.24322,-2.24075 -2.24322,-2.23273 -2.24321,-2.22005 -2.24322,-2.20277 -2.24321,-2.18093 -2.24322,-2.15459 -2.24322,-2.1238 -2.24321,-2.08865 -2.24322,-2.04923 -2.24321,-2.00562 -2.24322,-1.95791 -2.24322,-1.90625 -2.24321,-1.85073 -2.24322,-1.79148 -2.24321,-1.72864 -2.24322,-1.66236 -2.24322,-1.59278 -2.24321,-1.52005 -2.24322,-1.44436 -2.24321,-1.36585 -2.24322,-1.28473 -2.24322,-1.20115 -2.24321,-1.11531 -2.24322,-1.0274 -2.24321,-0.93764 -2.24322,-0.84618 -2.24322,-0.75328 -2.24321,-0.65912 -2.24322,-0.56389 -2.24322,-0.46785 -2.24321,-0.37119 -2.24322,-0.2741 -2.24321,-0.17686 -2.24322,-0.0796 -2.24322,0.0173 -2.24321,0.11387 -2.24322,0.20969 -2.24321,0.30462 -2.24322,0.39844 -2.24322,0.49093 -2.24321,0.58189 -2.24322,0.67111 -2.24321,0.75838 -2.24322,0.84353 -2.24322,0.92633 -2.24321,1.00662 -2.24322,1.08419 -2.24321,1.15888 -2.24322,1.23051 -2.24322,1.29891 -2.24321,1.36394 -2.24322,1.42542 -2.24322,1.48322 -2.24321,1.5372 -2.24322,1.58724 -2.24321,1.6332 -2.24322,1.67497 -2.24322,1.71248 -2.24321,1.74558 -2.24322,1.77423 -2.24321,1.79833 -2.24322,1.81782 -2.24322,1.83266 -2.24321,1.84278 -2.24322,1.84815 -2.24321,1.84875 -2.24322,1.84457 -2.24322,1.83559 -2.24321,1.82182 -2.24322,1.8033 -2.24321,1.78001 -2.24322,1.75203 -2.24322,1.71939 -2.24321,1.68215 -2.24322,1.64038 -2.24322,1.59416 -2.24321,1.54357 -2.24322,1.48872 -2.24321,1.42973 -2.24322,1.36669 -2.24321,1.29975 -2.24322,1.22904 -2.24322,1.15472 -2.24321,1.07693 -2.24322,0.99584 -2.24322,0.91163 -2.24321,0.82446 -2.24322,0.73456 -2.24321,0.64208 -2.24322,0.54727 -2.24322,0.45029 -2.24321,0.3514 -2.24322,0.2508 -2.24321,0.14873 -2.24322,0.0454 -2.24322,-0.0589 -2.24321,-0.16396 -2.24322,-0.26955 -2.24321,-0.37538 -2.24322,-0.48123 -2.24322,-0.58682 -2.24321,-0.69189 -2.24322,-0.7962 -2.24322,-0.89946 -2.24321,-1.00143 -2.24322,-1.1018 -2.24321,-1.20036 -2.24322,-1.29679 -2.24322,-1.39085 -2.24321,-1.48224 -2.24322,-1.57071 -2.24321,-1.65594 -2.24322,-1.73766 -2.24322,-1.81553 -2.24321,-1.8892 -2.24322,-1.95827 -2.24321,-2.02224 -2.24322,-2.08041 -2.24322,-2.13177 -2.24321,-2.1747 -2.24322,-2.20622 -2.24321,-2.22062 -2.24322,-2.20668 -2.24322,-2.14614 -2.24321,-2.032 -2.24322,-1.91482 -2.24321,-1.86378 -2.24322,-1.88008 -2.24322,-1.93312 -2.24321,-2.0016 -2.24322,-2.07484 -2.24322,-2.14756 -2.24321,-2.217 -2.24322,-2.28144 -2.24321,-2.33981 -2.24322,-2.39124 -2.24322,-2.43505 -2.24321,-2.47058 -2.24322,-2.49712 -2.24321,-2.51389 -2.24322,-2.51981 -2.24322,-2.51344 -2.24321,-2.49257 -2.24322,-2.45406 -2.24321,-2.39378 -2.24322,-2.30831 -2.24322,-2.19973 -2.24321,-2.08011 -2.24322,-1.9662 -2.24321,-1.86788 -2.24322,-1.78548 -2.24322,-1.71522 -2.24321,-1.65319 -2.24322,-1.59655 -2.24321,-1.54343 -2.24322,-1.49258 -2.24322,-1.44318 -2.24321,-1.39461 -2.24322,-1.34636 -2.24321,-1.29797 -2.243221,-1.24891 -2.243216,-1.19854 -2.243217,-1.14588 -2.243216,-1.08932 -2.243216,-1.02596 -2.243216,-0.94992 -2.243216,-0.84896 -2.243216,-0.69915 -2.243216,-0.47179 z" /></g></g><g
       id="g854"><g
         clip-path="url(#clipPath860)"
         id="g856"><path
           id="path862"
           style="fill:none;stroke:#b0b0b0;stroke-width:0.80000001;stroke-linecap:square;stroke-linejoin:round;stroke-miterlimit:10;stroke-dasharray:none;stroke-opacity:1"
           d="M 131.20625,70.465625 V 396.62563" /></g></g><g
       id="g864"><path
         id="path866"
         style="fill:#000000;fill-opacity:1;fill-rule:nonzero;stroke:#000000;stroke-width:0.80000001;stroke-linecap:butt;stroke-linejoin:round;stroke-miterlimit:10;stroke-dasharray:none;stroke-opacity:1"
         d="m 131.20625,70.465625 v -3.5" /><text
         id="text870"
         style="font-variant:normal;font-weight:normal;font-size:22px;font-family:'DejaVu Sans';-inkscape-font-specification:DejaVuSans;writing-mode:lr-tb;fill:#000000;fill-opacity:1;fill-rule:nonzero;stroke:none"
         transform="matrix(1,0,0,-1,114.9875,46.746875)"><tspan
           id="tspan868"
           y="0"
           x="0 18.436001">−2</tspan></text>
</g><g
       id="g872"><g
         clip-path="url(#clipPath878)"
         id="g874"><path
           id="path880"
           style="fill:none;stroke:#b0b0b0;stroke-width:0.80000001;stroke-linecap:square;stroke-linejoin:round;stroke-miterlimit:10;stroke-dasharray:none;stroke-opacity:1"
           d="M 230.40625,70.465625 V 396.62563" /></g></g><g
       id="g882"><path
         id="path884"
         style="fill:#000000;fill-opacity:1;fill-rule:nonzero;stroke:#000000;stroke-width:0.80000001;stroke-linecap:butt;stroke-linejoin:round;stroke-miterlimit:10;stroke-dasharray:none;stroke-opacity:1"
         d="m 230.40625,70.465625 v -3.5" /><text
         id="text888"
         style="font-variant:normal;font-weight:normal;font-size:22px;font-family:'DejaVu Sans';-inkscape-font-specification:DejaVuSans;writing-mode:lr-tb;fill:#000000;fill-opacity:1;fill-rule:nonzero;stroke:none"
         transform="matrix(1,0,0,-1,223.40625,46.746875)"><tspan
           id="tspan886"
           y="0"
           x="0">0</tspan></text>
</g><g
       id="g890"><g
         clip-path="url(#clipPath896)"
         id="g892"><path
           id="path898"
           style="fill:none;stroke:#b0b0b0;stroke-width:0.80000001;stroke-linecap:square;stroke-linejoin:round;stroke-miterlimit:10;stroke-dasharray:none;stroke-opacity:1"
           d="M 329.60625,70.465625 V 396.62563" /></g></g><g
       id="g900"><path
         id="path902"
         style="fill:#000000;fill-opacity:1;fill-rule:nonzero;stroke:#000000;stroke-width:0.80000001;stroke-linecap:butt;stroke-linejoin:round;stroke-miterlimit:10;stroke-dasharray:none;stroke-opacity:1"
         d="m 329.60625,70.465625 v -3.5" /><text
         id="text906"
         style="font-variant:normal;font-weight:normal;font-size:22px;font-family:'DejaVu Sans';-inkscape-font-specification:DejaVuSans;writing-mode:lr-tb;fill:#000000;fill-opacity:1;fill-rule:nonzero;stroke:none"
         transform="matrix(1,0,0,-1,322.60625,46.746875)"><tspan
           id="tspan904"
           y="0"
           x="0">2</tspan></text>
</g><g
       id="g908"><g
         clip-path="url(#clipPath914)"
         id="g910"><path
           id="path916"
           style="fill:none;stroke:#b0b0b0;stroke-width:0.80000001;stroke-linecap:square;stroke-linejoin:round;stroke-miterlimit:10;stroke-dasharray:none;stroke-opacity:1"
           d="M 428.80625,70.465625 V 396.62563" /></g></g><g
       id="g918"><path
         id="path920"
         style="fill:#000000;fill-opacity:1;fill-rule:nonzero;stroke:#000000;stroke-width:0.80000001;stroke-linecap:butt;stroke-linejoin:round;stroke-miterlimit:10;stroke-dasharray:none;stroke-opacity:1"
         d="m 428.80625,70.465625 v -3.5" /><text
         id="text924"
         style="font-variant:normal;font-weight:normal;font-size:22px;font-family:'DejaVu Sans';-inkscape-font-specification:DejaVuSans;writing-mode:lr-tb;fill:#000000;fill-opacity:1;fill-rule:nonzero;stroke:none"
         transform="matrix(1,0,0,-1,421.80625,46.746875)"><tspan
           id="tspan922"
           y="0"
           x="0">4</tspan></text>
</g><g
       id="g926"><g
         clip-path="url(#clipPath932)"
         id="g928"><path
           id="path934"
           style="fill:none;stroke:#b0b0b0;stroke-width:0.80000001;stroke-linecap:square;stroke-linejoin:round;stroke-miterlimit:10;stroke-dasharray:none;stroke-opacity:1"
           d="M 528.00625,70.465625 V 396.62563" /></g></g><g
       id="g936"><path
         id="path938"
         style="fill:#000000;fill-opacity:1;fill-rule:nonzero;stroke:#000000;stroke-width:0.80000001;stroke-linecap:butt;stroke-linejoin:round;stroke-miterlimit:10;stroke-dasharray:none;stroke-opacity:1"
         d="m 528.00625,70.465625 v -3.5" /><text
         id="text942"
         style="font-variant:normal;font-weight:normal;font-size:22px;font-family:'DejaVu Sans';-inkscape-font-specification:DejaVuSans;writing-mode:lr-tb;fill:#000000;fill-opacity:1;fill-rule:nonzero;stroke:none"
         transform="matrix(1,0,0,-1,521.00625,46.746875)"><tspan
           id="tspan940"
           y="0"
           x="0">6</tspan></text>
<g
         transform="translate(295.30625,13.85625)"
         id="g944"><text
           id="text948"
           style="font-style:italic;font-variant:normal;font-size:32px;font-family:'DejaVu Sans';-inkscape-font-specification:DejaVuSans-Oblique;writing-mode:lr-tb;fill:#000000;fill-opacity:1;fill-rule:nonzero;stroke:none"
           transform="matrix(1,0,0,-1,0,0.5)"><tspan
             id="tspan946"
             y="0"
             x="0">x</tspan></text>
</g></g><g
       id="g950"><g
         clip-path="url(#clipPath956)"
         id="g952"><path
           id="path958"
           style="fill:none;stroke:#b0b0b0;stroke-width:0.80000001;stroke-linecap:square;stroke-linejoin:round;stroke-miterlimit:10;stroke-dasharray:none;stroke-opacity:1"
           d="m 81.60625,76.523242 h 446.4" /></g></g><g
       id="g960"><path
         id="path962"
         style="fill:#000000;fill-opacity:1;fill-rule:nonzero;stroke:#000000;stroke-width:0.80000001;stroke-linecap:butt;stroke-linejoin:round;stroke-miterlimit:10;stroke-dasharray:none;stroke-opacity:1"
         d="m 81.60625,76.523242 h -3.5" /><text
         id="text966"
         style="font-variant:normal;font-weight:normal;font-size:22px;font-family:'DejaVu Sans';-inkscape-font-specification:DejaVuSans;writing-mode:lr-tb;fill:#000000;fill-opacity:1;fill-rule:nonzero;stroke:none"
         transform="matrix(1,0,0,-1,42.16875,68.163867)"><tspan
           id="tspan964"
           y="0"
           x="0 18.436001">−2</tspan></text>
</g><g
       id="g968"><g
         clip-path="url(#clipPath974)"
         id="g970"><path
           id="path976"
           style="fill:none;stroke:#b0b0b0;stroke-width:0.80000001;stroke-linecap:square;stroke-linejoin:round;stroke-miterlimit:10;stroke-dasharray:none;stroke-opacity:1"
           d="m 81.60625,128.89549 h 446.4" /></g></g><g
       id="g978"><path
         id="path980"
         style="fill:#000000;fill-opacity:1;fill-rule:nonzero;stroke:#000000;stroke-width:0.80000001;stroke-linecap:butt;stroke-linejoin:round;stroke-miterlimit:10;stroke-dasharray:none;stroke-opacity:1"
         d="m 81.60625,128.89549 h -3.5" /><text
         id="text984"
         style="font-variant:normal;font-weight:normal;font-size:22px;font-family:'DejaVu Sans';-inkscape-font-specification:DejaVuSans;writing-mode:lr-tb;fill:#000000;fill-opacity:1;fill-rule:nonzero;stroke:none"
         transform="matrix(1,0,0,-1,42.16875,120.53612)"><tspan
           id="tspan982"
           y="0"
           x="0 18.436001">−1</tspan></text>
</g><g
       id="g986"><g
         clip-path="url(#clipPath992)"
         id="g988"><path
           id="path994"
           style="fill:none;stroke:#b0b0b0;stroke-width:0.80000001;stroke-linecap:square;stroke-linejoin:round;stroke-miterlimit:10;stroke-dasharray:none;stroke-opacity:1"
           d="m 81.60625,181.26774 h 446.4" /></g></g><g
       id="g996"><path
         id="path998"
         style="fill:#000000;fill-opacity:1;fill-rule:nonzero;stroke:#000000;stroke-width:0.80000001;stroke-linecap:butt;stroke-linejoin:round;stroke-miterlimit:10;stroke-dasharray:none;stroke-opacity:1"
         d="m 81.60625,181.26774 h -3.5" /><text
         id="text1002"
         style="font-variant:normal;font-weight:normal;font-size:22px;font-family:'DejaVu Sans';-inkscape-font-specification:DejaVuSans;writing-mode:lr-tb;fill:#000000;fill-opacity:1;fill-rule:nonzero;stroke:none"
         transform="matrix(1,0,0,-1,60.60625,172.90836)"><tspan
           id="tspan1000"
           y="0"
           x="0">0</tspan></text>
</g><g
       id="g1004"><g
         clip-path="url(#clipPath1010)"
         id="g1006"><path
           id="path1012"
           style="fill:none;stroke:#b0b0b0;stroke-width:0.80000001;stroke-linecap:square;stroke-linejoin:round;stroke-miterlimit:10;stroke-dasharray:none;stroke-opacity:1"
           d="m 81.60625,233.63999 h 446.4" /></g></g><g
       id="g1014"><path
         id="path1016"
         style="fill:#000000;fill-opacity:1;fill-rule:nonzero;stroke:#000000;stroke-width:0.80000001;stroke-linecap:butt;stroke-linejoin:round;stroke-miterlimit:10;stroke-dasharray:none;stroke-opacity:1"
         d="m 81.60625,233.63999 h -3.5" /><text
         id="text1020"
         style="font-variant:normal;font-weight:normal;font-size:22px;font-family:'DejaVu Sans';-inkscape-font-specification:DejaVuSans;writing-mode:lr-tb;fill:#000000;fill-opacity:1;fill-rule:nonzero;stroke:none"
         transform="matrix(1,0,0,-1,60.60625,225.28061)"><tspan
           id="tspan1018"
           y="0"
           x="0">1</tspan></text>
</g><g
       id="g1022"><g
         clip-path="url(#clipPath1028)"
         id="g1024"><path
           id="path1030"
           style="fill:none;stroke:#b0b0b0;stroke-width:0.80000001;stroke-linecap:square;stroke-linejoin:round;stroke-miterlimit:10;stroke-dasharray:none;stroke-opacity:1"
           d="m 81.60625,286.01223 h 446.4" /></g></g><g
       id="g1032"><path
         id="path1034"
         style="fill:#000000;fill-opacity:1;fill-rule:nonzero;stroke:#000000;stroke-width:0.80000001;stroke-linecap:butt;stroke-linejoin:round;stroke-miterlimit:10;stroke-dasharray:none;stroke-opacity:1"
         d="m 81.60625,286.01223 h -3.5" /><text
         id="text1038"
         style="font-variant:normal;font-weight:normal;font-size:22px;font-family:'DejaVu Sans';-inkscape-font-specification:DejaVuSans;writing-mode:lr-tb;fill:#000000;fill-opacity:1;fill-rule:nonzero;stroke:none"
         transform="matrix(1,0,0,-1,60.60625,277.65286)"><tspan
           id="tspan1036"
           y="0"
           x="0">2</tspan></text>
</g><g
       id="g1040"><g
         clip-path="url(#clipPath1046)"
         id="g1042"><path
           id="path1048"
           style="fill:none;stroke:#b0b0b0;stroke-width:0.80000001;stroke-linecap:square;stroke-linejoin:round;stroke-miterlimit:10;stroke-dasharray:none;stroke-opacity:1"
           d="m 81.60625,338.38448 h 446.4" /></g></g><g
       id="g1050"><path
         id="path1052"
         style="fill:#000000;fill-opacity:1;fill-rule:nonzero;stroke:#000000;stroke-width:0.80000001;stroke-linecap:butt;stroke-linejoin:round;stroke-miterlimit:10;stroke-dasharray:none;stroke-opacity:1"
         d="m 81.60625,338.38448 h -3.5" /><text
         id="text1056"
         style="font-variant:normal;font-weight:normal;font-size:22px;font-family:'DejaVu Sans';-inkscape-font-specification:DejaVuSans;writing-mode:lr-tb;fill:#000000;fill-opacity:1;fill-rule:nonzero;stroke:none"
         transform="matrix(1,0,0,-1,60.60625,330.02511)"><tspan
           id="tspan1054"
           y="0"
           x="0">3</tspan></text>
</g><g
       id="g1058"><g
         clip-path="url(#clipPath1064)"
         id="g1060"><path
           id="path1066"
           style="fill:none;stroke:#b0b0b0;stroke-width:0.80000001;stroke-linecap:square;stroke-linejoin:round;stroke-miterlimit:10;stroke-dasharray:none;stroke-opacity:1"
           d="m 81.60625,390.75673 h 446.4" /></g></g><g
       id="g1068"><path
         id="path1070"
         style="fill:#000000;fill-opacity:1;fill-rule:nonzero;stroke:#000000;stroke-width:0.80000001;stroke-linecap:butt;stroke-linejoin:round;stroke-miterlimit:10;stroke-dasharray:none;stroke-opacity:1"
         d="m 81.60625,390.75673 h -3.5" /><text
         id="text1074"
         style="font-variant:normal;font-weight:normal;font-size:22px;font-family:'DejaVu Sans';-inkscape-font-specification:DejaVuSans;writing-mode:lr-tb;fill:#000000;fill-opacity:1;fill-rule:nonzero;stroke:none"
         transform="matrix(1,0,0,-1,60.60625,382.39736)"><tspan
           id="tspan1072"
           y="0"
           x="0">4</tspan></text>
<g
         transform="rotate(90,-96.438437,127.60719)"
         id="g1076"><text
           id="text1080"
           style="font-style:italic;font-variant:normal;font-size:32px;font-family:'DejaVu Sans';-inkscape-font-specification:DejaVuSans-Oblique;writing-mode:lr-tb;fill:#000000;fill-opacity:1;fill-rule:nonzero;stroke:none"
           transform="matrix(1,0,0,-1,0,0.5)"><tspan
             id="tspan1078"
             y="0"
             x="0">y</tspan></text>
</g></g><g
       id="g1082"><g
         clip-path="url(#clipPath1088)"
         id="g1084"><path
           id="path1090"
           style="fill:none;stroke:#008000;stroke-width:4;stroke-linecap:square;stroke-linejoin:round;stroke-miterlimit:10;stroke-dasharray:none;stroke-opacity:1"
           d="m 81.60625,234.1641 4.486432,0.87956 4.486432,1.29628 4.486432,1.7024 4.486433,2.0946 4.486431,2.46968 4.48643,2.82457 4.48644,3.15636 4.48643,3.46234 4.48643,3.74003 4.48643,3.98712 6.72965,6.37219 6.72965,6.73729 8.97286,9.33624 15.70251,16.45017 6.72965,6.75754 6.72965,6.40062 4.48643,4.01036 4.48644,3.76647 4.48643,3.4918 4.48643,3.18857 4.48643,2.85927 4.48643,2.50659 4.48644,2.13343 4.48643,1.74281 4.48643,1.33795 4.48643,0.92214 4.48643,0.49881 4.48644,0.0714 4.48643,-0.35662 4.48643,-0.7817 4.48643,-1.2004 4.48644,-1.60927 4.48643,-2.00501 4.48643,-2.38433 4.48643,-2.74417 4.48643,-3.08157 4.48644,-3.39378 4.48643,-3.67823 4.48643,-3.93261 6.72965,-6.30506 6.72965,-6.68876 8.97286,-9.30199 17.94573,-18.77348 6.72965,-6.70273 6.72965,-6.32425 4.48643,-3.94815 4.48643,-3.69581 4.48643,-3.41325 4.48644,-3.10278 4.48643,-2.76695 4.48643,-2.40849 4.48643,-2.03034 4.48643,-1.63559 4.48644,-1.22747 4.48643,-0.80931 4.48643,-0.38454 4.48643,0.0434 4.48643,0.47095 4.48644,0.89466 4.48643,1.31106 4.48643,1.71674 4.48643,2.10838 4.48644,2.48279 4.48643,2.83689 4.48643,3.16781 4.48643,3.47282 4.48643,3.74943 4.48644,3.9954 6.72964,6.38233 6.72965,6.74452 8.97287,9.34118 15.70251,16.44549 6.72965,6.75042 6.72965,6.39061 4.48643,4.00216 4.48643,3.75713 4.48643,3.4814 4.48643,3.17718 4.48644,2.847 4.48643,2.49353 4.48643,2.11969 4.48643,1.7285 2.24322,0.71302 v 0" /></g></g><g
       id="g1092"><g
         clip-path="url(#clipPath1098)"
         id="g1094"><path
           id="path1100"
           style="fill:none;stroke:#0000ff;stroke-width:4;stroke-linecap:square;stroke-linejoin:round;stroke-miterlimit:10;stroke-dasharray:none;stroke-opacity:1"
           d="m 81.60625,234.14482 4.486432,0.97235 4.486432,1.35449 4.486432,1.73148 4.486433,2.10042 4.486431,2.45828 4.48643,2.80196 4.48644,3.12829 4.48643,3.43403 4.48643,3.71597 4.48643,3.97088 4.48643,4.1955 6.72965,6.64039 8.97287,9.30316 17.94572,18.88765 6.72965,6.72709 4.48644,4.25946 4.48643,4.03142 4.48643,3.76479 4.48643,3.46226 4.48643,3.12673 4.48644,2.76133 4.48643,2.36928 4.48643,1.95395 4.48643,1.51886 4.48643,1.06757 2.24322,0.3605 2.24322,0.24327 2.24321,0.12506 2.24322,0.006 2.24321,-0.11337 2.24322,-0.23313 2.24322,-0.35292 2.24321,-0.47254 2.24322,-0.59172 2.24322,-0.71026 4.48643,-1.77236 4.48643,-2.23298 4.48643,-2.68031 4.48643,-3.11094 4.48644,-3.5216 4.48643,-3.90919 4.48643,-4.27079 4.48643,-4.60372 4.48644,-4.90551 4.48643,-5.17394 6.72964,-8.18651 6.72965,-8.58476 8.97287,-11.83694 17.94573,-23.79998 6.72964,-8.55445 6.72965,-8.15106 4.48643,-5.15072 4.48644,-4.88542 4.48643,-4.5895 4.48643,-4.26545 4.48643,-3.916 4.48644,-3.54404 4.48643,-3.15266 4.48643,-2.74509 4.48643,-2.32469 4.48643,-1.89487 4.48644,-1.4592 4.48643,-1.02117 4.48643,-0.58438 4.48643,-0.15237 4.48644,0.27138 4.48643,0.68344 4.48643,1.0805 4.48643,1.45937 4.48643,1.81701 4.48644,2.15059 4.48643,2.45745 4.48643,2.73515 4.48643,2.98152 4.48643,3.19466 6.72965,5.11491 8.97287,7.22965 17.94573,14.71996 6.72964,5.21579 6.72965,4.85695 4.48643,2.98154 4.48644,2.73903 4.48643,2.46683 4.48643,2.16729 4.48643,1.84301 4.48644,1.49674 4.48643,1.13147 4.48643,0.75031 v 0" /></g></g><g
       id="g1102"><g
         clip-path="url(#clipPath1108)"
         id="g1104"><g
           transform="translate(81.60625,234.1641)"
           id="g1110"><g
             id="g1112"><g
               clip-path="url(#clipPath1118)"
               id="g1114"><path
                 id="path1120"
                 style="fill:#ff0000;fill-opacity:1;fill-rule:nonzero;stroke:#ff0000;stroke-width:4;stroke-linecap:butt;stroke-linejoin:round;stroke-miterlimit:10;stroke-dasharray:none;stroke-opacity:1"
                 d="M -5,-5 5,5 M -5,5 5,-5" /></g></g><g
             transform="translate(49.6,30.053587)"
             id="g1122"><g
               id="g1124"><g
                 clip-path="url(#clipPath1130)"
                 id="g1126"><path
                   id="path1132"
                   style="fill:#ff0000;fill-opacity:1;fill-rule:nonzero;stroke:#ff0000;stroke-width:4;stroke-linecap:butt;stroke-linejoin:round;stroke-miterlimit:10;stroke-dasharray:none;stroke-opacity:1"
                   d="M -5,-5 5,5 M -5,5 5,-5" /></g></g><g
               transform="translate(49.6,50.091392)"
               id="g1134"><g
                 id="g1136"><g
                   clip-path="url(#clipPath1142)"
                   id="g1138"><path
                     id="path1144"
                     style="fill:#ff0000;fill-opacity:1;fill-rule:nonzero;stroke:#ff0000;stroke-width:4;stroke-linecap:butt;stroke-linejoin:round;stroke-miterlimit:10;stroke-dasharray:none;stroke-opacity:1"
                     d="M -5,-5 5,5 M -5,5 5,-5" /></g></g></g></g></g></g></g><g
       id="g1146"><path
         id="path1148"
         style="fill:none;stroke:#000000;stroke-width:0.80000001;stroke-linecap:square;stroke-linejoin:miter;stroke-miterlimit:10;stroke-dasharray:none;stroke-opacity:1"
         d="M 81.60625,70.465625 V 396.62563" /><path
         id="path1150"
         style="fill:none;stroke:#000000;stroke-width:0.80000001;stroke-linecap:square;stroke-linejoin:miter;stroke-miterlimit:10;stroke-dasharray:none;stroke-opacity:1"
         d="M 528.00625,70.465625 V 396.62563" /><path
         id="path1152"
         style="fill:none;stroke:#000000;stroke-width:0.80000001;stroke-linecap:square;stroke-linejoin:miter;stroke-miterlimit:10;stroke-dasharray:none;stroke-opacity:1"
         d="m 81.60625,70.465625 h 446.4" /><path
         id="path1154"
         style="fill:none;stroke:#000000;stroke-width:0.80000001;stroke-linecap:square;stroke-linejoin:miter;stroke-miterlimit:10;stroke-dasharray:none;stroke-opacity:1"
         d="m 81.60625,396.62563 h 446.4" /></g></g></svg>