<?xml version="1.0" encoding="UTF-8" standalone="no"?>
<svg
   xmlns:dc="http://purl.org/dc/elements/1.1/"
   xmlns:cc="http://creativecommons.org/ns#"
   xmlns:rdf="http://www.w3.org/1999/02/22-rdf-syntax-ns#"
   xmlns:svg="http://www.w3.org/2000/svg"
   xmlns="http://www.w3.org/2000/svg"
   viewBox="0 0 698.35834 538.43414"
   height="538.43414"
   width="698.35834"
   xml:space="preserve"
   id="svg29"
   version="1.1"><metadata
     id="metadata35"><rdf:RDF><cc:Work
         rdf:about=""><dc:format>image/svg+xml</dc:format><dc:type
           rdf:resource="http://purl.org/dc/dcmitype/StillImage" /><dc:title></dc:title></cc:Work></rdf:RDF></metadata><defs
     id="defs33"><clipPath
       id="clipPath45"
       clipPathUnits="userSpaceOnUse"><path
         id="path43"
         d="m 63.16875,70.465625 h 446.4 V 396.62563 h -446.4 z" /></clipPath><clipPath
       id="clipPath55"
       clipPathUnits="userSpaceOnUse"><path
         id="path53"
         d="m 63.16875,70.465625 h 446.4 V 396.62563 h -446.4 z" /></clipPath><clipPath
       id="clipPath73"
       clipPathUnits="userSpaceOnUse"><path
         id="path71"
         d="m 63.16875,70.465625 h 446.4 V 396.62563 h -446.4 z" /></clipPath><clipPath
       id="clipPath91"
       clipPathUnits="userSpaceOnUse"><path
         id="path89"
         d="m 63.16875,70.465625 h 446.4 V 396.62563 h -446.4 z" /></clipPath><clipPath
       id="clipPath109"
       clipPathUnits="userSpaceOnUse"><path
         id="path107"
         d="m 63.16875,70.465625 h 446.4 V 396.62563 h -446.4 z" /></clipPath><clipPath
       id="clipPath127"
       clipPathUnits="userSpaceOnUse"><path
         id="path125"
         d="m 63.16875,70.465625 h 446.4 V 396.62563 h -446.4 z" /></clipPath><clipPath
       id="clipPath151"
       clipPathUnits="userSpaceOnUse"><path
         id="path149"
         d="m 63.16875,70.465625 h 446.4 V 396.62563 h -446.4 z" /></clipPath><clipPath
       id="clipPath169"
       clipPathUnits="userSpaceOnUse"><path
         id="path167"
         d="m 63.16875,70.465625 h 446.4 V 396.62563 h -446.4 z" /></clipPath><clipPath
       id="clipPath187"
       clipPathUnits="userSpaceOnUse"><path
         id="path185"
         d="m 63.16875,70.465625 h 446.4 V 396.62563 h -446.4 z" /></clipPath><clipPath
       id="clipPath205"
       clipPathUnits="userSpaceOnUse"><path
         id="path203"
         d="m 63.16875,70.465625 h 446.4 V 396.62563 h -446.4 z" /></clipPath><clipPath
       id="clipPath229"
       clipPathUnits="userSpaceOnUse"><path
         id="path227"
         d="m 63.16875,70.465625 h 446.4 V 396.62563 h -446.4 z" /></clipPath><clipPath
       id="clipPath239"
       clipPathUnits="userSpaceOnUse"><path
         id="path237"
         d="m 63.16875,70.465625 h 446.4 V 396.62563 h -446.4 z" /></clipPath><clipPath
       id="clipPath249"
       clipPathUnits="userSpaceOnUse"><path
         id="path247"
         d="m 63.16875,70.465625 h 446.4 V 396.62563 h -446.4 z" /></clipPath><clipPath
       id="clipPath259"
       clipPathUnits="userSpaceOnUse"><path
         id="path257"
         d="M -7,-7 H 7 V 7 H -7 Z" /></clipPath><clipPath
       id="clipPath271"
       clipPathUnits="userSpaceOnUse"><path
         id="path269"
         d="M -7,-7 H 7 V 7 H -7 Z" /></clipPath><clipPath
       id="clipPath283"
       clipPathUnits="userSpaceOnUse"><path
         id="path281"
         d="M -7,-7 H 7 V 7 H -7 Z" /></clipPath></defs><g
     transform="matrix(1.3333333,0,0,-1.3333333,0,538.43417)"
     id="g37"><g
       id="g39"><g
         clip-path="url(#clipPath45)"
         id="g41"><path
           id="path47"
           style="fill:#0000ff;fill-opacity:0.3;fill-rule:nonzero;stroke:#0000ff;stroke-width:1;stroke-linecap:butt;stroke-linejoin:round;stroke-miterlimit:10;stroke-dasharray:none;stroke-opacity:0.3"
           d="m 63.16875,156.00332 v -1.76103 l 2.243216,0.27907 2.243216,-0.1315 2.243216,-0.0964 2.243216,0.002 2.243216,0.12208 2.243216,0.25343 2.243217,0.39287 2.243216,0.53831 2.243216,0.68816 2.243216,0.841 2.243216,0.99543 2.243216,1.15003 2.243216,1.30334 2.243216,1.45384 2.243216,1.59992 2.243216,1.73974 2.243213,1.87122 2.24322,1.99155 2.24322,2.09609 2.24321,2.17403 2.24322,2.18641 2.24321,1.93588 2.24322,1.19176 2.24322,0.82054 2.24321,0.79926 2.24322,0.86236 2.24321,0.95467 2.24322,1.06241 2.24322,1.18019 2.24321,1.30498 2.24322,1.43459 2.24321,1.5672 2.24322,1.70119 2.24322,1.8351 2.24321,1.96747 2.24322,2.09697 2.24321,2.22227 2.24322,2.34203 2.24322,2.45479 2.24321,2.55876 2.24322,2.65095 2.24321,2.7243 2.24322,2.7502 2.24322,2.49823 2.24321,1.06923 2.24322,0.16691 2.24322,-0.1037 2.24321,-0.28881 2.24322,-0.45159 2.24321,-0.60294 2.24322,-0.74585 2.24322,-0.88127 2.24321,-1.0096 2.24322,-1.13103 2.24321,-1.24563 2.24322,-1.3535 2.24322,-1.45471 2.24321,-1.54933 2.24322,-1.63746 2.24321,-1.71924 2.24322,-1.79475 2.24322,-1.86417 2.24321,-1.92762 2.24322,-1.98528 2.24321,-2.03731 2.24322,-2.08387 2.24322,-2.12516 2.24321,-2.16135 2.24322,-2.19262 2.24322,-2.21918 2.24321,-2.2412 2.24322,-2.25887 2.24321,-2.27239 2.24322,-2.28192 2.24322,-2.28769 2.24321,-2.28983 2.24322,-2.28857 2.24321,-2.28404 2.24322,-2.27644 2.24322,-2.26595 2.24321,-2.25271 2.24322,-2.23688 2.24321,-2.21865 2.24322,-2.19813 2.24322,-2.1755 2.24321,-2.15088 2.24322,-2.12442 2.24321,-2.09625 2.24322,-2.0665 2.24322,-2.0353 2.24321,-2.00274 2.24322,-1.96898 2.24321,-1.93409 2.24322,-1.89819 2.24322,-1.86138 2.24321,-1.82376 2.24322,-1.78542 2.24322,-1.74643 2.24321,-1.7069 2.24322,-1.66689 2.24321,-1.62648 2.24322,-1.58574 2.24322,-1.54475 2.24321,-1.50355 2.24322,-1.46222 2.24321,-1.42081 2.24322,-1.37938 2.24322,-1.33796 2.24321,-1.29661 2.24322,-1.25539 2.24321,-1.21432 2.24322,-1.17344 2.24322,-1.1328 2.24321,-1.09242 2.24322,-1.05233 2.24321,-1.012579 2.24322,-0.973169 2.24322,-0.934138 2.24321,-0.895505 2.24322,-0.857291 2.24322,-0.819515 2.24321,-0.782193 2.24322,-0.74534 2.24321,-0.708972 2.24322,-0.673098 2.24322,-0.637732 2.24321,-0.602881 2.24322,-0.568553 2.24321,-0.534758 2.24322,-0.501497 2.24322,-0.468779 2.24321,-0.436606 2.24322,-0.404981 2.24321,-0.373904 2.24322,-0.34338 2.24322,-0.313406 2.24321,-0.283981 2.24322,-0.255108 2.24321,-0.226781 2.24322,-0.198999 2.24322,-0.171761 2.24321,-0.145059 2.24322,-0.118894 2.24322,-0.09326 2.24321,-0.06815 2.24322,-0.04356 2.24321,-0.01949 2.24322,0.0041 2.24322,0.02713 2.24321,0.04969 2.24322,0.07177 2.24321,0.09335 2.24322,0.114462 2.24322,0.135101 2.24321,0.155276 2.24322,0.174994 2.24321,0.194264 2.24322,0.213091 2.24322,0.231484 2.24321,0.249451 2.24322,0.266998 2.24321,0.284133 2.24322,0.300864 2.24322,0.317198 2.24321,0.333142 2.24322,0.348706 2.24321,0.363894 2.24322,0.378714 2.24322,0.393177 2.24321,0.407286 2.24322,0.421049 2.24322,0.434476 2.24321,0.44757 2.24322,0.460342 2.24321,0.472795 2.24322,0.48494 2.24322,0.49678 2.24321,0.508323 2.24322,0.519577 2.24321,0.530546 2.24322,0.541239 2.24322,0.55166 2.24321,0.561816 2.24322,0.571714 2.24321,0.581358 2.24322,0.590755 2.24322,0.599912 2.24321,0.608833 2.24322,0.61753 2.24322,0.62598 2.24321,0.63424 2.24322,0.64227 2.24321,0.65009 2.24322,0.65771 2.24322,0.66513 2.24321,0.67236 2.24322,0.67939 2.24321,0.68625 2.24322,0.69292 v 274.79328 0 l -2.24322,-0.72364 -2.24321,-0.71868 -2.24322,-0.71361 -2.24321,-0.70847 -2.24322,-0.70323 -2.24322,-0.69789 -2.24321,-0.69247 -2.24322,-0.68696 -2.24321,-0.68136 -2.24322,-0.67566 -2.24322,-0.66989 -2.24321,-0.66401 -2.24322,-0.65806 -2.24322,-0.65201 -2.24321,-0.6459 -2.24322,-0.63968 -2.24321,-0.63338 -2.24322,-0.62702 -2.24322,-0.62057 -2.24321,-0.61404 -2.24322,-0.60745 -2.24321,-0.60078 -2.24322,-0.59404 -2.24322,-0.58724 -2.24321,-0.58037 -2.24322,-0.57346 -2.24321,-0.56648 -2.24322,-0.55946 -2.24322,-0.5524 -2.24321,-0.54528 -2.24322,-0.53814 -2.24322,-0.53097 -2.24321,-0.52378 -2.24322,-0.51655 -2.24321,-0.50934 -2.24322,-0.5021 -2.24322,-0.49488 -2.24321,-0.48766 -2.24322,-0.48047 -2.24321,-0.4733 -2.24322,-0.46617 -2.24322,-0.45908 -2.24321,-0.45205 -2.24322,-0.44509 -2.24321,-0.4382 -2.24322,-0.4314 -2.24322,-0.4247 -2.24321,-0.41812 -2.24322,-0.41167 -2.24321,-0.40534 -2.24322,-0.39918 -2.24322,-0.39318 -2.24321,-0.38736 -2.24322,-0.38175 -2.24321,-0.37635 -2.24322,-0.37118 -2.24322,-0.36627 -2.24321,-0.36161 -2.24322,-0.35726 -2.24322,-0.3532 -2.24321,-0.34947 -2.24322,-0.34609 -2.24321,-0.34308 -2.24322,-0.34046 -2.24322,-0.33825 -2.24321,-0.33648 -2.24322,-0.33517 -2.24321,-0.33435 -2.24322,-0.33403 -2.24322,-0.33425 -2.24321,-0.33504 -2.24322,-0.33641 -2.24321,-0.33841 -2.24322,-0.34104 -2.24322,-0.34435 -2.24321,-0.34836 -2.24322,-0.35311 -2.24321,-0.35861 -2.24322,-0.36491 -2.24322,-0.37204 -2.24321,-0.38001 -2.24322,-0.38887 -2.24322,-0.39865 -2.24321,-0.40937 -2.24322,-0.42109 -2.24321,-0.4338 -2.24322,-0.44757 -2.24322,-0.4624 -2.24321,-0.47836 -2.24322,-0.49544 -2.24321,-0.5137 -2.24322,-0.53315 -2.24322,-0.55384 -2.24321,-0.57579 -2.24322,-0.59901 -2.24321,-0.62357 -2.24322,-0.64945 -2.24322,-0.67671 -2.24321,-0.70535 -2.24322,-0.73541 -2.24321,-0.7669 -2.24322,-0.79984 -2.24322,-0.83424 -2.24321,-0.87013 -2.24322,-0.9075 -2.24322,-0.94638 -2.24321,-0.98676 -2.24322,-1.02864 -2.24321,-1.07204 -2.24322,-1.11692 -2.24322,-1.1633 -2.24321,-1.21115 -2.24322,-1.26045 -2.24321,-1.31119 -2.24322,-1.36331 -2.24322,-1.41679 -2.24321,-1.4716 -2.24322,-1.52766 -2.24321,-1.58494 -2.24322,-1.64336 -2.24322,-1.70283 -2.24321,-1.76329 -2.24322,-1.82465 -2.24321,-1.88679 -2.24322,-1.94959 -2.24322,-2.01296 -2.24321,-2.07672 -2.24322,-2.14075 -2.24321,-2.20488 -2.24322,-2.26893 -2.24322,-2.3327 -2.24321,-2.39601 -2.24322,-2.45862 -2.24322,-2.52029 -2.24321,-2.58077 -2.24322,-2.63978 -2.24321,-2.69704 -2.24322,-2.75221 -2.24322,-2.80499 -2.24321,-2.85499 -2.24322,-2.90186 -2.24321,-2.94519 -2.24322,-2.98453 -2.24322,-3.01946 -2.24321,-3.04944 -2.24322,-3.07399 -2.24321,-3.09248 -2.24322,-3.10427 -2.24322,-3.10855 -2.24321,-3.10422 -2.24322,-3.08952 -2.24321,-3.06067 -2.24322,-3.00579 -2.24322,-2.86069 -2.24321,-2.07808 -2.24322,-0.76172 -2.24322,-0.61411 -2.24321,-0.73498 -2.24322,-0.89297 -2.24321,-1.05864 -2.24322,-1.22426 -2.24322,-1.38635 -2.24321,-1.54269 -2.24322,-1.69161 -2.24321,-1.83161 -2.24322,-1.96137 -2.24322,-2.07968 -2.24321,-2.18538 -2.24322,-2.27736 -2.24321,-2.35452 -2.24322,-2.4157 -2.24322,-2.45948 -2.24321,-2.48376 -2.24322,-2.4842 -2.24321,-2.44823 -2.24322,-2.32204 -2.24322,-1.84158 -2.24321,-0.98555 -2.24322,-0.6222 -2.24321,-0.5225 -2.24322,-0.4906 -2.24322,-0.48887 -2.243213,-0.50772 -2.243216,-0.5436 -2.243216,-0.59464 -2.243216,-0.65954 -2.243216,-0.73721 -2.243216,-0.8266 -2.243216,-0.92663 -2.243216,-1.03621 -2.243216,-1.15415 -2.243216,-1.27918 -2.243217,-1.40986 -2.243216,-1.5445 -2.243216,-1.68082 -2.243216,-1.81491 -2.243216,-1.93701 -2.243216,-2.00379 -2.243216,-1.6326 z" /></g></g><g
       id="g49"><g
         clip-path="url(#clipPath55)"
         id="g51"><path
           id="path57"
           style="fill:none;stroke:#b0b0b0;stroke-width:0.80000001;stroke-linecap:square;stroke-linejoin:round;stroke-miterlimit:10;stroke-dasharray:none;stroke-opacity:1"
           d="M 112.76875,70.465625 V 396.62563" /></g></g><g
       id="g59"><path
         id="path61"
         style="fill:#000000;fill-opacity:1;fill-rule:nonzero;stroke:#000000;stroke-width:0.80000001;stroke-linecap:butt;stroke-linejoin:round;stroke-miterlimit:10;stroke-dasharray:none;stroke-opacity:1"
         d="m 112.76875,70.465625 v -3.5" /><text
         id="text65"
         style="font-variant:normal;font-weight:normal;font-size:22px;font-family:'DejaVu Sans';-inkscape-font-specification:DejaVuSans;writing-mode:lr-tb;fill:#000000;fill-opacity:1;fill-rule:nonzero;stroke:none"
         transform="matrix(1,0,0,-1,96.55,46.746875)"><tspan
           id="tspan63"
           y="0"
           x="0 18.436001">−2</tspan></text>
</g><g
       id="g67"><g
         clip-path="url(#clipPath73)"
         id="g69"><path
           id="path75"
           style="fill:none;stroke:#b0b0b0;stroke-width:0.80000001;stroke-linecap:square;stroke-linejoin:round;stroke-miterlimit:10;stroke-dasharray:none;stroke-opacity:1"
           d="M 211.96875,70.465625 V 396.62563" /></g></g><g
       id="g77"><path
         id="path79"
         style="fill:#000000;fill-opacity:1;fill-rule:nonzero;stroke:#000000;stroke-width:0.80000001;stroke-linecap:butt;stroke-linejoin:round;stroke-miterlimit:10;stroke-dasharray:none;stroke-opacity:1"
         d="m 211.96875,70.465625 v -3.5" /><text
         id="text83"
         style="font-variant:normal;font-weight:normal;font-size:22px;font-family:'DejaVu Sans';-inkscape-font-specification:DejaVuSans;writing-mode:lr-tb;fill:#000000;fill-opacity:1;fill-rule:nonzero;stroke:none"
         transform="matrix(1,0,0,-1,204.96875,46.746875)"><tspan
           id="tspan81"
           y="0"
           x="0">0</tspan></text>
</g><g
       id="g85"><g
         clip-path="url(#clipPath91)"
         id="g87"><path
           id="path93"
           style="fill:none;stroke:#b0b0b0;stroke-width:0.80000001;stroke-linecap:square;stroke-linejoin:round;stroke-miterlimit:10;stroke-dasharray:none;stroke-opacity:1"
           d="M 311.16875,70.465625 V 396.62563" /></g></g><g
       id="g95"><path
         id="path97"
         style="fill:#000000;fill-opacity:1;fill-rule:nonzero;stroke:#000000;stroke-width:0.80000001;stroke-linecap:butt;stroke-linejoin:round;stroke-miterlimit:10;stroke-dasharray:none;stroke-opacity:1"
         d="m 311.16875,70.465625 v -3.5" /><text
         id="text101"
         style="font-variant:normal;font-weight:normal;font-size:22px;font-family:'DejaVu Sans';-inkscape-font-specification:DejaVuSans;writing-mode:lr-tb;fill:#000000;fill-opacity:1;fill-rule:nonzero;stroke:none"
         transform="matrix(1,0,0,-1,304.16875,46.746875)"><tspan
           id="tspan99"
           y="0"
           x="0">2</tspan></text>
</g><g
       id="g103"><g
         clip-path="url(#clipPath109)"
         id="g105"><path
           id="path111"
           style="fill:none;stroke:#b0b0b0;stroke-width:0.80000001;stroke-linecap:square;stroke-linejoin:round;stroke-miterlimit:10;stroke-dasharray:none;stroke-opacity:1"
           d="M 410.36875,70.465625 V 396.62563" /></g></g><g
       id="g113"><path
         id="path115"
         style="fill:#000000;fill-opacity:1;fill-rule:nonzero;stroke:#000000;stroke-width:0.80000001;stroke-linecap:butt;stroke-linejoin:round;stroke-miterlimit:10;stroke-dasharray:none;stroke-opacity:1"
         d="m 410.36875,70.465625 v -3.5" /><text
         id="text119"
         style="font-variant:normal;font-weight:normal;font-size:22px;font-family:'DejaVu Sans';-inkscape-font-specification:DejaVuSans;writing-mode:lr-tb;fill:#000000;fill-opacity:1;fill-rule:nonzero;stroke:none"
         transform="matrix(1,0,0,-1,403.36875,46.746875)"><tspan
           id="tspan117"
           y="0"
           x="0">4</tspan></text>
</g><g
       id="g121"><g
         clip-path="url(#clipPath127)"
         id="g123"><path
           id="path129"
           style="fill:none;stroke:#b0b0b0;stroke-width:0.80000001;stroke-linecap:square;stroke-linejoin:round;stroke-miterlimit:10;stroke-dasharray:none;stroke-opacity:1"
           d="M 509.56875,70.465625 V 396.62563" /></g></g><g
       id="g131"><path
         id="path133"
         style="fill:#000000;fill-opacity:1;fill-rule:nonzero;stroke:#000000;stroke-width:0.80000001;stroke-linecap:butt;stroke-linejoin:round;stroke-miterlimit:10;stroke-dasharray:none;stroke-opacity:1"
         d="m 509.56875,70.465625 v -3.5" /><text
         id="text137"
         style="font-variant:normal;font-weight:normal;font-size:22px;font-family:'DejaVu Sans';-inkscape-font-specification:DejaVuSans;writing-mode:lr-tb;fill:#000000;fill-opacity:1;fill-rule:nonzero;stroke:none"
         transform="matrix(1,0,0,-1,502.56875,46.746875)"><tspan
           id="tspan135"
           y="0"
           x="0">6</tspan></text>
<g
         transform="translate(276.86875,13.85625)"
         id="g139"><text
           id="text143"
           style="font-style:italic;font-variant:normal;font-size:32px;font-family:'DejaVu Sans';-inkscape-font-specification:DejaVuSans-Oblique;writing-mode:lr-tb;fill:#000000;fill-opacity:1;fill-rule:nonzero;stroke:none"
           transform="matrix(1,0,0,-1,0,0.5)"><tspan
             id="tspan141"
             y="0"
             x="0">x</tspan></text>
</g></g><g
       id="g145"><g
         clip-path="url(#clipPath151)"
         id="g147"><path
           id="path153"
           style="fill:none;stroke:#b0b0b0;stroke-width:0.80000001;stroke-linecap:square;stroke-linejoin:round;stroke-miterlimit:10;stroke-dasharray:none;stroke-opacity:1"
           d="m 63.16875,113.70515 h 446.4" /></g></g><g
       id="g155"><path
         id="path157"
         style="fill:#000000;fill-opacity:1;fill-rule:nonzero;stroke:#000000;stroke-width:0.80000001;stroke-linecap:butt;stroke-linejoin:round;stroke-miterlimit:10;stroke-dasharray:none;stroke-opacity:1"
         d="m 63.16875,113.70515 h -3.5" /><text
         id="text161"
         style="font-variant:normal;font-weight:normal;font-size:22px;font-family:'DejaVu Sans';-inkscape-font-specification:DejaVuSans;writing-mode:lr-tb;fill:#000000;fill-opacity:1;fill-rule:nonzero;stroke:none"
         transform="matrix(1,0,0,-1,42.16875,105.34578)"><tspan
           id="tspan159"
           y="0"
           x="0">0</tspan></text>
</g><g
       id="g163"><g
         clip-path="url(#clipPath169)"
         id="g165"><path
           id="path171"
           style="fill:none;stroke:#b0b0b0;stroke-width:0.80000001;stroke-linecap:square;stroke-linejoin:round;stroke-miterlimit:10;stroke-dasharray:none;stroke-opacity:1"
           d="m 63.16875,195.73654 h 446.4" /></g></g><g
       id="g173"><path
         id="path175"
         style="fill:#000000;fill-opacity:1;fill-rule:nonzero;stroke:#000000;stroke-width:0.80000001;stroke-linecap:butt;stroke-linejoin:round;stroke-miterlimit:10;stroke-dasharray:none;stroke-opacity:1"
         d="m 63.16875,195.73654 h -3.5" /><text
         id="text179"
         style="font-variant:normal;font-weight:normal;font-size:22px;font-family:'DejaVu Sans';-inkscape-font-specification:DejaVuSans;writing-mode:lr-tb;fill:#000000;fill-opacity:1;fill-rule:nonzero;stroke:none"
         transform="matrix(1,0,0,-1,42.16875,187.37717)"><tspan
           id="tspan177"
           y="0"
           x="0">2</tspan></text>
</g><g
       id="g181"><g
         clip-path="url(#clipPath187)"
         id="g183"><path
           id="path189"
           style="fill:none;stroke:#b0b0b0;stroke-width:0.80000001;stroke-linecap:square;stroke-linejoin:round;stroke-miterlimit:10;stroke-dasharray:none;stroke-opacity:1"
           d="m 63.16875,277.76793 h 446.4" /></g></g><g
       id="g191"><path
         id="path193"
         style="fill:#000000;fill-opacity:1;fill-rule:nonzero;stroke:#000000;stroke-width:0.80000001;stroke-linecap:butt;stroke-linejoin:round;stroke-miterlimit:10;stroke-dasharray:none;stroke-opacity:1"
         d="m 63.16875,277.76793 h -3.5" /><text
         id="text197"
         style="font-variant:normal;font-weight:normal;font-size:22px;font-family:'DejaVu Sans';-inkscape-font-specification:DejaVuSans;writing-mode:lr-tb;fill:#000000;fill-opacity:1;fill-rule:nonzero;stroke:none"
         transform="matrix(1,0,0,-1,42.16875,269.40856)"><tspan
           id="tspan195"
           y="0"
           x="0">4</tspan></text>
</g><g
       id="g199"><g
         clip-path="url(#clipPath205)"
         id="g201"><path
           id="path207"
           style="fill:none;stroke:#b0b0b0;stroke-width:0.80000001;stroke-linecap:square;stroke-linejoin:round;stroke-miterlimit:10;stroke-dasharray:none;stroke-opacity:1"
           d="m 63.16875,359.79933 h 446.4" /></g></g><g
       id="g209"><path
         id="path211"
         style="fill:#000000;fill-opacity:1;fill-rule:nonzero;stroke:#000000;stroke-width:0.80000001;stroke-linecap:butt;stroke-linejoin:round;stroke-miterlimit:10;stroke-dasharray:none;stroke-opacity:1"
         d="m 63.16875,359.79933 h -3.5" /><text
         id="text215"
         style="font-variant:normal;font-weight:normal;font-size:22px;font-family:'DejaVu Sans';-inkscape-font-specification:DejaVuSans;writing-mode:lr-tb;fill:#000000;fill-opacity:1;fill-rule:nonzero;stroke:none"
         transform="matrix(1,0,0,-1,42.16875,351.43995)"><tspan
           id="tspan213"
           y="0"
           x="0">6</tspan></text>
<g
         transform="rotate(90,-96.438437,127.60719)"
         id="g217"><text
           id="text221"
           style="font-style:italic;font-variant:normal;font-size:32px;font-family:'DejaVu Sans';-inkscape-font-specification:DejaVuSans-Oblique;writing-mode:lr-tb;fill:#000000;fill-opacity:1;fill-rule:nonzero;stroke:none"
           transform="matrix(1,0,0,-1,0,0.5)"><tspan
             id="tspan219"
             y="0"
             x="0">y</tspan></text>
</g></g><g
       id="g223"><g
         clip-path="url(#clipPath229)"
         id="g225"><path
           id="path231"
           style="fill:none;stroke:#008000;stroke-width:4;stroke-linecap:square;stroke-linejoin:round;stroke-miterlimit:10;stroke-dasharray:none;stroke-opacity:1"
           d="m 63.16875,155.13131 4.486432,0.68883 4.486432,1.01519 4.486432,1.33325 4.486433,1.6404 4.486432,1.93415 4.486432,2.21208 4.486432,2.47193 4.486432,2.71156 4.486433,2.92902 6.72965,4.74846 6.72965,5.09623 8.97286,7.17332 24.67538,20.12061 6.72964,5.11639 6.72965,4.77477 4.48644,2.94974 4.48643,2.73463 4.48643,2.49715 4.48643,2.23926 4.48643,1.96305 4.48644,1.67081 4.48643,1.36489 4.48643,1.04783 4.48643,0.72219 4.48643,0.39064 4.48644,0.0559 4.48643,-0.27929 4.48643,-0.61219 4.48643,-0.9401 4.48644,-1.26032 4.48643,-1.57023 4.48643,-1.86731 4.48643,-2.14912 4.48643,-2.41335 4.48644,-2.65786 4.48643,-2.88063 4.48643,-3.07986 6.72965,-4.93785 6.72965,-5.23835 8.97286,-7.28491 17.94573,-14.70259 6.72965,-5.24929 6.72965,-4.95288 4.48643,-3.09203 4.48643,-2.89439 4.48643,-2.67311 4.48644,-2.42997 4.48643,-2.16695 4.48643,-1.88623 4.48643,-1.59007 4.48643,-1.28093 4.48644,-0.9613 4.48643,-0.63382 4.48643,-0.30115 4.48643,0.034 4.48643,0.36883 4.48644,0.70066 4.48643,1.02676 4.48643,1.34448 4.48643,1.6512 4.48644,1.94441 4.48643,2.22173 4.48643,2.48089 4.48643,2.71976 4.48643,2.9364 6.72965,4.75783 6.72965,5.10342 8.97286,7.17931 24.67538,20.11489 6.72965,5.10929 6.72965,4.76549 4.48643,2.94243 4.48643,2.72647 4.48644,2.48824 4.48643,2.22964 4.48643,1.95283 4.48643,1.66005 4.48643,1.35369 2.24322,0.55841 v 0" /></g></g><g
       id="g233"><g
         clip-path="url(#clipPath239)"
         id="g235"><path
           id="path241"
           style="fill:none;stroke:#0000ff;stroke-width:4;stroke-linecap:square;stroke-linejoin:round;stroke-miterlimit:10;stroke-dasharray:none;stroke-opacity:1"
           d="m 63.16875,155.12281 8.972864,3.7209 13.459297,5.47028 6.729648,2.96962 4.486432,2.15397 4.486429,2.33114 4.48644,2.53355 4.48643,2.75258 4.48643,2.97738 4.48643,3.19504 6.72965,5.15344 6.72965,5.48366 22.43216,18.62565 4.48643,3.4118 4.48643,3.20362 4.48644,2.96485 4.48643,2.7049 4.48643,2.43198 4.48643,2.15295 4.48643,1.87338 4.48644,1.59789 4.48643,1.33013 4.48643,1.073 4.48643,0.82872 4.48643,0.59898 4.48644,0.38494 4.48643,0.18737 4.48643,0.007 4.48643,-0.15689 6.72965,-0.50506 6.72965,-0.77913 6.72965,-0.9998 8.97286,-1.59013 11.21608,-2.25068 31.40503,-6.49244 11.21608,-2.00912 8.97286,-1.39542 8.97287,-1.17712 8.97286,-0.93946 8.97287,-0.68915 8.97286,-0.43178 8.97286,-0.17212 8.97287,0.086 8.97286,0.33947 8.97287,0.58584 8.97286,0.82324 8.97287,1.05029 8.97286,1.26602 8.97286,1.46983 8.97287,1.66139 11.21608,2.32734 11.21608,2.58357 11.21608,2.81667 11.21608,3.02765 13.4593,3.88235 13.45929,4.12264 2.24322,0.70828 v 0" /></g></g><g
       id="g243"><g
         clip-path="url(#clipPath249)"
         id="g245"><g
           transform="translate(63.16875,155.13131)"
           id="g251"><g
             id="g253"><g
               clip-path="url(#clipPath259)"
               id="g255"><path
                 id="path261"
                 style="fill:#ff0000;fill-opacity:1;fill-rule:nonzero;stroke:#ff0000;stroke-width:4;stroke-linecap:butt;stroke-linejoin:round;stroke-miterlimit:10;stroke-dasharray:none;stroke-opacity:1"
                 d="M -5,-5 5,5 M -5,5 5,-5" /></g></g><g
             transform="translate(49.6,23.536679)"
             id="g263"><g
               id="g265"><g
                 clip-path="url(#clipPath271)"
                 id="g267"><path
                   id="path273"
                   style="fill:#ff0000;fill-opacity:1;fill-rule:nonzero;stroke:#ff0000;stroke-width:4;stroke-linecap:butt;stroke-linejoin:round;stroke-miterlimit:10;stroke-dasharray:none;stroke-opacity:1"
                   d="M -5,-5 5,5 M -5,5 5,-5" /></g></g><g
               transform="translate(49.6,39.229427)"
               id="g275"><g
                 id="g277"><g
                   clip-path="url(#clipPath283)"
                   id="g279"><path
                     id="path285"
                     style="fill:#ff0000;fill-opacity:1;fill-rule:nonzero;stroke:#ff0000;stroke-width:4;stroke-linecap:butt;stroke-linejoin:round;stroke-miterlimit:10;stroke-dasharray:none;stroke-opacity:1"
                     d="M -5,-5 5,5 M -5,5 5,-5" /></g></g></g></g></g></g></g><g
       id="g287"><path
         id="path289"
         style="fill:none;stroke:#000000;stroke-width:0.80000001;stroke-linecap:square;stroke-linejoin:miter;stroke-miterlimit:10;stroke-dasharray:none;stroke-opacity:1"
         d="M 63.16875,70.465625 V 396.62563" /><path
         id="path291"
         style="fill:none;stroke:#000000;stroke-width:0.80000001;stroke-linecap:square;stroke-linejoin:miter;stroke-miterlimit:10;stroke-dasharray:none;stroke-opacity:1"
         d="M 509.56875,70.465625 V 396.62563" /><path
         id="path293"
         style="fill:none;stroke:#000000;stroke-width:0.80000001;stroke-linecap:square;stroke-linejoin:miter;stroke-miterlimit:10;stroke-dasharray:none;stroke-opacity:1"
         d="m 63.16875,70.465625 h 446.4" /><path
         id="path295"
         style="fill:none;stroke:#000000;stroke-width:0.80000001;stroke-linecap:square;stroke-linejoin:miter;stroke-miterlimit:10;stroke-dasharray:none;stroke-opacity:1"
         d="m 63.16875,396.62563 h 446.4" /></g></g></svg>