<?xml version="1.0" encoding="UTF-8" standalone="no"?>
<svg
   xmlns:dc="http://purl.org/dc/elements/1.1/"
   xmlns:cc="http://creativecommons.org/ns#"
   xmlns:rdf="http://www.w3.org/1999/02/22-rdf-syntax-ns#"
   xmlns:svg="http://www.w3.org/2000/svg"
   xmlns="http://www.w3.org/2000/svg"
   viewBox="0 0 717.02502 538.43414"
   height="538.43414"
   width="717.02502"
   xml:space="preserve"
   id="svg29"
   version="1.1"><metadata
     id="metadata35"><rdf:RDF><cc:Work
         rdf:about=""><dc:format>image/svg+xml</dc:format><dc:type
           rdf:resource="http://purl.org/dc/dcmitype/StillImage" /><dc:title></dc:title></cc:Work></rdf:RDF></metadata><defs
     id="defs33"><clipPath
       id="clipPath45"
       clipPathUnits="userSpaceOnUse"><path
         id="path43"
         d="m 77.16875,70.465625 h 446.4 V 396.62563 h -446.4 z" /></clipPath><clipPath
       id="clipPath55"
       clipPathUnits="userSpaceOnUse"><path
         id="path53"
         d="m 77.16875,70.465625 h 446.4 V 396.62563 h -446.4 z" /></clipPath><clipPath
       id="clipPath73"
       clipPathUnits="userSpaceOnUse"><path
         id="path71"
         d="m 77.16875,70.465625 h 446.4 V 396.62563 h -446.4 z" /></clipPath><clipPath
       id="clipPath91"
       clipPathUnits="userSpaceOnUse"><path
         id="path89"
         d="m 77.16875,70.465625 h 446.4 V 396.62563 h -446.4 z" /></clipPath><clipPath
       id="clipPath109"
       clipPathUnits="userSpaceOnUse"><path
         id="path107"
         d="m 77.16875,70.465625 h 446.4 V 396.62563 h -446.4 z" /></clipPath><clipPath
       id="clipPath127"
       clipPathUnits="userSpaceOnUse"><path
         id="path125"
         d="m 77.16875,70.465625 h 446.4 V 396.62563 h -446.4 z" /></clipPath><clipPath
       id="clipPath145"
       clipPathUnits="userSpaceOnUse"><path
         id="path143"
         d="m 77.16875,70.465625 h 446.4 V 396.62563 h -446.4 z" /></clipPath><clipPath
       id="clipPath163"
       clipPathUnits="userSpaceOnUse"><path
         id="path161"
         d="m 77.16875,70.465625 h 446.4 V 396.62563 h -446.4 z" /></clipPath><clipPath
       id="clipPath187"
       clipPathUnits="userSpaceOnUse"><path
         id="path185"
         d="m 77.16875,70.465625 h 446.4 V 396.62563 h -446.4 z" /></clipPath><clipPath
       id="clipPath205"
       clipPathUnits="userSpaceOnUse"><path
         id="path203"
         d="m 77.16875,70.465625 h 446.4 V 396.62563 h -446.4 z" /></clipPath><clipPath
       id="clipPath223"
       clipPathUnits="userSpaceOnUse"><path
         id="path221"
         d="m 77.16875,70.465625 h 446.4 V 396.62563 h -446.4 z" /></clipPath><clipPath
       id="clipPath241"
       clipPathUnits="userSpaceOnUse"><path
         id="path239"
         d="m 77.16875,70.465625 h 446.4 V 396.62563 h -446.4 z" /></clipPath><clipPath
       id="clipPath259"
       clipPathUnits="userSpaceOnUse"><path
         id="path257"
         d="m 77.16875,70.465625 h 446.4 V 396.62563 h -446.4 z" /></clipPath><clipPath
       id="clipPath283"
       clipPathUnits="userSpaceOnUse"><path
         id="path281"
         d="m 77.16875,70.465625 h 446.4 V 396.62563 h -446.4 z" /></clipPath><clipPath
       id="clipPath293"
       clipPathUnits="userSpaceOnUse"><path
         id="path291"
         d="m 77.16875,70.465625 h 446.4 V 396.62563 h -446.4 z" /></clipPath><clipPath
       id="clipPath303"
       clipPathUnits="userSpaceOnUse"><path
         id="path301"
         d="m 77.16875,70.465625 h 446.4 V 396.62563 h -446.4 z" /></clipPath><clipPath
       id="clipPath313"
       clipPathUnits="userSpaceOnUse"><path
         id="path311"
         d="M -7,-7 H 7 V 7 H -7 Z" /></clipPath><clipPath
       id="clipPath325"
       clipPathUnits="userSpaceOnUse"><path
         id="path323"
         d="M -7,-7 H 7 V 7 H -7 Z" /></clipPath><clipPath
       id="clipPath337"
       clipPathUnits="userSpaceOnUse"><path
         id="path335"
         d="M -7,-7 H 7 V 7 H -7 Z" /></clipPath><clipPath
       id="clipPath349"
       clipPathUnits="userSpaceOnUse"><path
         id="path347"
         d="M -7,-7 H 7 V 7 H -7 Z" /></clipPath><clipPath
       id="clipPath361"
       clipPathUnits="userSpaceOnUse"><path
         id="path359"
         d="M -7,-7 H 7 V 7 H -7 Z" /></clipPath><clipPath
       id="clipPath373"
       clipPathUnits="userSpaceOnUse"><path
         id="path371"
         d="M -7,-7 H 7 V 7 H -7 Z" /></clipPath></defs><g
     transform="matrix(1.3333333,0,0,-1.3333333,0,538.43417)"
     id="g37"><g
       id="g39"><g
         clip-path="url(#clipPath45)"
         id="g41"><path
           id="path47"
           style="fill:#0000ff;fill-opacity:0.3;fill-rule:nonzero;stroke:#0000ff;stroke-width:1;stroke-linecap:butt;stroke-linejoin:round;stroke-miterlimit:10;stroke-dasharray:none;stroke-opacity:0.3"
           d="m 77.16875,220.9005 v -2.84897 l 2.243216,0.25211 2.243216,-0.35542 2.243216,-0.38731 2.243216,-0.31868 2.243216,-0.22243 2.243216,-0.11467 2.243217,-6.8e-4 2.243216,0.1173 2.243216,0.23801 2.243216,0.36066 2.243219,0.48461 2.24321,0.60934 2.24322,0.73436 2.24321,0.85921 2.24322,0.98346 2.24322,1.10664 2.24321,1.22831 2.24322,1.34805 2.24322,1.46537 2.24321,1.57983 2.24322,1.69095 2.24321,1.79822 2.24322,1.90114 2.24322,1.99911 2.24321,2.09152 2.24322,2.17756 2.24321,2.25617 2.24322,2.32576 2.24322,2.38347 2.24321,2.4232 2.24322,2.42896 2.24321,2.34988 2.24322,2.02652 2.24322,1.37454 2.24321,0.93086 2.24322,0.8095 2.24321,0.80985 2.24322,0.8538 2.24322,0.91785 2.24321,0.99353 2.24322,1.077 2.24321,1.16616 2.24322,1.25962 2.24322,1.35636 2.24321,1.45551 2.24322,1.5563 2.24322,1.65804 2.24321,1.76005 2.24322,1.8617 2.24321,1.96237 2.24322,2.06144 2.24322,2.15834 2.24321,2.25247 2.24322,2.34323 2.24321,2.43009 2.24322,2.51241 2.24322,2.58961 2.24321,2.66103 2.24322,2.72591 2.24321,2.78331 2.24322,2.83187 2.24322,2.86921 2.24321,2.89042 2.24322,2.88253 2.24321,2.80165 2.24322,2.46995 2.24322,1.59378 2.24321,0.84207 2.24322,0.54949 2.24322,0.41298 2.24321,0.32396 2.24322,0.25494 2.24321,0.19719 2.24322,0.14736 2.24322,0.10385 2.24321,0.0658 2.24322,0.0327 2.24321,0.004 2.24322,-0.0198 2.24322,-0.0399 2.24321,-0.0561 2.24322,-0.0687 2.24322,-0.0779 2.24321,-0.0838 2.24322,-0.0868 2.24321,-0.087 2.24322,-0.0846 2.24321,-0.0799 2.24322,-0.0731 2.24322,-0.0644 2.24321,-0.054 2.24322,-0.0423 2.24321,-0.0294 2.24322,-0.0155 2.24322,-10e-4 2.24321,0.0139 2.24322,0.0291 2.24322,0.0442 2.24321,0.0589 2.24322,0.0731 2.24321,0.0866 2.24322,0.0989 2.24322,0.11006 2.24321,0.11966 2.24322,0.12751 2.24321,0.13339 2.24322,0.13707 2.24322,0.13835 2.24321,0.13698 2.24322,0.13279 2.24321,0.12557 2.24322,0.11514 2.24322,0.10131 2.24321,0.0839 2.24322,0.0628 2.24321,0.0379 2.24322,0.009 2.24322,-0.0239 2.24321,-0.061 2.24322,-0.10236 2.24322,-0.14792 2.24321,-0.19772 2.24322,-0.25173 2.24321,-0.30989 2.24322,-0.37207 2.24322,-0.43814 2.24321,-0.50787 2.24322,-0.58102 2.24321,-0.65727 2.24322,-0.73632 2.24322,-0.81788 2.24321,-0.90187 2.24322,-0.98882 2.24321,-1.08073 2.24322,-1.18355 2.24322,-1.31276 2.24321,-1.49989 2.24322,-1.75927 2.24321,-2.00427 2.24322,-2.15447 2.24322,-2.23387 2.24321,-2.27877 2.24322,-2.30606 2.24322,-2.32205 2.24321,-2.32892 2.24322,-2.32733 2.24321,-2.31742 2.24322,-2.29926 2.24322,-2.27293 2.24321,-2.23858 2.24322,-2.19646 2.24321,-2.14691 2.24322,-2.09036 2.24322,-2.02728 2.24321,-1.95824 2.24322,-1.88388 2.24321,-1.80489 2.24322,-1.7221 2.24322,-1.63652 2.24321,-1.54947 2.24322,-1.46298 2.24321,-1.38072 2.24322,-1.311 2.24322,-1.278 2.24321,-1.37242 2.24322,-1.89464 2.24321,-2.79089 2.24322,-3.30735 2.24322,-3.55989 2.24321,-3.73581 2.24322,-3.88596 2.24322,-4.0248 2.24321,-4.1574 2.24322,-4.28576 2.24321,-4.41078 2.24322,-4.53291 2.24322,-4.65232 2.24321,-4.76909 2.24322,-4.88325 2.24321,-4.9948 2.24322,-5.10371 2.24322,-5.20997 2.24321,-5.31354 2.24322,-5.41438 2.24321,-5.5125 2.24322,-5.60783 2.24322,-5.70039 2.24321,-5.79016 2.24322,-5.87711 2.24322,-5.96124 2.24321,-6.04257 2.24322,-6.12107 2.24321,-6.19676 2.24322,-6.26965 2.24322,-6.33973 2.24321,-6.40704 2.24322,-6.471581 2.24321,-6.533376 2.24322,-6.592443 v 181.6957 0 l -2.24322,-1.03849 -2.24321,-1.01411 -2.24322,-0.9878 -2.24321,-0.95951 -2.24322,-0.92921 -2.24322,-0.89684 -2.24321,-0.86236 -2.24322,-0.82573 -2.24321,-0.78692 -2.24322,-0.74588 -2.24322,-0.70256 -2.24321,-0.65695 -2.24322,-0.60898 -2.24322,-0.55866 -2.24321,-0.50591 -2.24322,-0.45073 -2.24321,-0.39307 -2.24322,-0.33291 -2.24322,-0.27022 -2.24321,-0.20495 -2.24322,-0.13707 -2.24321,-0.0665 -2.24322,0.007 -2.24322,0.0828 -2.24321,0.1619 -2.24322,0.24425 -2.24321,0.33038 -2.24322,0.42129 -2.24322,0.51909 -2.24321,0.62892 -2.24322,0.76538 -2.24322,0.97941 -2.24321,1.45844 -2.24322,2.31844 -2.24321,2.80575 -2.24322,2.86666 -2.24322,2.80166 -2.24321,2.70151 -2.24322,2.59042 -2.24321,2.47672 -2.24322,2.36407 -2.24322,2.25446 -2.24321,2.14917 -2.24322,2.04912 -2.24321,1.95503 -2.24322,1.86749 -2.24322,1.78698 -2.24321,1.71388 -2.24322,1.6485 -2.24321,1.59103 -2.24322,1.54158 -2.24322,1.50012 -2.24321,1.46652 -2.24322,1.44055 -2.24321,1.42192 -2.24322,1.41044 -2.24322,1.40635 -2.24321,1.41144 -2.24322,1.43156 -2.24322,1.48316 -2.24321,1.60201 -2.24322,1.81172 -2.24321,2.03164 -2.24322,2.17503 -2.24322,2.25636 -2.24321,2.3073 -2.24322,2.34349 -2.24321,2.37098 -2.24322,2.39197 -2.24322,2.40705 -2.24321,2.4163 -2.24322,2.41958 -2.24321,2.41666 -2.24322,2.40737 -2.24322,2.39157 -2.24321,2.36915 -2.24322,2.34008 -2.24321,2.30432 -2.24322,2.26195 -2.24322,2.213 -2.24321,2.15759 -2.24322,2.09585 -2.24322,2.02791 -2.24321,1.95398 -2.24322,1.87422 -2.24321,1.78886 -2.24322,1.69811 -2.24322,1.60223 -2.24321,1.50144 -2.24322,1.39603 -2.24321,1.28626 -2.24322,1.17241 -2.24322,1.05476 -2.24321,0.93363 -2.24322,0.80929 -2.24321,0.68209 -2.24322,0.55229 -2.24322,0.42026 -2.24321,0.2863 -2.24322,0.15073 -2.24321,0.0139 -2.24322,-0.12388 -2.24322,-0.26225 -2.24321,-0.40089 -2.24322,-0.53945 -2.24322,-0.67758 -2.24321,-0.81495 -2.24322,-0.95121 -2.24321,-1.08601 -2.24322,-1.21901 -2.24322,-1.34986 -2.24321,-1.47821 -2.24322,-1.60372 -2.24321,-1.72603 -2.24322,-1.84481 -2.24321,-1.9597 -2.24322,-2.07036 -2.24322,-2.17643 -2.24321,-2.27758 -2.24322,-2.37344 -2.24322,-2.46364 -2.24321,-2.54782 -2.24322,-2.62555 -2.24321,-2.69641 -2.24322,-2.75984 -2.24322,-2.81517 -2.24321,-2.86134 -2.24322,-2.89662 -2.24321,-2.9174 -2.24322,-2.9148 -2.24322,-2.86106 -2.24321,-2.64744 -2.24322,-1.9706 -2.24322,-1.16502 -2.24321,-0.89939 -2.24322,-0.87982 -2.24321,-0.92832 -2.24322,-1.00082 -2.24322,-1.08422 -2.24321,-1.17345 -2.24322,-1.26606 -2.24321,-1.36059 -2.24322,-1.45604 -2.24322,-1.55161 -2.24321,-1.64664 -2.24322,-1.74049 -2.24321,-1.83262 -2.24322,-1.92247 -2.24322,-2.00953 -2.24321,-2.0933 -2.24322,-2.17327 -2.24321,-2.24898 -2.24322,-2.31993 -2.24322,-2.38566 -2.24321,-2.44568 -2.24322,-2.49949 -2.24322,-2.54657 -2.24321,-2.58628 -2.24322,-2.61786 -2.24321,-2.64024 -2.24322,-2.6516 -2.24322,-2.64848 -2.24321,-2.62272 -2.24322,-2.55123 -2.24321,-2.35629 -2.24322,-1.83773 -2.24322,-1.11 -2.24321,-0.71051 -2.24322,-0.55535 -2.24321,-0.4855 -2.24322,-0.45048 -2.24322,-0.43468 -2.24321,-0.43238 -2.24322,-0.44101 -2.24321,-0.45931 -2.24322,-0.4865 -2.24322,-0.52206 -2.24321,-0.5656 -2.24322,-0.61677 -2.24321,-0.67523 -2.24322,-0.74071 -2.24322,-0.81286 -2.24321,-0.89139 -2.24322,-0.97595 -2.24322,-1.06621 -2.24321,-1.16181 -2.24322,-1.26237 -2.24321,-1.36749 -2.243219,-1.47672 -2.243216,-1.5896 -2.243216,-1.7056 -2.243216,-1.82402 -2.243217,-1.94405 -2.243216,-2.06434 -2.243216,-2.18255 -2.243216,-2.29331 -2.243216,-2.38035 -2.243216,-2.37064 -2.243216,-1.78886 z" /></g></g><g
       id="g49"><g
         clip-path="url(#clipPath55)"
         id="g51"><path
           id="path57"
           style="fill:none;stroke:#b0b0b0;stroke-width:0.80000001;stroke-linecap:square;stroke-linejoin:round;stroke-miterlimit:10;stroke-dasharray:none;stroke-opacity:1"
           d="M 77.16875,70.465625 V 396.62563" /></g></g><g
       id="g59"><path
         id="path61"
         style="fill:#000000;fill-opacity:1;fill-rule:nonzero;stroke:#000000;stroke-width:0.80000001;stroke-linecap:butt;stroke-linejoin:round;stroke-miterlimit:10;stroke-dasharray:none;stroke-opacity:1"
         d="m 77.16875,70.465625 v -3.5" /><text
         id="text65"
         style="font-variant:normal;font-weight:normal;font-size:22px;font-family:'DejaVu Sans';-inkscape-font-specification:DejaVuSans;writing-mode:lr-tb;fill:#000000;fill-opacity:1;fill-rule:nonzero;stroke:none"
         transform="matrix(1,0,0,-1,60.95,46.746875)"><tspan
           id="tspan63"
           y="0"
           x="0 18.436001">−3</tspan></text>
</g><g
       id="g67"><g
         clip-path="url(#clipPath73)"
         id="g69"><path
           id="path75"
           style="fill:none;stroke:#b0b0b0;stroke-width:0.80000001;stroke-linecap:square;stroke-linejoin:round;stroke-miterlimit:10;stroke-dasharray:none;stroke-opacity:1"
           d="M 151.56875,70.465625 V 396.62563" /></g></g><g
       id="g77"><path
         id="path79"
         style="fill:#000000;fill-opacity:1;fill-rule:nonzero;stroke:#000000;stroke-width:0.80000001;stroke-linecap:butt;stroke-linejoin:round;stroke-miterlimit:10;stroke-dasharray:none;stroke-opacity:1"
         d="m 151.56875,70.465625 v -3.5" /><text
         id="text83"
         style="font-variant:normal;font-weight:normal;font-size:22px;font-family:'DejaVu Sans';-inkscape-font-specification:DejaVuSans;writing-mode:lr-tb;fill:#000000;fill-opacity:1;fill-rule:nonzero;stroke:none"
         transform="matrix(1,0,0,-1,135.35,46.746875)"><tspan
           id="tspan81"
           y="0"
           x="0 18.436001">−2</tspan></text>
</g><g
       id="g85"><g
         clip-path="url(#clipPath91)"
         id="g87"><path
           id="path93"
           style="fill:none;stroke:#b0b0b0;stroke-width:0.80000001;stroke-linecap:square;stroke-linejoin:round;stroke-miterlimit:10;stroke-dasharray:none;stroke-opacity:1"
           d="M 225.96875,70.465625 V 396.62563" /></g></g><g
       id="g95"><path
         id="path97"
         style="fill:#000000;fill-opacity:1;fill-rule:nonzero;stroke:#000000;stroke-width:0.80000001;stroke-linecap:butt;stroke-linejoin:round;stroke-miterlimit:10;stroke-dasharray:none;stroke-opacity:1"
         d="m 225.96875,70.465625 v -3.5" /><text
         id="text101"
         style="font-variant:normal;font-weight:normal;font-size:22px;font-family:'DejaVu Sans';-inkscape-font-specification:DejaVuSans;writing-mode:lr-tb;fill:#000000;fill-opacity:1;fill-rule:nonzero;stroke:none"
         transform="matrix(1,0,0,-1,209.75,46.746875)"><tspan
           id="tspan99"
           y="0"
           x="0 18.436001">−1</tspan></text>
</g><g
       id="g103"><g
         clip-path="url(#clipPath109)"
         id="g105"><path
           id="path111"
           style="fill:none;stroke:#b0b0b0;stroke-width:0.80000001;stroke-linecap:square;stroke-linejoin:round;stroke-miterlimit:10;stroke-dasharray:none;stroke-opacity:1"
           d="M 300.36875,70.465625 V 396.62563" /></g></g><g
       id="g113"><path
         id="path115"
         style="fill:#000000;fill-opacity:1;fill-rule:nonzero;stroke:#000000;stroke-width:0.80000001;stroke-linecap:butt;stroke-linejoin:round;stroke-miterlimit:10;stroke-dasharray:none;stroke-opacity:1"
         d="m 300.36875,70.465625 v -3.5" /><text
         id="text119"
         style="font-variant:normal;font-weight:normal;font-size:22px;font-family:'DejaVu Sans';-inkscape-font-specification:DejaVuSans;writing-mode:lr-tb;fill:#000000;fill-opacity:1;fill-rule:nonzero;stroke:none"
         transform="matrix(1,0,0,-1,293.36875,46.746875)"><tspan
           id="tspan117"
           y="0"
           x="0">0</tspan></text>
</g><g
       id="g121"><g
         clip-path="url(#clipPath127)"
         id="g123"><path
           id="path129"
           style="fill:none;stroke:#b0b0b0;stroke-width:0.80000001;stroke-linecap:square;stroke-linejoin:round;stroke-miterlimit:10;stroke-dasharray:none;stroke-opacity:1"
           d="M 374.76875,70.465625 V 396.62563" /></g></g><g
       id="g131"><path
         id="path133"
         style="fill:#000000;fill-opacity:1;fill-rule:nonzero;stroke:#000000;stroke-width:0.80000001;stroke-linecap:butt;stroke-linejoin:round;stroke-miterlimit:10;stroke-dasharray:none;stroke-opacity:1"
         d="m 374.76875,70.465625 v -3.5" /><text
         id="text137"
         style="font-variant:normal;font-weight:normal;font-size:22px;font-family:'DejaVu Sans';-inkscape-font-specification:DejaVuSans;writing-mode:lr-tb;fill:#000000;fill-opacity:1;fill-rule:nonzero;stroke:none"
         transform="matrix(1,0,0,-1,367.76875,46.746875)"><tspan
           id="tspan135"
           y="0"
           x="0">1</tspan></text>
</g><g
       id="g139"><g
         clip-path="url(#clipPath145)"
         id="g141"><path
           id="path147"
           style="fill:none;stroke:#b0b0b0;stroke-width:0.80000001;stroke-linecap:square;stroke-linejoin:round;stroke-miterlimit:10;stroke-dasharray:none;stroke-opacity:1"
           d="M 449.16875,70.465625 V 396.62563" /></g></g><g
       id="g149"><path
         id="path151"
         style="fill:#000000;fill-opacity:1;fill-rule:nonzero;stroke:#000000;stroke-width:0.80000001;stroke-linecap:butt;stroke-linejoin:round;stroke-miterlimit:10;stroke-dasharray:none;stroke-opacity:1"
         d="m 449.16875,70.465625 v -3.5" /><text
         id="text155"
         style="font-variant:normal;font-weight:normal;font-size:22px;font-family:'DejaVu Sans';-inkscape-font-specification:DejaVuSans;writing-mode:lr-tb;fill:#000000;fill-opacity:1;fill-rule:nonzero;stroke:none"
         transform="matrix(1,0,0,-1,442.16875,46.746875)"><tspan
           id="tspan153"
           y="0"
           x="0">2</tspan></text>
</g><g
       id="g157"><g
         clip-path="url(#clipPath163)"
         id="g159"><path
           id="path165"
           style="fill:none;stroke:#b0b0b0;stroke-width:0.80000001;stroke-linecap:square;stroke-linejoin:round;stroke-miterlimit:10;stroke-dasharray:none;stroke-opacity:1"
           d="M 523.56875,70.465625 V 396.62563" /></g></g><g
       id="g167"><path
         id="path169"
         style="fill:#000000;fill-opacity:1;fill-rule:nonzero;stroke:#000000;stroke-width:0.80000001;stroke-linecap:butt;stroke-linejoin:round;stroke-miterlimit:10;stroke-dasharray:none;stroke-opacity:1"
         d="m 523.56875,70.465625 v -3.5" /><text
         id="text173"
         style="font-variant:normal;font-weight:normal;font-size:22px;font-family:'DejaVu Sans';-inkscape-font-specification:DejaVuSans;writing-mode:lr-tb;fill:#000000;fill-opacity:1;fill-rule:nonzero;stroke:none"
         transform="matrix(1,0,0,-1,516.56875,46.746875)"><tspan
           id="tspan171"
           y="0"
           x="0">3</tspan></text>
<g
         transform="translate(290.86875,13.85625)"
         id="g175"><text
           id="text179"
           style="font-style:italic;font-variant:normal;font-size:32px;font-family:'DejaVu Sans';-inkscape-font-specification:DejaVuSans-Oblique;writing-mode:lr-tb;fill:#000000;fill-opacity:1;fill-rule:nonzero;stroke:none"
           transform="matrix(1,0,0,-1,0,0.5)"><tspan
             id="tspan177"
             y="0"
             x="0">x</tspan></text>
</g></g><g
       id="g181"><g
         clip-path="url(#clipPath187)"
         id="g183"><path
           id="path189"
           style="fill:none;stroke:#b0b0b0;stroke-width:0.80000001;stroke-linecap:square;stroke-linejoin:round;stroke-miterlimit:10;stroke-dasharray:none;stroke-opacity:1"
           d="m 77.16875,86.120168 h 446.4" /></g></g><g
       id="g191"><path
         id="path193"
         style="fill:#000000;fill-opacity:1;fill-rule:nonzero;stroke:#000000;stroke-width:0.80000001;stroke-linecap:butt;stroke-linejoin:round;stroke-miterlimit:10;stroke-dasharray:none;stroke-opacity:1"
         d="m 77.16875,86.120168 h -3.5" /><text
         id="text197"
         style="font-variant:normal;font-weight:normal;font-size:22px;font-family:'DejaVu Sans';-inkscape-font-specification:DejaVuSans;writing-mode:lr-tb;fill:#000000;fill-opacity:1;fill-rule:nonzero;stroke:none"
         transform="matrix(1,0,0,-1,56.16875,77.760793)"><tspan
           id="tspan195"
           y="0"
           x="0">7</tspan></text>
</g><g
       id="g199"><g
         clip-path="url(#clipPath205)"
         id="g201"><path
           id="path207"
           style="fill:none;stroke:#b0b0b0;stroke-width:0.80000001;stroke-linecap:square;stroke-linejoin:round;stroke-miterlimit:10;stroke-dasharray:none;stroke-opacity:1"
           d="m 77.16875,152.47037 h 446.4" /></g></g><g
       id="g209"><path
         id="path211"
         style="fill:#000000;fill-opacity:1;fill-rule:nonzero;stroke:#000000;stroke-width:0.80000001;stroke-linecap:butt;stroke-linejoin:round;stroke-miterlimit:10;stroke-dasharray:none;stroke-opacity:1"
         d="m 77.16875,152.47037 h -3.5" /><text
         id="text215"
         style="font-variant:normal;font-weight:normal;font-size:22px;font-family:'DejaVu Sans';-inkscape-font-specification:DejaVuSans;writing-mode:lr-tb;fill:#000000;fill-opacity:1;fill-rule:nonzero;stroke:none"
         transform="matrix(1,0,0,-1,56.16875,144.11099)"><tspan
           id="tspan213"
           y="0"
           x="0">8</tspan></text>
</g><g
       id="g217"><g
         clip-path="url(#clipPath223)"
         id="g219"><path
           id="path225"
           style="fill:none;stroke:#b0b0b0;stroke-width:0.80000001;stroke-linecap:square;stroke-linejoin:round;stroke-miterlimit:10;stroke-dasharray:none;stroke-opacity:1"
           d="m 77.16875,218.82057 h 446.4" /></g></g><g
       id="g227"><path
         id="path229"
         style="fill:#000000;fill-opacity:1;fill-rule:nonzero;stroke:#000000;stroke-width:0.80000001;stroke-linecap:butt;stroke-linejoin:round;stroke-miterlimit:10;stroke-dasharray:none;stroke-opacity:1"
         d="m 77.16875,218.82057 h -3.5" /><text
         id="text233"
         style="font-variant:normal;font-weight:normal;font-size:22px;font-family:'DejaVu Sans';-inkscape-font-specification:DejaVuSans;writing-mode:lr-tb;fill:#000000;fill-opacity:1;fill-rule:nonzero;stroke:none"
         transform="matrix(1,0,0,-1,56.16875,210.46119)"><tspan
           id="tspan231"
           y="0"
           x="0">9</tspan></text>
</g><g
       id="g235"><g
         clip-path="url(#clipPath241)"
         id="g237"><path
           id="path243"
           style="fill:none;stroke:#b0b0b0;stroke-width:0.80000001;stroke-linecap:square;stroke-linejoin:round;stroke-miterlimit:10;stroke-dasharray:none;stroke-opacity:1"
           d="m 77.16875,285.17077 h 446.4" /></g></g><g
       id="g245"><path
         id="path247"
         style="fill:#000000;fill-opacity:1;fill-rule:nonzero;stroke:#000000;stroke-width:0.80000001;stroke-linecap:butt;stroke-linejoin:round;stroke-miterlimit:10;stroke-dasharray:none;stroke-opacity:1"
         d="m 77.16875,285.17077 h -3.5" /><text
         id="text251"
         style="font-variant:normal;font-weight:normal;font-size:22px;font-family:'DejaVu Sans';-inkscape-font-specification:DejaVuSans;writing-mode:lr-tb;fill:#000000;fill-opacity:1;fill-rule:nonzero;stroke:none"
         transform="matrix(1,0,0,-1,42.16875,276.81139)"><tspan
           id="tspan249"
           y="0"
           x="0 13.992">10</tspan></text>
</g><g
       id="g253"><g
         clip-path="url(#clipPath259)"
         id="g255"><path
           id="path261"
           style="fill:none;stroke:#b0b0b0;stroke-width:0.80000001;stroke-linecap:square;stroke-linejoin:round;stroke-miterlimit:10;stroke-dasharray:none;stroke-opacity:1"
           d="m 77.16875,351.52096 h 446.4" /></g></g><g
       id="g263"><path
         id="path265"
         style="fill:#000000;fill-opacity:1;fill-rule:nonzero;stroke:#000000;stroke-width:0.80000001;stroke-linecap:butt;stroke-linejoin:round;stroke-miterlimit:10;stroke-dasharray:none;stroke-opacity:1"
         d="m 77.16875,351.52096 h -3.5" /><text
         id="text269"
         style="font-variant:normal;font-weight:normal;font-size:22px;font-family:'DejaVu Sans';-inkscape-font-specification:DejaVuSans;writing-mode:lr-tb;fill:#000000;fill-opacity:1;fill-rule:nonzero;stroke:none"
         transform="matrix(1,0,0,-1,42.16875,343.16159)"><tspan
           id="tspan267"
           y="0"
           x="0 13.992">11</tspan></text>
<g
         transform="rotate(90,-96.438437,127.60719)"
         id="g271"><text
           id="text275"
           style="font-style:italic;font-variant:normal;font-size:32px;font-family:'DejaVu Sans';-inkscape-font-specification:DejaVuSans-Oblique;writing-mode:lr-tb;fill:#000000;fill-opacity:1;fill-rule:nonzero;stroke:none"
           transform="matrix(1,0,0,-1,0,0.5)"><tspan
             id="tspan273"
             y="0"
             x="0">y</tspan></text>
</g></g><g
       id="g277"><g
         clip-path="url(#clipPath283)"
         id="g279"><path
           id="path285"
           style="fill:none;stroke:#008000;stroke-width:4;stroke-linecap:square;stroke-linejoin:round;stroke-miterlimit:10;stroke-dasharray:none;stroke-opacity:1"
           d="m 77.16875,219.48457 4.486432,0.68367 4.486432,0.91997 4.486432,1.15291 4.486433,1.38168 4.486432,1.60542 4.486429,1.82331 4.48643,2.03459 4.48644,2.23847 4.48643,2.43421 4.48643,2.62109 6.72965,4.26105 6.72965,4.62513 6.72965,4.95139 6.72964,5.23716 6.72965,5.48013 8.97287,7.6071 11.21608,9.83527 26.91859,23.80216 8.97286,7.59237 6.72965,5.46559 6.72965,5.21977 6.72965,4.93126 6.72965,4.60245 6.72965,4.23599 4.48643,2.60318 4.48643,2.41539 4.48643,2.21882 4.48644,2.01418 4.48643,1.80223 4.48643,1.58372 4.48643,1.35945 4.48643,1.13024 4.48643,0.89692 4.48644,0.66035 4.48643,0.42137 4.48643,0.18086 4.48643,-0.0603 4.48644,-0.30125 4.48643,-0.54111 4.48643,-0.77899 4.48643,-1.01405 4.48643,-1.24541 4.48644,-1.47225 4.48643,-1.69374 4.48643,-1.90907 4.48643,-2.11747 4.48644,-2.31816 4.48643,-2.51042 4.48643,-2.69357 6.72965,-4.36215 6.72965,-4.71637 6.72964,-5.03203 6.72965,-5.30656 8.97287,-7.42717 8.97286,-7.72997 13.4593,-11.91622 17.94573,-15.88139 8.97286,-7.67801 8.97286,-7.35314 6.72965,-5.23716 6.72965,-4.95139 6.72965,-4.62513 6.72965,-4.26105 4.48643,-2.62109 4.48643,-2.43421 4.48643,-2.23847 4.48644,-2.03459 4.48643,-1.82331 4.48643,-1.60542 4.48643,-1.38168 4.48644,-1.15291 4.48643,-0.91997 4.48643,-0.68367 v 0" /></g></g><g
       id="g287"><g
         clip-path="url(#clipPath293)"
         id="g289"><path
           id="path295"
           style="fill:none;stroke:#0000ff;stroke-width:4;stroke-linecap:square;stroke-linejoin:round;stroke-miterlimit:10;stroke-dasharray:none;stroke-opacity:1"
           d="m 77.16875,219.47601 11.21608,4.99199 22.43216,9.86691 8.97287,4.28464 6.72964,3.4633 6.72965,3.72982 6.72965,4.03378 6.72965,4.36348 6.72965,4.70459 6.72964,5.04022 6.72965,5.35276 6.72965,5.62674 8.97287,7.83849 13.45929,12.16826 13.4593,12.14186 8.97286,7.78081 6.72965,5.54918 6.72965,5.23222 6.72965,4.86035 4.48643,3.01053 4.48643,2.81296 4.48643,2.60521 4.48644,2.38866 4.48643,2.16457 4.48643,1.93416 4.48643,1.69852 4.48643,1.45871 4.48644,1.21572 4.48643,0.97047 4.48643,0.72383 4.48643,0.47663 4.48644,0.22967 4.48643,-0.0163 4.48643,-0.26053 4.48643,-0.50233 4.48643,-0.74101 4.48644,-0.97587 4.48643,-1.20626 4.48643,-1.43148 4.48643,-1.65087 4.48643,-1.86372 4.48644,-2.06934 4.48643,-2.267 4.48643,-2.45596 4.48643,-2.63542 6.72965,-4.26684 6.72965,-4.60877 6.72965,-4.90751 6.72965,-5.15786 8.97286,-7.17321 11.21608,-9.2757 13.4593,-11.42013 13.45929,-11.71662 11.21608,-10.06948 8.97287,-8.32429 8.97286,-8.61305 8.97287,-8.93446 8.97286,-9.275 8.97287,-9.62329 8.97286,-9.96994 8.97287,-10.30727 8.97286,-10.62909 8.97286,-10.93055 2.24322,-2.77698 v 0" /></g></g><g
       id="g297"><g
         clip-path="url(#clipPath303)"
         id="g299"><g
           transform="translate(77.16875,219.48457)"
           id="g305"><g
             id="g307"><g
               clip-path="url(#clipPath313)"
               id="g309"><path
                 id="path315"
                 style="fill:#ff0000;fill-opacity:1;fill-rule:nonzero;stroke:#ff0000;stroke-width:4;stroke-linecap:butt;stroke-linejoin:round;stroke-miterlimit:10;stroke-dasharray:none;stroke-opacity:1"
                 d="M -5,-5 5,5 M -5,5 5,-5" /></g></g><g
             transform="translate(74.4,38.074774)"
             id="g317"><g
               id="g319"><g
                 clip-path="url(#clipPath325)"
                 id="g321"><path
                   id="path327"
                   style="fill:#ff0000;fill-opacity:1;fill-rule:nonzero;stroke:#ff0000;stroke-width:4;stroke-linecap:butt;stroke-linejoin:round;stroke-miterlimit:10;stroke-dasharray:none;stroke-opacity:1"
                   d="M -5,-5 5,5 M -5,5 5,-5" /></g></g><g
               transform="translate(74.4,63.460591)"
               id="g329"><g
                 id="g331"><g
                   clip-path="url(#clipPath337)"
                   id="g333"><path
                     id="path339"
                     style="fill:#ff0000;fill-opacity:1;fill-rule:nonzero;stroke:#ff0000;stroke-width:4;stroke-linecap:butt;stroke-linejoin:round;stroke-miterlimit:10;stroke-dasharray:none;stroke-opacity:1"
                     d="M -5,-5 5,5 M -5,5 5,-5" /></g></g><g
                 transform="translate(223.2,-63.460591)"
                 id="g341"><g
                   id="g343"><g
                     clip-path="url(#clipPath349)"
                     id="g345"><path
                       id="path351"
                       style="fill:#ff0000;fill-opacity:1;fill-rule:nonzero;stroke:#ff0000;stroke-width:4;stroke-linecap:butt;stroke-linejoin:round;stroke-miterlimit:10;stroke-dasharray:none;stroke-opacity:1"
                       d="M -5,-5 5,5 M -5,5 5,-5" /></g></g><g
                   transform="translate(-59.52,51.653935)"
                   id="g353"><g
                     id="g355"><g
                       clip-path="url(#clipPath361)"
                       id="g357"><path
                         id="path363"
                         style="fill:#ff0000;fill-opacity:1;fill-rule:nonzero;stroke:#ff0000;stroke-width:4;stroke-linecap:butt;stroke-linejoin:round;stroke-miterlimit:10;stroke-dasharray:none;stroke-opacity:1"
                         d="M -5,-5 5,5 M -5,5 5,-5" /></g></g><g
                     transform="translate(-7.44,6.0536838)"
                     id="g365"><g
                       id="g367"><g
                         clip-path="url(#clipPath373)"
                         id="g369"><path
                           id="path375"
                           style="fill:#ff0000;fill-opacity:1;fill-rule:nonzero;stroke:#ff0000;stroke-width:4;stroke-linecap:butt;stroke-linejoin:round;stroke-miterlimit:10;stroke-dasharray:none;stroke-opacity:1"
                           d="M -5,-5 5,5 M -5,5 5,-5" /></g></g></g></g></g></g></g></g></g></g><g
       id="g377"><path
         id="path379"
         style="fill:none;stroke:#000000;stroke-width:0.80000001;stroke-linecap:square;stroke-linejoin:miter;stroke-miterlimit:10;stroke-dasharray:none;stroke-opacity:1"
         d="M 77.16875,70.465625 V 396.62563" /><path
         id="path381"
         style="fill:none;stroke:#000000;stroke-width:0.80000001;stroke-linecap:square;stroke-linejoin:miter;stroke-miterlimit:10;stroke-dasharray:none;stroke-opacity:1"
         d="M 523.56875,70.465625 V 396.62563" /><path
         id="path383"
         style="fill:none;stroke:#000000;stroke-width:0.80000001;stroke-linecap:square;stroke-linejoin:miter;stroke-miterlimit:10;stroke-dasharray:none;stroke-opacity:1"
         d="m 77.16875,70.465625 h 446.4" /><path
         id="path385"
         style="fill:none;stroke:#000000;stroke-width:0.80000001;stroke-linecap:square;stroke-linejoin:miter;stroke-miterlimit:10;stroke-dasharray:none;stroke-opacity:1"
         d="m 77.16875,396.62563 h 446.4" /></g></g></svg>