<?xml version="1.0" encoding="UTF-8" standalone="no"?>
<svg
   xmlns:dc="http://purl.org/dc/elements/1.1/"
   xmlns:cc="http://creativecommons.org/ns#"
   xmlns:rdf="http://www.w3.org/1999/02/22-rdf-syntax-ns#"
   xmlns:svg="http://www.w3.org/2000/svg"
   xmlns="http://www.w3.org/2000/svg"
   viewBox="0 0 722.94165 538.43414"
   height="538.43414"
   width="722.94165"
   xml:space="preserve"
   id="svg29"
   version="1.1"><metadata
     id="metadata35"><rdf:RDF><cc:Work
         rdf:about=""><dc:format>image/svg+xml</dc:format><dc:type
           rdf:resource="http://purl.org/dc/dcmitype/StillImage" /><dc:title></dc:title></cc:Work></rdf:RDF></metadata><defs
     id="defs33"><clipPath
       id="clipPath45"
       clipPathUnits="userSpaceOnUse"><path
         id="path43"
         d="m 81.60625,70.465625 h 446.4 V 396.62563 h -446.4 z" /></clipPath><clipPath
       id="clipPath63"
       clipPathUnits="userSpaceOnUse"><path
         id="path61"
         d="m 81.60625,70.465625 h 446.4 V 396.62563 h -446.4 z" /></clipPath><clipPath
       id="clipPath81"
       clipPathUnits="userSpaceOnUse"><path
         id="path79"
         d="m 81.60625,70.465625 h 446.4 V 396.62563 h -446.4 z" /></clipPath><clipPath
       id="clipPath99"
       clipPathUnits="userSpaceOnUse"><path
         id="path97"
         d="m 81.60625,70.465625 h 446.4 V 396.62563 h -446.4 z" /></clipPath><clipPath
       id="clipPath117"
       clipPathUnits="userSpaceOnUse"><path
         id="path115"
         d="m 81.60625,70.465625 h 446.4 V 396.62563 h -446.4 z" /></clipPath><clipPath
       id="clipPath135"
       clipPathUnits="userSpaceOnUse"><path
         id="path133"
         d="m 81.60625,70.465625 h 446.4 V 396.62563 h -446.4 z" /></clipPath><clipPath
       id="clipPath153"
       clipPathUnits="userSpaceOnUse"><path
         id="path151"
         d="m 81.60625,70.465625 h 446.4 V 396.62563 h -446.4 z" /></clipPath><clipPath
       id="clipPath177"
       clipPathUnits="userSpaceOnUse"><path
         id="path175"
         d="m 81.60625,70.465625 h 446.4 V 396.62563 h -446.4 z" /></clipPath><clipPath
       id="clipPath195"
       clipPathUnits="userSpaceOnUse"><path
         id="path193"
         d="m 81.60625,70.465625 h 446.4 V 396.62563 h -446.4 z" /></clipPath><clipPath
       id="clipPath213"
       clipPathUnits="userSpaceOnUse"><path
         id="path211"
         d="m 81.60625,70.465625 h 446.4 V 396.62563 h -446.4 z" /></clipPath><clipPath
       id="clipPath231"
       clipPathUnits="userSpaceOnUse"><path
         id="path229"
         d="m 81.60625,70.465625 h 446.4 V 396.62563 h -446.4 z" /></clipPath><clipPath
       id="clipPath255"
       clipPathUnits="userSpaceOnUse"><path
         id="path253"
         d="m 81.60625,70.465625 h 446.4 V 396.62563 h -446.4 z" /></clipPath><clipPath
       id="clipPath265"
       clipPathUnits="userSpaceOnUse"><path
         id="path263"
         d="m 81.60625,70.465625 h 446.4 V 396.62563 h -446.4 z" /></clipPath><clipPath
       id="clipPath275"
       clipPathUnits="userSpaceOnUse"><path
         id="path273"
         d="m 81.60625,70.465625 h 446.4 V 396.62563 h -446.4 z" /></clipPath><clipPath
       id="clipPath285"
       clipPathUnits="userSpaceOnUse"><path
         id="path283"
         d="m 81.60625,70.465625 h 446.4 V 396.62563 h -446.4 z" /></clipPath><clipPath
       id="clipPath295"
       clipPathUnits="userSpaceOnUse"><path
         id="path293"
         d="m 81.60625,70.465625 h 446.4 V 396.62563 h -446.4 z" /></clipPath></defs><g
     transform="matrix(1.3333333,0,0,-1.3333333,0,538.43417)"
     id="g37"><g
       id="g39"><g
         clip-path="url(#clipPath45)"
         id="g41"><path
           id="path47"
           style="fill:none;stroke:#b0b0b0;stroke-width:0.80000001;stroke-linecap:square;stroke-linejoin:round;stroke-miterlimit:10;stroke-dasharray:none;stroke-opacity:1"
           d="M 81.60625,70.465625 V 396.62563" /></g></g><g
       id="g49"><path
         id="path51"
         style="fill:#000000;fill-opacity:1;fill-rule:nonzero;stroke:#000000;stroke-width:0.80000001;stroke-linecap:butt;stroke-linejoin:round;stroke-miterlimit:10;stroke-dasharray:none;stroke-opacity:1"
         d="m 81.60625,70.465625 v -3.5" /><text
         id="text55"
         style="font-variant:normal;font-weight:normal;font-size:22px;font-family:'DejaVu Sans';-inkscape-font-specification:DejaVuSans;writing-mode:lr-tb;fill:#000000;fill-opacity:1;fill-rule:nonzero;stroke:none"
         transform="matrix(1,0,0,-1,65.3875,46.746875)"><tspan
           id="tspan53"
           y="0"
           x="0 18.436001">−3</tspan></text>
</g><g
       id="g57"><g
         clip-path="url(#clipPath63)"
         id="g59"><path
           id="path65"
           style="fill:none;stroke:#b0b0b0;stroke-width:0.80000001;stroke-linecap:square;stroke-linejoin:round;stroke-miterlimit:10;stroke-dasharray:none;stroke-opacity:1"
           d="M 156.00625,70.465625 V 396.62563" /></g></g><g
       id="g67"><path
         id="path69"
         style="fill:#000000;fill-opacity:1;fill-rule:nonzero;stroke:#000000;stroke-width:0.80000001;stroke-linecap:butt;stroke-linejoin:round;stroke-miterlimit:10;stroke-dasharray:none;stroke-opacity:1"
         d="m 156.00625,70.465625 v -3.5" /><text
         id="text73"
         style="font-variant:normal;font-weight:normal;font-size:22px;font-family:'DejaVu Sans';-inkscape-font-specification:DejaVuSans;writing-mode:lr-tb;fill:#000000;fill-opacity:1;fill-rule:nonzero;stroke:none"
         transform="matrix(1,0,0,-1,139.7875,46.746875)"><tspan
           id="tspan71"
           y="0"
           x="0 18.436001">−2</tspan></text>
</g><g
       id="g75"><g
         clip-path="url(#clipPath81)"
         id="g77"><path
           id="path83"
           style="fill:none;stroke:#b0b0b0;stroke-width:0.80000001;stroke-linecap:square;stroke-linejoin:round;stroke-miterlimit:10;stroke-dasharray:none;stroke-opacity:1"
           d="M 230.40625,70.465625 V 396.62563" /></g></g><g
       id="g85"><path
         id="path87"
         style="fill:#000000;fill-opacity:1;fill-rule:nonzero;stroke:#000000;stroke-width:0.80000001;stroke-linecap:butt;stroke-linejoin:round;stroke-miterlimit:10;stroke-dasharray:none;stroke-opacity:1"
         d="m 230.40625,70.465625 v -3.5" /><text
         id="text91"
         style="font-variant:normal;font-weight:normal;font-size:22px;font-family:'DejaVu Sans';-inkscape-font-specification:DejaVuSans;writing-mode:lr-tb;fill:#000000;fill-opacity:1;fill-rule:nonzero;stroke:none"
         transform="matrix(1,0,0,-1,214.1875,46.746875)"><tspan
           id="tspan89"
           y="0"
           x="0 18.436001">−1</tspan></text>
</g><g
       id="g93"><g
         clip-path="url(#clipPath99)"
         id="g95"><path
           id="path101"
           style="fill:none;stroke:#b0b0b0;stroke-width:0.80000001;stroke-linecap:square;stroke-linejoin:round;stroke-miterlimit:10;stroke-dasharray:none;stroke-opacity:1"
           d="M 304.80625,70.465625 V 396.62563" /></g></g><g
       id="g103"><path
         id="path105"
         style="fill:#000000;fill-opacity:1;fill-rule:nonzero;stroke:#000000;stroke-width:0.80000001;stroke-linecap:butt;stroke-linejoin:round;stroke-miterlimit:10;stroke-dasharray:none;stroke-opacity:1"
         d="m 304.80625,70.465625 v -3.5" /><text
         id="text109"
         style="font-variant:normal;font-weight:normal;font-size:22px;font-family:'DejaVu Sans';-inkscape-font-specification:DejaVuSans;writing-mode:lr-tb;fill:#000000;fill-opacity:1;fill-rule:nonzero;stroke:none"
         transform="matrix(1,0,0,-1,297.80625,46.746875)"><tspan
           id="tspan107"
           y="0"
           x="0">0</tspan></text>
</g><g
       id="g111"><g
         clip-path="url(#clipPath117)"
         id="g113"><path
           id="path119"
           style="fill:none;stroke:#b0b0b0;stroke-width:0.80000001;stroke-linecap:square;stroke-linejoin:round;stroke-miterlimit:10;stroke-dasharray:none;stroke-opacity:1"
           d="M 379.20625,70.465625 V 396.62563" /></g></g><g
       id="g121"><path
         id="path123"
         style="fill:#000000;fill-opacity:1;fill-rule:nonzero;stroke:#000000;stroke-width:0.80000001;stroke-linecap:butt;stroke-linejoin:round;stroke-miterlimit:10;stroke-dasharray:none;stroke-opacity:1"
         d="m 379.20625,70.465625 v -3.5" /><text
         id="text127"
         style="font-variant:normal;font-weight:normal;font-size:22px;font-family:'DejaVu Sans';-inkscape-font-specification:DejaVuSans;writing-mode:lr-tb;fill:#000000;fill-opacity:1;fill-rule:nonzero;stroke:none"
         transform="matrix(1,0,0,-1,372.20625,46.746875)"><tspan
           id="tspan125"
           y="0"
           x="0">1</tspan></text>
</g><g
       id="g129"><g
         clip-path="url(#clipPath135)"
         id="g131"><path
           id="path137"
           style="fill:none;stroke:#b0b0b0;stroke-width:0.80000001;stroke-linecap:square;stroke-linejoin:round;stroke-miterlimit:10;stroke-dasharray:none;stroke-opacity:1"
           d="M 453.60625,70.465625 V 396.62563" /></g></g><g
       id="g139"><path
         id="path141"
         style="fill:#000000;fill-opacity:1;fill-rule:nonzero;stroke:#000000;stroke-width:0.80000001;stroke-linecap:butt;stroke-linejoin:round;stroke-miterlimit:10;stroke-dasharray:none;stroke-opacity:1"
         d="m 453.60625,70.465625 v -3.5" /><text
         id="text145"
         style="font-variant:normal;font-weight:normal;font-size:22px;font-family:'DejaVu Sans';-inkscape-font-specification:DejaVuSans;writing-mode:lr-tb;fill:#000000;fill-opacity:1;fill-rule:nonzero;stroke:none"
         transform="matrix(1,0,0,-1,446.60625,46.746875)"><tspan
           id="tspan143"
           y="0"
           x="0">2</tspan></text>
</g><g
       id="g147"><g
         clip-path="url(#clipPath153)"
         id="g149"><path
           id="path155"
           style="fill:none;stroke:#b0b0b0;stroke-width:0.80000001;stroke-linecap:square;stroke-linejoin:round;stroke-miterlimit:10;stroke-dasharray:none;stroke-opacity:1"
           d="M 528.00625,70.465625 V 396.62563" /></g></g><g
       id="g157"><path
         id="path159"
         style="fill:#000000;fill-opacity:1;fill-rule:nonzero;stroke:#000000;stroke-width:0.80000001;stroke-linecap:butt;stroke-linejoin:round;stroke-miterlimit:10;stroke-dasharray:none;stroke-opacity:1"
         d="m 528.00625,70.465625 v -3.5" /><text
         id="text163"
         style="font-variant:normal;font-weight:normal;font-size:22px;font-family:'DejaVu Sans';-inkscape-font-specification:DejaVuSans;writing-mode:lr-tb;fill:#000000;fill-opacity:1;fill-rule:nonzero;stroke:none"
         transform="matrix(1,0,0,-1,521.00625,46.746875)"><tspan
           id="tspan161"
           y="0"
           x="0">3</tspan></text>
<g
         transform="translate(295.30625,13.85625)"
         id="g165"><text
           id="text169"
           style="font-style:italic;font-variant:normal;font-size:32px;font-family:'DejaVu Sans';-inkscape-font-specification:DejaVuSans-Oblique;writing-mode:lr-tb;fill:#000000;fill-opacity:1;fill-rule:nonzero;stroke:none"
           transform="matrix(1,0,0,-1,0,0.5)"><tspan
             id="tspan167"
             y="0"
             x="0">x</tspan></text>
</g></g><g
       id="g171"><g
         clip-path="url(#clipPath177)"
         id="g173"><path
           id="path179"
           style="fill:none;stroke:#b0b0b0;stroke-width:0.80000001;stroke-linecap:square;stroke-linejoin:round;stroke-miterlimit:10;stroke-dasharray:none;stroke-opacity:1"
           d="m 81.60625,136.14851 h 446.4" /></g></g><g
       id="g181"><path
         id="path183"
         style="fill:#000000;fill-opacity:1;fill-rule:nonzero;stroke:#000000;stroke-width:0.80000001;stroke-linecap:butt;stroke-linejoin:round;stroke-miterlimit:10;stroke-dasharray:none;stroke-opacity:1"
         d="m 81.60625,136.14851 h -3.5" /><text
         id="text187"
         style="font-variant:normal;font-weight:normal;font-size:22px;font-family:'DejaVu Sans';-inkscape-font-specification:DejaVuSans;writing-mode:lr-tb;fill:#000000;fill-opacity:1;fill-rule:nonzero;stroke:none"
         transform="matrix(1,0,0,-1,42.16875,127.78914)"><tspan
           id="tspan185"
           y="0"
           x="0 18.436001">−1</tspan></text>
</g><g
       id="g189"><g
         clip-path="url(#clipPath195)"
         id="g191"><path
           id="path197"
           style="fill:none;stroke:#b0b0b0;stroke-width:0.80000001;stroke-linecap:square;stroke-linejoin:round;stroke-miterlimit:10;stroke-dasharray:none;stroke-opacity:1"
           d="m 81.60625,204.39577 h 446.4" /></g></g><g
       id="g199"><path
         id="path201"
         style="fill:#000000;fill-opacity:1;fill-rule:nonzero;stroke:#000000;stroke-width:0.80000001;stroke-linecap:butt;stroke-linejoin:round;stroke-miterlimit:10;stroke-dasharray:none;stroke-opacity:1"
         d="m 81.60625,204.39577 h -3.5" /><text
         id="text205"
         style="font-variant:normal;font-weight:normal;font-size:22px;font-family:'DejaVu Sans';-inkscape-font-specification:DejaVuSans;writing-mode:lr-tb;fill:#000000;fill-opacity:1;fill-rule:nonzero;stroke:none"
         transform="matrix(1,0,0,-1,60.60625,196.0364)"><tspan
           id="tspan203"
           y="0"
           x="0">0</tspan></text>
</g><g
       id="g207"><g
         clip-path="url(#clipPath213)"
         id="g209"><path
           id="path215"
           style="fill:none;stroke:#b0b0b0;stroke-width:0.80000001;stroke-linecap:square;stroke-linejoin:round;stroke-miterlimit:10;stroke-dasharray:none;stroke-opacity:1"
           d="m 81.60625,272.64303 h 446.4" /></g></g><g
       id="g217"><path
         id="path219"
         style="fill:#000000;fill-opacity:1;fill-rule:nonzero;stroke:#000000;stroke-width:0.80000001;stroke-linecap:butt;stroke-linejoin:round;stroke-miterlimit:10;stroke-dasharray:none;stroke-opacity:1"
         d="m 81.60625,272.64303 h -3.5" /><text
         id="text223"
         style="font-variant:normal;font-weight:normal;font-size:22px;font-family:'DejaVu Sans';-inkscape-font-specification:DejaVuSans;writing-mode:lr-tb;fill:#000000;fill-opacity:1;fill-rule:nonzero;stroke:none"
         transform="matrix(1,0,0,-1,60.60625,264.28366)"><tspan
           id="tspan221"
           y="0"
           x="0">1</tspan></text>
</g><g
       id="g225"><g
         clip-path="url(#clipPath231)"
         id="g227"><path
           id="path233"
           style="fill:none;stroke:#b0b0b0;stroke-width:0.80000001;stroke-linecap:square;stroke-linejoin:round;stroke-miterlimit:10;stroke-dasharray:none;stroke-opacity:1"
           d="m 81.60625,340.89029 h 446.4" /></g></g><g
       id="g235"><path
         id="path237"
         style="fill:#000000;fill-opacity:1;fill-rule:nonzero;stroke:#000000;stroke-width:0.80000001;stroke-linecap:butt;stroke-linejoin:round;stroke-miterlimit:10;stroke-dasharray:none;stroke-opacity:1"
         d="m 81.60625,340.89029 h -3.5" /><text
         id="text241"
         style="font-variant:normal;font-weight:normal;font-size:22px;font-family:'DejaVu Sans';-inkscape-font-specification:DejaVuSans;writing-mode:lr-tb;fill:#000000;fill-opacity:1;fill-rule:nonzero;stroke:none"
         transform="matrix(1,0,0,-1,60.60625,332.53091)"><tspan
           id="tspan239"
           y="0"
           x="0">2</tspan></text>
<g
         transform="rotate(90,-96.438437,127.60719)"
         id="g243"><text
           id="text247"
           style="font-style:italic;font-variant:normal;font-size:32px;font-family:'DejaVu Sans';-inkscape-font-specification:DejaVuSans-Oblique;writing-mode:lr-tb;fill:#000000;fill-opacity:1;fill-rule:nonzero;stroke:none"
           transform="matrix(1,0,0,-1,0,0.5)"><tspan
             id="tspan245"
             y="0"
             x="0">y</tspan></text>
</g></g><g
       id="g249"><g
         clip-path="url(#clipPath255)"
         id="g251"><path
           id="path257"
           style="fill:none;stroke:#ff0000;stroke-width:4;stroke-linecap:square;stroke-linejoin:round;stroke-miterlimit:10;stroke-dasharray:none;stroke-opacity:0.3"
           d="m 81.60625,365.19305 2.243216,-2.4577 2.243216,-3.31261 4.486432,-7.02791 2.243216,-4.10016 2.243216,-4.54695 2.243217,-5.35731 2.243216,-4.14783 2.243221,-5.2362 6.72964,-13.06884 2.24322,-3.27701 2.24322,-3.85752 2.24321,-2.89121 2.24322,-2.04612 4.48643,-4.4083 2.24322,-2.06901 2.24321,-2.68018 2.24322,-1.90901 2.24321,-3.93805 2.24322,-2.7349 2.24322,-3.37019 2.24321,-2.60216 2.24322,-2.86076 2.24321,-2.11534 2.24322,-2.27115 4.48643,-4.16547 4.48643,-4.63428 4.48644,-2.68792 2.24321,-1.80071 2.24322,-1.20934 2.24321,-0.7364 2.24322,-0.23592 4.48643,0.20968 4.48644,1.387 2.24321,0.88667 4.48643,0.57976 2.24322,-0.0168 2.24322,-0.90706 2.24321,-0.47043 2.24322,-1.71096 2.24321,-1.44198 6.72965,-6.3131 2.24322,-2.37177 2.24321,-1.77562 4.48644,-4.06163 4.48643,-3.81584 2.24321,-1.5475 2.24322,-2.43577 2.24322,-2.10402 2.24321,-3.23808 2.24322,-2.43664 2.24321,-3.00724 2.24322,-2.66019 4.48643,-6.04923 4.48644,-5.18847 2.24321,-1.84076 2.24322,-1.99616 2.24321,-0.92291 2.24322,-1.3781 2.24322,-0.47369 4.48643,0.13328 4.48643,-0.0837 2.24322,-0.28457 2.24321,-1.34449 4.48643,-2.50653 4.48644,-2.7317 4.48643,-3.96433 2.24322,-2.57183 2.24321,-2.95991 2.24322,-2.69229 2.24321,-2.96887 4.48643,-5.42035 2.24322,-3.34508 2.24322,-2.93322 6.72965,-10.79446 2.24321,-3.91351 2.24322,-3.58296 4.48643,-10.29657 2.24322,-4.65232 4.48643,-10.56549 4.48643,-9.88391 2.24322,-4.34386 4.48643,-7.15616 2.24321,-3.00966 2.24322,-1.773969 2.24322,-2.267661 2.24321,-1.347425 2.24322,-1.946336 4.48643,-0.567394 2.24322,0.247523 2.24321,1.081986 4.48644,0.806166 2.24321,-0.0931 2.24322,-0.302731 2.24321,-0.753186 2.24322,-0.932426 6.72965,-4.820318 2.24321,-1.319467 2.24322,-1.021009 2.24322,-0.162811 2.24321,0.01671 2.24322,0.407214 2.24321,1.567536 4.48644,4.952754 2.24321,2.413241 2.24322,2.764203 2.24321,3.42188 2.24322,3.66573 2.24322,4.23371 2.24321,3.26012 2.24322,2.87631 2.24322,3.55141 4.48643,5.95302 2.24321,2.60987 2.24322,3.75011 2.24322,3.4682 2.24321,3.80553 2.24322,4.63543 2.24321,3.68974 2.24322,4.56258 2.24322,3.94042 6.72964,10.62585 2.24322,3.026 2.24322,3.29936 2.24321,2.3841 2.24322,2.77597 2.24321,2.56266 2.24322,1.88472 2.24322,1.39976 2.24321,0.69289 2.24322,0.98227 2.24321,0.47255 2.24322,0.20422 4.48643,0.86728 2.24322,0.2685 6.72965,-1.27337 4.48643,-2.04956 6.72965,-2.77782 2.24321,0.28839 2.24322,0.071 4.48643,-0.65175 2.24322,0.0873 2.24321,-0.64502 2.24322,-1.06559 2.24322,-0.27197 2.24321,-0.58027 2.24322,-0.30663 8.97286,-0.11337 2.24322,-0.51101 2.24322,-1.04681 4.48643,-1.65664 2.24321,-1.38069 2.24322,-0.20831 v 0" /></g></g><g
       id="g259"><g
         clip-path="url(#clipPath265)"
         id="g261"><path
           id="path267"
           style="fill:none;stroke:#ff0000;stroke-width:4;stroke-linecap:square;stroke-linejoin:round;stroke-miterlimit:10;stroke-dasharray:none;stroke-opacity:0.3"
           d="m 81.60625,163.94656 6.729648,13.16415 2.243216,3.78928 2.243216,3.3719 2.243216,2.0821 2.243217,2.53742 4.486437,1.38858 2.24321,0.79391 4.48643,0.0444 2.24322,-0.18784 4.48643,-1.76412 2.24322,-0.9705 2.24321,-0.71313 2.24322,-1.41371 2.24322,-1.59891 2.24321,-0.78798 2.24322,-1.53061 2.24321,-0.50913 2.24322,-1.16868 2.24322,-0.62153 2.24321,-0.78611 2.24322,-0.0385 2.24321,-1.0009 2.24322,-0.60312 2.24322,-0.3182 4.48643,0.11986 2.24321,-0.21465 2.24322,0.31856 2.24322,-0.14632 2.24321,-0.5131 2.24322,-1.6608 2.24321,-0.73279 2.24322,-0.9683 2.24322,-1.27363 2.24321,-0.93284 2.24322,-0.40802 4.48643,-2.02841 4.48643,-1.25284 2.24322,-0.18607 2.24322,0.5217 2.24321,-0.68179 2.24322,0.25839 2.24321,-0.21443 2.24322,-0.77881 2.24322,-0.0433 2.24321,-0.47099 2.24322,-1.76669 2.24321,-1.08259 2.24322,-1.8441 2.24322,-2.36278 2.24321,-1.69627 2.24322,-2.15997 2.24321,-1.86711 2.24322,-2.22503 2.24322,-1.9916 2.24321,-1.27431 2.24322,-1.91489 2.24321,-0.56115 2.24322,-1.01425 2.24322,-0.22239 2.24321,1.02218 2.24322,1.34319 2.24322,2.05808 2.24321,1.69765 2.24322,2.38245 2.24321,3.11301 2.24322,3.39772 2.24322,3.74474 6.72964,12.15879 4.48644,8.8314 2.24321,4.28059 2.24322,4.00237 2.24321,3.52353 2.24322,3.01481 2.24322,2.34694 2.24321,2.59562 2.24322,2.08838 2.24322,1.36948 2.24321,1.95294 2.24322,0.82235 2.24321,0.54847 2.24322,0.81466 2.24321,-0.19203 2.24322,0.0805 6.72965,-1.56968 2.24322,-1.08911 2.24321,-1.58884 2.24322,-0.52629 2.24321,-0.18492 2.24322,-0.52571 2.24322,-0.33083 8.97286,2.05288 4.48643,2.00874 2.24322,0.2363 2.24321,2.13845 2.24322,1.0191 6.72965,3.69222 2.24321,0.93549 4.48644,1.5077 2.24321,1.36721 2.24322,0.93548 2.24322,1.51098 2.24321,1.26505 2.24322,1.1078 2.24321,0.4891 2.24322,-0.34994 2.24322,0.66127 4.48643,0.69066 2.24321,-0.0635 2.24322,0.74371 2.24322,1.75961 2.24321,1.04169 2.24322,2.19176 2.24321,3.45444 2.24322,3.96183 2.24322,4.37872 4.48643,9.73199 4.48643,11.01197 2.24322,6.10507 2.24321,5.59718 2.24322,6.09536 2.24322,5.44328 2.24321,6.02193 2.24322,5.28998 4.48643,9.62789 2.24322,4.53498 2.24321,3.38719 2.24322,4.43547 4.48643,6.677 2.24322,3.03301 2.24321,2.24835 2.24322,1.67985 2.24321,0.94017 2.24322,0.49752 2.24322,-0.0125 2.24321,-1.86424 2.24322,-1.63222 4.48643,-5.11539 4.48643,-6.46791 2.24322,-3.90737 2.24321,-3.29731 4.48644,-9.1946 2.24321,-3.48906 2.24322,-4.45346 8.97286,-20.41917 2.24322,-5.43912 4.48643,-12.48004 2.24322,-7.48585 2.24321,-6.27337 2.24322,-7.54879 2.24322,-6.64329 2.24321,-7.11288 2.24322,-6.69306 2.24321,-6.07 2.24322,-4.92601 2.24322,-4.22401 2.24321,-3.26753 2.24322,-2.84108 4.48643,-4.48556 2.24322,-1.35348 2.24321,0.0894 2.24322,-0.55801 4.48643,0.91082 4.48643,2.13702 2.24322,1.56875 v 0" /></g></g><g
       id="g269"><g
         clip-path="url(#clipPath275)"
         id="g271"><path
           id="path277"
           style="fill:none;stroke:#ff0000;stroke-width:4;stroke-linecap:square;stroke-linejoin:round;stroke-miterlimit:10;stroke-dasharray:none;stroke-opacity:0.3"
           d="m 81.60625,354.77669 2.243216,0.34373 2.243216,-0.80572 2.243216,-1.40458 4.486432,-4.05356 2.243216,-3.60768 2.243217,-3.27094 4.486437,-7.73982 2.24321,-3.37774 6.72965,-11.87747 2.24322,-5.61518 2.24321,-4.80459 6.72965,-15.72553 2.24322,-5.90553 4.48643,-11.0619 2.24321,-4.86937 2.24322,-4.0058 2.24322,-3.2994 2.24321,-3.92864 6.72965,-10.65492 2.24322,-2.88696 2.24321,-3.41125 2.24322,-3.01327 2.24321,-3.21805 4.48644,-7.18486 4.48643,-6.02125 2.24321,-3.36898 6.72965,-7.09868 2.24322,-1.19753 4.48643,-3.01361 2.24322,-1.31767 2.24321,-1.17773 2.24322,-0.54906 2.24322,-0.13013 4.48643,0.56919 4.48643,1.51414 2.24322,0.4194 2.24321,0.5867 2.24322,0.39853 2.24321,0.0852 2.24322,0.75691 2.24322,0.88699 2.24321,0.56518 2.24322,1.31388 2.24321,0.91642 2.24322,1.49196 2.24322,0.97507 2.24321,1.73055 2.24322,1.38428 2.24321,1.54688 2.24322,1.97893 2.24322,1.57448 2.24321,2.19147 2.24322,1.64317 2.24322,2.41127 2.24321,2.00648 2.24322,2.17249 4.48643,3.14469 2.24322,0.73283 4.48643,3.2068 6.72965,2.75965 2.24321,1.28607 2.24322,0.59911 2.24321,1.06738 4.48644,1.46187 2.24321,0.4452 2.24322,-0.43477 2.24322,-0.14611 2.24321,-0.66415 2.24322,-1.23292 2.24321,-0.51926 2.24322,-0.96767 2.24321,-1.23366 4.48644,-1.88757 2.24321,-0.28168 2.24322,-0.90372 2.24322,-0.30204 4.48643,-0.33864 2.24321,0.0468 4.48644,-1.79831 2.24321,-1.31881 2.24322,-1.88361 2.24321,-1.26476 4.48644,-5.30188 2.24321,-2.5514 2.24322,-3.11725 2.24321,-2.4837 2.24322,-3.00606 2.24322,-2.74522 2.24321,-2.31064 2.24322,-2.55819 2.24321,-2.23292 4.48644,-4.13355 2.24321,-2.67937 2.24322,-2.93533 2.24322,-3.14143 2.24321,-2.5137 2.24322,-2.94107 2.24321,-2.2011 2.24322,-1.36954 2.24322,-0.75303 2.24321,-0.17115 2.24322,0.72013 4.48643,4.04873 4.48643,6.7888 2.24322,4.18181 2.24321,4.51952 2.24322,3.96113 2.24322,3.31542 2.24321,4.67825 2.24322,3.77293 4.48643,7.96743 2.24322,3.07159 2.24321,2.76683 2.24322,2.00463 4.48643,3.15785 2.24322,0.53607 2.24321,0.80623 2.24322,0.0502 2.24322,-0.49527 4.48643,0.65336 2.24321,0.11456 2.24322,0.38984 2.24322,-0.1383 2.24321,0.58516 2.24322,-0.24444 2.24321,-0.12965 2.24322,-0.33208 2.24322,-0.0361 2.24321,-0.36984 2.24322,-0.63639 4.48643,-2.51073 2.24322,-1.54158 2.24321,-1.31271 4.48643,-3.69986 2.24322,-1.87435 2.24322,-3.32762 2.24321,-2.98077 6.72965,-12.23429 2.24322,-5.24975 6.72965,-14.38418 2.24321,-4.5753 4.48643,-7.91086 4.48644,-6.44945 2.24321,-2.63281 2.24322,-1.73708 4.48643,-2.6228 2.24322,-0.0379 2.24321,0.18456 2.24322,0.35059 2.24321,0.50993 2.24322,0.84489 2.24322,1.49137 2.24321,1.27004 8.97287,7.52775 2.24321,1.45521 2.24322,0.9779 v 0" /></g></g><g
       id="g279"><g
         clip-path="url(#clipPath285)"
         id="g281"><path
           id="path287"
           style="fill:none;stroke:#ff0000;stroke-width:4;stroke-linecap:square;stroke-linejoin:round;stroke-miterlimit:10;stroke-dasharray:none;stroke-opacity:0.3"
           d="m 81.60625,298.08284 2.243216,-3.0028 6.729648,-11.7561 2.243216,-3.67764 2.243216,-4.31187 6.729654,-10.21593 2.24321,-2.59082 4.48643,-4.63276 2.24322,-1.31525 2.24322,0.073 2.24321,0.36618 2.24322,1.36108 2.24321,0.45952 2.24322,1.18896 2.24322,0.97991 2.24321,0.61252 2.24322,0.20217 6.72965,1.70886 2.24321,1.44057 2.24322,1.82751 2.24321,2.1008 2.24322,3.3317 2.24322,2.69283 2.24321,3.44428 4.48643,8.29216 4.48644,8.07109 2.24321,4.62001 4.48643,8.39328 2.24322,3.51563 2.24322,4.28716 2.24321,3.48497 4.48644,7.53189 2.24321,2.79913 4.48643,4.81216 2.24322,1.87688 2.24322,0.21847 2.24321,-0.16168 4.48643,-1.77333 2.24322,-1.61853 2.24322,-1.95429 4.48643,-2.58284 2.24321,-1.22449 2.24322,-0.71564 2.24322,-0.47981 2.24321,-0.71468 2.24322,-0.58588 2.24321,-0.44553 4.48644,-1.84636 2.24321,-1.26336 2.24322,-0.93175 8.97286,-4.87892 2.24322,-1.41898 2.24322,-2.01489 2.24321,-1.49023 2.24322,-2.44405 4.48643,-3.72996 2.24322,-3.18001 2.24321,-2.17026 2.24322,-2.43853 2.24321,-2.24641 2.24322,-2.87235 2.24322,-2.5373 4.48643,-6.5713 4.48643,-6.86507 2.24322,-3.64023 2.24321,-3.95648 2.24322,-4.47387 2.24322,-4.07348 2.24321,-3.6667 2.24322,-4.02114 2.24321,-3.54757 2.24322,-3.88685 2.24321,-3.22967 2.24322,-4.25318 2.24322,-2.92234 2.24321,-3.31614 6.72965,-8.2439 2.24322,-1.00006 2.24321,-0.15721 2.24322,0.24543 2.24322,0.51974 2.24321,1.13801 2.24322,1.5731 2.24321,1.4184 2.24322,3.1739 2.24322,2.14669 2.24321,2.51113 2.24322,2.22384 2.24321,3.22975 2.24322,2.15637 2.24322,2.66408 2.24321,2.11699 2.24322,2.59156 2.24321,1.70713 2.24322,1.28819 2.24322,2.02363 2.24321,1.79649 2.24322,1.21614 2.24322,1.78539 2.24321,0.56407 2.24322,1.20397 2.24321,0.35167 2.24322,0.85011 2.24322,1.1633 4.48643,0.29938 2.24321,0.35371 6.72965,2.47197 2.24322,1.8061 6.72965,3.5368 2.24321,0.59843 2.24322,-0.12344 2.24321,0.2752 2.24322,-0.48391 2.24322,-1.13883 2.24321,-0.94621 2.24322,-1.72632 4.48643,-2.772 2.24322,-2.26063 2.24321,-0.84414 2.24322,-2.62248 2.24322,-1.63121 2.24321,-1.05627 2.24322,-1.65445 2.24321,-1.48257 2.24322,-1.73446 2.24322,-1.51388 2.24321,-1.73252 2.24322,-2.32673 6.72965,-5.82339 2.24321,-1.98885 2.24322,-0.83033 4.48643,-2.82264 2.24322,-0.79333 2.24321,-1.19383 2.24322,-0.42075 2.24321,0.17369 2.24322,-0.47387 2.24322,0.92984 2.24321,0.77562 4.48644,1.85394 2.24321,1.37871 2.24322,1.6059 4.48643,2.09002 4.48643,3.48035 4.48643,3.74946 4.48644,2.99432 2.24321,0.94551 2.24322,1.15562 2.24321,0.75753 2.24322,0.60065 2.24322,-0.37619 2.24321,0.48153 2.24322,-0.70139 2.24321,0.15395 2.24322,0.61065 2.24322,-0.35137 4.48643,1.04414 2.24322,0.43073 4.48643,1.53333 4.48643,1.47453 v 0" /></g></g><g
       id="g289"><g
         clip-path="url(#clipPath295)"
         id="g291"><path
           id="path297"
           style="fill:none;stroke:#ff0000;stroke-width:4;stroke-linecap:square;stroke-linejoin:round;stroke-miterlimit:10;stroke-dasharray:none;stroke-opacity:0.3"
           d="m 81.60625,142.04199 2.243216,1.24711 4.486432,3.22412 2.243216,2.75424 2.243216,2.9547 2.243216,2.61133 2.243217,3.05668 2.243216,3.41752 4.486431,7.32727 2.24322,3.98397 4.48643,8.70502 2.24322,4.92864 2.24321,4.00265 2.24322,3.02 2.24321,3.78393 2.24322,2.3036 4.48643,3.73933 2.24322,1.40003 2.24321,1.10887 2.24322,0.79146 4.48643,-0.0747 2.24322,0.51486 2.24321,-0.24774 2.24322,0.26153 2.24322,0.55357 2.24321,0.0292 2.24322,0.92328 2.24321,0.59832 2.24322,0.77356 2.24322,1.70594 2.24321,2.22822 2.24322,2.41237 4.48643,6.08197 2.24322,3.32217 2.24321,2.94221 2.24322,2.70485 2.24322,2.44686 2.24321,1.94904 2.24322,1.64296 2.24321,0.41474 2.24322,0.79623 2.24322,0.13287 2.24321,-0.21107 2.24322,0.13535 2.24321,-0.11954 2.24322,0.20105 2.24322,0.72546 2.24321,0.34916 2.24322,1.08946 2.24321,1.3996 2.24322,1.13616 2.24322,1.45906 6.72964,7.10125 2.24322,2.86554 2.24322,3.65216 2.24321,4.75084 2.24322,5.05176 2.24321,5.44604 2.24322,6.51699 2.24322,6.05499 6.72965,19.90551 2.24321,6.13237 2.24322,5.56076 2.24321,5.98617 2.24322,5.05899 4.48643,10.67802 2.24322,4.64318 2.24321,5.47578 2.24322,4.42594 2.24322,4.13251 4.48643,7.41491 2.24321,2.33663 2.24322,2.52834 4.48643,5.41761 2.24322,1.389 4.48643,3.57442 4.48643,0.58522 2.24322,0.40851 2.24321,0.0272 6.72965,-3.39678 2.24322,-1.31032 2.24322,-1.71555 2.24321,-0.86021 2.24322,-2.48018 2.24321,-1.94743 6.72965,-7.22323 2.24322,-2.77224 2.24321,-3.15765 2.24322,-2.88489 2.24322,-3.92846 2.24321,-2.64694 2.24322,-2.32954 2.24321,-2.78929 2.24322,-2.23954 6.72965,-4.38695 4.48643,-4.29295 8.97287,-11.19641 4.48643,-5.34979 8.97286,-11.47334 2.24322,-2.75928 2.24321,-3.05055 6.72965,-10.89711 2.24322,-3.15039 2.24321,-2.63648 2.24322,-2.24003 2.24322,-2.80439 4.48643,-3.51137 2.24321,-1.44665 2.24322,-1.80388 2.24322,-2.46956 4.48643,-3.62575 2.24322,-1.77768 2.24321,-2.30051 2.24322,-1.16737 2.24321,-1.93309 2.24322,-0.69878 2.24322,-0.96408 2.24321,-1.23304 2.24322,-1.64853 2.24321,-0.10558 2.24322,-0.78032 2.24322,0.31443 2.24321,-0.11942 2.24322,0.0325 2.24321,0.63559 2.24322,0.81464 2.24322,0.20114 2.24321,1.33105 2.24322,-0.0642 4.48643,0.21551 2.24322,0.38781 2.24321,-1.08791 2.24322,-0.79636 2.24321,-1.18667 2.24322,-1.76458 2.24322,-0.83585 2.24321,-1.3604 2.24322,-1.09254 2.24322,-1.35682 2.24321,-1.74419 2.24322,-0.57016 2.24321,-1.08038 2.24322,-0.57272 4.48643,-1.55138 2.24322,-0.45943 2.24321,-0.7105 2.24322,-0.19564 2.24322,0.53659 2.24321,0.0295 4.48643,1.656 2.24322,1.15359 2.24322,0.59199 2.24321,0.85444 2.24322,0.53079 2.24321,0.37138 2.24322,-0.64312 2.24322,-0.33762 2.24321,-1.15029 2.24322,-1.30653 2.24322,-2.38355 2.24321,-2.92358 2.24322,-2.55303 4.48643,-7.45782 v 0" /></g></g><g
       id="g299"><path
         id="path301"
         style="fill:none;stroke:#000000;stroke-width:0.80000001;stroke-linecap:square;stroke-linejoin:miter;stroke-miterlimit:10;stroke-dasharray:none;stroke-opacity:1"
         d="M 81.60625,70.465625 V 396.62563" /><path
         id="path303"
         style="fill:none;stroke:#000000;stroke-width:0.80000001;stroke-linecap:square;stroke-linejoin:miter;stroke-miterlimit:10;stroke-dasharray:none;stroke-opacity:1"
         d="M 528.00625,70.465625 V 396.62563" /><path
         id="path305"
         style="fill:none;stroke:#000000;stroke-width:0.80000001;stroke-linecap:square;stroke-linejoin:miter;stroke-miterlimit:10;stroke-dasharray:none;stroke-opacity:1"
         d="m 81.60625,70.465625 h 446.4" /><path
         id="path307"
         style="fill:none;stroke:#000000;stroke-width:0.80000001;stroke-linecap:square;stroke-linejoin:miter;stroke-miterlimit:10;stroke-dasharray:none;stroke-opacity:1"
         d="m 81.60625,396.62563 h 446.4" /></g></g></svg>