<?xml version="1.0" encoding="UTF-8" standalone="no"?>
<svg
   xmlns:dc="http://purl.org/dc/elements/1.1/"
   xmlns:cc="http://creativecommons.org/ns#"
   xmlns:rdf="http://www.w3.org/1999/02/22-rdf-syntax-ns#"
   xmlns:svg="http://www.w3.org/2000/svg"
   xmlns="http://www.w3.org/2000/svg"
   viewBox="0 0 722.94165 538.43414"
   height="538.43414"
   width="722.94165"
   xml:space="preserve"
   id="svg29"
   version="1.1"><metadata
     id="metadata35"><rdf:RDF><cc:Work
         rdf:about=""><dc:format>image/svg+xml</dc:format><dc:type
           rdf:resource="http://purl.org/dc/dcmitype/StillImage" /><dc:title></dc:title></cc:Work></rdf:RDF></metadata><defs
     id="defs33"><clipPath
       id="clipPath45"
       clipPathUnits="userSpaceOnUse"><path
         id="path43"
         d="m 81.60625,70.465625 h 446.4 V 396.62563 h -446.4 z" /></clipPath><clipPath
       id="clipPath63"
       clipPathUnits="userSpaceOnUse"><path
         id="path61"
         d="m 81.60625,70.465625 h 446.4 V 396.62563 h -446.4 z" /></clipPath><clipPath
       id="clipPath81"
       clipPathUnits="userSpaceOnUse"><path
         id="path79"
         d="m 81.60625,70.465625 h 446.4 V 396.62563 h -446.4 z" /></clipPath><clipPath
       id="clipPath99"
       clipPathUnits="userSpaceOnUse"><path
         id="path97"
         d="m 81.60625,70.465625 h 446.4 V 396.62563 h -446.4 z" /></clipPath><clipPath
       id="clipPath117"
       clipPathUnits="userSpaceOnUse"><path
         id="path115"
         d="m 81.60625,70.465625 h 446.4 V 396.62563 h -446.4 z" /></clipPath><clipPath
       id="clipPath141"
       clipPathUnits="userSpaceOnUse"><path
         id="path139"
         d="m 81.60625,70.465625 h 446.4 V 396.62563 h -446.4 z" /></clipPath><clipPath
       id="clipPath159"
       clipPathUnits="userSpaceOnUse"><path
         id="path157"
         d="m 81.60625,70.465625 h 446.4 V 396.62563 h -446.4 z" /></clipPath><clipPath
       id="clipPath177"
       clipPathUnits="userSpaceOnUse"><path
         id="path175"
         d="m 81.60625,70.465625 h 446.4 V 396.62563 h -446.4 z" /></clipPath><clipPath
       id="clipPath195"
       clipPathUnits="userSpaceOnUse"><path
         id="path193"
         d="m 81.60625,70.465625 h 446.4 V 396.62563 h -446.4 z" /></clipPath><clipPath
       id="clipPath219"
       clipPathUnits="userSpaceOnUse"><path
         id="path217"
         d="m 81.60625,70.465625 h 446.4 V 396.62563 h -446.4 z" /></clipPath><clipPath
       id="clipPath229"
       clipPathUnits="userSpaceOnUse"><path
         id="path227"
         d="m 81.60625,70.465625 h 446.4 V 396.62563 h -446.4 z" /></clipPath><clipPath
       id="clipPath239"
       clipPathUnits="userSpaceOnUse"><path
         id="path237"
         d="m 81.60625,70.465625 h 446.4 V 396.62563 h -446.4 z" /></clipPath><clipPath
       id="clipPath249"
       clipPathUnits="userSpaceOnUse"><path
         id="path247"
         d="m 81.60625,70.465625 h 446.4 V 396.62563 h -446.4 z" /></clipPath><clipPath
       id="clipPath259"
       clipPathUnits="userSpaceOnUse"><path
         id="path257"
         d="m 81.60625,70.465625 h 446.4 V 396.62563 h -446.4 z" /></clipPath></defs><g
     transform="matrix(1.3333333,0,0,-1.3333333,0,538.43417)"
     id="g37"><g
       id="g39"><g
         clip-path="url(#clipPath45)"
         id="g41"><path
           id="path47"
           style="fill:none;stroke:#b0b0b0;stroke-width:0.80000001;stroke-linecap:square;stroke-linejoin:round;stroke-miterlimit:10;stroke-dasharray:none;stroke-opacity:1"
           d="M 131.20625,70.465625 V 396.62563" /></g></g><g
       id="g49"><path
         id="path51"
         style="fill:#000000;fill-opacity:1;fill-rule:nonzero;stroke:#000000;stroke-width:0.80000001;stroke-linecap:butt;stroke-linejoin:round;stroke-miterlimit:10;stroke-dasharray:none;stroke-opacity:1"
         d="m 131.20625,70.465625 v -3.5" /><text
         id="text55"
         style="font-variant:normal;font-weight:normal;font-size:22px;font-family:'DejaVu Sans';-inkscape-font-specification:DejaVuSans;writing-mode:lr-tb;fill:#000000;fill-opacity:1;fill-rule:nonzero;stroke:none"
         transform="matrix(1,0,0,-1,114.9875,46.746875)"><tspan
           id="tspan53"
           y="0"
           x="0 18.436001">−2</tspan></text>
</g><g
       id="g57"><g
         clip-path="url(#clipPath63)"
         id="g59"><path
           id="path65"
           style="fill:none;stroke:#b0b0b0;stroke-width:0.80000001;stroke-linecap:square;stroke-linejoin:round;stroke-miterlimit:10;stroke-dasharray:none;stroke-opacity:1"
           d="M 230.40625,70.465625 V 396.62563" /></g></g><g
       id="g67"><path
         id="path69"
         style="fill:#000000;fill-opacity:1;fill-rule:nonzero;stroke:#000000;stroke-width:0.80000001;stroke-linecap:butt;stroke-linejoin:round;stroke-miterlimit:10;stroke-dasharray:none;stroke-opacity:1"
         d="m 230.40625,70.465625 v -3.5" /><text
         id="text73"
         style="font-variant:normal;font-weight:normal;font-size:22px;font-family:'DejaVu Sans';-inkscape-font-specification:DejaVuSans;writing-mode:lr-tb;fill:#000000;fill-opacity:1;fill-rule:nonzero;stroke:none"
         transform="matrix(1,0,0,-1,223.40625,46.746875)"><tspan
           id="tspan71"
           y="0"
           x="0">0</tspan></text>
</g><g
       id="g75"><g
         clip-path="url(#clipPath81)"
         id="g77"><path
           id="path83"
           style="fill:none;stroke:#b0b0b0;stroke-width:0.80000001;stroke-linecap:square;stroke-linejoin:round;stroke-miterlimit:10;stroke-dasharray:none;stroke-opacity:1"
           d="M 329.60625,70.465625 V 396.62563" /></g></g><g
       id="g85"><path
         id="path87"
         style="fill:#000000;fill-opacity:1;fill-rule:nonzero;stroke:#000000;stroke-width:0.80000001;stroke-linecap:butt;stroke-linejoin:round;stroke-miterlimit:10;stroke-dasharray:none;stroke-opacity:1"
         d="m 329.60625,70.465625 v -3.5" /><text
         id="text91"
         style="font-variant:normal;font-weight:normal;font-size:22px;font-family:'DejaVu Sans';-inkscape-font-specification:DejaVuSans;writing-mode:lr-tb;fill:#000000;fill-opacity:1;fill-rule:nonzero;stroke:none"
         transform="matrix(1,0,0,-1,322.60625,46.746875)"><tspan
           id="tspan89"
           y="0"
           x="0">2</tspan></text>
</g><g
       id="g93"><g
         clip-path="url(#clipPath99)"
         id="g95"><path
           id="path101"
           style="fill:none;stroke:#b0b0b0;stroke-width:0.80000001;stroke-linecap:square;stroke-linejoin:round;stroke-miterlimit:10;stroke-dasharray:none;stroke-opacity:1"
           d="M 428.80625,70.465625 V 396.62563" /></g></g><g
       id="g103"><path
         id="path105"
         style="fill:#000000;fill-opacity:1;fill-rule:nonzero;stroke:#000000;stroke-width:0.80000001;stroke-linecap:butt;stroke-linejoin:round;stroke-miterlimit:10;stroke-dasharray:none;stroke-opacity:1"
         d="m 428.80625,70.465625 v -3.5" /><text
         id="text109"
         style="font-variant:normal;font-weight:normal;font-size:22px;font-family:'DejaVu Sans';-inkscape-font-specification:DejaVuSans;writing-mode:lr-tb;fill:#000000;fill-opacity:1;fill-rule:nonzero;stroke:none"
         transform="matrix(1,0,0,-1,421.80625,46.746875)"><tspan
           id="tspan107"
           y="0"
           x="0">4</tspan></text>
</g><g
       id="g111"><g
         clip-path="url(#clipPath117)"
         id="g113"><path
           id="path119"
           style="fill:none;stroke:#b0b0b0;stroke-width:0.80000001;stroke-linecap:square;stroke-linejoin:round;stroke-miterlimit:10;stroke-dasharray:none;stroke-opacity:1"
           d="M 528.00625,70.465625 V 396.62563" /></g></g><g
       id="g121"><path
         id="path123"
         style="fill:#000000;fill-opacity:1;fill-rule:nonzero;stroke:#000000;stroke-width:0.80000001;stroke-linecap:butt;stroke-linejoin:round;stroke-miterlimit:10;stroke-dasharray:none;stroke-opacity:1"
         d="m 528.00625,70.465625 v -3.5" /><text
         id="text127"
         style="font-variant:normal;font-weight:normal;font-size:22px;font-family:'DejaVu Sans';-inkscape-font-specification:DejaVuSans;writing-mode:lr-tb;fill:#000000;fill-opacity:1;fill-rule:nonzero;stroke:none"
         transform="matrix(1,0,0,-1,521.00625,46.746875)"><tspan
           id="tspan125"
           y="0"
           x="0">6</tspan></text>
<g
         transform="translate(295.30625,13.85625)"
         id="g129"><text
           id="text133"
           style="font-style:italic;font-variant:normal;font-size:32px;font-family:'DejaVu Sans';-inkscape-font-specification:DejaVuSans-Oblique;writing-mode:lr-tb;fill:#000000;fill-opacity:1;fill-rule:nonzero;stroke:none"
           transform="matrix(1,0,0,-1,0,0.5)"><tspan
             id="tspan131"
             y="0"
             x="0">x</tspan></text>
</g></g><g
       id="g135"><g
         clip-path="url(#clipPath141)"
         id="g137"><path
           id="path143"
           style="fill:none;stroke:#b0b0b0;stroke-width:0.80000001;stroke-linecap:square;stroke-linejoin:round;stroke-miterlimit:10;stroke-dasharray:none;stroke-opacity:1"
           d="m 81.60625,104.94164 h 446.4" /></g></g><g
       id="g145"><path
         id="path147"
         style="fill:#000000;fill-opacity:1;fill-rule:nonzero;stroke:#000000;stroke-width:0.80000001;stroke-linecap:butt;stroke-linejoin:round;stroke-miterlimit:10;stroke-dasharray:none;stroke-opacity:1"
         d="m 81.60625,104.94164 h -3.5" /><text
         id="text151"
         style="font-variant:normal;font-weight:normal;font-size:22px;font-family:'DejaVu Sans';-inkscape-font-specification:DejaVuSans;writing-mode:lr-tb;fill:#000000;fill-opacity:1;fill-rule:nonzero;stroke:none"
         transform="matrix(1,0,0,-1,42.16875,96.58226)"><tspan
           id="tspan149"
           y="0"
           x="0 18.436001">−4</tspan></text>
</g><g
       id="g153"><g
         clip-path="url(#clipPath159)"
         id="g155"><path
           id="path161"
           style="fill:none;stroke:#b0b0b0;stroke-width:0.80000001;stroke-linecap:square;stroke-linejoin:round;stroke-miterlimit:10;stroke-dasharray:none;stroke-opacity:1"
           d="m 81.60625,182.85784 h 446.4" /></g></g><g
       id="g163"><path
         id="path165"
         style="fill:#000000;fill-opacity:1;fill-rule:nonzero;stroke:#000000;stroke-width:0.80000001;stroke-linecap:butt;stroke-linejoin:round;stroke-miterlimit:10;stroke-dasharray:none;stroke-opacity:1"
         d="m 81.60625,182.85784 h -3.5" /><text
         id="text169"
         style="font-variant:normal;font-weight:normal;font-size:22px;font-family:'DejaVu Sans';-inkscape-font-specification:DejaVuSans;writing-mode:lr-tb;fill:#000000;fill-opacity:1;fill-rule:nonzero;stroke:none"
         transform="matrix(1,0,0,-1,42.16875,174.49846)"><tspan
           id="tspan167"
           y="0"
           x="0 18.436001">−2</tspan></text>
</g><g
       id="g171"><g
         clip-path="url(#clipPath177)"
         id="g173"><path
           id="path179"
           style="fill:none;stroke:#b0b0b0;stroke-width:0.80000001;stroke-linecap:square;stroke-linejoin:round;stroke-miterlimit:10;stroke-dasharray:none;stroke-opacity:1"
           d="m 81.60625,260.77404 h 446.4" /></g></g><g
       id="g181"><path
         id="path183"
         style="fill:#000000;fill-opacity:1;fill-rule:nonzero;stroke:#000000;stroke-width:0.80000001;stroke-linecap:butt;stroke-linejoin:round;stroke-miterlimit:10;stroke-dasharray:none;stroke-opacity:1"
         d="m 81.60625,260.77404 h -3.5" /><text
         id="text187"
         style="font-variant:normal;font-weight:normal;font-size:22px;font-family:'DejaVu Sans';-inkscape-font-specification:DejaVuSans;writing-mode:lr-tb;fill:#000000;fill-opacity:1;fill-rule:nonzero;stroke:none"
         transform="matrix(1,0,0,-1,60.60625,252.41466)"><tspan
           id="tspan185"
           y="0"
           x="0">0</tspan></text>
</g><g
       id="g189"><g
         clip-path="url(#clipPath195)"
         id="g191"><path
           id="path197"
           style="fill:none;stroke:#b0b0b0;stroke-width:0.80000001;stroke-linecap:square;stroke-linejoin:round;stroke-miterlimit:10;stroke-dasharray:none;stroke-opacity:1"
           d="m 81.60625,338.69024 h 446.4" /></g></g><g
       id="g199"><path
         id="path201"
         style="fill:#000000;fill-opacity:1;fill-rule:nonzero;stroke:#000000;stroke-width:0.80000001;stroke-linecap:butt;stroke-linejoin:round;stroke-miterlimit:10;stroke-dasharray:none;stroke-opacity:1"
         d="m 81.60625,338.69024 h -3.5" /><text
         id="text205"
         style="font-variant:normal;font-weight:normal;font-size:22px;font-family:'DejaVu Sans';-inkscape-font-specification:DejaVuSans;writing-mode:lr-tb;fill:#000000;fill-opacity:1;fill-rule:nonzero;stroke:none"
         transform="matrix(1,0,0,-1,60.60625,330.33086)"><tspan
           id="tspan203"
           y="0"
           x="0">2</tspan></text>
<g
         transform="rotate(90,-96.438437,127.60719)"
         id="g207"><text
           id="text211"
           style="font-style:italic;font-variant:normal;font-size:32px;font-family:'DejaVu Sans';-inkscape-font-specification:DejaVuSans-Oblique;writing-mode:lr-tb;fill:#000000;fill-opacity:1;fill-rule:nonzero;stroke:none"
           transform="matrix(1,0,0,-1,0,0.5)"><tspan
             id="tspan209"
             y="0"
             x="0">y</tspan></text>
</g></g><g
       id="g213"><g
         clip-path="url(#clipPath219)"
         id="g215"><path
           id="path221"
           style="fill:none;stroke:#ff0000;stroke-width:4;stroke-linecap:square;stroke-linejoin:round;stroke-miterlimit:10;stroke-dasharray:none;stroke-opacity:0.3"
           d="m 81.60625,299.38015 2.243216,6.93951 2.243216,5.68861 2.243216,3.95147 2.243216,2.2118 2.243216,0.82788 2.243216,-0.24497 2.243217,-0.70716 2.243216,-1.74552 2.243221,-1.9122 4.48643,-5.8401 2.24321,-2.6804 2.24322,-2.33384 2.24322,-1.31346 2.24321,-1.09748 2.24322,0.60027 2.24321,2.27207 2.24322,3.30688 2.24322,3.66567 2.24321,3.36039 2.24322,3.81001 2.24321,3.40398 2.24322,2.86524 2.24322,2.35445 2.24321,1.62197 2.24322,1.44227 2.24321,1.30469 2.24322,1.81396 2.24322,1.99859 2.24321,2.34636 2.24322,2.1543 4.48643,5.55989 8.97286,12.28008 2.24322,3.48085 2.24322,2.93192 2.24321,2.38543 2.24322,0.93862 2.24322,-0.95432 4.48643,-5.56158 4.48643,-7.12846 2.24322,-4.09833 2.24321,-4.52746 2.24322,-5.57699 4.48643,-12.72532 2.24322,-6.32546 4.48643,-13.45755 2.24321,-7.47766 2.24322,-6.8679 4.48643,-12.88549 4.48643,-10.83625 2.24322,-4.3824 6.72965,-12.30051 4.48643,-7.17378 2.24322,-4.47679 2.24321,-4.76609 8.97287,-21.84059 2.24321,-4.84396 4.48644,-8.61927 4.48643,-9.5322 4.48643,-10.8991 6.72965,-15.09488 2.24321,-4.31375 2.24322,-3.5362 2.24322,-2.2054 4.48643,-2.95167 2.24322,-0.68057 2.24321,-0.44955 2.24322,1.29124 2.24321,1.9763 2.24322,2.32085 2.24321,2.68482 2.24322,2.48237 2.24322,2.73711 2.24321,2.33282 2.24322,3.22469 4.48643,6.7177 2.24322,2.6559 2.24321,2.33503 2.24322,1.62539 2.24322,1.86566 2.24321,1.62643 2.24322,1.2822 2.24321,1.53992 2.24322,2.42378 2.24322,3.05288 2.24321,2.62516 2.24322,2.83799 4.48643,7.81276 2.24322,4.18831 6.72964,13.35155 2.24322,3.75845 2.24322,4.07932 2.24321,3.699 2.24322,2.73629 4.48643,6.605 2.24322,3.5899 2.24321,4.45938 4.48644,9.96969 2.24321,5.88593 2.24322,4.95586 2.24321,5.31518 2.24322,4.9202 2.24322,4.54062 2.24321,4.19891 2.24322,2.53621 2.24321,1.06936 2.24322,-0.47122 2.24322,-1.34899 2.24321,-2.4559 2.24322,-3.95464 2.24321,-4.81283 4.48644,-12.04168 2.24321,-6.95879 8.97287,-25.6249 4.48643,-12.01572 2.24322,-6.02687 6.72964,-19.86129 4.48644,-10.58453 6.72964,-13.53615 2.24322,-3.51164 4.48643,-4.92787 2.24322,-2.10452 2.24321,-1.55364 4.48644,-2.05805 2.24321,-0.0138 6.72965,-1.61966 2.24322,-0.72597 2.24321,-1.1362 2.24322,-0.97693 2.24322,-0.63528 4.48643,-0.42946 2.24321,-0.0331 2.24322,0.50697 4.48643,-0.7404 2.24322,-1.0979 2.24321,-0.81356 4.48644,-2.67385 2.24321,-1.81459 2.24322,-1.45571 2.24321,-1.08852 2.24322,-1.35142 4.48643,-2.2271 2.24322,-0.69415 4.48643,-1.9163 2.24322,-1.30157 4.48643,-2.37198 2.24322,-1.4297 2.24321,-2.03539 2.24322,-2.90114 2.24321,-3.54246 2.24322,-3.79335 v 0" /></g></g><g
       id="g223"><g
         clip-path="url(#clipPath229)"
         id="g225"><path
           id="path231"
           style="fill:none;stroke:#ff0000;stroke-width:4;stroke-linecap:square;stroke-linejoin:round;stroke-miterlimit:10;stroke-dasharray:none;stroke-opacity:0.3"
           d="m 81.60625,301.34681 2.243216,0.19217 2.243216,0.0509 2.243216,-0.25886 2.243216,0.1969 6.729649,-2.80828 2.243216,-0.414 2.243221,0.21646 2.24321,1.15657 2.24322,1.98025 4.48643,4.47474 2.24322,1.94873 2.24321,1.56162 2.24322,1.14553 2.24321,0.71845 4.48644,1.9154 2.24321,1.96218 4.48643,6.01555 4.48644,6.686 2.24321,3.85399 15.70251,29.31258 2.24322,3.76559 2.24322,3.07844 2.24321,1.79554 2.24322,1.13408 2.24321,0.80126 2.24322,-0.19445 2.24322,-0.65331 2.24321,-1.16436 4.48644,-3.73232 2.24321,-2.57744 2.24322,-3.05667 2.24321,-2.76476 2.24322,-2.57166 2.24322,-2.26617 2.24321,-1.75673 4.48643,-4.36102 2.24322,-2.50458 2.24322,-3.25645 4.48643,-7.11322 2.24321,-3.88437 2.24322,-3.45729 2.24322,-4.08261 2.24321,-4.48936 2.24322,-5.21605 4.48643,-10.8998 2.24322,-4.64187 2.24321,-4.23229 2.24322,-3.83516 2.24321,-2.9973 2.24322,-2.74354 2.24322,-1.92937 2.24321,-1.70316 2.24322,-1.41038 2.24322,-1.57355 2.24321,-0.98249 2.24322,0.63416 2.24321,1.21835 2.24322,1.08315 2.24322,0.70752 2.24321,1.33039 2.24322,0.56271 2.24321,0.39292 4.48644,1.62937 2.24321,1.64141 2.24322,1.03433 2.24321,1.58245 2.24322,0.85378 2.24322,0.48613 2.24321,-0.3037 6.72965,-2.54245 2.24322,-1.75891 2.24321,-2.0745 2.24322,-2.48763 2.24321,-2.72779 2.24322,-2.92803 4.48643,-6.27233 4.48644,-5.5301 2.24321,-2.30619 2.24322,-1.15043 2.24321,-0.56983 2.24322,-0.29686 2.24322,0.96382 2.24321,1.53875 4.48643,4.77985 2.24322,2.90662 2.24322,4.07552 6.72964,13.5429 2.24322,3.94116 2.24322,2.47321 2.24321,2.22044 2.24322,1.10874 2.24321,0.28657 4.48644,-1.23365 2.24321,-0.21725 2.24322,-0.50495 2.24322,0.13346 2.24321,-0.5374 4.48643,0.0909 6.72965,1.93 2.24322,-0.003 2.24321,-1.0748 2.24322,-1.44947 2.24322,-2.21894 2.24321,-2.90574 2.24322,-4.25702 2.24321,-5.24696 2.24322,-5.89644 6.72965,-20.44105 2.24321,-6.97032 2.24322,-6.58723 2.24322,-6.10274 2.24321,-5.35976 2.24322,-4.56826 2.24322,-3.97379 2.24321,-2.6485 2.24322,-1.13343 2.24321,0.13289 2.24322,1.4123 2.24322,1.79945 2.24321,2.8449 2.24322,2.35348 6.72965,8.16154 2.24321,2.50881 2.24322,2.69049 2.24321,1.71515 2.24322,1.08694 2.24322,0.49605 2.24321,0.35767 4.48643,1.74334 2.24322,0.42476 2.24322,-0.0443 2.24321,0.42158 2.24322,-0.76151 4.48643,-2.56726 2.24322,-2.16849 2.24321,-2.60729 2.24322,-3.63734 4.48643,-5.95211 2.24322,-2.33628 2.24321,-2.5278 2.24322,-2.7808 2.24322,-3.82016 4.48643,-6.60462 2.24321,-1.7594 2.24322,-0.76764 2.24322,-0.31962 2.24321,0.43708 2.24322,0.65302 2.24321,1.12199 2.24322,0.70123 2.24322,0.25664 2.24321,0.11767 4.48643,-0.936 2.24322,-0.72359 2.24322,-0.41515 2.24321,-0.61917 2.24322,-0.23327 2.24322,0.29749 2.24321,0.64635 2.24322,1.31624 2.24321,1.18081 2.24322,1.49041 v 0" /></g></g><g
       id="g233"><g
         clip-path="url(#clipPath239)"
         id="g235"><path
           id="path241"
           style="fill:none;stroke:#ff0000;stroke-width:4;stroke-linecap:square;stroke-linejoin:round;stroke-miterlimit:10;stroke-dasharray:none;stroke-opacity:0.3"
           d="m 81.60625,300.15889 6.729648,-3.17698 2.243216,-0.35294 2.243216,0.66454 2.243216,0.92819 2.243217,1.70233 4.486437,3.90963 2.24321,1.71607 2.24322,2.13198 2.24321,1.71921 2.24322,0.8599 2.24322,0.18754 2.24321,-0.38767 2.24322,-0.62035 2.24321,-0.12383 2.24322,0.44364 2.24322,1.07581 2.24321,2.60581 2.24322,3.46741 4.48643,9.56013 2.24322,5.35869 4.48643,11.50853 2.24321,5.98059 2.24322,5.50468 6.72965,15.75328 2.24321,4.71583 2.24322,3.38794 2.24322,2.22186 2.24321,0.89946 2.24322,-0.0879 2.24321,-0.48308 2.24322,-1.40523 2.24322,-2.29859 2.24321,-2.74399 4.48644,-6.25867 2.24321,-4.02163 2.24322,-4.36842 6.72965,-11.34088 4.48643,-6.19164 2.24321,-2.90779 4.48644,-4.89355 2.24321,-2.49078 2.24322,-2.65993 2.24321,-3.67056 2.24322,-2.86743 2.24322,-3.7247 4.48643,-5.97183 4.48643,-5.18458 2.24322,-1.97748 2.24321,-1.11114 2.24322,-0.25222 2.24321,0.25504 2.24322,0.95395 2.24322,1.73968 2.24321,2.55058 4.48644,3.86335 2.24321,1.6872 2.24322,0.40552 2.24321,0.081 2.24322,-1.33837 2.24322,-2.33383 2.24321,-2.91694 6.72965,-10.70049 6.72965,-12.26453 4.48643,-8.36768 2.24322,-4.71341 2.24321,-3.79044 2.24322,-4.1351 2.24322,-3.45576 2.24321,-3.78097 2.24322,-3.30041 2.24321,-2.8002 2.24322,-3.67496 2.24321,-3.34717 2.24322,-2.69753 2.24322,-2.03963 6.72965,-6.92681 2.24321,-2.20539 4.48643,-3.57176 4.48644,-4.30756 2.24321,-1.69136 2.24322,-1.46308 2.24321,-1.92746 2.24322,-1.51178 2.24322,-0.93339 4.48643,-1.1397 2.24321,0.17237 2.24322,0.43523 2.24322,1.04479 2.24321,1.85189 2.24322,2.30944 2.24321,3.50501 4.48644,6.49751 4.48643,5.17667 2.24322,3.37506 2.24321,3.00024 4.48643,6.66028 2.24322,3.8022 2.24322,3.21727 2.24321,2.74946 2.24322,1.96397 2.24321,0.83413 2.24322,-0.14445 2.24322,-1.42242 2.24321,-2.09347 2.24322,-2.94227 2.24321,-3.89943 2.24322,-4.57574 2.24322,-5.79514 4.48643,-12.14428 2.24321,-5.23883 2.24322,-4.6934 4.48643,-8.35278 2.24322,-3.20711 2.24322,-2.12308 2.24321,-1.66126 2.24322,-0.92017 4.48643,-1.34426 2.24322,-0.5457 2.24321,-1.31102 2.24322,-2.28944 2.24321,-2.95401 2.24322,-4.14417 2.24322,-5.12535 4.48643,-11.5414 4.48643,-11.1792 2.24322,-5.18722 2.24321,-4.68961 2.24322,-4.20963 4.48643,-4.97289 2.24322,-1.35356 2.24321,-1.14152 2.24322,-0.22455 2.24321,-0.41301 6.72965,-1.83029 2.24322,0.037 2.24322,0.45929 2.24321,0.80109 2.24322,1.23163 2.24321,1.07028 2.24322,1.45486 2.24322,0.98284 2.24321,1.67743 2.24322,0.96736 2.24321,0.348 4.48644,-0.47646 2.24321,0.17695 2.24322,0.6516 2.24321,0.81927 2.24322,1.20355 2.24322,0.77171 2.24321,0.38785 2.24322,-0.15584 2.24321,-0.88431 2.24322,-0.71536 2.24322,-1.37445 2.24321,-2.34065 4.48644,-6.99303 2.24321,-3.77458 2.24322,-3.08457 4.48643,-5.58242 v 0" /></g></g><g
       id="g243"><g
         clip-path="url(#clipPath249)"
         id="g245"><path
           id="path251"
           style="fill:none;stroke:#ff0000;stroke-width:4;stroke-linecap:square;stroke-linejoin:round;stroke-miterlimit:10;stroke-dasharray:none;stroke-opacity:0.3"
           d="m 81.60625,299.62519 2.243216,-3.54459 2.243216,-2.69141 2.243216,-2.21149 4.486432,-5.56497 2.243216,-2.93534 2.243217,-1.94113 2.243216,-1.58267 2.243221,-0.60269 2.24321,-0.0947 2.24322,1.00722 2.24321,2.14065 2.24322,2.91847 4.48643,7.29746 8.97287,19.26176 2.24321,4.29847 2.24322,3.89462 2.24321,3.12505 2.24322,2.40082 4.48643,2.87138 2.24322,0.29785 2.24321,0.71379 2.24322,1.10086 2.24322,2.0705 2.24321,2.41027 2.24322,2.92839 2.24321,3.74889 4.48644,6.09061 2.24321,2.44457 2.24322,2.08505 2.24321,2.30974 2.24322,1.57648 4.48643,2.27024 6.72965,2.14528 2.24322,-0.008 2.24321,-0.24475 2.24322,-1.0891 2.24322,-2.32428 2.24321,-3.64551 2.24322,-4.30697 4.48643,-9.49949 2.24322,-5.39978 2.24321,-5.08312 6.72965,-13.54502 8.97286,-15.87364 2.24322,-4.57823 4.48643,-10.55377 2.24322,-5.75455 2.24321,-6.7476 2.24322,-8.20662 2.24322,-8.82493 2.24321,-9.99419 8.97287,-42.83486 4.48643,-18.86489 11.21608,-41.83898 2.24322,-6.85324 2.24321,-5.97468 2.24322,-4.61052 2.24321,-4.14222 2.24322,-3.08394 2.24322,-2.71768 2.24321,-2.30086 2.24322,-1.96334 2.24322,-2.14521 2.24321,-1.70646 2.24322,-0.98006 2.24321,-0.38392 2.24322,-0.69592 4.48643,-0.13004 2.24322,0.1159 2.24321,1.30119 2.24322,1.62218 6.72965,4.16922 2.24321,1.09229 4.48644,1.00734 2.24321,0.15705 2.24322,-0.16324 2.24321,-0.97436 2.24322,-1.46862 6.72965,-7.45292 2.24321,-2.09586 2.24322,-1.466419 2.24322,-0.918292 2.24321,-0.007 2.24322,1.436604 2.24321,2.057417 2.24322,3.14711 4.48643,6.94607 4.48644,8.38354 2.24321,4.98524 2.24322,6.0326 2.24321,7.11854 2.24322,7.59685 2.24322,8.91735 8.97286,39.39866 2.24322,8.08649 2.24321,7.16953 2.24322,5.66337 2.24321,4.64577 2.24322,3.50612 2.24322,1.79776 2.24321,0.79683 2.24322,0.29568 2.24321,-0.18975 2.24322,0.075 2.24322,-0.64999 2.24321,-0.1197 4.48644,-1.5595 2.24321,-1.28342 8.97287,-7.56978 2.24321,-2.28759 2.24322,-3.11035 2.24321,-3.82661 2.24322,-4.71842 4.48643,-10.99358 2.24322,-5.61346 2.24321,-5.30565 2.24322,-4.17633 2.24322,-3.08235 2.24321,-2.37401 4.48643,-3.80206 2.24322,-2.52362 2.24322,-2.26622 2.24321,-2.51762 2.24322,-2.23315 2.24321,-1.44989 2.24322,-2.0429 6.72965,-5.51964 2.24322,-1.36601 2.24321,-0.56922 2.24322,0.21281 2.24321,-0.12189 2.24322,-0.50455 2.24322,-1.13992 2.24321,-0.7058 4.48643,-3.7152 2.24322,-1.76163 2.24322,-2.12437 2.24321,-2.29121 2.24322,-2.96897 4.48643,-7.09654 4.48643,-7.76495 4.48643,-7.02576 4.48644,-5.08775 2.24321,-2.32653 2.24322,-3.263824 2.24322,-2.803803 2.24321,-3.135443 2.24322,-2.457938 2.24321,-1.997468 2.24322,-1.411061 v 0" /></g></g><g
       id="g253"><g
         clip-path="url(#clipPath259)"
         id="g255"><path
           id="path261"
           style="fill:none;stroke:#ff0000;stroke-width:4;stroke-linecap:square;stroke-linejoin:round;stroke-miterlimit:10;stroke-dasharray:none;stroke-opacity:0.3"
           d="m 81.60625,300.53237 2.243216,1.03445 4.486432,3.69967 2.243216,1.83723 2.243216,2.34731 2.243216,2.04673 2.243217,1.29782 2.243216,0.73294 2.243221,0.36336 4.48643,-0.20651 2.24321,0.16396 2.24322,0.46453 4.48643,1.58574 2.24322,1.15878 6.72965,2.64007 2.24321,0.47752 4.48643,2.12897 2.24322,0.98074 2.24322,0.59333 2.24321,1.15304 4.48643,3.01444 2.24322,2.21687 2.24322,2.71708 2.24321,3.7167 2.24322,4.23662 2.24321,4.71334 2.24322,5.02935 2.24322,4.66487 2.24321,4.01997 2.24322,3.71667 2.24321,2.40292 2.24322,1.3709 4.48643,0.39757 2.24322,-0.55195 2.24322,-1.60811 2.24321,-2.01536 2.24322,-2.60483 2.24321,-3.35924 2.24322,-3.64761 2.24322,-4.17798 2.24321,-3.82293 2.24322,-2.32378 2.24321,-1.30881 2.24322,-0.16125 4.48643,1.95598 2.24322,-0.11909 2.24321,-1.51856 4.48644,-4.36226 2.24321,-2.2499 2.24322,-2.54482 2.24321,-2.96518 4.48644,-6.61693 4.48643,-7.02107 2.24321,-3.03249 2.24322,-2.0884 2.24322,-2.56277 2.24321,-2.22822 4.48644,-6.47355 6.72964,-11.13272 2.24322,-3.12789 2.24322,-1.93562 2.24321,-0.90546 2.24322,0.32832 6.72965,5.16356 2.24321,1.9892 6.72965,7.47387 2.24322,2.32579 2.24321,2.01125 2.24322,1.49281 2.24322,0.17825 2.24321,-0.29569 2.24322,-0.58654 2.24321,-1.45326 2.24322,-0.94192 2.24321,-0.23836 2.24322,-0.97652 2.24322,-1.45345 2.24321,-1.31966 2.24322,-1.57718 2.24322,-1.76787 4.48643,-3.98067 2.24321,-1.54439 2.24322,-1.74236 2.24322,-1.90626 2.24321,-2.10757 2.24322,-2.64378 2.24321,-2.93706 15.70252,-25.69279 2.24321,-3.25541 2.24322,-2.54288 2.24321,-2.15601 2.24322,-1.81436 4.48643,-2.13197 2.24322,-0.68307 2.24322,-0.15777 2.24321,0.86752 2.24322,1.59903 2.24321,2.05691 2.24322,2.37716 2.24322,2.70047 2.24321,2.93549 2.24322,2.0814 2.24321,1.82096 4.48644,1.1423 2.24321,0.14718 4.48643,-0.96429 4.48644,-2.28586 2.24321,-0.80655 2.24322,-0.99901 6.72965,-2.27152 2.24321,0.45171 4.48644,2.60982 2.24321,1.83624 4.48643,2.03198 2.24322,-0.57608 2.24322,-1.48299 4.48643,-4.22592 4.48643,-4.26287 2.24322,-2.58743 2.24321,-2.80062 4.48643,-4.97512 6.72965,-8.70418 2.24322,-3.16118 11.21608,-18.05284 4.48643,-7.81351 4.48643,-8.59311 2.24322,-4.51533 6.72965,-15.21662 2.24321,-5.76814 2.24322,-5.35724 2.24322,-5.80083 2.24321,-5.18914 2.24322,-4.90265 2.24321,-4.03998 2.24322,-3.631 2.24322,-2.8053 4.48643,-4.0224 2.24321,-2.22432 2.24322,-3.62782 4.48643,-6.59044 2.24322,-2.76895 2.24321,-1.7679 2.24322,-0.67745 4.48643,0.46805 6.72965,4.319 2.24322,0.80226 2.24321,1.22102 2.24322,0.75864 v 0" /></g></g><g
       id="g263"><path
         id="path265"
         style="fill:none;stroke:#000000;stroke-width:0.80000001;stroke-linecap:square;stroke-linejoin:miter;stroke-miterlimit:10;stroke-dasharray:none;stroke-opacity:1"
         d="M 81.60625,70.465625 V 396.62563" /><path
         id="path267"
         style="fill:none;stroke:#000000;stroke-width:0.80000001;stroke-linecap:square;stroke-linejoin:miter;stroke-miterlimit:10;stroke-dasharray:none;stroke-opacity:1"
         d="M 528.00625,70.465625 V 396.62563" /><path
         id="path269"
         style="fill:none;stroke:#000000;stroke-width:0.80000001;stroke-linecap:square;stroke-linejoin:miter;stroke-miterlimit:10;stroke-dasharray:none;stroke-opacity:1"
         d="m 81.60625,70.465625 h 446.4" /><path
         id="path271"
         style="fill:none;stroke:#000000;stroke-width:0.80000001;stroke-linecap:square;stroke-linejoin:miter;stroke-miterlimit:10;stroke-dasharray:none;stroke-opacity:1"
         d="m 81.60625,396.62563 h 446.4" /></g></g></svg>