<?xml version="1.0" encoding="UTF-8" standalone="no"?>
<svg
   xmlns:dc="http://purl.org/dc/elements/1.1/"
   xmlns:cc="http://creativecommons.org/ns#"
   xmlns:rdf="http://www.w3.org/1999/02/22-rdf-syntax-ns#"
   xmlns:svg="http://www.w3.org/2000/svg"
   xmlns="http://www.w3.org/2000/svg"
   viewBox="0 0 726.35834 538.43414"
   height="538.43414"
   width="726.35834"
   xml:space="preserve"
   id="svg29"
   version="1.1"><metadata
     id="metadata35"><rdf:RDF><cc:Work
         rdf:about=""><dc:format>image/svg+xml</dc:format><dc:type
           rdf:resource="http://purl.org/dc/dcmitype/StillImage" /><dc:title></dc:title></cc:Work></rdf:RDF></metadata><defs
     id="defs33"><clipPath
       id="clipPath45"
       clipPathUnits="userSpaceOnUse"><path
         id="path43"
         d="m 84.16875,70.465625 h 446.4 V 396.62563 h -446.4 z" /></clipPath><clipPath
       id="clipPath63"
       clipPathUnits="userSpaceOnUse"><path
         id="path61"
         d="m 84.16875,70.465625 h 446.4 V 396.62563 h -446.4 z" /></clipPath><clipPath
       id="clipPath81"
       clipPathUnits="userSpaceOnUse"><path
         id="path79"
         d="m 84.16875,70.465625 h 446.4 V 396.62563 h -446.4 z" /></clipPath><clipPath
       id="clipPath99"
       clipPathUnits="userSpaceOnUse"><path
         id="path97"
         d="m 84.16875,70.465625 h 446.4 V 396.62563 h -446.4 z" /></clipPath><clipPath
       id="clipPath117"
       clipPathUnits="userSpaceOnUse"><path
         id="path115"
         d="m 84.16875,70.465625 h 446.4 V 396.62563 h -446.4 z" /></clipPath><clipPath
       id="clipPath141"
       clipPathUnits="userSpaceOnUse"><path
         id="path139"
         d="m 84.16875,70.465625 h 446.4 V 396.62563 h -446.4 z" /></clipPath><clipPath
       id="clipPath159"
       clipPathUnits="userSpaceOnUse"><path
         id="path157"
         d="m 84.16875,70.465625 h 446.4 V 396.62563 h -446.4 z" /></clipPath><clipPath
       id="clipPath177"
       clipPathUnits="userSpaceOnUse"><path
         id="path175"
         d="m 84.16875,70.465625 h 446.4 V 396.62563 h -446.4 z" /></clipPath><clipPath
       id="clipPath195"
       clipPathUnits="userSpaceOnUse"><path
         id="path193"
         d="m 84.16875,70.465625 h 446.4 V 396.62563 h -446.4 z" /></clipPath><clipPath
       id="clipPath213"
       clipPathUnits="userSpaceOnUse"><path
         id="path211"
         d="m 84.16875,70.465625 h 446.4 V 396.62563 h -446.4 z" /></clipPath><clipPath
       id="clipPath231"
       clipPathUnits="userSpaceOnUse"><path
         id="path229"
         d="m 84.16875,70.465625 h 446.4 V 396.62563 h -446.4 z" /></clipPath><clipPath
       id="clipPath255"
       clipPathUnits="userSpaceOnUse"><path
         id="path253"
         d="m 84.16875,70.465625 h 446.4 V 396.62563 h -446.4 z" /></clipPath><clipPath
       id="clipPath265"
       clipPathUnits="userSpaceOnUse"><path
         id="path263"
         d="m 84.16875,70.465625 h 446.4 V 396.62563 h -446.4 z" /></clipPath><clipPath
       id="clipPath275"
       clipPathUnits="userSpaceOnUse"><path
         id="path273"
         d="m 84.16875,70.465625 h 446.4 V 396.62563 h -446.4 z" /></clipPath><clipPath
       id="clipPath285"
       clipPathUnits="userSpaceOnUse"><path
         id="path283"
         d="m 84.16875,70.465625 h 446.4 V 396.62563 h -446.4 z" /></clipPath><clipPath
       id="clipPath295"
       clipPathUnits="userSpaceOnUse"><path
         id="path293"
         d="m 84.16875,70.465625 h 446.4 V 396.62563 h -446.4 z" /></clipPath></defs><g
     transform="matrix(1.3333333,0,0,-1.3333333,0,538.43417)"
     id="g37"><g
       id="g39"><g
         clip-path="url(#clipPath45)"
         id="g41"><path
           id="path47"
           style="fill:none;stroke:#b0b0b0;stroke-width:0.80000001;stroke-linecap:square;stroke-linejoin:round;stroke-miterlimit:10;stroke-dasharray:none;stroke-opacity:1"
           d="M 133.76875,70.465625 V 396.62563" /></g></g><g
       id="g49"><path
         id="path51"
         style="fill:#000000;fill-opacity:1;fill-rule:nonzero;stroke:#000000;stroke-width:0.80000001;stroke-linecap:butt;stroke-linejoin:round;stroke-miterlimit:10;stroke-dasharray:none;stroke-opacity:1"
         d="m 133.76875,70.465625 v -3.5" /><text
         id="text55"
         style="font-variant:normal;font-weight:normal;font-size:22px;font-family:'DejaVu Sans';-inkscape-font-specification:DejaVuSans;writing-mode:lr-tb;fill:#000000;fill-opacity:1;fill-rule:nonzero;stroke:none"
         transform="matrix(1,0,0,-1,117.55,46.746875)"><tspan
           id="tspan53"
           y="0"
           x="0 18.436001">−2</tspan></text>
</g><g
       id="g57"><g
         clip-path="url(#clipPath63)"
         id="g59"><path
           id="path65"
           style="fill:none;stroke:#b0b0b0;stroke-width:0.80000001;stroke-linecap:square;stroke-linejoin:round;stroke-miterlimit:10;stroke-dasharray:none;stroke-opacity:1"
           d="M 232.96875,70.465625 V 396.62563" /></g></g><g
       id="g67"><path
         id="path69"
         style="fill:#000000;fill-opacity:1;fill-rule:nonzero;stroke:#000000;stroke-width:0.80000001;stroke-linecap:butt;stroke-linejoin:round;stroke-miterlimit:10;stroke-dasharray:none;stroke-opacity:1"
         d="m 232.96875,70.465625 v -3.5" /><text
         id="text73"
         style="font-variant:normal;font-weight:normal;font-size:22px;font-family:'DejaVu Sans';-inkscape-font-specification:DejaVuSans;writing-mode:lr-tb;fill:#000000;fill-opacity:1;fill-rule:nonzero;stroke:none"
         transform="matrix(1,0,0,-1,225.96875,46.746875)"><tspan
           id="tspan71"
           y="0"
           x="0">0</tspan></text>
</g><g
       id="g75"><g
         clip-path="url(#clipPath81)"
         id="g77"><path
           id="path83"
           style="fill:none;stroke:#b0b0b0;stroke-width:0.80000001;stroke-linecap:square;stroke-linejoin:round;stroke-miterlimit:10;stroke-dasharray:none;stroke-opacity:1"
           d="M 332.16875,70.465625 V 396.62563" /></g></g><g
       id="g85"><path
         id="path87"
         style="fill:#000000;fill-opacity:1;fill-rule:nonzero;stroke:#000000;stroke-width:0.80000001;stroke-linecap:butt;stroke-linejoin:round;stroke-miterlimit:10;stroke-dasharray:none;stroke-opacity:1"
         d="m 332.16875,70.465625 v -3.5" /><text
         id="text91"
         style="font-variant:normal;font-weight:normal;font-size:22px;font-family:'DejaVu Sans';-inkscape-font-specification:DejaVuSans;writing-mode:lr-tb;fill:#000000;fill-opacity:1;fill-rule:nonzero;stroke:none"
         transform="matrix(1,0,0,-1,325.16875,46.746875)"><tspan
           id="tspan89"
           y="0"
           x="0">2</tspan></text>
</g><g
       id="g93"><g
         clip-path="url(#clipPath99)"
         id="g95"><path
           id="path101"
           style="fill:none;stroke:#b0b0b0;stroke-width:0.80000001;stroke-linecap:square;stroke-linejoin:round;stroke-miterlimit:10;stroke-dasharray:none;stroke-opacity:1"
           d="M 431.36875,70.465625 V 396.62563" /></g></g><g
       id="g103"><path
         id="path105"
         style="fill:#000000;fill-opacity:1;fill-rule:nonzero;stroke:#000000;stroke-width:0.80000001;stroke-linecap:butt;stroke-linejoin:round;stroke-miterlimit:10;stroke-dasharray:none;stroke-opacity:1"
         d="m 431.36875,70.465625 v -3.5" /><text
         id="text109"
         style="font-variant:normal;font-weight:normal;font-size:22px;font-family:'DejaVu Sans';-inkscape-font-specification:DejaVuSans;writing-mode:lr-tb;fill:#000000;fill-opacity:1;fill-rule:nonzero;stroke:none"
         transform="matrix(1,0,0,-1,424.36875,46.746875)"><tspan
           id="tspan107"
           y="0"
           x="0">4</tspan></text>
</g><g
       id="g111"><g
         clip-path="url(#clipPath117)"
         id="g113"><path
           id="path119"
           style="fill:none;stroke:#b0b0b0;stroke-width:0.80000001;stroke-linecap:square;stroke-linejoin:round;stroke-miterlimit:10;stroke-dasharray:none;stroke-opacity:1"
           d="M 530.56875,70.465625 V 396.62563" /></g></g><g
       id="g121"><path
         id="path123"
         style="fill:#000000;fill-opacity:1;fill-rule:nonzero;stroke:#000000;stroke-width:0.80000001;stroke-linecap:butt;stroke-linejoin:round;stroke-miterlimit:10;stroke-dasharray:none;stroke-opacity:1"
         d="m 530.56875,70.465625 v -3.5" /><text
         id="text127"
         style="font-variant:normal;font-weight:normal;font-size:22px;font-family:'DejaVu Sans';-inkscape-font-specification:DejaVuSans;writing-mode:lr-tb;fill:#000000;fill-opacity:1;fill-rule:nonzero;stroke:none"
         transform="matrix(1,0,0,-1,523.56875,46.746875)"><tspan
           id="tspan125"
           y="0"
           x="0">6</tspan></text>
<g
         transform="translate(297.86875,13.85625)"
         id="g129"><text
           id="text133"
           style="font-style:italic;font-variant:normal;font-size:32px;font-family:'DejaVu Sans';-inkscape-font-specification:DejaVuSans-Oblique;writing-mode:lr-tb;fill:#000000;fill-opacity:1;fill-rule:nonzero;stroke:none"
           transform="matrix(1,0,0,-1,0,0.5)"><tspan
             id="tspan131"
             y="0"
             x="0">x</tspan></text>
</g></g><g
       id="g135"><g
         clip-path="url(#clipPath141)"
         id="g137"><path
           id="path143"
           style="fill:none;stroke:#b0b0b0;stroke-width:0.80000001;stroke-linecap:square;stroke-linejoin:round;stroke-miterlimit:10;stroke-dasharray:none;stroke-opacity:1"
           d="m 84.16875,96.541197 h 446.4" /></g></g><g
       id="g145"><path
         id="path147"
         style="fill:#000000;fill-opacity:1;fill-rule:nonzero;stroke:#000000;stroke-width:0.80000001;stroke-linecap:butt;stroke-linejoin:round;stroke-miterlimit:10;stroke-dasharray:none;stroke-opacity:1"
         d="m 84.16875,96.541197 h -3.5" /><text
         id="text151"
         style="font-variant:normal;font-weight:normal;font-size:22px;font-family:'DejaVu Sans';-inkscape-font-specification:DejaVuSans;writing-mode:lr-tb;fill:#000000;fill-opacity:1;fill-rule:nonzero;stroke:none"
         transform="matrix(1,0,0,-1,42.16875,88.181822)"><tspan
           id="tspan149"
           y="0"
           x="0 13.992 20.988001">0.5</tspan></text>
</g><g
       id="g153"><g
         clip-path="url(#clipPath159)"
         id="g155"><path
           id="path161"
           style="fill:none;stroke:#b0b0b0;stroke-width:0.80000001;stroke-linecap:square;stroke-linejoin:round;stroke-miterlimit:10;stroke-dasharray:none;stroke-opacity:1"
           d="m 84.16875,147.8717 h 446.4" /></g></g><g
       id="g163"><path
         id="path165"
         style="fill:#000000;fill-opacity:1;fill-rule:nonzero;stroke:#000000;stroke-width:0.80000001;stroke-linecap:butt;stroke-linejoin:round;stroke-miterlimit:10;stroke-dasharray:none;stroke-opacity:1"
         d="m 84.16875,147.8717 h -3.5" /><text
         id="text169"
         style="font-variant:normal;font-weight:normal;font-size:22px;font-family:'DejaVu Sans';-inkscape-font-specification:DejaVuSans;writing-mode:lr-tb;fill:#000000;fill-opacity:1;fill-rule:nonzero;stroke:none"
         transform="matrix(1,0,0,-1,42.16875,139.51232)"><tspan
           id="tspan167"
           y="0"
           x="0 13.992 20.988001">1.0</tspan></text>
</g><g
       id="g171"><g
         clip-path="url(#clipPath177)"
         id="g173"><path
           id="path179"
           style="fill:none;stroke:#b0b0b0;stroke-width:0.80000001;stroke-linecap:square;stroke-linejoin:round;stroke-miterlimit:10;stroke-dasharray:none;stroke-opacity:1"
           d="m 84.16875,199.2022 h 446.4" /></g></g><g
       id="g181"><path
         id="path183"
         style="fill:#000000;fill-opacity:1;fill-rule:nonzero;stroke:#000000;stroke-width:0.80000001;stroke-linecap:butt;stroke-linejoin:round;stroke-miterlimit:10;stroke-dasharray:none;stroke-opacity:1"
         d="m 84.16875,199.2022 h -3.5" /><text
         id="text187"
         style="font-variant:normal;font-weight:normal;font-size:22px;font-family:'DejaVu Sans';-inkscape-font-specification:DejaVuSans;writing-mode:lr-tb;fill:#000000;fill-opacity:1;fill-rule:nonzero;stroke:none"
         transform="matrix(1,0,0,-1,42.16875,190.84283)"><tspan
           id="tspan185"
           y="0"
           x="0 13.992 20.988001">1.5</tspan></text>
</g><g
       id="g189"><g
         clip-path="url(#clipPath195)"
         id="g191"><path
           id="path197"
           style="fill:none;stroke:#b0b0b0;stroke-width:0.80000001;stroke-linecap:square;stroke-linejoin:round;stroke-miterlimit:10;stroke-dasharray:none;stroke-opacity:1"
           d="m 84.16875,250.5327 h 446.4" /></g></g><g
       id="g199"><path
         id="path201"
         style="fill:#000000;fill-opacity:1;fill-rule:nonzero;stroke:#000000;stroke-width:0.80000001;stroke-linecap:butt;stroke-linejoin:round;stroke-miterlimit:10;stroke-dasharray:none;stroke-opacity:1"
         d="m 84.16875,250.5327 h -3.5" /><text
         id="text205"
         style="font-variant:normal;font-weight:normal;font-size:22px;font-family:'DejaVu Sans';-inkscape-font-specification:DejaVuSans;writing-mode:lr-tb;fill:#000000;fill-opacity:1;fill-rule:nonzero;stroke:none"
         transform="matrix(1,0,0,-1,42.16875,242.17333)"><tspan
           id="tspan203"
           y="0"
           x="0 13.992 20.988001">2.0</tspan></text>
</g><g
       id="g207"><g
         clip-path="url(#clipPath213)"
         id="g209"><path
           id="path215"
           style="fill:none;stroke:#b0b0b0;stroke-width:0.80000001;stroke-linecap:square;stroke-linejoin:round;stroke-miterlimit:10;stroke-dasharray:none;stroke-opacity:1"
           d="m 84.16875,301.8632 h 446.4" /></g></g><g
       id="g217"><path
         id="path219"
         style="fill:#000000;fill-opacity:1;fill-rule:nonzero;stroke:#000000;stroke-width:0.80000001;stroke-linecap:butt;stroke-linejoin:round;stroke-miterlimit:10;stroke-dasharray:none;stroke-opacity:1"
         d="m 84.16875,301.8632 h -3.5" /><text
         id="text223"
         style="font-variant:normal;font-weight:normal;font-size:22px;font-family:'DejaVu Sans';-inkscape-font-specification:DejaVuSans;writing-mode:lr-tb;fill:#000000;fill-opacity:1;fill-rule:nonzero;stroke:none"
         transform="matrix(1,0,0,-1,42.16875,293.50383)"><tspan
           id="tspan221"
           y="0"
           x="0 13.992 20.988001">2.5</tspan></text>
</g><g
       id="g225"><g
         clip-path="url(#clipPath231)"
         id="g227"><path
           id="path233"
           style="fill:none;stroke:#b0b0b0;stroke-width:0.80000001;stroke-linecap:square;stroke-linejoin:round;stroke-miterlimit:10;stroke-dasharray:none;stroke-opacity:1"
           d="m 84.16875,353.1937 h 446.4" /></g></g><g
       id="g235"><path
         id="path237"
         style="fill:#000000;fill-opacity:1;fill-rule:nonzero;stroke:#000000;stroke-width:0.80000001;stroke-linecap:butt;stroke-linejoin:round;stroke-miterlimit:10;stroke-dasharray:none;stroke-opacity:1"
         d="m 84.16875,353.1937 h -3.5" /><text
         id="text241"
         style="font-variant:normal;font-weight:normal;font-size:22px;font-family:'DejaVu Sans';-inkscape-font-specification:DejaVuSans;writing-mode:lr-tb;fill:#000000;fill-opacity:1;fill-rule:nonzero;stroke:none"
         transform="matrix(1,0,0,-1,42.16875,344.83433)"><tspan
           id="tspan239"
           y="0"
           x="0 13.992 20.988001">3.0</tspan></text>
<g
         transform="rotate(90,-96.438437,127.60719)"
         id="g243"><text
           id="text247"
           style="font-style:italic;font-variant:normal;font-size:32px;font-family:'DejaVu Sans';-inkscape-font-specification:DejaVuSans-Oblique;writing-mode:lr-tb;fill:#000000;fill-opacity:1;fill-rule:nonzero;stroke:none"
           transform="matrix(1,0,0,-1,0,0.5)"><tspan
             id="tspan245"
             y="0"
             x="0">y</tspan></text>
</g></g><g
       id="g249"><g
         clip-path="url(#clipPath255)"
         id="g251"><path
           id="path257"
           style="fill:none;stroke:#ff0000;stroke-width:4;stroke-linecap:square;stroke-linejoin:round;stroke-miterlimit:10;stroke-dasharray:none;stroke-opacity:0.3"
           d="m 84.16875,146.98433 2.243216,1.01622 2.243216,2.03383 2.243216,1.23502 2.243216,2.2687 2.243216,1.23015 4.486433,3.96116 8.972867,9.70187 2.24321,2.27318 2.24322,2.78434 2.24321,2.4849 2.24322,4.31584 4.48643,6.7712 4.48644,7.20537 2.24321,4.32101 2.24322,5.01215 2.24321,3.39634 2.24322,4.90281 2.24322,4.24874 4.48643,8.87925 2.24321,5.10034 4.48644,8.86586 2.24321,4.51438 4.48643,8.05677 2.24322,5.26796 4.48643,8.78766 2.24322,4.36982 4.48643,8.08655 2.24322,4.46231 2.24321,5.52952 2.24322,3.55972 2.24321,4.03193 2.24322,4.55327 4.48643,8.17292 4.48644,7.80031 2.24321,4.52185 2.24322,4.10418 2.24321,3.5054 2.24322,2.99771 2.24322,4.05783 2.24321,3.6218 4.48643,6.31302 2.24322,2.63728 2.24322,3.47558 4.48643,4.84625 2.24321,2.13229 4.48644,2.92374 2.24321,0.34606 2.24322,1.75662 2.24321,0.19806 2.24322,-0.09 4.48643,0.13373 2.24322,-1.25362 2.24322,-0.38385 2.24321,-1.62071 2.24322,-1.01937 2.24321,-1.74418 2.24322,-1.92503 2.24322,-2.11886 2.24321,-2.48742 4.48643,-5.65386 2.24322,-3.44383 4.48643,-6.15992 2.24322,-4.07516 2.24322,-3.5888 2.24321,-4.74827 4.48643,-7.85863 2.24322,-4.48602 2.24321,-4.08074 6.72965,-14.74893 2.24322,-4.68964 2.24321,-5.37732 2.24322,-4.89955 4.48643,-10.75418 2.24322,-5.8786 2.24322,-4.61095 6.72964,-17.63486 2.24322,-5.06624 2.24322,-6.29288 2.24321,-5.77132 2.24322,-5.30088 2.24321,-6.36227 2.24322,-5.59668 2.24322,-5.00629 2.24321,-6.1722 2.24322,-5.80103 2.24321,-5.36896 2.24322,-6.07575 6.72965,-15.8677 2.24321,-4.62988 2.24322,-4.92196 6.72965,-13.40749 2.24322,-4.03679 2.24321,-5.44343 4.48643,-8.55883 2.24322,-2.87333 2.24322,-4.26239 2.24321,-3.16401 4.48643,-7.00274 2.24322,-2.345554 2.24322,-2.9008 2.24321,-2.149173 2.24322,-1.763356 2.24321,-2.048163 2.24322,-1.499946 2.24322,-0.764837 2.24321,-1.465294 2.24322,-0.160648 2.24321,-1.052899 2.24322,0.02926 2.24322,0.95369 2.24321,0.141848 2.24322,-0.09558 2.24322,1.722053 2.24321,1.096709 4.48643,2.690437 2.24322,1.191116 4.48643,4.382623 2.24322,2.32147 2.24321,1.913344 4.48644,4.82465 2.24321,2.35275 2.24322,2.7619 2.24321,3.01247 2.24322,2.05241 2.24322,3.15185 2.24321,2.84246 2.24322,3.16273 2.24321,3.48145 2.24322,3.68716 2.24322,3.92252 2.24321,3.00775 4.48643,7.24058 2.24322,4.2178 2.24322,3.25711 4.48643,7.9024 8.97286,16.11499 2.24322,2.92849 6.72965,12.66633 2.24321,3.2827 6.72965,10.68862 2.24322,2.91618 2.24321,2.60284 2.24322,3.50017 4.48643,6.41237 2.24322,2.87409 2.24322,2.27983 2.24321,2.71231 2.24322,2.12794 2.24321,2.99378 2.24322,1.42217 2.24322,1.83274 2.24321,3.09517 2.24322,0.90918 2.24321,1.91186 2.24322,1.09198 v 0" /></g></g><g
       id="g259"><g
         clip-path="url(#clipPath265)"
         id="g261"><path
           id="path267"
           style="fill:none;stroke:#ff0000;stroke-width:4;stroke-linecap:square;stroke-linejoin:round;stroke-miterlimit:10;stroke-dasharray:none;stroke-opacity:0.3"
           d="m 84.16875,147.24976 2.243216,1.1936 4.486432,1.78797 2.243216,2.33895 2.243216,1.56452 4.486433,3.61074 2.243217,2.15432 6.72965,8.03477 2.24321,2.46325 2.24322,3.24071 2.24321,2.88809 2.24322,4.04155 2.24322,3.45451 6.72965,11.29191 2.24321,3.65386 4.48643,8.80715 2.24322,3.96354 2.24322,4.61483 6.72964,12.89217 2.24322,4.95217 2.24322,3.99797 2.24321,5.25499 2.24322,4.43613 2.24321,4.0335 2.24322,4.60301 2.24322,4.93795 2.24321,4.13015 2.24322,4.93747 2.24321,5.66221 2.24322,4.02149 4.48643,9.83372 2.24322,4.60013 2.24321,4.13124 2.24322,5.01884 2.24322,3.77801 2.24321,4.97369 2.24322,3.34367 4.48643,7.48779 6.72965,10.2326 2.24322,3.14747 2.24321,3.40862 2.24322,1.77091 2.24321,2.69921 2.24322,2.38042 2.24322,2.55708 2.24321,1.47355 2.24322,1.70026 2.24321,0.94152 2.24322,1.67063 2.24322,0.28436 2.24321,1.06391 2.24322,0.45332 2.24321,0.56813 2.24322,0.063 2.24322,0.74293 2.24321,-1.77199 2.24322,-0.55867 2.24322,0.34935 4.48643,-1.3282 2.24321,-1.32461 2.24322,-2.05456 2.24322,-0.7692 2.24321,-1.27031 2.24322,-2.73964 2.24321,-2.46483 2.24322,-1.43487 2.24322,-2.9591 6.72965,-8.17446 2.24321,-3.02258 11.21608,-16.35224 2.24322,-4.27756 2.24321,-3.4361 2.24322,-4.50659 4.48643,-6.79317 2.24322,-4.09364 4.48643,-7.81523 4.48643,-8.72445 4.48643,-6.76275 6.72965,-12.12423 2.24322,-3.58826 2.24321,-4.38799 6.72965,-11.27987 2.24322,-4.41344 2.24321,-3.17095 2.24322,-4.21505 2.24322,-3.13762 2.24321,-4.27119 2.24322,-2.95058 2.24321,-3.24002 2.24322,-3.01321 2.24322,-3.47958 4.48643,-5.85745 2.24322,-2.61912 2.24321,-2.40173 2.24322,-1.80524 2.24321,-2.39373 2.24322,-3.036 4.48643,-2.70043 2.24322,-1.81521 4.48643,-1.8917 2.24322,-1.73851 2.24321,-0.9567 2.24322,-0.76971 2.24321,-0.45928 2.24322,0.0527 2.24322,-0.29417 2.24321,-0.57046 4.48643,0.79196 2.24322,1.09247 2.24322,0.86465 2.24321,1.07375 2.24322,1.50768 2.24322,0.75667 2.24321,2.26729 2.24322,0.85966 4.48643,4.3783 2.24322,1.8659 2.24321,2.33353 2.24322,2.67619 2.24321,2.15883 4.48644,5.20582 2.24321,2.82232 4.48643,6.70291 2.24322,2.54207 2.24322,3.89217 2.24321,3.12414 2.24322,3.34552 2.24321,4.50827 4.48644,7.26415 2.24321,4.6583 2.24322,4.04139 2.24321,3.34387 2.24322,4.27945 4.48643,7.34176 2.24322,3.81948 2.24322,4.50133 2.24321,2.70347 2.24322,3.66035 2.24321,2.96485 2.24322,3.27217 2.24322,2.91098 2.24321,3.70479 4.48643,4.86474 2.24322,3.94767 4.48643,4.43661 2.24322,2.61545 2.24321,1.71731 2.24322,2.17619 2.24322,1.8629 2.24321,1.70946 2.24322,2.28679 2.24322,1.48022 2.24321,1.66663 4.48643,2.95617 2.24322,1.61626 2.24322,0.68416 2.24321,1.55766 2.24322,1.39856 2.24321,0.82821 2.24322,1.16583 v 0" /></g></g><g
       id="g269"><g
         clip-path="url(#clipPath275)"
         id="g271"><path
           id="path277"
           style="fill:none;stroke:#ff0000;stroke-width:4;stroke-linecap:square;stroke-linejoin:round;stroke-miterlimit:10;stroke-dasharray:none;stroke-opacity:0.3"
           d="m 84.16875,146.51219 6.729648,5.55245 2.243216,2.2557 2.243216,2.59253 2.243216,1.71615 2.243217,3.1266 2.243217,1.49818 2.24322,2.94549 2.24321,1.80555 2.24322,3.4978 4.48643,4.73028 2.24321,2.6823 2.24322,3.7755 2.24322,2.53643 2.24321,3.53168 2.24322,2.71459 2.24322,4.1691 2.24321,3.66481 2.24322,4.72157 4.48643,7.39167 8.97286,17.19499 2.24322,4.83196 2.24322,4.12966 2.24321,4.94038 2.24322,4.28195 2.24321,4.72167 2.24322,4.40651 4.48643,9.47243 2.24322,4.31284 2.24321,5.23054 2.24322,3.83599 2.24322,4.29183 2.24321,5.08549 2.24322,3.59719 4.48643,8.65745 2.24322,3.52981 2.24321,3.98428 2.24322,3.04929 4.48643,7.94264 2.24322,2.07907 2.24321,3.02927 2.24322,2.57778 2.24322,2.30484 2.24321,1.59903 2.24322,2.12727 2.24321,2.8569 2.24322,1.98953 4.48643,3.03278 2.24322,1.98733 2.24321,1.10141 2.24322,0.76022 2.24322,1.37345 4.48643,1.44604 2.24321,0.0167 4.48644,0.62089 4.48643,-0.39224 2.24322,-0.59126 2.24321,-1.17189 2.24322,0.36392 2.24321,-1.76548 2.24322,-1.55589 2.24322,-0.79103 2.24321,-1.95864 4.48643,-3.31362 4.48644,-4.24154 2.24321,-2.02817 2.24322,-2.79619 2.24322,-2.54489 2.24321,-3.20447 4.48643,-4.67194 4.48643,-5.94018 2.24322,-2.79617 2.24322,-2.42918 2.24321,-3.47739 2.24322,-2.78643 2.24321,-3.07295 2.24322,-2.87101 4.48643,-7.40137 2.24322,-2.52049 2.24322,-3.23931 2.24321,-2.8475 2.24322,-3.09945 4.48643,-6.7355 2.24322,-2.89815 2.24321,-3.68122 2.24322,-1.53396 2.24321,-3.26044 2.24322,-2.43704 4.48643,-5.89501 2.24322,-2.63372 2.24321,-2.90549 4.48644,-3.74101 2.24321,-2.46085 2.24322,-1.57783 2.24321,-2.8526 2.24322,-1.10534 2.24322,-2.44479 8.97286,-6.16013 2.24322,-0.83751 4.48643,-3.23959 2.24322,-0.98094 2.24321,-1.29253 2.24322,-0.64336 2.24321,-0.28154 2.24322,-1.85038 2.24322,-0.28765 2.24321,-1.13956 2.24322,-0.79864 2.24321,-0.41082 2.24322,0.29579 4.48643,-0.11201 2.24322,0.87147 2.24321,0.34818 2.24322,0.70044 4.48643,2.42732 2.24322,1.0846 6.72965,5.49427 2.24321,2.27184 2.24322,1.89604 2.24322,3.33758 2.24321,2.35469 2.24322,3.40451 2.24321,2.62941 2.24322,3.25331 2.24322,2.36161 6.72964,8.77984 2.24322,3.59264 2.24322,2.88985 2.24321,2.46628 2.24322,3.00171 2.24321,2.55726 4.48644,5.71939 2.24321,2.21047 2.24322,2.75512 4.48643,4.6904 2.24322,1.30103 2.24321,2.54651 2.24322,2.28891 2.24322,1.97189 2.24321,1.59143 2.24322,2.84029 2.24321,1.35348 2.24322,1.02846 4.48643,3.45308 2.24322,2.1637 4.48643,2.34029 2.24322,2.14651 6.72964,2.16537 2.24322,0.17944 4.48643,1.53591 2.24322,0.0776 2.24322,0.28035 2.24321,-0.27103 2.24322,-0.6711 2.24321,0.30743 4.48644,-1.16193 2.24321,-0.98519 2.24322,-0.42394 2.24321,-1.31756 2.24322,-0.76366 v 0" /></g></g><g
       id="g279"><g
         clip-path="url(#clipPath285)"
         id="g281"><path
           id="path287"
           style="fill:none;stroke:#ff0000;stroke-width:4;stroke-linecap:square;stroke-linejoin:round;stroke-miterlimit:10;stroke-dasharray:none;stroke-opacity:0.3"
           d="m 84.16875,148.26321 2.243216,0.64875 2.243216,2.1925 4.486432,2.22539 2.243216,2.4575 2.243216,1.96003 4.486434,4.60211 2.24322,1.96987 4.48643,6.30602 2.24321,2.23898 2.24322,3.00529 2.24321,2.76954 6.72965,10.70577 2.24322,2.30004 2.24322,4.61194 2.24321,2.60313 2.24322,4.55819 2.24321,3.52197 2.24322,4.27294 2.24322,3.93398 17.94572,36.25771 6.72965,13.65138 2.24322,5.07175 2.24321,4.00114 2.24322,4.37827 2.24322,3.90674 4.48643,9.37378 2.24321,4.18991 2.24322,3.59183 2.24322,4.08863 2.24321,4.44555 2.24322,3.94168 4.48643,7.05139 2.24322,2.67834 4.48643,6.14061 2.24322,2.44195 2.24321,2.88008 4.48643,4.63862 2.24322,1.92598 2.24322,1.50215 2.24321,1.75856 4.48643,2.46212 2.24322,0.68514 2.24322,1.07376 2.24321,0.0578 2.24322,1.19988 2.24321,0.004 2.24322,-0.49279 2.24322,-0.0859 4.48643,-0.93115 2.24322,-0.66188 2.24321,-1.20766 2.24322,-1.42835 4.48643,-4.25384 2.24322,-1.2994 4.48643,-5.38579 6.72965,-9.51484 6.72965,-11.49945 6.72964,-13.13655 2.24322,-4.77618 2.24321,-4.29504 6.72965,-15.38481 2.24322,-5.12393 2.24321,-4.20552 2.24322,-5.76206 6.72965,-15.41937 6.72965,-14.43352 2.24321,-4.93899 2.24322,-4.13092 2.24322,-5.03558 2.24321,-4.18687 2.24322,-3.55049 2.24321,-4.77376 4.48644,-8.15591 2.24321,-4.6976 4.48643,-8.2426 2.24322,-3.40686 2.24322,-4.05038 4.48643,-6.77279 4.48643,-5.75907 4.48643,-6.88084 2.24322,-2.38206 2.24322,-3.22985 6.72964,-6.04396 2.24322,-2.41234 2.24322,-1.18062 2.24321,-2.39474 2.24322,-1.52223 2.24321,-1.88523 4.48644,-2.63502 2.24321,-1.09236 2.24322,-1.97121 4.48643,-2.56418 2.24322,-0.78431 2.24321,-1.48779 2.24322,-1.19393 2.24321,-1.88723 2.24322,-0.13998 4.48643,-1.56065 2.24322,-1.16566 2.24322,0.74448 2.24321,-1.31904 2.24322,0.45464 2.24321,-0.80312 2.24322,0.68258 2.24322,-0.15856 2.24321,0.14284 2.24322,0.0102 6.72965,2.40376 2.24321,0.22806 2.24322,0.73658 2.24321,1.37613 2.24322,0.73936 2.24322,0.89535 2.24321,0.31455 2.24322,1.50978 2.24321,0.3675 2.24322,0.69468 2.24322,0.3156 2.24321,0.55022 2.24322,1.01286 2.24321,0.4893 2.24322,-0.28179 2.24322,0.2778 2.24321,0.15294 2.24322,-0.28012 2.24322,-0.16262 2.24321,-0.78215 2.24322,-0.52237 2.24321,0.59815 2.24322,-1.25123 2.24322,-1.59053 2.24321,-0.40826 2.24322,-0.0257 2.24321,-1.65954 2.24322,-0.83754 2.24322,-0.58296 2.24321,-1.25201 2.24322,-1.05102 4.48643,-2.79615 2.24322,-0.83974 2.24321,-2.02934 2.24322,-1.14057 2.24322,-1.66731 2.24321,-2.34593 2.24322,-0.70339 4.48643,-3.70386 2.24322,-0.67503 2.24321,-2.43336 2.24322,-1.656624 4.48643,-4.052872 v 0" /></g></g><g
       id="g289"><g
         clip-path="url(#clipPath295)"
         id="g291"><path
           id="path297"
           style="fill:none;stroke:#ff0000;stroke-width:4;stroke-linecap:square;stroke-linejoin:round;stroke-miterlimit:10;stroke-dasharray:none;stroke-opacity:0.3"
           d="m 84.16875,149.00987 2.243216,0.69372 2.243216,1.40701 2.243216,2.11517 2.243216,1.14235 2.243216,1.53434 2.243216,1.96947 2.243217,2.67055 2.243217,1.72686 2.24322,2.60833 4.48643,4.65551 2.24321,2.92945 2.24322,3.73491 4.48643,5.83322 2.24322,3.83662 2.24321,2.92862 2.24322,4.04171 2.24322,3.80237 2.24321,3.51342 2.24322,4.05439 2.24321,4.64355 2.24322,3.4169 2.24322,4.16085 2.24321,4.46607 2.24322,4.92944 4.48643,8.01502 2.24322,5.7049 2.24321,4.73312 2.24322,4.15952 2.24321,4.85901 2.24322,3.71988 2.24322,5.58642 2.24321,4.37036 2.24322,4.73737 2.24321,3.98378 4.48644,9.00075 2.24321,3.86081 2.24322,4.1566 2.24321,4.68007 2.24322,4.19153 2.24322,4.49474 2.24321,3.89579 2.24322,3.61488 2.24322,4.40746 6.72964,11.18612 2.24322,3.519 2.24322,2.94067 2.24321,3.796 2.24322,3.52405 2.24321,3.31282 2.24322,3.06431 2.24322,2.72599 2.24321,3.13908 2.24322,2.78858 2.24321,3.02858 2.24322,2.54258 2.24322,2.93304 2.24321,1.51101 2.24322,2.03348 2.24321,2.27811 2.24322,1.78829 4.48643,1.83383 2.24322,2.37604 2.24322,0.77663 2.24321,0.92711 2.24322,0.39341 2.24321,0.68657 2.24322,0.052 2.24322,-0.15034 2.24321,0.79652 2.24322,-0.77136 2.24321,-0.0253 2.24322,-0.29104 2.24322,-1.10563 2.24321,-0.82071 2.24322,-1.45348 2.24322,-1.29907 4.48643,-3.97593 2.24321,-1.70298 2.24322,-2.66793 2.24321,-2.00523 4.48644,-4.53599 2.24321,-2.55043 4.48643,-6.70657 2.24322,-3.37994 2.24322,-2.86512 2.24321,-3.43453 2.24322,-4.09868 8.97286,-14.48725 2.24322,-4.46878 2.24322,-3.82071 2.24321,-4.08855 2.24322,-4.50971 2.24321,-3.48189 2.24322,-4.69045 2.24322,-3.33596 4.48643,-9.20265 2.24321,-3.13642 2.24322,-4.69005 2.24322,-4.2727 4.48643,-7.78202 2.24321,-3.53234 2.24322,-4.78876 2.24322,-3.44976 2.24321,-2.77613 2.24322,-3.56392 2.24322,-4.28979 2.24321,-3.40002 2.24322,-2.88082 6.72965,-9.44753 6.72964,-8.54564 2.24322,-3.21477 4.48643,-4.01652 2.24322,-2.32542 2.24321,-1.01076 2.24322,-1.40985 2.24322,-2.12786 2.24321,-1.26176 4.48643,-1.08671 2.24322,-1.01342 2.24322,-0.19401 2.24321,0.39664 2.24322,0.12807 2.24322,0.38737 2.24321,0.96509 2.24322,0.19136 2.24321,0.75456 2.24322,1.98915 2.24322,0.2451 2.24321,1.93624 2.24322,1.25291 2.24321,0.96069 2.24322,2.32956 4.48643,3.6533 2.24322,1.35878 4.48643,4.07266 6.72965,5.78636 2.24321,2.45621 2.24322,1.97926 2.24322,2.64809 2.24321,1.73939 2.24322,1.48536 4.48643,5.70548 2.24322,1.92566 2.24321,2.16492 4.48644,4.01202 2.24321,2.56799 2.24322,1.66177 2.24321,1.99639 2.24322,2.22141 2.24322,1.5882 2.24321,2.43485 2.24322,1.04366 2.24321,2.25595 2.24322,0.55131 2.24322,2.32582 4.48643,2.0038 2.24321,1.52483 2.24322,0.75544 2.24322,1.07963 2.24321,1.21507 2.24322,-0.19849 2.24322,0.55752 2.24321,0.88261 2.24322,0.5102 2.24321,-0.0559 2.24322,0.78234 2.24322,-0.39459 2.24321,-0.62978 2.24322,0.49857 4.48643,-2.02644 v 0" /></g></g><g
       id="g299"><path
         id="path301"
         style="fill:none;stroke:#000000;stroke-width:0.80000001;stroke-linecap:square;stroke-linejoin:miter;stroke-miterlimit:10;stroke-dasharray:none;stroke-opacity:1"
         d="M 84.16875,70.465625 V 396.62563" /><path
         id="path303"
         style="fill:none;stroke:#000000;stroke-width:0.80000001;stroke-linecap:square;stroke-linejoin:miter;stroke-miterlimit:10;stroke-dasharray:none;stroke-opacity:1"
         d="M 530.56875,70.465625 V 396.62563" /><path
         id="path305"
         style="fill:none;stroke:#000000;stroke-width:0.80000001;stroke-linecap:square;stroke-linejoin:miter;stroke-miterlimit:10;stroke-dasharray:none;stroke-opacity:1"
         d="m 84.16875,70.465625 h 446.4" /><path
         id="path307"
         style="fill:none;stroke:#000000;stroke-width:0.80000001;stroke-linecap:square;stroke-linejoin:miter;stroke-miterlimit:10;stroke-dasharray:none;stroke-opacity:1"
         d="m 84.16875,396.62563 h 446.4" /></g></g></svg>