<?xml version="1.0" encoding="UTF-8" standalone="no"?>
<svg
   xmlns:dc="http://purl.org/dc/elements/1.1/"
   xmlns:cc="http://creativecommons.org/ns#"
   xmlns:rdf="http://www.w3.org/1999/02/22-rdf-syntax-ns#"
   xmlns:svg="http://www.w3.org/2000/svg"
   xmlns="http://www.w3.org/2000/svg"
   viewBox="0 0 698.35834 538.43414"
   height="538.43414"
   width="698.35834"
   xml:space="preserve"
   id="svg29"
   version="1.1"><metadata
     id="metadata35"><rdf:RDF><cc:Work
         rdf:about=""><dc:format>image/svg+xml</dc:format><dc:type
           rdf:resource="http://purl.org/dc/dcmitype/StillImage" /><dc:title></dc:title></cc:Work></rdf:RDF></metadata><defs
     id="defs33"><clipPath
       id="clipPath45"
       clipPathUnits="userSpaceOnUse"><path
         id="path43"
         d="m 63.16875,70.465625 h 446.4 V 396.62563 h -446.4 z" /></clipPath><clipPath
       id="clipPath63"
       clipPathUnits="userSpaceOnUse"><path
         id="path61"
         d="m 63.16875,70.465625 h 446.4 V 396.62563 h -446.4 z" /></clipPath><clipPath
       id="clipPath81"
       clipPathUnits="userSpaceOnUse"><path
         id="path79"
         d="m 63.16875,70.465625 h 446.4 V 396.62563 h -446.4 z" /></clipPath><clipPath
       id="clipPath99"
       clipPathUnits="userSpaceOnUse"><path
         id="path97"
         d="m 63.16875,70.465625 h 446.4 V 396.62563 h -446.4 z" /></clipPath><clipPath
       id="clipPath117"
       clipPathUnits="userSpaceOnUse"><path
         id="path115"
         d="m 63.16875,70.465625 h 446.4 V 396.62563 h -446.4 z" /></clipPath><clipPath
       id="clipPath141"
       clipPathUnits="userSpaceOnUse"><path
         id="path139"
         d="m 63.16875,70.465625 h 446.4 V 396.62563 h -446.4 z" /></clipPath><clipPath
       id="clipPath159"
       clipPathUnits="userSpaceOnUse"><path
         id="path157"
         d="m 63.16875,70.465625 h 446.4 V 396.62563 h -446.4 z" /></clipPath><clipPath
       id="clipPath177"
       clipPathUnits="userSpaceOnUse"><path
         id="path175"
         d="m 63.16875,70.465625 h 446.4 V 396.62563 h -446.4 z" /></clipPath><clipPath
       id="clipPath195"
       clipPathUnits="userSpaceOnUse"><path
         id="path193"
         d="m 63.16875,70.465625 h 446.4 V 396.62563 h -446.4 z" /></clipPath><clipPath
       id="clipPath213"
       clipPathUnits="userSpaceOnUse"><path
         id="path211"
         d="m 63.16875,70.465625 h 446.4 V 396.62563 h -446.4 z" /></clipPath><clipPath
       id="clipPath231"
       clipPathUnits="userSpaceOnUse"><path
         id="path229"
         d="m 63.16875,70.465625 h 446.4 V 396.62563 h -446.4 z" /></clipPath><clipPath
       id="clipPath255"
       clipPathUnits="userSpaceOnUse"><path
         id="path253"
         d="m 63.16875,70.465625 h 446.4 V 396.62563 h -446.4 z" /></clipPath><clipPath
       id="clipPath265"
       clipPathUnits="userSpaceOnUse"><path
         id="path263"
         d="m 63.16875,70.465625 h 446.4 V 396.62563 h -446.4 z" /></clipPath><clipPath
       id="clipPath275"
       clipPathUnits="userSpaceOnUse"><path
         id="path273"
         d="m 63.16875,70.465625 h 446.4 V 396.62563 h -446.4 z" /></clipPath><clipPath
       id="clipPath285"
       clipPathUnits="userSpaceOnUse"><path
         id="path283"
         d="m 63.16875,70.465625 h 446.4 V 396.62563 h -446.4 z" /></clipPath><clipPath
       id="clipPath295"
       clipPathUnits="userSpaceOnUse"><path
         id="path293"
         d="m 63.16875,70.465625 h 446.4 V 396.62563 h -446.4 z" /></clipPath></defs><g
     transform="matrix(1.3333333,0,0,-1.3333333,0,538.43417)"
     id="g37"><g
       id="g39"><g
         clip-path="url(#clipPath45)"
         id="g41"><path
           id="path47"
           style="fill:none;stroke:#b0b0b0;stroke-width:0.80000001;stroke-linecap:square;stroke-linejoin:round;stroke-miterlimit:10;stroke-dasharray:none;stroke-opacity:1"
           d="M 112.76875,70.465625 V 396.62563" /></g></g><g
       id="g49"><path
         id="path51"
         style="fill:#000000;fill-opacity:1;fill-rule:nonzero;stroke:#000000;stroke-width:0.80000001;stroke-linecap:butt;stroke-linejoin:round;stroke-miterlimit:10;stroke-dasharray:none;stroke-opacity:1"
         d="m 112.76875,70.465625 v -3.5" /><text
         id="text55"
         style="font-variant:normal;font-weight:normal;font-size:22px;font-family:'DejaVu Sans';-inkscape-font-specification:DejaVuSans;writing-mode:lr-tb;fill:#000000;fill-opacity:1;fill-rule:nonzero;stroke:none"
         transform="matrix(1,0,0,-1,96.55,46.746875)"><tspan
           id="tspan53"
           y="0"
           x="0 18.436001">−2</tspan></text>
</g><g
       id="g57"><g
         clip-path="url(#clipPath63)"
         id="g59"><path
           id="path65"
           style="fill:none;stroke:#b0b0b0;stroke-width:0.80000001;stroke-linecap:square;stroke-linejoin:round;stroke-miterlimit:10;stroke-dasharray:none;stroke-opacity:1"
           d="M 211.96875,70.465625 V 396.62563" /></g></g><g
       id="g67"><path
         id="path69"
         style="fill:#000000;fill-opacity:1;fill-rule:nonzero;stroke:#000000;stroke-width:0.80000001;stroke-linecap:butt;stroke-linejoin:round;stroke-miterlimit:10;stroke-dasharray:none;stroke-opacity:1"
         d="m 211.96875,70.465625 v -3.5" /><text
         id="text73"
         style="font-variant:normal;font-weight:normal;font-size:22px;font-family:'DejaVu Sans';-inkscape-font-specification:DejaVuSans;writing-mode:lr-tb;fill:#000000;fill-opacity:1;fill-rule:nonzero;stroke:none"
         transform="matrix(1,0,0,-1,204.96875,46.746875)"><tspan
           id="tspan71"
           y="0"
           x="0">0</tspan></text>
</g><g
       id="g75"><g
         clip-path="url(#clipPath81)"
         id="g77"><path
           id="path83"
           style="fill:none;stroke:#b0b0b0;stroke-width:0.80000001;stroke-linecap:square;stroke-linejoin:round;stroke-miterlimit:10;stroke-dasharray:none;stroke-opacity:1"
           d="M 311.16875,70.465625 V 396.62563" /></g></g><g
       id="g85"><path
         id="path87"
         style="fill:#000000;fill-opacity:1;fill-rule:nonzero;stroke:#000000;stroke-width:0.80000001;stroke-linecap:butt;stroke-linejoin:round;stroke-miterlimit:10;stroke-dasharray:none;stroke-opacity:1"
         d="m 311.16875,70.465625 v -3.5" /><text
         id="text91"
         style="font-variant:normal;font-weight:normal;font-size:22px;font-family:'DejaVu Sans';-inkscape-font-specification:DejaVuSans;writing-mode:lr-tb;fill:#000000;fill-opacity:1;fill-rule:nonzero;stroke:none"
         transform="matrix(1,0,0,-1,304.16875,46.746875)"><tspan
           id="tspan89"
           y="0"
           x="0">2</tspan></text>
</g><g
       id="g93"><g
         clip-path="url(#clipPath99)"
         id="g95"><path
           id="path101"
           style="fill:none;stroke:#b0b0b0;stroke-width:0.80000001;stroke-linecap:square;stroke-linejoin:round;stroke-miterlimit:10;stroke-dasharray:none;stroke-opacity:1"
           d="M 410.36875,70.465625 V 396.62563" /></g></g><g
       id="g103"><path
         id="path105"
         style="fill:#000000;fill-opacity:1;fill-rule:nonzero;stroke:#000000;stroke-width:0.80000001;stroke-linecap:butt;stroke-linejoin:round;stroke-miterlimit:10;stroke-dasharray:none;stroke-opacity:1"
         d="m 410.36875,70.465625 v -3.5" /><text
         id="text109"
         style="font-variant:normal;font-weight:normal;font-size:22px;font-family:'DejaVu Sans';-inkscape-font-specification:DejaVuSans;writing-mode:lr-tb;fill:#000000;fill-opacity:1;fill-rule:nonzero;stroke:none"
         transform="matrix(1,0,0,-1,403.36875,46.746875)"><tspan
           id="tspan107"
           y="0"
           x="0">4</tspan></text>
</g><g
       id="g111"><g
         clip-path="url(#clipPath117)"
         id="g113"><path
           id="path119"
           style="fill:none;stroke:#b0b0b0;stroke-width:0.80000001;stroke-linecap:square;stroke-linejoin:round;stroke-miterlimit:10;stroke-dasharray:none;stroke-opacity:1"
           d="M 509.56875,70.465625 V 396.62563" /></g></g><g
       id="g121"><path
         id="path123"
         style="fill:#000000;fill-opacity:1;fill-rule:nonzero;stroke:#000000;stroke-width:0.80000001;stroke-linecap:butt;stroke-linejoin:round;stroke-miterlimit:10;stroke-dasharray:none;stroke-opacity:1"
         d="m 509.56875,70.465625 v -3.5" /><text
         id="text127"
         style="font-variant:normal;font-weight:normal;font-size:22px;font-family:'DejaVu Sans';-inkscape-font-specification:DejaVuSans;writing-mode:lr-tb;fill:#000000;fill-opacity:1;fill-rule:nonzero;stroke:none"
         transform="matrix(1,0,0,-1,502.56875,46.746875)"><tspan
           id="tspan125"
           y="0"
           x="0">6</tspan></text>
<g
         transform="translate(276.86875,13.85625)"
         id="g129"><text
           id="text133"
           style="font-style:italic;font-variant:normal;font-size:32px;font-family:'DejaVu Sans';-inkscape-font-specification:DejaVuSans-Oblique;writing-mode:lr-tb;fill:#000000;fill-opacity:1;fill-rule:nonzero;stroke:none"
           transform="matrix(1,0,0,-1,0,0.5)"><tspan
             id="tspan131"
             y="0"
             x="0">x</tspan></text>
</g></g><g
       id="g135"><g
         clip-path="url(#clipPath141)"
         id="g137"><path
           id="path143"
           style="fill:none;stroke:#b0b0b0;stroke-width:0.80000001;stroke-linecap:square;stroke-linejoin:round;stroke-miterlimit:10;stroke-dasharray:none;stroke-opacity:1"
           d="m 63.16875,116.78079 h 446.4" /></g></g><g
       id="g145"><path
         id="path147"
         style="fill:#000000;fill-opacity:1;fill-rule:nonzero;stroke:#000000;stroke-width:0.80000001;stroke-linecap:butt;stroke-linejoin:round;stroke-miterlimit:10;stroke-dasharray:none;stroke-opacity:1"
         d="m 63.16875,116.78079 h -3.5" /><text
         id="text151"
         style="font-variant:normal;font-weight:normal;font-size:22px;font-family:'DejaVu Sans';-inkscape-font-specification:DejaVuSans;writing-mode:lr-tb;fill:#000000;fill-opacity:1;fill-rule:nonzero;stroke:none"
         transform="matrix(1,0,0,-1,42.16875,108.42142)"><tspan
           id="tspan149"
           y="0"
           x="0">1</tspan></text>
</g><g
       id="g153"><g
         clip-path="url(#clipPath159)"
         id="g155"><path
           id="path161"
           style="fill:none;stroke:#b0b0b0;stroke-width:0.80000001;stroke-linecap:square;stroke-linejoin:round;stroke-miterlimit:10;stroke-dasharray:none;stroke-opacity:1"
           d="m 63.16875,165.75951 h 446.4" /></g></g><g
       id="g163"><path
         id="path165"
         style="fill:#000000;fill-opacity:1;fill-rule:nonzero;stroke:#000000;stroke-width:0.80000001;stroke-linecap:butt;stroke-linejoin:round;stroke-miterlimit:10;stroke-dasharray:none;stroke-opacity:1"
         d="m 63.16875,165.75951 h -3.5" /><text
         id="text169"
         style="font-variant:normal;font-weight:normal;font-size:22px;font-family:'DejaVu Sans';-inkscape-font-specification:DejaVuSans;writing-mode:lr-tb;fill:#000000;fill-opacity:1;fill-rule:nonzero;stroke:none"
         transform="matrix(1,0,0,-1,42.16875,157.40014)"><tspan
           id="tspan167"
           y="0"
           x="0">2</tspan></text>
</g><g
       id="g171"><g
         clip-path="url(#clipPath177)"
         id="g173"><path
           id="path179"
           style="fill:none;stroke:#b0b0b0;stroke-width:0.80000001;stroke-linecap:square;stroke-linejoin:round;stroke-miterlimit:10;stroke-dasharray:none;stroke-opacity:1"
           d="m 63.16875,214.73823 h 446.4" /></g></g><g
       id="g181"><path
         id="path183"
         style="fill:#000000;fill-opacity:1;fill-rule:nonzero;stroke:#000000;stroke-width:0.80000001;stroke-linecap:butt;stroke-linejoin:round;stroke-miterlimit:10;stroke-dasharray:none;stroke-opacity:1"
         d="m 63.16875,214.73823 h -3.5" /><text
         id="text187"
         style="font-variant:normal;font-weight:normal;font-size:22px;font-family:'DejaVu Sans';-inkscape-font-specification:DejaVuSans;writing-mode:lr-tb;fill:#000000;fill-opacity:1;fill-rule:nonzero;stroke:none"
         transform="matrix(1,0,0,-1,42.16875,206.37886)"><tspan
           id="tspan185"
           y="0"
           x="0">3</tspan></text>
</g><g
       id="g189"><g
         clip-path="url(#clipPath195)"
         id="g191"><path
           id="path197"
           style="fill:none;stroke:#b0b0b0;stroke-width:0.80000001;stroke-linecap:square;stroke-linejoin:round;stroke-miterlimit:10;stroke-dasharray:none;stroke-opacity:1"
           d="m 63.16875,263.71695 h 446.4" /></g></g><g
       id="g199"><path
         id="path201"
         style="fill:#000000;fill-opacity:1;fill-rule:nonzero;stroke:#000000;stroke-width:0.80000001;stroke-linecap:butt;stroke-linejoin:round;stroke-miterlimit:10;stroke-dasharray:none;stroke-opacity:1"
         d="m 63.16875,263.71695 h -3.5" /><text
         id="text205"
         style="font-variant:normal;font-weight:normal;font-size:22px;font-family:'DejaVu Sans';-inkscape-font-specification:DejaVuSans;writing-mode:lr-tb;fill:#000000;fill-opacity:1;fill-rule:nonzero;stroke:none"
         transform="matrix(1,0,0,-1,42.16875,255.35758)"><tspan
           id="tspan203"
           y="0"
           x="0">4</tspan></text>
</g><g
       id="g207"><g
         clip-path="url(#clipPath213)"
         id="g209"><path
           id="path215"
           style="fill:none;stroke:#b0b0b0;stroke-width:0.80000001;stroke-linecap:square;stroke-linejoin:round;stroke-miterlimit:10;stroke-dasharray:none;stroke-opacity:1"
           d="m 63.16875,312.69567 h 446.4" /></g></g><g
       id="g217"><path
         id="path219"
         style="fill:#000000;fill-opacity:1;fill-rule:nonzero;stroke:#000000;stroke-width:0.80000001;stroke-linecap:butt;stroke-linejoin:round;stroke-miterlimit:10;stroke-dasharray:none;stroke-opacity:1"
         d="m 63.16875,312.69567 h -3.5" /><text
         id="text223"
         style="font-variant:normal;font-weight:normal;font-size:22px;font-family:'DejaVu Sans';-inkscape-font-specification:DejaVuSans;writing-mode:lr-tb;fill:#000000;fill-opacity:1;fill-rule:nonzero;stroke:none"
         transform="matrix(1,0,0,-1,42.16875,304.3363)"><tspan
           id="tspan221"
           y="0"
           x="0">5</tspan></text>
</g><g
       id="g225"><g
         clip-path="url(#clipPath231)"
         id="g227"><path
           id="path233"
           style="fill:none;stroke:#b0b0b0;stroke-width:0.80000001;stroke-linecap:square;stroke-linejoin:round;stroke-miterlimit:10;stroke-dasharray:none;stroke-opacity:1"
           d="m 63.16875,361.6744 h 446.4" /></g></g><g
       id="g235"><path
         id="path237"
         style="fill:#000000;fill-opacity:1;fill-rule:nonzero;stroke:#000000;stroke-width:0.80000001;stroke-linecap:butt;stroke-linejoin:round;stroke-miterlimit:10;stroke-dasharray:none;stroke-opacity:1"
         d="m 63.16875,361.6744 h -3.5" /><text
         id="text241"
         style="font-variant:normal;font-weight:normal;font-size:22px;font-family:'DejaVu Sans';-inkscape-font-specification:DejaVuSans;writing-mode:lr-tb;fill:#000000;fill-opacity:1;fill-rule:nonzero;stroke:none"
         transform="matrix(1,0,0,-1,42.16875,353.31502)"><tspan
           id="tspan239"
           y="0"
           x="0">6</tspan></text>
<g
         transform="rotate(90,-96.438437,127.60719)"
         id="g243"><text
           id="text247"
           style="font-style:italic;font-variant:normal;font-size:32px;font-family:'DejaVu Sans';-inkscape-font-specification:DejaVuSans-Oblique;writing-mode:lr-tb;fill:#000000;fill-opacity:1;fill-rule:nonzero;stroke:none"
           transform="matrix(1,0,0,-1,0,0.5)"><tspan
             id="tspan245"
             y="0"
             x="0">y</tspan></text>
</g></g><g
       id="g249"><g
         clip-path="url(#clipPath255)"
         id="g251"><path
           id="path257"
           style="fill:none;stroke:#ff0000;stroke-width:4;stroke-linecap:square;stroke-linejoin:round;stroke-miterlimit:10;stroke-dasharray:none;stroke-opacity:0.3"
           d="m 63.16875,117.81503 2.243216,0.90989 2.243216,1.04305 2.243216,1.21021 2.243216,0.89712 2.243216,1.21724 4.486433,1.89853 2.243216,1.30068 4.486432,2.07669 8.972864,5.82003 2.243216,1.21559 2.243216,1.45092 2.243213,1.70079 2.24322,0.89691 2.24322,1.68233 4.48643,3.09259 6.72965,5.98265 2.24321,2.28574 2.24322,1.63971 6.72965,6.08836 6.72964,7.00555 2.24322,2.10852 2.24322,2.57685 2.24321,2.40693 2.24322,2.1768 2.24321,2.40732 2.24322,2.14374 2.24322,1.77831 2.24321,2.29371 6.72965,5.41641 2.24322,1.31416 2.24321,1.73137 4.48644,2.68589 2.24321,1.59318 6.72965,2.70465 2.24322,1.53321 2.24321,0.68947 4.48643,1.75394 6.72965,2.1475 6.72965,1.31628 2.24322,0.0453 2.24321,-0.31427 4.48643,-0.87346 2.24322,-0.92836 2.24322,-0.77354 2.24321,-1.13739 6.72965,-3.77065 2.24322,-2.70298 2.24321,-1.69044 2.24322,-2.16836 2.24322,-2.68591 2.24321,-2.27646 2.24322,-2.7256 4.48643,-5.91802 2.24322,-3.2911 2.24321,-3.78208 2.24322,-3.25845 2.24321,-3.45442 2.24322,-3.99732 6.72965,-10.68095 4.48643,-6.08451 2.24322,-3.41046 8.97286,-11.13985 2.24322,-2.96997 2.24321,-2.70382 4.48644,-4.77428 2.24321,-2.71465 2.24322,-2.45249 6.72965,-5.72114 2.24321,-2.41922 2.24322,-2.1575 2.24321,-1.85009 2.24322,-2.33043 2.24322,-1.857478 2.24321,-2.197685 4.48643,-3.593394 6.72965,-4.368741 2.24322,-0.755875 4.48643,-1.82914 2.24322,-0.617389 2.24321,-0.303708 2.24322,-0.08052 2.24322,0.240341 2.24321,0.379553 2.24322,0.769145 2.24321,0.465565 2.24322,1.047923 2.24322,1.304952 2.24321,0.698699 2.24322,1.156856 2.24321,0.985046 2.24322,1.29895 2.24322,0.436539 2.24321,1.86288 6.72965,2.883447 4.48643,2.139394 2.24322,0.16571 2.24321,0.72909 2.24322,0.0603 2.24322,0.57682 2.24321,-0.14151 2.24322,0.15703 2.24322,0.48349 2.24321,0.13266 2.24322,-0.0338 2.24321,0.73468 2.24322,0.33258 6.72965,1.84477 4.48643,1.9243 2.24322,0.54498 2.24321,1.37831 2.24322,0.4012 2.24321,1.00587 2.24322,0.6505 2.24322,0.97076 2.24321,0.57303 2.24322,1.11617 2.24321,0.50928 2.24322,1.23133 2.24322,0.81414 2.24321,1.45663 4.48643,2.26091 2.24322,1.58646 2.24322,1.17947 4.48643,3.09391 2.24322,1.54083 2.24321,1.39728 4.48643,3.13652 2.24322,1.84394 2.24322,1.03617 2.24321,2.05698 2.24322,1.56357 2.24321,1.81035 2.24322,1.32291 4.48643,3.92645 2.24322,2.37915 6.72965,6.00583 2.24321,1.52337 2.24322,1.8451 4.48643,2.58198 4.48643,3.4493 2.24322,1.74231 4.48643,3.90252 2.24322,2.24826 4.48643,5.23844 v 0" /></g></g><g
       id="g259"><g
         clip-path="url(#clipPath265)"
         id="g261"><path
           id="path267"
           style="fill:none;stroke:#ff0000;stroke-width:4;stroke-linecap:square;stroke-linejoin:round;stroke-miterlimit:10;stroke-dasharray:none;stroke-opacity:0.3"
           d="m 63.16875,118.07777 2.243216,-0.30512 2.243216,0.004 4.486432,1.02612 2.243216,0.17724 2.243216,1.06404 4.486433,1.40934 2.243216,0.9014 2.243216,0.74796 2.243216,1.00982 2.243216,1.35174 2.243216,1.65113 2.243216,1.49366 2.243216,1.22974 2.243216,1.62479 4.486433,3.89596 2.24322,1.95891 2.24321,2.12377 2.24322,2.48818 4.48643,4.01823 2.24322,3.13994 6.72964,7.3168 2.24322,2.74962 2.24322,2.23026 2.24321,2.56628 2.24322,2.95323 2.24321,2.5172 2.24322,2.27091 4.48643,4.20188 2.24322,2.2982 4.48643,3.78343 2.24322,1.93704 2.24321,1.78923 2.24322,1.21416 2.24321,1.98759 2.24322,1.29188 2.24322,1.89614 2.24321,0.87643 4.48644,2.54533 2.24321,0.96941 2.24322,0.22131 2.24321,0.6699 2.24322,0.47408 2.24322,-3.1e-4 2.24321,0.14641 2.24322,-0.31877 4.48643,-1.18946 2.24322,-1.03579 2.24321,-0.6732 4.48643,-1.97458 6.72965,-3.79564 2.24322,-2.06144 2.24321,-1.72073 2.24322,-2.05778 2.24322,-1.82499 2.24321,-1.9802 8.97287,-8.89527 2.24321,-1.80042 4.48644,-4.72141 6.72964,-6.80726 2.24322,-2.5878 2.24322,-2.06351 2.24321,-2.37947 2.24322,-2.93566 2.24321,-2.23475 2.24322,-2.71198 2.24322,-2.49566 4.48643,-5.46733 6.72965,-7.84478 2.24321,-2.90404 4.48643,-4.63645 2.24322,-2.6646 2.24322,-2.11911 6.72965,-5.66697 2.24321,-1.51562 2.24322,-1.17977 2.24321,-1.34581 2.24322,-0.71125 2.24322,-0.8457 2.24321,-0.33548 2.24322,-0.65319 2.24321,0.1884 2.24322,0.0599 2.24322,0.34032 4.48643,1.18734 2.24321,1.34099 2.24322,0.49027 2.24322,1.56001 2.24321,1.01494 4.48643,3.14104 4.48644,3.56097 2.24321,2.15968 2.24322,1.92475 2.24322,2.41542 2.24321,2.23233 6.72965,7.44957 2.24322,2.57969 6.72964,8.28326 2.24322,2.41487 2.24322,3.12738 2.24321,2.43842 2.24322,2.8496 2.24321,1.79065 2.24322,2.09898 2.24322,2.40618 2.24321,1.44775 2.24322,2.17366 2.24321,1.59102 2.24322,1.74704 2.24322,1.20524 2.24321,1.6304 2.24322,1.22909 2.24322,1.36031 2.24321,0.85166 2.24322,1.36237 2.24321,1.11356 2.24322,1.59404 2.24322,1.00124 2.24321,0.84143 2.24322,1.69026 2.24321,1.44867 2.24322,0.90724 2.24322,1.29327 2.24321,1.55808 2.24322,0.51224 2.24321,1.20919 4.48644,1.80765 4.48643,1.20617 4.48643,1.21805 2.24322,0.39145 2.24321,0.24712 2.24322,0.71254 2.24321,0.0703 2.24322,0.92476 2.24322,0.42141 2.24321,1.13908 2.24322,0.63462 2.24322,1.06797 2.24321,0.48477 2.24322,1.21289 2.24321,1.01366 2.24322,0.49944 2.24322,0.17915 2.24321,0.80751 2.24322,0.12719 2.24321,0.28134 2.24322,0.14877 6.72965,-0.47247 2.24321,-0.8136 2.24322,-0.35453 2.24322,-0.21402 2.24321,-0.39203 2.24322,-0.26241 2.24322,-0.14976 2.24321,0.47069 2.24322,-0.27062 2.24321,0.5671 2.24322,-0.19335 2.24322,0.16218 6.72964,-0.26957 2.24322,-0.78951 v 0" /></g></g><g
       id="g269"><g
         clip-path="url(#clipPath275)"
         id="g271"><path
           id="path277"
           style="fill:none;stroke:#ff0000;stroke-width:4;stroke-linecap:square;stroke-linejoin:round;stroke-miterlimit:10;stroke-dasharray:none;stroke-opacity:0.3"
           d="m 63.16875,117.19996 2.243216,-0.19634 2.243216,0.7701 2.243216,0.54161 2.243216,0.92154 2.243216,0.70154 2.243216,1.25246 2.243217,0.95538 2.243216,1.18904 2.243216,1.37266 4.486432,2.49176 2.243216,1.63643 2.243216,1.00581 2.243216,1.75006 2.243216,0.98886 2.243216,1.70585 2.243213,1.10163 2.24322,1.38266 2.24322,1.56705 2.24321,1.88944 4.48643,4.20848 2.24322,2.59736 2.24322,2.05639 2.24321,2.5745 2.24322,2.87793 6.72965,6.88768 2.24321,2.60736 4.48643,4.37107 2.24322,2.19561 2.24322,1.79318 4.48643,4.0799 2.24321,2.39929 2.24322,1.56924 2.24322,2.43802 2.24321,1.69466 2.24322,2.19205 2.24321,1.81276 2.24322,2.0029 4.48643,4.54755 2.24322,2.54344 2.24322,2.95845 2.24321,2.39539 11.21608,15.60959 4.48643,5.3748 2.24322,2.78462 4.48643,4.07554 2.24322,1.48021 2.24321,1.95171 6.72965,3.53463 4.48643,1.21072 2.24322,1.19907 2.24322,0.23912 2.24321,0.56716 2.24322,0.392 2.24322,0.13966 2.24321,0.006 2.24322,-0.57226 2.24321,-0.13651 2.24322,-0.55154 2.24322,-0.16461 4.48643,-1.44002 4.48643,-1.75919 2.24322,-1.40776 2.24321,-0.7143 4.48643,-2.61282 4.48644,-2.98218 2.24321,-1.92154 2.24322,-1.46091 2.24321,-1.97246 2.24322,-1.68863 2.24322,-1.12032 2.24321,-2.10141 2.24322,-1.91435 4.48643,-3.40329 2.24322,-1.70934 2.24321,-1.55694 2.24322,-1.41955 2.24322,-1.86716 6.72964,-4.69174 6.72965,-3.98525 2.24322,-1.08757 2.24321,-1.71407 2.24322,-0.7666 2.24322,-1.33925 2.24321,-0.69536 2.24322,-1.51061 4.48643,-2.15857 2.24322,-0.67973 2.24321,-0.8284 2.24322,-0.42909 2.24321,-0.72103 2.24322,-0.25114 2.24322,-0.50442 8.97286,-1.28719 2.24322,-0.71239 4.48643,-1.03367 4.48643,-0.32547 2.24322,0.17429 4.48643,-0.067 4.48643,0.77618 2.24322,0.0584 2.24321,0.44169 4.48644,2.03001 2.24321,1.52442 4.48643,2.47031 2.24322,1.88135 2.24322,1.36758 2.24321,1.89796 2.24322,2.11312 4.48643,3.69465 4.48643,4.21423 2.24322,1.29601 4.48643,3.88412 2.24322,1.58347 2.24321,1.90863 4.48644,2.86028 4.48643,3.59367 2.24321,1.59758 2.24322,2.04295 2.24322,1.75917 4.48643,4.09105 2.24321,2.50329 6.72965,8.67052 6.72965,9.73281 2.24322,2.88551 2.24321,3.09891 2.24322,2.87659 2.24322,2.4371 2.24321,2.96445 2.24322,2.30424 2.24321,1.61264 2.24322,2.05152 2.24322,1.40373 2.24321,1.18405 2.24322,1.46347 2.24321,0.43937 2.24322,1.11661 2.24322,0.4697 2.24321,0.2625 2.24322,-0.10866 2.24321,0.0544 6.72965,-1.8092 2.24322,-0.94919 2.24322,-0.79232 2.24321,-1.42376 2.24322,-0.77609 2.24321,-1.02606 2.24322,-0.84335 4.48643,-2.24199 2.24322,-1.45834 2.24321,-1.284 2.24322,-1.74882 v 0" /></g></g><g
       id="g279"><g
         clip-path="url(#clipPath285)"
         id="g281"><path
           id="path287"
           style="fill:none;stroke:#ff0000;stroke-width:4;stroke-linecap:square;stroke-linejoin:round;stroke-miterlimit:10;stroke-dasharray:none;stroke-opacity:0.3"
           d="m 63.16875,117.02397 2.243216,0.85028 4.486432,1.13344 4.486432,1.67036 6.729649,3.01665 2.243216,0.6788 2.243216,1.43311 4.486432,1.83786 2.243216,1.78478 2.243216,1.20367 4.486432,3.34676 2.243213,2.02469 4.48644,3.49219 2.24321,2.23659 2.24322,1.4902 2.24321,2.01153 6.72965,5.30833 2.24322,1.17311 2.24321,2.12465 4.48644,2.48633 4.48643,3.549 2.24321,1.47894 4.48644,3.96143 6.72964,6.84176 2.24322,1.95033 2.24322,3.2347 2.24321,2.50953 8.97287,11.42252 4.48643,6.03223 2.24322,3.44935 2.24321,2.59265 2.24322,2.89016 4.48643,5.11398 2.24322,2.96717 6.72964,7.94012 4.48644,4.60543 4.48643,4.09633 2.24321,1.81826 2.24322,1.27314 2.24322,1.6059 4.48643,2.70807 2.24321,0.96698 2.24322,1.18534 6.72965,1.67834 2.24322,0.67723 4.48643,0.15262 2.24321,0.68179 2.24322,0.14092 2.24322,-0.35075 2.24321,-0.50803 4.48643,-1.31323 4.48644,-2.33301 2.24321,-1.08517 8.97287,-5.42095 2.24321,-1.31198 4.48643,-2.11135 2.24322,-1.1958 2.24322,-1.36437 2.24321,-0.71106 2.24322,-1.21619 2.24321,-1.45475 2.24322,-0.80081 2.24322,-1.17636 2.24321,-0.68612 2.24322,-1.10655 13.4593,-9.1972 2.24321,-2.28046 2.24322,-1.16668 4.48643,-3.53609 2.24322,-1.92614 2.24321,-2.18014 2.24322,-1.99272 6.72965,-6.92124 2.24321,-2.59017 2.24322,-2.1477 6.72965,-7.06744 4.48643,-4.39984 4.48643,-4.61777 2.24322,-1.53594 2.24321,-1.88859 2.24322,-2.04464 2.24322,-2.22885 2.24321,-1.67205 2.24322,-2.05241 4.48643,-3.35674 2.24322,-1.8615 4.48643,-3.43089 2.24321,-2.05779 2.24322,-1.83108 2.24322,-1.34234 2.24321,-2.01065 4.48643,-3.48213 6.72965,-3.58217 2.24322,-0.66077 2.24322,-0.51544 2.24321,-1.00975 2.24322,-0.10371 2.24321,-0.22989 6.72965,-1.05091 2.24322,-0.18018 2.24321,-0.81123 2.24322,-0.39199 2.24322,-0.65525 4.48643,-0.38836 2.24321,-0.14468 2.24322,-0.41269 2.24322,0.25058 6.72964,-0.60815 2.24322,0.43751 4.48643,0.51668 2.24322,0.0971 4.48643,0.72675 2.24322,0.0641 4.48643,-0.32673 6.72965,-0.98347 6.72965,-1.03855 2.24321,0.2219 2.24322,-0.37442 4.48643,0.27543 2.24322,0.61574 2.24321,0.0578 6.72965,2.19078 4.48643,2.04837 2.24322,0.57168 2.24322,1.05973 2.24321,0.83385 4.48643,2.135 4.48644,1.89052 6.72964,3.61086 2.24322,0.93619 v 0" /></g></g><g
       id="g289"><g
         clip-path="url(#clipPath295)"
         id="g291"><path
           id="path297"
           style="fill:none;stroke:#ff0000;stroke-width:4;stroke-linecap:square;stroke-linejoin:round;stroke-miterlimit:10;stroke-dasharray:none;stroke-opacity:0.3"
           d="m 63.16875,118.56583 2.243216,1.06188 2.243216,0.57844 2.243216,0.81013 2.243216,0.16558 2.243216,0.88773 2.243216,0.541 4.486433,1.53665 2.243216,0.43038 4.486432,1.71995 2.243216,1.17466 2.243216,1.02355 2.243216,1.27533 2.243216,1.91057 2.243216,0.92208 4.486433,3.43177 2.24322,2.01741 2.24321,1.70779 4.48643,4.78528 2.24322,2.25108 2.24322,2.98875 4.48643,4.73636 2.24321,3.01251 2.24322,2.3676 2.24322,2.12144 2.24321,2.84919 2.24322,2.17726 2.24321,2.36989 2.24322,2.10176 4.48643,4.80099 2.24322,1.90367 2.24321,2.27302 8.97287,7.06757 2.24321,1.56922 2.24322,1.2296 2.24322,1.72364 2.24321,1.16606 2.24322,1.84481 2.24322,1.10897 6.72964,5.05381 4.48644,2.99348 2.24321,1.97774 4.48643,2.94068 2.24322,1.89247 6.72965,4.45215 4.48643,3.21137 2.24322,1.84091 2.24321,2.00643 2.24322,1.44961 2.24321,1.80205 4.48644,3.143 2.24321,1.28737 2.24322,1.81104 2.24322,1.54517 2.24321,1.19582 2.24322,0.96731 2.24321,0.66877 4.48644,1.63771 2.24321,0.10841 2.24322,0.4783 2.24321,0.0385 2.24322,0.61047 2.24322,0.1263 2.24321,-0.22548 2.24322,0.21193 4.48643,-0.55658 2.24322,0.077 2.24321,0.23661 2.24322,-0.0541 2.24321,0.30523 2.24322,0.13613 8.97286,1.69971 4.48644,1.27295 2.24321,0.31582 4.48644,1.05665 2.24321,0.35451 2.24322,-0.0542 2.24321,0.1993 2.24322,-0.0481 2.24322,0.2796 2.24321,0.11221 4.48643,-0.23214 2.24322,-0.35454 2.24322,-0.0695 2.24321,-0.23667 2.24322,0.0395 4.48643,-0.41914 2.24322,-0.54979 2.24321,0.0872 2.24322,-0.68753 2.24321,-0.13967 2.24322,0.0179 2.24322,-0.26665 2.24321,0.38298 2.24322,-0.26752 2.24322,0.1018 2.24321,-0.2329 2.24322,0.006 2.24321,-0.23549 2.24322,0.48122 2.24322,0.0608 2.24321,0.86016 2.24322,0.39556 2.24321,0.62243 2.24322,0.3146 2.24322,0.73326 2.24321,1.43813 4.48643,1.88574 2.24322,1.70495 2.24322,1.45395 4.48643,3.55527 4.48643,4.20786 2.24322,1.98826 4.48643,4.99463 2.24322,2.13695 2.24321,2.61067 2.24322,2.3523 6.72965,7.72873 2.24321,2.39771 2.24322,3.19006 2.24321,2.4084 4.48644,5.79131 2.24321,2.4667 6.72965,8.58016 6.72965,7.52201 6.72965,5.86406 2.24321,1.82907 2.24322,1.23613 2.24321,2.06404 4.48644,2.67487 4.48643,2.9806 2.24322,1.32066 4.48643,3.76692 2.24321,1.66867 4.48644,3.99917 2.24321,1.8565 2.24322,2.41718 2.24321,1.59179 2.24322,2.21744 2.24322,1.82534 2.24321,2.71609 2.24322,2.51416 2.24321,2.01342 2.24322,2.89476 4.48643,5.37292 4.48644,4.84964 2.24321,2.28951 2.24322,1.82116 2.24321,1.57294 2.24322,1.23589 2.24322,1.60187 2.24321,0.56183 2.24322,1.05899 2.24321,0.33518 2.24322,0.056 v 0" /></g></g><g
       id="g299"><path
         id="path301"
         style="fill:none;stroke:#000000;stroke-width:0.80000001;stroke-linecap:square;stroke-linejoin:miter;stroke-miterlimit:10;stroke-dasharray:none;stroke-opacity:1"
         d="M 63.16875,70.465625 V 396.62563" /><path
         id="path303"
         style="fill:none;stroke:#000000;stroke-width:0.80000001;stroke-linecap:square;stroke-linejoin:miter;stroke-miterlimit:10;stroke-dasharray:none;stroke-opacity:1"
         d="M 509.56875,70.465625 V 396.62563" /><path
         id="path305"
         style="fill:none;stroke:#000000;stroke-width:0.80000001;stroke-linecap:square;stroke-linejoin:miter;stroke-miterlimit:10;stroke-dasharray:none;stroke-opacity:1"
         d="m 63.16875,70.465625 h 446.4" /><path
         id="path307"
         style="fill:none;stroke:#000000;stroke-width:0.80000001;stroke-linecap:square;stroke-linejoin:miter;stroke-miterlimit:10;stroke-dasharray:none;stroke-opacity:1"
         d="m 63.16875,396.62563 h 446.4" /></g></g></svg>