<?xml version="1.0" encoding="UTF-8" standalone="no"?>
<svg
   xmlns:dc="http://purl.org/dc/elements/1.1/"
   xmlns:cc="http://creativecommons.org/ns#"
   xmlns:rdf="http://www.w3.org/1999/02/22-rdf-syntax-ns#"
   xmlns:svg="http://www.w3.org/2000/svg"
   xmlns="http://www.w3.org/2000/svg"
   viewBox="0 0 717.02502 538.43414"
   height="538.43414"
   width="717.02502"
   xml:space="preserve"
   id="svg29"
   version="1.1"><metadata
     id="metadata35"><rdf:RDF><cc:Work
         rdf:about=""><dc:format>image/svg+xml</dc:format><dc:type
           rdf:resource="http://purl.org/dc/dcmitype/StillImage" /><dc:title></dc:title></cc:Work></rdf:RDF></metadata><defs
     id="defs33"><clipPath
       id="clipPath45"
       clipPathUnits="userSpaceOnUse"><path
         id="path43"
         d="m 77.16875,70.465625 h 446.4 V 396.62563 h -446.4 z" /></clipPath><clipPath
       id="clipPath63"
       clipPathUnits="userSpaceOnUse"><path
         id="path61"
         d="m 77.16875,70.465625 h 446.4 V 396.62563 h -446.4 z" /></clipPath><clipPath
       id="clipPath81"
       clipPathUnits="userSpaceOnUse"><path
         id="path79"
         d="m 77.16875,70.465625 h 446.4 V 396.62563 h -446.4 z" /></clipPath><clipPath
       id="clipPath99"
       clipPathUnits="userSpaceOnUse"><path
         id="path97"
         d="m 77.16875,70.465625 h 446.4 V 396.62563 h -446.4 z" /></clipPath><clipPath
       id="clipPath117"
       clipPathUnits="userSpaceOnUse"><path
         id="path115"
         d="m 77.16875,70.465625 h 446.4 V 396.62563 h -446.4 z" /></clipPath><clipPath
       id="clipPath135"
       clipPathUnits="userSpaceOnUse"><path
         id="path133"
         d="m 77.16875,70.465625 h 446.4 V 396.62563 h -446.4 z" /></clipPath><clipPath
       id="clipPath153"
       clipPathUnits="userSpaceOnUse"><path
         id="path151"
         d="m 77.16875,70.465625 h 446.4 V 396.62563 h -446.4 z" /></clipPath><clipPath
       id="clipPath177"
       clipPathUnits="userSpaceOnUse"><path
         id="path175"
         d="m 77.16875,70.465625 h 446.4 V 396.62563 h -446.4 z" /></clipPath><clipPath
       id="clipPath195"
       clipPathUnits="userSpaceOnUse"><path
         id="path193"
         d="m 77.16875,70.465625 h 446.4 V 396.62563 h -446.4 z" /></clipPath><clipPath
       id="clipPath213"
       clipPathUnits="userSpaceOnUse"><path
         id="path211"
         d="m 77.16875,70.465625 h 446.4 V 396.62563 h -446.4 z" /></clipPath><clipPath
       id="clipPath231"
       clipPathUnits="userSpaceOnUse"><path
         id="path229"
         d="m 77.16875,70.465625 h 446.4 V 396.62563 h -446.4 z" /></clipPath><clipPath
       id="clipPath255"
       clipPathUnits="userSpaceOnUse"><path
         id="path253"
         d="m 77.16875,70.465625 h 446.4 V 396.62563 h -446.4 z" /></clipPath><clipPath
       id="clipPath265"
       clipPathUnits="userSpaceOnUse"><path
         id="path263"
         d="m 77.16875,70.465625 h 446.4 V 396.62563 h -446.4 z" /></clipPath><clipPath
       id="clipPath275"
       clipPathUnits="userSpaceOnUse"><path
         id="path273"
         d="m 77.16875,70.465625 h 446.4 V 396.62563 h -446.4 z" /></clipPath><clipPath
       id="clipPath285"
       clipPathUnits="userSpaceOnUse"><path
         id="path283"
         d="m 77.16875,70.465625 h 446.4 V 396.62563 h -446.4 z" /></clipPath><clipPath
       id="clipPath295"
       clipPathUnits="userSpaceOnUse"><path
         id="path293"
         d="m 77.16875,70.465625 h 446.4 V 396.62563 h -446.4 z" /></clipPath></defs><g
     transform="matrix(1.3333333,0,0,-1.3333333,0,538.43417)"
     id="g37"><g
       id="g39"><g
         clip-path="url(#clipPath45)"
         id="g41"><path
           id="path47"
           style="fill:none;stroke:#b0b0b0;stroke-width:0.80000001;stroke-linecap:square;stroke-linejoin:round;stroke-miterlimit:10;stroke-dasharray:none;stroke-opacity:1"
           d="M 77.16875,70.465625 V 396.62563" /></g></g><g
       id="g49"><path
         id="path51"
         style="fill:#000000;fill-opacity:1;fill-rule:nonzero;stroke:#000000;stroke-width:0.80000001;stroke-linecap:butt;stroke-linejoin:round;stroke-miterlimit:10;stroke-dasharray:none;stroke-opacity:1"
         d="m 77.16875,70.465625 v -3.5" /><text
         id="text55"
         style="font-variant:normal;font-weight:normal;font-size:22px;font-family:'DejaVu Sans';-inkscape-font-specification:DejaVuSans;writing-mode:lr-tb;fill:#000000;fill-opacity:1;fill-rule:nonzero;stroke:none"
         transform="matrix(1,0,0,-1,60.95,46.746875)"><tspan
           id="tspan53"
           y="0"
           x="0 18.436001">−3</tspan></text>
</g><g
       id="g57"><g
         clip-path="url(#clipPath63)"
         id="g59"><path
           id="path65"
           style="fill:none;stroke:#b0b0b0;stroke-width:0.80000001;stroke-linecap:square;stroke-linejoin:round;stroke-miterlimit:10;stroke-dasharray:none;stroke-opacity:1"
           d="M 151.56875,70.465625 V 396.62563" /></g></g><g
       id="g67"><path
         id="path69"
         style="fill:#000000;fill-opacity:1;fill-rule:nonzero;stroke:#000000;stroke-width:0.80000001;stroke-linecap:butt;stroke-linejoin:round;stroke-miterlimit:10;stroke-dasharray:none;stroke-opacity:1"
         d="m 151.56875,70.465625 v -3.5" /><text
         id="text73"
         style="font-variant:normal;font-weight:normal;font-size:22px;font-family:'DejaVu Sans';-inkscape-font-specification:DejaVuSans;writing-mode:lr-tb;fill:#000000;fill-opacity:1;fill-rule:nonzero;stroke:none"
         transform="matrix(1,0,0,-1,135.35,46.746875)"><tspan
           id="tspan71"
           y="0"
           x="0 18.436001">−2</tspan></text>
</g><g
       id="g75"><g
         clip-path="url(#clipPath81)"
         id="g77"><path
           id="path83"
           style="fill:none;stroke:#b0b0b0;stroke-width:0.80000001;stroke-linecap:square;stroke-linejoin:round;stroke-miterlimit:10;stroke-dasharray:none;stroke-opacity:1"
           d="M 225.96875,70.465625 V 396.62563" /></g></g><g
       id="g85"><path
         id="path87"
         style="fill:#000000;fill-opacity:1;fill-rule:nonzero;stroke:#000000;stroke-width:0.80000001;stroke-linecap:butt;stroke-linejoin:round;stroke-miterlimit:10;stroke-dasharray:none;stroke-opacity:1"
         d="m 225.96875,70.465625 v -3.5" /><text
         id="text91"
         style="font-variant:normal;font-weight:normal;font-size:22px;font-family:'DejaVu Sans';-inkscape-font-specification:DejaVuSans;writing-mode:lr-tb;fill:#000000;fill-opacity:1;fill-rule:nonzero;stroke:none"
         transform="matrix(1,0,0,-1,209.75,46.746875)"><tspan
           id="tspan89"
           y="0"
           x="0 18.436001">−1</tspan></text>
</g><g
       id="g93"><g
         clip-path="url(#clipPath99)"
         id="g95"><path
           id="path101"
           style="fill:none;stroke:#b0b0b0;stroke-width:0.80000001;stroke-linecap:square;stroke-linejoin:round;stroke-miterlimit:10;stroke-dasharray:none;stroke-opacity:1"
           d="M 300.36875,70.465625 V 396.62563" /></g></g><g
       id="g103"><path
         id="path105"
         style="fill:#000000;fill-opacity:1;fill-rule:nonzero;stroke:#000000;stroke-width:0.80000001;stroke-linecap:butt;stroke-linejoin:round;stroke-miterlimit:10;stroke-dasharray:none;stroke-opacity:1"
         d="m 300.36875,70.465625 v -3.5" /><text
         id="text109"
         style="font-variant:normal;font-weight:normal;font-size:22px;font-family:'DejaVu Sans';-inkscape-font-specification:DejaVuSans;writing-mode:lr-tb;fill:#000000;fill-opacity:1;fill-rule:nonzero;stroke:none"
         transform="matrix(1,0,0,-1,293.36875,46.746875)"><tspan
           id="tspan107"
           y="0"
           x="0">0</tspan></text>
</g><g
       id="g111"><g
         clip-path="url(#clipPath117)"
         id="g113"><path
           id="path119"
           style="fill:none;stroke:#b0b0b0;stroke-width:0.80000001;stroke-linecap:square;stroke-linejoin:round;stroke-miterlimit:10;stroke-dasharray:none;stroke-opacity:1"
           d="M 374.76875,70.465625 V 396.62563" /></g></g><g
       id="g121"><path
         id="path123"
         style="fill:#000000;fill-opacity:1;fill-rule:nonzero;stroke:#000000;stroke-width:0.80000001;stroke-linecap:butt;stroke-linejoin:round;stroke-miterlimit:10;stroke-dasharray:none;stroke-opacity:1"
         d="m 374.76875,70.465625 v -3.5" /><text
         id="text127"
         style="font-variant:normal;font-weight:normal;font-size:22px;font-family:'DejaVu Sans';-inkscape-font-specification:DejaVuSans;writing-mode:lr-tb;fill:#000000;fill-opacity:1;fill-rule:nonzero;stroke:none"
         transform="matrix(1,0,0,-1,367.76875,46.746875)"><tspan
           id="tspan125"
           y="0"
           x="0">1</tspan></text>
</g><g
       id="g129"><g
         clip-path="url(#clipPath135)"
         id="g131"><path
           id="path137"
           style="fill:none;stroke:#b0b0b0;stroke-width:0.80000001;stroke-linecap:square;stroke-linejoin:round;stroke-miterlimit:10;stroke-dasharray:none;stroke-opacity:1"
           d="M 449.16875,70.465625 V 396.62563" /></g></g><g
       id="g139"><path
         id="path141"
         style="fill:#000000;fill-opacity:1;fill-rule:nonzero;stroke:#000000;stroke-width:0.80000001;stroke-linecap:butt;stroke-linejoin:round;stroke-miterlimit:10;stroke-dasharray:none;stroke-opacity:1"
         d="m 449.16875,70.465625 v -3.5" /><text
         id="text145"
         style="font-variant:normal;font-weight:normal;font-size:22px;font-family:'DejaVu Sans';-inkscape-font-specification:DejaVuSans;writing-mode:lr-tb;fill:#000000;fill-opacity:1;fill-rule:nonzero;stroke:none"
         transform="matrix(1,0,0,-1,442.16875,46.746875)"><tspan
           id="tspan143"
           y="0"
           x="0">2</tspan></text>
</g><g
       id="g147"><g
         clip-path="url(#clipPath153)"
         id="g149"><path
           id="path155"
           style="fill:none;stroke:#b0b0b0;stroke-width:0.80000001;stroke-linecap:square;stroke-linejoin:round;stroke-miterlimit:10;stroke-dasharray:none;stroke-opacity:1"
           d="M 523.56875,70.465625 V 396.62563" /></g></g><g
       id="g157"><path
         id="path159"
         style="fill:#000000;fill-opacity:1;fill-rule:nonzero;stroke:#000000;stroke-width:0.80000001;stroke-linecap:butt;stroke-linejoin:round;stroke-miterlimit:10;stroke-dasharray:none;stroke-opacity:1"
         d="m 523.56875,70.465625 v -3.5" /><text
         id="text163"
         style="font-variant:normal;font-weight:normal;font-size:22px;font-family:'DejaVu Sans';-inkscape-font-specification:DejaVuSans;writing-mode:lr-tb;fill:#000000;fill-opacity:1;fill-rule:nonzero;stroke:none"
         transform="matrix(1,0,0,-1,516.56875,46.746875)"><tspan
           id="tspan161"
           y="0"
           x="0">3</tspan></text>
<g
         transform="translate(290.86875,13.85625)"
         id="g165"><text
           id="text169"
           style="font-style:italic;font-variant:normal;font-size:32px;font-family:'DejaVu Sans';-inkscape-font-specification:DejaVuSans-Oblique;writing-mode:lr-tb;fill:#000000;fill-opacity:1;fill-rule:nonzero;stroke:none"
           transform="matrix(1,0,0,-1,0,0.5)"><tspan
             id="tspan167"
             y="0"
             x="0">x</tspan></text>
</g></g><g
       id="g171"><g
         clip-path="url(#clipPath177)"
         id="g173"><path
           id="path179"
           style="fill:none;stroke:#b0b0b0;stroke-width:0.80000001;stroke-linecap:square;stroke-linejoin:round;stroke-miterlimit:10;stroke-dasharray:none;stroke-opacity:1"
           d="m 77.16875,100.37127 h 446.4" /></g></g><g
       id="g181"><path
         id="path183"
         style="fill:#000000;fill-opacity:1;fill-rule:nonzero;stroke:#000000;stroke-width:0.80000001;stroke-linecap:butt;stroke-linejoin:round;stroke-miterlimit:10;stroke-dasharray:none;stroke-opacity:1"
         d="m 77.16875,100.37127 h -3.5" /><text
         id="text187"
         style="font-variant:normal;font-weight:normal;font-size:22px;font-family:'DejaVu Sans';-inkscape-font-specification:DejaVuSans;writing-mode:lr-tb;fill:#000000;fill-opacity:1;fill-rule:nonzero;stroke:none"
         transform="matrix(1,0,0,-1,56.16875,92.011896)"><tspan
           id="tspan185"
           y="0"
           x="0">4</tspan></text>
</g><g
       id="g189"><g
         clip-path="url(#clipPath195)"
         id="g191"><path
           id="path197"
           style="fill:none;stroke:#b0b0b0;stroke-width:0.80000001;stroke-linecap:square;stroke-linejoin:round;stroke-miterlimit:10;stroke-dasharray:none;stroke-opacity:1"
           d="m 77.16875,183.64808 h 446.4" /></g></g><g
       id="g199"><path
         id="path201"
         style="fill:#000000;fill-opacity:1;fill-rule:nonzero;stroke:#000000;stroke-width:0.80000001;stroke-linecap:butt;stroke-linejoin:round;stroke-miterlimit:10;stroke-dasharray:none;stroke-opacity:1"
         d="m 77.16875,183.64808 h -3.5" /><text
         id="text205"
         style="font-variant:normal;font-weight:normal;font-size:22px;font-family:'DejaVu Sans';-inkscape-font-specification:DejaVuSans;writing-mode:lr-tb;fill:#000000;fill-opacity:1;fill-rule:nonzero;stroke:none"
         transform="matrix(1,0,0,-1,56.16875,175.2887)"><tspan
           id="tspan203"
           y="0"
           x="0">6</tspan></text>
</g><g
       id="g207"><g
         clip-path="url(#clipPath213)"
         id="g209"><path
           id="path215"
           style="fill:none;stroke:#b0b0b0;stroke-width:0.80000001;stroke-linecap:square;stroke-linejoin:round;stroke-miterlimit:10;stroke-dasharray:none;stroke-opacity:1"
           d="m 77.16875,266.92489 h 446.4" /></g></g><g
       id="g217"><path
         id="path219"
         style="fill:#000000;fill-opacity:1;fill-rule:nonzero;stroke:#000000;stroke-width:0.80000001;stroke-linecap:butt;stroke-linejoin:round;stroke-miterlimit:10;stroke-dasharray:none;stroke-opacity:1"
         d="m 77.16875,266.92489 h -3.5" /><text
         id="text223"
         style="font-variant:normal;font-weight:normal;font-size:22px;font-family:'DejaVu Sans';-inkscape-font-specification:DejaVuSans;writing-mode:lr-tb;fill:#000000;fill-opacity:1;fill-rule:nonzero;stroke:none"
         transform="matrix(1,0,0,-1,56.16875,258.56551)"><tspan
           id="tspan221"
           y="0"
           x="0">8</tspan></text>
</g><g
       id="g225"><g
         clip-path="url(#clipPath231)"
         id="g227"><path
           id="path233"
           style="fill:none;stroke:#b0b0b0;stroke-width:0.80000001;stroke-linecap:square;stroke-linejoin:round;stroke-miterlimit:10;stroke-dasharray:none;stroke-opacity:1"
           d="m 77.16875,350.2017 h 446.4" /></g></g><g
       id="g235"><path
         id="path237"
         style="fill:#000000;fill-opacity:1;fill-rule:nonzero;stroke:#000000;stroke-width:0.80000001;stroke-linecap:butt;stroke-linejoin:round;stroke-miterlimit:10;stroke-dasharray:none;stroke-opacity:1"
         d="m 77.16875,350.2017 h -3.5" /><text
         id="text241"
         style="font-variant:normal;font-weight:normal;font-size:22px;font-family:'DejaVu Sans';-inkscape-font-specification:DejaVuSans;writing-mode:lr-tb;fill:#000000;fill-opacity:1;fill-rule:nonzero;stroke:none"
         transform="matrix(1,0,0,-1,42.16875,341.84232)"><tspan
           id="tspan239"
           y="0"
           x="0 13.992">10</tspan></text>
<g
         transform="rotate(90,-96.438437,127.60719)"
         id="g243"><text
           id="text247"
           style="font-style:italic;font-variant:normal;font-size:32px;font-family:'DejaVu Sans';-inkscape-font-specification:DejaVuSans-Oblique;writing-mode:lr-tb;fill:#000000;fill-opacity:1;fill-rule:nonzero;stroke:none"
           transform="matrix(1,0,0,-1,0,0.5)"><tspan
             id="tspan245"
             y="0"
             x="0">y</tspan></text>
</g></g><g
       id="g249"><g
         clip-path="url(#clipPath255)"
         id="g251"><path
           id="path257"
           style="fill:none;stroke:#ff0000;stroke-width:4;stroke-linecap:square;stroke-linejoin:round;stroke-miterlimit:10;stroke-dasharray:none;stroke-opacity:0.3"
           d="m 77.16875,308.85043 2.243216,0.5481 2.243216,0.0561 2.243216,0.36789 2.243216,-0.18578 2.243216,-0.0699 2.243216,0.0619 2.243217,0.28622 2.243216,0.44807 2.243216,0.0495 2.243216,0.99202 2.243219,0.25976 2.24321,0.49619 2.24322,1.32508 2.24321,0.0525 4.48644,1.592 2.24321,0.69393 2.24322,0.42283 2.24322,0.59127 2.24321,0.37439 4.48643,1.48142 2.24322,0.62748 2.24322,1.41021 2.24321,0.90854 2.24322,1.29254 2.24321,1.5055 2.24322,1.11371 2.24322,1.29194 2.24321,1.61042 2.24322,1.46188 2.24321,1.72143 2.24322,1.23752 6.72965,4.41836 2.24321,1.27029 2.24322,1.04481 2.24322,1.4077 4.48643,3.18106 6.72965,5.687 4.48643,4.16935 2.24322,1.80504 6.72964,6.52142 2.24322,1.73059 2.24322,1.87473 2.24321,1.64335 4.48643,2.64777 2.24322,0.93881 2.24322,0.79301 4.48643,1.08508 2.24321,0.0224 2.24322,0.42664 2.24322,0.25416 2.24321,-0.33397 2.24322,0.12508 2.24321,-0.15966 2.24322,-0.92688 2.24322,-0.22803 4.48643,-1.19971 6.72965,-2.82232 4.48643,-3.11469 2.24322,-1.93205 2.24321,-2.23709 2.24322,-2.0519 2.24321,-2.43651 4.48644,-4.39619 2.24321,-2.111 2.24322,-2.37885 2.24322,-1.9534 2.24321,-2.11207 2.24322,-1.95235 2.24321,-1.73115 4.48643,-3.98997 4.48644,-3.65114 2.24321,-2.11701 2.24322,-1.88696 6.72965,-6.07721 2.24321,-1.76614 2.24322,-1.5888 2.24322,-1.29197 2.24321,-1.06004 2.24322,-0.56496 2.24321,-0.20585 4.48644,0.31166 2.24321,0.76343 2.24322,0.62503 2.24321,0.76219 2.24322,1.15069 2.24322,0.98936 2.24321,1.38741 2.24322,0.89703 2.24321,1.14353 2.24322,1.37612 2.24322,1.78299 2.24321,1.9398 4.48643,4.20618 4.48644,3.51728 2.24321,2.09316 2.24322,1.80415 2.24322,2.42491 2.24321,2.09606 2.24322,2.6607 2.24321,2.35891 4.48644,4.25885 2.24321,2.31704 2.24322,2.89866 2.24321,2.00933 2.24322,2.69005 2.24322,2.19819 2.24321,1.25534 2.24322,1.07699 2.24321,0.68141 2.24322,0.27912 2.24322,-0.35736 2.24321,-0.74459 2.24322,-1.64016 2.24321,-1.238 6.72965,-5.34205 2.24322,-1.2047 4.48643,-1.80899 4.48643,-1.26533 2.24322,-0.35235 2.24322,-0.16485 2.24321,-0.0405 2.24322,-0.37798 2.24321,0.22512 4.48644,0.11343 2.24321,-0.17666 4.48643,-0.91201 2.24322,-0.4238 2.24322,-1.19172 2.24321,-1.71318 2.24322,-1.97263 2.24321,-2.70054 2.24322,-3.02254 2.24322,-3.35183 4.48643,-7.88693 4.48643,-8.82297 2.24322,-5.61531 2.24321,-5.13519 4.48644,-11.63683 2.24321,-6.21086 2.24322,-6.77235 2.24321,-6.40249 2.24322,-6.76475 8.97286,-30.86353 2.24322,-8.07288 2.24322,-7.17638 4.48643,-15.86455 11.21608,-37.23033 4.48643,-13.78849 6.72965,-18.5872 2.24322,-6.12566 6.72964,-16.6665 2.24322,-5.44754 v 0" /></g></g><g
       id="g259"><g
         clip-path="url(#clipPath265)"
         id="g261"><path
           id="path267"
           style="fill:none;stroke:#ff0000;stroke-width:4;stroke-linecap:square;stroke-linejoin:round;stroke-miterlimit:10;stroke-dasharray:none;stroke-opacity:0.3"
           d="m 77.16875,308.74766 2.243216,2.92723 2.243216,2.50141 2.243216,1.82139 2.243216,1.28033 2.243216,1.4214 4.486433,1.53798 2.243216,0.60273 2.243216,0.13378 6.729645,-0.35756 2.24322,-0.59772 4.48643,-0.73933 2.24322,-0.63358 2.24321,-0.41304 4.48644,-0.38007 2.24321,0.52606 2.24322,0.13009 6.72965,2.04647 4.48643,2.52714 2.24321,1.2288 2.24322,1.63895 2.24322,0.97061 2.24321,1.38364 2.24322,1.07283 2.24321,1.48931 2.24322,1.26164 2.24322,1.09085 2.24321,0.88074 2.24322,1.10023 2.24321,0.42602 4.48644,2.15458 2.24321,1.70933 4.48643,2.63412 2.24322,1.00057 2.24322,1.71019 2.24321,2.03919 2.24322,1.80835 2.24322,2.74258 2.24321,2.5108 2.24322,2.6906 4.48643,4.96897 2.24322,2.37398 6.72964,7.46726 2.24322,1.98567 4.48643,3.17601 2.24322,0.95752 2.24321,0.68673 2.24322,0.15588 4.48643,-0.76006 2.24322,-1.12147 2.24321,-1.3255 2.24322,-2.00833 2.24322,-2.39598 2.24321,-3.01793 2.24322,-3.62809 4.48643,-8.08894 8.97287,-17.64015 2.24321,-4.09188 2.24322,-4.48955 2.24321,-4.02756 2.24322,-4.97322 8.97287,-15.64362 2.24321,-3.09018 2.24322,-3.36748 2.24321,-3.10276 2.24322,-2.04382 2.24321,-2.28466 2.24322,-1.88339 2.24322,-1.07861 2.24321,-0.91693 2.24322,-0.53344 2.24321,-0.049 2.24322,0.18953 2.24322,0.63135 2.24321,0.78812 2.24322,0.96712 2.24322,1.17462 2.24321,1.417 2.24322,1.73197 2.24321,1.5755 2.24322,2.0298 2.24322,1.85565 2.24321,2.52867 2.24322,2.2738 4.48643,5.86289 2.24322,3.13597 4.48643,7.34642 2.24321,3.13801 6.72965,10.67039 6.72965,9.0028 2.24322,2.75794 2.24321,2.17954 2.24322,2.33699 2.24322,2.08612 2.24321,2.48684 2.24322,1.97668 2.24321,2.37181 2.24322,2.11674 2.24322,2.30882 2.24321,1.72954 2.24322,1.47265 2.24321,1.04856 2.24322,0.80359 2.24322,0.59591 2.24321,0.36458 4.48643,-0.0701 2.24322,-0.77611 2.24322,-0.47588 2.24321,-0.91283 2.24322,-1.57747 2.24321,-0.82604 2.24322,-1.35906 2.24322,-0.92806 2.24321,-1.08916 2.24322,-0.64003 4.48643,-1.97349 2.24322,-0.5665 2.24321,-0.92164 4.48644,-2.09374 6.72964,-2.33795 2.24322,-0.57237 2.24322,-0.40431 2.24321,-0.65929 2.24322,-0.26007 2.24321,-0.67343 2.24322,-0.83335 2.24322,-1.00057 6.72964,-5.22273 4.48644,-4.93225 2.24321,-2.79053 2.24322,-3.12667 4.48643,-7.92998 2.24322,-4.31798 2.24321,-4.83352 2.24322,-5.14246 2.24322,-5.43332 2.24321,-6.13069 2.24322,-6.64168 4.48643,-14.26073 8.97286,-31.70091 17.94573,-64.78378 13.4593,-51.13222 2.24322,-8.28165 6.72964,-22.841201 2.24322,-7.102253 v 0" /></g></g><g
       id="g269"><g
         clip-path="url(#clipPath275)"
         id="g271"><path
           id="path277"
           style="fill:none;stroke:#ff0000;stroke-width:4;stroke-linecap:square;stroke-linejoin:round;stroke-miterlimit:10;stroke-dasharray:none;stroke-opacity:0.3"
           d="m 77.16875,308.57337 4.486432,6.84395 2.243216,2.53667 2.243216,2.30763 2.243216,2.06183 2.243216,1.66764 2.243217,1.22687 2.243216,1.45158 6.729651,2.92652 4.48643,1.16597 4.48643,-0.1008 4.48643,-1.30096 2.24322,-0.88775 2.24322,-0.30344 4.48643,-1.78608 4.48643,-1.63281 2.24322,-0.71057 2.24321,-0.24271 2.24322,-0.0561 2.24321,0.42099 2.24322,0.83444 4.48643,2.50773 4.48643,3.55747 8.97287,4.3357 2.24321,0.49454 6.72965,2.75284 2.24322,1.11982 2.24321,0.91671 2.24322,1.13804 2.24322,1.35617 2.24321,1.11986 4.48644,3.02061 2.24321,1.90392 2.24322,2.25575 2.24321,2.60845 2.24322,2.38367 2.24322,2.55379 6.72964,8.18729 2.24322,2.26046 2.24322,1.77075 2.24321,2.04429 4.48643,2.8095 2.24322,0.72696 2.24322,0.44236 2.24321,-0.50351 2.24322,-0.36666 2.24321,-1.38771 4.48644,-3.72705 2.24321,-2.24241 2.24322,-2.88837 2.24322,-3.07966 2.24321,-3.79734 2.24322,-3.56088 2.24321,-3.29649 2.24322,-3.76002 4.48643,-6.77992 2.24322,-3.64271 6.72965,-9.45205 2.24321,-2.81994 2.24322,-3.22388 2.24322,-2.99594 6.72964,-7.45364 6.72965,-7.69756 2.24322,-2.17926 2.24321,-2.84101 2.24322,-2.46839 2.24321,-2.71259 2.24322,-2.39601 4.48643,-4.14917 4.48644,-2.6859 2.24321,-0.91235 4.48643,-0.22002 2.24322,0.45999 2.24322,0.85398 2.24321,1.38339 2.24322,1.93233 2.24321,1.66633 2.24322,2.5768 2.24322,2.86449 2.24321,2.56459 2.24322,3.14945 2.24321,2.79064 2.24322,3.60163 2.24322,3.25629 4.48643,7.99569 8.97286,16.97583 2.24322,3.99793 4.48643,7.30625 8.97287,12.50443 4.48643,5.09134 2.24321,1.56325 2.24322,1.71067 2.24322,1.21416 2.24321,0.33628 2.24322,0.48761 4.48643,-0.70352 2.24322,-0.60645 2.24321,-0.90126 8.97287,-4.2011 2.24321,-0.56016 2.24322,-0.78518 4.48643,-0.80217 2.24322,-0.60784 2.24321,-0.7935 6.72965,-2.90064 4.48643,-1.08503 2.24322,-0.65105 2.24322,-0.77089 4.48643,-2.21222 2.24321,-0.55331 4.48644,-2.74438 2.24321,-1.22692 2.24322,-2.08671 2.24321,-1.86018 2.24322,-2.57023 4.48643,-5.59078 2.24322,-3.38737 4.48643,-7.32723 4.48643,-8.77356 2.24322,-4.95369 2.24322,-5.36333 2.24321,-5.76041 2.24322,-6.10579 4.48643,-14.11722 2.24322,-7.14442 2.24321,-7.63464 8.97287,-33.47098 2.24321,-8.63054 15.70252,-57.43933 13.45929,-53.3026 6.72965,-27.39015 v 0" /></g></g><g
       id="g279"><g
         clip-path="url(#clipPath285)"
         id="g281"><path
           id="path287"
           style="fill:none;stroke:#ff0000;stroke-width:4;stroke-linecap:square;stroke-linejoin:round;stroke-miterlimit:10;stroke-dasharray:none;stroke-opacity:0.3"
           d="m 77.16875,308.4277 4.486432,7.73824 2.243216,2.91722 2.243216,1.83345 2.243216,1.24127 2.243216,0.49149 2.243217,-0.27702 2.243216,-1.01454 2.243216,-0.62665 2.243216,-0.79981 2.243219,-1.26875 4.48643,-1.40917 2.24321,-1.06997 2.24322,-1.32041 4.48643,-1.9578 2.24322,-1.07871 2.24322,-0.27197 2.24321,-0.62994 2.24322,0.12237 2.24321,0.90274 2.24322,0.54133 2.24322,0.94373 4.48643,2.67932 2.24321,1.70123 2.24322,1.93374 4.48643,4.56623 4.48643,5.44991 6.72965,8.6841 2.24322,2.58927 4.48643,6.31786 11.21608,14.04964 2.24322,2.49959 2.24321,1.72424 2.24322,2.17046 4.48643,3.62997 2.24322,1.85336 2.24321,1.3903 4.48644,2.27096 2.24321,0.88338 2.24322,0.64576 2.24321,0.31721 2.24322,0.11451 2.24322,-0.009 2.24321,-0.63259 2.24322,-0.29848 2.24321,-0.80598 2.24322,-0.14975 2.24322,-0.69928 2.24321,-0.5309 2.24322,-0.67365 2.24321,-1.30094 2.24322,-0.78499 2.24322,-1.44902 4.48643,-3.49373 2.24322,-1.14762 4.48643,-3.51791 2.24321,-2.11645 2.24322,-2.39058 2.24322,-1.74497 2.24321,-1.9356 4.48643,-4.58602 2.24322,-2.67848 2.24322,-2.36221 4.48643,-5.32109 4.48643,-5.19453 4.48643,-4.16617 2.24322,-1.81813 4.48643,-3.06206 2.24322,-1.09879 4.48643,-1.91967 2.24321,-1.13777 2.24322,-0.58809 2.24322,-0.8557 2.24321,-0.5112 2.24322,-0.36827 2.24322,0.0508 2.24321,0.25957 2.24322,0.61277 2.24321,1.08552 2.24322,0.67975 2.24322,1.10315 4.48643,2.85056 6.72965,5.89746 2.24321,2.23816 2.24322,2.43141 2.24321,1.87875 2.24322,2.28377 2.24322,2.09519 2.24321,1.90355 2.24322,2.34497 2.24321,1.27385 4.48644,3.97365 2.24321,1.31469 2.24322,1.95177 2.24322,1.68957 2.24321,1.97502 2.24322,1.78391 2.24321,2.1189 4.48644,3.73612 2.24321,1.49294 2.24322,1.23196 2.24321,0.90272 2.24322,0.26309 2.24322,0.59935 6.72964,-1.11974 2.24322,-0.57639 2.24322,-1.16353 2.24321,-0.93331 2.24322,-0.73184 4.48643,-2.6919 2.24322,-0.75665 2.24321,-1.42033 2.24322,-1.21146 2.24322,-0.91659 2.24321,-1.0484 4.48643,-1.46599 2.24322,-0.14626 2.24322,-0.27205 2.24321,0.0155 4.48643,0.4369 2.24322,0.76448 4.48643,-0.29739 2.24322,-0.23192 2.24321,-1.07401 2.24322,-0.45493 2.24322,-1.24406 4.48643,-3.64512 2.24321,-2.55741 2.24322,-3.61407 2.24322,-4.10152 2.24321,-4.57137 4.48643,-10.40695 6.72965,-17.16691 4.48644,-12.76097 4.48643,-14.62888 2.24321,-8.26817 2.24322,-7.71294 4.48643,-16.19157 4.48643,-16.23405 6.72965,-23.15434 4.48643,-15.59462 4.48644,-14.8282 4.48643,-15.39666 20.18894,-65.574616 2.24322,-7.045028 v 0" /></g></g><g
       id="g289"><g
         clip-path="url(#clipPath295)"
         id="g291"><path
           id="path297"
           style="fill:none;stroke:#ff0000;stroke-width:4;stroke-linecap:square;stroke-linejoin:round;stroke-miterlimit:10;stroke-dasharray:none;stroke-opacity:0.3"
           d="m 77.16875,309.00114 2.243216,4.95675 2.243216,4.51971 2.243216,4.06172 2.243216,3.39278 4.486432,4.88254 2.243217,2.19927 2.243216,0.90084 2.243216,0.75341 2.243216,0.49843 4.486429,-0.10662 2.24322,0.30113 2.24321,-0.53281 2.24322,-0.3041 2.24322,-0.56844 6.72965,-2.11068 2.24321,-0.81844 6.72965,-1.92278 2.24322,-0.49976 4.48643,-0.69937 2.24321,0.13453 2.24322,0.30081 2.24322,0.93845 2.24321,0.6449 2.24322,0.82797 2.24321,1.17736 4.48644,2.90808 2.24321,1.96702 2.24322,2.29203 2.24321,1.89057 2.24322,2.43647 8.97286,11.02988 4.48644,5.40913 2.24321,2.24807 2.24322,1.64225 4.48643,4.25703 2.24322,1.39921 4.48643,3.85938 2.24322,1.66279 4.48643,3.65658 4.48643,2.4983 2.24322,0.64159 2.24321,0.073 2.24322,-0.18008 2.24321,-0.48591 2.24322,-0.78273 2.24322,-0.64631 2.24321,-1.23991 6.72965,-4.33744 2.24322,-2.12392 2.24321,-1.73324 2.24322,-2.10692 4.48643,-3.7966 2.24322,-1.74973 2.24321,-2.37317 2.24322,-1.67702 6.72965,-8.17793 2.24321,-2.89952 2.24322,-3.32288 2.24322,-3.68287 2.24321,-3.23973 2.24322,-3.97112 4.48643,-7.00106 2.24322,-3.75891 4.48643,-6.42145 2.24321,-3.07186 2.24322,-3.29192 2.24322,-2.81577 2.24321,-2.5017 2.24322,-2.89642 2.24321,-2.50225 2.24322,-1.99223 2.24322,-1.69784 2.24321,-1.86011 4.48644,-3.11602 4.48643,-2.07851 2.24321,-0.68595 2.24322,-0.81875 2.24322,-0.3781 2.24321,0.11411 2.24322,0.35119 2.24321,0.89551 4.48644,2.59383 2.24321,1.81555 2.24322,1.9757 2.24321,2.19683 2.24322,3.00322 4.48643,7.27932 2.24322,4.41713 2.24321,4.11417 2.24322,4.40402 4.48643,8.14265 4.48644,8.21686 2.24321,3.75986 2.24322,3.39282 2.24321,3.83663 2.24322,3.40328 2.24322,3.14573 2.24321,3.34856 2.24322,2.37498 2.24321,2.75712 2.24322,2.36052 4.48643,3.24829 2.24322,0.80261 2.24321,0.29638 2.24322,0.14681 2.24322,-0.42777 2.24321,-0.60291 2.24322,-0.95699 4.48643,-2.35678 2.24322,-0.91461 2.24321,-1.39238 8.97287,-3.64172 2.24321,-1.17792 2.24322,-1.0272 4.48643,-2.52299 4.48643,-2.49237 2.24322,-0.79149 4.48643,-2.14951 2.24322,-0.78319 2.24321,-1.0133 2.24322,-0.56226 2.24322,-1.06809 2.24321,-0.50613 2.24322,-1.13131 2.24321,-1.43422 2.24322,-1.9832 2.24322,-2.17888 2.24321,-2.70004 2.24322,-2.89271 4.48643,-6.31356 2.24322,-3.49879 4.48643,-7.49109 2.24322,-4.55882 2.24321,-4.9785 2.24322,-5.3662 2.24321,-5.68576 4.48644,-12.76747 2.24321,-6.67459 8.97287,-28.39048 8.97286,-31.11448 4.48643,-16.78039 13.4593,-52.19428 6.72965,-25.94997 4.48643,-16.97133 v 0" /></g></g><g
       id="g299"><path
         id="path301"
         style="fill:none;stroke:#000000;stroke-width:0.80000001;stroke-linecap:square;stroke-linejoin:miter;stroke-miterlimit:10;stroke-dasharray:none;stroke-opacity:1"
         d="M 77.16875,70.465625 V 396.62563" /><path
         id="path303"
         style="fill:none;stroke:#000000;stroke-width:0.80000001;stroke-linecap:square;stroke-linejoin:miter;stroke-miterlimit:10;stroke-dasharray:none;stroke-opacity:1"
         d="M 523.56875,70.465625 V 396.62563" /><path
         id="path305"
         style="fill:none;stroke:#000000;stroke-width:0.80000001;stroke-linecap:square;stroke-linejoin:miter;stroke-miterlimit:10;stroke-dasharray:none;stroke-opacity:1"
         d="m 77.16875,70.465625 h 446.4" /><path
         id="path307"
         style="fill:none;stroke:#000000;stroke-width:0.80000001;stroke-linecap:square;stroke-linejoin:miter;stroke-miterlimit:10;stroke-dasharray:none;stroke-opacity:1"
         d="m 77.16875,396.62563 h 446.4" /></g></g></svg>