<?xml version="1.0" encoding="UTF-8" standalone="no"?>
<svg
   xmlns:dc="http://purl.org/dc/elements/1.1/"
   xmlns:cc="http://creativecommons.org/ns#"
   xmlns:rdf="http://www.w3.org/1999/02/22-rdf-syntax-ns#"
   xmlns:svg="http://www.w3.org/2000/svg"
   xmlns="http://www.w3.org/2000/svg"
   viewBox="0 0 717.02502 538.43414"
   height="538.43414"
   width="717.02502"
   xml:space="preserve"
   id="svg29"
   version="1.1"><metadata
     id="metadata35"><rdf:RDF><cc:Work
         rdf:about=""><dc:format>image/svg+xml</dc:format><dc:type
           rdf:resource="http://purl.org/dc/dcmitype/StillImage" /><dc:title></dc:title></cc:Work></rdf:RDF></metadata><defs
     id="defs33"><clipPath
       id="clipPath45"
       clipPathUnits="userSpaceOnUse"><path
         id="path43"
         d="m 77.16875,70.465625 h 446.4 V 396.62563 h -446.4 z" /></clipPath><clipPath
       id="clipPath63"
       clipPathUnits="userSpaceOnUse"><path
         id="path61"
         d="m 77.16875,70.465625 h 446.4 V 396.62563 h -446.4 z" /></clipPath><clipPath
       id="clipPath81"
       clipPathUnits="userSpaceOnUse"><path
         id="path79"
         d="m 77.16875,70.465625 h 446.4 V 396.62563 h -446.4 z" /></clipPath><clipPath
       id="clipPath99"
       clipPathUnits="userSpaceOnUse"><path
         id="path97"
         d="m 77.16875,70.465625 h 446.4 V 396.62563 h -446.4 z" /></clipPath><clipPath
       id="clipPath117"
       clipPathUnits="userSpaceOnUse"><path
         id="path115"
         d="m 77.16875,70.465625 h 446.4 V 396.62563 h -446.4 z" /></clipPath><clipPath
       id="clipPath135"
       clipPathUnits="userSpaceOnUse"><path
         id="path133"
         d="m 77.16875,70.465625 h 446.4 V 396.62563 h -446.4 z" /></clipPath><clipPath
       id="clipPath153"
       clipPathUnits="userSpaceOnUse"><path
         id="path151"
         d="m 77.16875,70.465625 h 446.4 V 396.62563 h -446.4 z" /></clipPath><clipPath
       id="clipPath177"
       clipPathUnits="userSpaceOnUse"><path
         id="path175"
         d="m 77.16875,70.465625 h 446.4 V 396.62563 h -446.4 z" /></clipPath><clipPath
       id="clipPath195"
       clipPathUnits="userSpaceOnUse"><path
         id="path193"
         d="m 77.16875,70.465625 h 446.4 V 396.62563 h -446.4 z" /></clipPath><clipPath
       id="clipPath213"
       clipPathUnits="userSpaceOnUse"><path
         id="path211"
         d="m 77.16875,70.465625 h 446.4 V 396.62563 h -446.4 z" /></clipPath><clipPath
       id="clipPath231"
       clipPathUnits="userSpaceOnUse"><path
         id="path229"
         d="m 77.16875,70.465625 h 446.4 V 396.62563 h -446.4 z" /></clipPath><clipPath
       id="clipPath255"
       clipPathUnits="userSpaceOnUse"><path
         id="path253"
         d="m 77.16875,70.465625 h 446.4 V 396.62563 h -446.4 z" /></clipPath><clipPath
       id="clipPath265"
       clipPathUnits="userSpaceOnUse"><path
         id="path263"
         d="m 77.16875,70.465625 h 446.4 V 396.62563 h -446.4 z" /></clipPath><clipPath
       id="clipPath275"
       clipPathUnits="userSpaceOnUse"><path
         id="path273"
         d="m 77.16875,70.465625 h 446.4 V 396.62563 h -446.4 z" /></clipPath><clipPath
       id="clipPath285"
       clipPathUnits="userSpaceOnUse"><path
         id="path283"
         d="m 77.16875,70.465625 h 446.4 V 396.62563 h -446.4 z" /></clipPath><clipPath
       id="clipPath295"
       clipPathUnits="userSpaceOnUse"><path
         id="path293"
         d="m 77.16875,70.465625 h 446.4 V 396.62563 h -446.4 z" /></clipPath></defs><g
     transform="matrix(1.3333333,0,0,-1.3333333,0,538.43417)"
     id="g37"><g
       id="g39"><g
         clip-path="url(#clipPath45)"
         id="g41"><path
           id="path47"
           style="fill:none;stroke:#b0b0b0;stroke-width:0.80000001;stroke-linecap:square;stroke-linejoin:round;stroke-miterlimit:10;stroke-dasharray:none;stroke-opacity:1"
           d="M 77.16875,70.465625 V 396.62563" /></g></g><g
       id="g49"><path
         id="path51"
         style="fill:#000000;fill-opacity:1;fill-rule:nonzero;stroke:#000000;stroke-width:0.80000001;stroke-linecap:butt;stroke-linejoin:round;stroke-miterlimit:10;stroke-dasharray:none;stroke-opacity:1"
         d="m 77.16875,70.465625 v -3.5" /><text
         id="text55"
         style="font-variant:normal;font-weight:normal;font-size:22px;font-family:'DejaVu Sans';-inkscape-font-specification:DejaVuSans;writing-mode:lr-tb;fill:#000000;fill-opacity:1;fill-rule:nonzero;stroke:none"
         transform="matrix(1,0,0,-1,60.95,46.746875)"><tspan
           id="tspan53"
           y="0"
           x="0 18.436001">−3</tspan></text>
</g><g
       id="g57"><g
         clip-path="url(#clipPath63)"
         id="g59"><path
           id="path65"
           style="fill:none;stroke:#b0b0b0;stroke-width:0.80000001;stroke-linecap:square;stroke-linejoin:round;stroke-miterlimit:10;stroke-dasharray:none;stroke-opacity:1"
           d="M 151.56875,70.465625 V 396.62563" /></g></g><g
       id="g67"><path
         id="path69"
         style="fill:#000000;fill-opacity:1;fill-rule:nonzero;stroke:#000000;stroke-width:0.80000001;stroke-linecap:butt;stroke-linejoin:round;stroke-miterlimit:10;stroke-dasharray:none;stroke-opacity:1"
         d="m 151.56875,70.465625 v -3.5" /><text
         id="text73"
         style="font-variant:normal;font-weight:normal;font-size:22px;font-family:'DejaVu Sans';-inkscape-font-specification:DejaVuSans;writing-mode:lr-tb;fill:#000000;fill-opacity:1;fill-rule:nonzero;stroke:none"
         transform="matrix(1,0,0,-1,135.35,46.746875)"><tspan
           id="tspan71"
           y="0"
           x="0 18.436001">−2</tspan></text>
</g><g
       id="g75"><g
         clip-path="url(#clipPath81)"
         id="g77"><path
           id="path83"
           style="fill:none;stroke:#b0b0b0;stroke-width:0.80000001;stroke-linecap:square;stroke-linejoin:round;stroke-miterlimit:10;stroke-dasharray:none;stroke-opacity:1"
           d="M 225.96875,70.465625 V 396.62563" /></g></g><g
       id="g85"><path
         id="path87"
         style="fill:#000000;fill-opacity:1;fill-rule:nonzero;stroke:#000000;stroke-width:0.80000001;stroke-linecap:butt;stroke-linejoin:round;stroke-miterlimit:10;stroke-dasharray:none;stroke-opacity:1"
         d="m 225.96875,70.465625 v -3.5" /><text
         id="text91"
         style="font-variant:normal;font-weight:normal;font-size:22px;font-family:'DejaVu Sans';-inkscape-font-specification:DejaVuSans;writing-mode:lr-tb;fill:#000000;fill-opacity:1;fill-rule:nonzero;stroke:none"
         transform="matrix(1,0,0,-1,209.75,46.746875)"><tspan
           id="tspan89"
           y="0"
           x="0 18.436001">−1</tspan></text>
</g><g
       id="g93"><g
         clip-path="url(#clipPath99)"
         id="g95"><path
           id="path101"
           style="fill:none;stroke:#b0b0b0;stroke-width:0.80000001;stroke-linecap:square;stroke-linejoin:round;stroke-miterlimit:10;stroke-dasharray:none;stroke-opacity:1"
           d="M 300.36875,70.465625 V 396.62563" /></g></g><g
       id="g103"><path
         id="path105"
         style="fill:#000000;fill-opacity:1;fill-rule:nonzero;stroke:#000000;stroke-width:0.80000001;stroke-linecap:butt;stroke-linejoin:round;stroke-miterlimit:10;stroke-dasharray:none;stroke-opacity:1"
         d="m 300.36875,70.465625 v -3.5" /><text
         id="text109"
         style="font-variant:normal;font-weight:normal;font-size:22px;font-family:'DejaVu Sans';-inkscape-font-specification:DejaVuSans;writing-mode:lr-tb;fill:#000000;fill-opacity:1;fill-rule:nonzero;stroke:none"
         transform="matrix(1,0,0,-1,293.36875,46.746875)"><tspan
           id="tspan107"
           y="0"
           x="0">0</tspan></text>
</g><g
       id="g111"><g
         clip-path="url(#clipPath117)"
         id="g113"><path
           id="path119"
           style="fill:none;stroke:#b0b0b0;stroke-width:0.80000001;stroke-linecap:square;stroke-linejoin:round;stroke-miterlimit:10;stroke-dasharray:none;stroke-opacity:1"
           d="M 374.76875,70.465625 V 396.62563" /></g></g><g
       id="g121"><path
         id="path123"
         style="fill:#000000;fill-opacity:1;fill-rule:nonzero;stroke:#000000;stroke-width:0.80000001;stroke-linecap:butt;stroke-linejoin:round;stroke-miterlimit:10;stroke-dasharray:none;stroke-opacity:1"
         d="m 374.76875,70.465625 v -3.5" /><text
         id="text127"
         style="font-variant:normal;font-weight:normal;font-size:22px;font-family:'DejaVu Sans';-inkscape-font-specification:DejaVuSans;writing-mode:lr-tb;fill:#000000;fill-opacity:1;fill-rule:nonzero;stroke:none"
         transform="matrix(1,0,0,-1,367.76875,46.746875)"><tspan
           id="tspan125"
           y="0"
           x="0">1</tspan></text>
</g><g
       id="g129"><g
         clip-path="url(#clipPath135)"
         id="g131"><path
           id="path137"
           style="fill:none;stroke:#b0b0b0;stroke-width:0.80000001;stroke-linecap:square;stroke-linejoin:round;stroke-miterlimit:10;stroke-dasharray:none;stroke-opacity:1"
           d="M 449.16875,70.465625 V 396.62563" /></g></g><g
       id="g139"><path
         id="path141"
         style="fill:#000000;fill-opacity:1;fill-rule:nonzero;stroke:#000000;stroke-width:0.80000001;stroke-linecap:butt;stroke-linejoin:round;stroke-miterlimit:10;stroke-dasharray:none;stroke-opacity:1"
         d="m 449.16875,70.465625 v -3.5" /><text
         id="text145"
         style="font-variant:normal;font-weight:normal;font-size:22px;font-family:'DejaVu Sans';-inkscape-font-specification:DejaVuSans;writing-mode:lr-tb;fill:#000000;fill-opacity:1;fill-rule:nonzero;stroke:none"
         transform="matrix(1,0,0,-1,442.16875,46.746875)"><tspan
           id="tspan143"
           y="0"
           x="0">2</tspan></text>
</g><g
       id="g147"><g
         clip-path="url(#clipPath153)"
         id="g149"><path
           id="path155"
           style="fill:none;stroke:#b0b0b0;stroke-width:0.80000001;stroke-linecap:square;stroke-linejoin:round;stroke-miterlimit:10;stroke-dasharray:none;stroke-opacity:1"
           d="M 523.56875,70.465625 V 396.62563" /></g></g><g
       id="g157"><path
         id="path159"
         style="fill:#000000;fill-opacity:1;fill-rule:nonzero;stroke:#000000;stroke-width:0.80000001;stroke-linecap:butt;stroke-linejoin:round;stroke-miterlimit:10;stroke-dasharray:none;stroke-opacity:1"
         d="m 523.56875,70.465625 v -3.5" /><text
         id="text163"
         style="font-variant:normal;font-weight:normal;font-size:22px;font-family:'DejaVu Sans';-inkscape-font-specification:DejaVuSans;writing-mode:lr-tb;fill:#000000;fill-opacity:1;fill-rule:nonzero;stroke:none"
         transform="matrix(1,0,0,-1,516.56875,46.746875)"><tspan
           id="tspan161"
           y="0"
           x="0">3</tspan></text>
<g
         transform="translate(290.86875,13.85625)"
         id="g165"><text
           id="text169"
           style="font-style:italic;font-variant:normal;font-size:32px;font-family:'DejaVu Sans';-inkscape-font-specification:DejaVuSans-Oblique;writing-mode:lr-tb;fill:#000000;fill-opacity:1;fill-rule:nonzero;stroke:none"
           transform="matrix(1,0,0,-1,0,0.5)"><tspan
             id="tspan167"
             y="0"
             x="0">x</tspan></text>
</g></g><g
       id="g171"><g
         clip-path="url(#clipPath177)"
         id="g173"><path
           id="path179"
           style="fill:none;stroke:#b0b0b0;stroke-width:0.80000001;stroke-linecap:square;stroke-linejoin:round;stroke-miterlimit:10;stroke-dasharray:none;stroke-opacity:1"
           d="m 77.16875,129.83403 h 446.4" /></g></g><g
       id="g181"><path
         id="path183"
         style="fill:#000000;fill-opacity:1;fill-rule:nonzero;stroke:#000000;stroke-width:0.80000001;stroke-linecap:butt;stroke-linejoin:round;stroke-miterlimit:10;stroke-dasharray:none;stroke-opacity:1"
         d="m 77.16875,129.83403 h -3.5" /><text
         id="text187"
         style="font-variant:normal;font-weight:normal;font-size:22px;font-family:'DejaVu Sans';-inkscape-font-specification:DejaVuSans;writing-mode:lr-tb;fill:#000000;fill-opacity:1;fill-rule:nonzero;stroke:none"
         transform="matrix(1,0,0,-1,56.16875,121.47466)"><tspan
           id="tspan185"
           y="0"
           x="0">8</tspan></text>
</g><g
       id="g189"><g
         clip-path="url(#clipPath195)"
         id="g191"><path
           id="path197"
           style="fill:none;stroke:#b0b0b0;stroke-width:0.80000001;stroke-linecap:square;stroke-linejoin:round;stroke-miterlimit:10;stroke-dasharray:none;stroke-opacity:1"
           d="m 77.16875,203.18132 h 446.4" /></g></g><g
       id="g199"><path
         id="path201"
         style="fill:#000000;fill-opacity:1;fill-rule:nonzero;stroke:#000000;stroke-width:0.80000001;stroke-linecap:butt;stroke-linejoin:round;stroke-miterlimit:10;stroke-dasharray:none;stroke-opacity:1"
         d="m 77.16875,203.18132 h -3.5" /><text
         id="text205"
         style="font-variant:normal;font-weight:normal;font-size:22px;font-family:'DejaVu Sans';-inkscape-font-specification:DejaVuSans;writing-mode:lr-tb;fill:#000000;fill-opacity:1;fill-rule:nonzero;stroke:none"
         transform="matrix(1,0,0,-1,56.16875,194.82195)"><tspan
           id="tspan203"
           y="0"
           x="0">9</tspan></text>
</g><g
       id="g207"><g
         clip-path="url(#clipPath213)"
         id="g209"><path
           id="path215"
           style="fill:none;stroke:#b0b0b0;stroke-width:0.80000001;stroke-linecap:square;stroke-linejoin:round;stroke-miterlimit:10;stroke-dasharray:none;stroke-opacity:1"
           d="m 77.16875,276.52861 h 446.4" /></g></g><g
       id="g217"><path
         id="path219"
         style="fill:#000000;fill-opacity:1;fill-rule:nonzero;stroke:#000000;stroke-width:0.80000001;stroke-linecap:butt;stroke-linejoin:round;stroke-miterlimit:10;stroke-dasharray:none;stroke-opacity:1"
         d="m 77.16875,276.52861 h -3.5" /><text
         id="text223"
         style="font-variant:normal;font-weight:normal;font-size:22px;font-family:'DejaVu Sans';-inkscape-font-specification:DejaVuSans;writing-mode:lr-tb;fill:#000000;fill-opacity:1;fill-rule:nonzero;stroke:none"
         transform="matrix(1,0,0,-1,42.16875,268.16924)"><tspan
           id="tspan221"
           y="0"
           x="0 13.992">10</tspan></text>
</g><g
       id="g225"><g
         clip-path="url(#clipPath231)"
         id="g227"><path
           id="path233"
           style="fill:none;stroke:#b0b0b0;stroke-width:0.80000001;stroke-linecap:square;stroke-linejoin:round;stroke-miterlimit:10;stroke-dasharray:none;stroke-opacity:1"
           d="m 77.16875,349.8759 h 446.4" /></g></g><g
       id="g235"><path
         id="path237"
         style="fill:#000000;fill-opacity:1;fill-rule:nonzero;stroke:#000000;stroke-width:0.80000001;stroke-linecap:butt;stroke-linejoin:round;stroke-miterlimit:10;stroke-dasharray:none;stroke-opacity:1"
         d="m 77.16875,349.8759 h -3.5" /><text
         id="text241"
         style="font-variant:normal;font-weight:normal;font-size:22px;font-family:'DejaVu Sans';-inkscape-font-specification:DejaVuSans;writing-mode:lr-tb;fill:#000000;fill-opacity:1;fill-rule:nonzero;stroke:none"
         transform="matrix(1,0,0,-1,42.16875,341.51653)"><tspan
           id="tspan239"
           y="0"
           x="0 13.992">11</tspan></text>
<g
         transform="rotate(90,-96.438437,127.60719)"
         id="g243"><text
           id="text247"
           style="font-style:italic;font-variant:normal;font-size:32px;font-family:'DejaVu Sans';-inkscape-font-specification:DejaVuSans-Oblique;writing-mode:lr-tb;fill:#000000;fill-opacity:1;fill-rule:nonzero;stroke:none"
           transform="matrix(1,0,0,-1,0,0.5)"><tspan
             id="tspan245"
             y="0"
             x="0">y</tspan></text>
</g></g><g
       id="g249"><g
         clip-path="url(#clipPath255)"
         id="g251"><path
           id="path257"
           style="fill:none;stroke:#ff0000;stroke-width:4;stroke-linecap:square;stroke-linejoin:round;stroke-miterlimit:10;stroke-dasharray:none;stroke-opacity:0.3"
           d="m 77.16875,204.90285 2.243216,0.40112 2.243216,0.95372 2.243216,0.29454 4.486432,1.45501 4.486433,1.99348 2.243216,0.39731 2.243216,1.81549 2.243216,1.09802 2.243219,1.30966 4.48643,2.00804 6.72965,4.25019 2.24321,0.95891 2.24322,1.31393 2.24322,1.49857 2.24321,1.08846 2.24322,1.68247 2.24321,1.41149 2.24322,0.73299 2.24322,1.72148 2.24321,1.01583 2.24322,1.20309 2.24321,2.34803 4.48644,2.61254 2.24321,1.3977 2.24322,2.20404 2.24321,1.81619 2.24322,1.24805 2.24322,2.00008 2.24321,2.39737 2.24322,1.63962 2.24321,1.96608 2.24322,2.35023 2.24322,1.96324 2.24321,2.95636 4.48643,3.30803 2.24322,2.4919 2.24322,2.04828 2.24321,2.29207 2.24322,1.79277 2.24322,2.21252 2.24321,2.99214 2.24322,1.78835 2.24321,2.06992 2.24322,2.33789 2.24322,1.97671 2.24321,2.41835 4.48643,4.21168 2.24322,2.03875 4.48643,3.47327 2.24322,2.87995 2.24321,2.35645 2.24322,1.39662 2.24322,2.34714 2.24321,1.96426 2.24322,2.62692 2.24321,1.67349 2.24322,2.78177 2.24322,1.67179 2.24321,2.52738 2.24322,2.77611 2.24322,1.93941 2.24321,2.33008 2.24322,2.05331 2.24321,2.66543 2.24322,1.8289 6.72965,6.1342 2.24321,1.21023 2.24322,2.02589 2.24322,1.86244 2.24321,1.41923 2.24322,1.22251 2.24322,1.42625 2.24321,0.5332 2.24322,1.58312 2.24321,0.86329 2.24322,0.72803 2.24321,-0.0751 2.24322,0.60599 2.24322,0.18565 2.24321,0.38989 4.48643,0.34701 2.24322,-0.50618 4.48643,0.21957 2.24322,-0.29505 2.24322,-0.0686 2.24321,-0.35673 2.24322,-0.23077 2.24321,-0.57622 2.24322,-1.00997 2.24322,-0.52078 2.24321,-0.78582 2.24322,-0.61441 2.24321,-1.0305 2.24322,-0.74942 2.24322,-0.97445 2.24321,-1.34969 2.24322,-0.11832 2.24321,-1.6143 6.72965,-1.7962 2.24322,-1.09835 2.24321,-1.26588 2.24322,-0.86917 4.48643,-2.76426 2.24322,-1.23401 2.24322,-2.00526 2.24321,-1.49084 4.48643,-3.55012 4.48644,-3.1792 2.24321,-1.9622 2.24322,-1.07949 4.48643,-2.95875 2.24322,-0.92739 2.24321,-1.52538 2.24322,-1.72678 4.48643,-2.85721 2.24322,-1.78641 2.24321,-1.30107 4.48643,-3.50341 2.24322,-2.18117 6.72965,-5.58885 2.24322,-2.37347 2.24321,-1.59122 2.24322,-2.16992 2.24321,-1.74682 2.24322,-2.03525 2.24322,-1.51756 4.48643,-3.93678 4.48643,-3.97657 2.24322,-1.6064 2.24321,-2.8168 2.24322,-1.67051 2.24321,-2.62485 2.24322,-2.03666 11.21608,-12.7903 2.24322,-3.13444 4.48643,-5.07426 6.72965,-8.99547 4.48643,-5.36389 2.24322,-3.3103 2.24321,-2.91533 2.24322,-3.18739 2.24321,-2.41828 2.24322,-4.02322 2.24322,-2.48569 2.24321,-3.66405 4.48643,-6.42684 4.48644,-5.82327 2.24321,-3.5899 2.24322,-3.09943 11.21608,-14.51921 2.24322,-2.42856 2.24321,-2.93027 2.24322,-2.15115 2.24321,-2.68212 2.24322,-2.29397 2.24322,-2.62486 2.24321,-2.32717 2.24322,-2.60064 2.24321,-1.80552 2.24322,-2.3504 v 0" /></g></g><g
       id="g259"><g
         clip-path="url(#clipPath265)"
         id="g261"><path
           id="path267"
           style="fill:none;stroke:#ff0000;stroke-width:4;stroke-linecap:square;stroke-linejoin:round;stroke-miterlimit:10;stroke-dasharray:none;stroke-opacity:0.3"
           d="m 77.16875,204.15604 2.243216,1.8589 2.243216,3.10205 2.243216,1.89611 2.243216,2.45284 2.243216,2.10481 2.243216,1.74136 2.243217,1.94841 2.243216,1.73449 2.243216,2.02992 4.486435,3.72559 2.24321,1.28528 2.24322,1.71751 2.24321,1.31393 2.24322,1.73574 2.24322,1.1725 2.24321,1.73757 2.24322,0.61472 2.24322,1.24664 4.48643,2.03438 2.24321,1.38396 2.24322,0.65113 2.24322,-0.0564 2.24321,0.98988 2.24322,0.41824 2.24321,0.19428 2.24322,0.5334 2.24322,0.21764 2.24321,0.70078 2.24322,0.0545 2.24321,0.74062 2.24322,-0.12323 2.24322,1.02904 2.24321,0.2319 2.24322,0.97747 2.24321,0.5573 2.24322,0.44257 2.24322,0.9424 4.48643,2.35335 2.24321,0.89555 2.24322,1.58906 4.48643,2.9334 2.24322,2.02808 4.48643,3.33044 2.24322,2.46774 2.24321,1.71466 2.24322,2.52249 2.24322,2.75112 2.24321,1.96988 2.24322,2.9549 2.24321,3.49277 2.24322,2.68743 8.97286,13.49691 2.24322,3.0622 2.24322,3.81495 2.24321,3.29018 4.48643,5.73631 2.24322,3.57503 2.24322,2.74005 2.24321,3.01887 2.24322,2.51446 2.24322,3.73074 4.48643,4.7785 2.24321,3.12227 4.48644,4.33388 2.24321,1.87983 2.24322,1.34473 2.24321,1.58029 2.24322,1.72559 2.24322,1.2469 2.24321,0.98725 2.24322,0.78806 2.24322,0.97076 2.24321,0.29436 2.24322,-0.39258 2.24321,1.26703 2.24322,-0.82162 2.24321,0.0649 2.24322,-0.43336 2.24322,-0.23947 2.24321,0.0855 2.24322,-0.4786 2.24321,-0.6801 2.24322,-0.28043 2.24322,-0.81567 2.24321,-0.0326 4.48644,-0.57281 2.24321,-0.59303 2.24322,-0.094 4.48643,-1.30851 2.24322,-0.49422 2.24321,-0.85367 2.24322,0.0565 2.24321,-0.88056 2.24322,-0.48819 2.24322,-0.69812 2.24321,0.0514 2.24322,-0.88227 6.72965,-1.39262 2.24321,-0.83815 2.24322,-0.33474 2.24321,-1.12643 2.24322,-0.49359 2.24322,-0.96924 2.24321,-0.76966 2.24322,-1.2839 2.24322,-1.66557 2.24321,-0.73822 4.48643,-2.60622 4.48644,-3.91107 2.24321,-0.5678 4.48643,-3.85357 4.48644,-2.44727 4.48643,-4.12423 4.48643,-2.90893 2.24322,-2.00738 2.24321,-1.71173 6.72965,-5.96315 2.24322,-1.34949 2.24321,-1.79824 2.24322,-1.96539 2.24322,-1.57745 2.24321,-1.79685 2.24322,-2.05456 2.24321,-1.90053 2.24322,-1.65897 2.24322,-1.91568 6.72964,-6.27586 2.24322,-1.87102 2.24322,-2.16111 4.48643,-3.59422 2.24321,-2.76796 2.24322,-2.57991 2.24322,-1.92519 2.24321,-2.84765 2.24322,-2.29132 2.24321,-2.97157 2.24322,-2.1835 2.24322,-2.62328 2.24321,-3.12738 2.24322,-3.38019 6.72965,-8.7595 2.24321,-3.71153 2.24322,-3.37605 2.24322,-2.82771 2.24321,-3.65274 2.24322,-2.98088 4.48643,-7.22061 2.24322,-3.53197 2.24321,-3.15908 2.24322,-3.66473 2.24321,-3.33294 4.48644,-7.44336 2.24321,-3.37318 2.24322,-4.1229 2.24321,-3.46128 6.72965,-11.99197 4.48644,-7.1863 4.48643,-8.52905 2.24321,-3.90302 13.4593,-25.7337 v 0" /></g></g><g
       id="g269"><g
         clip-path="url(#clipPath275)"
         id="g271"><path
           id="path277"
           style="fill:none;stroke:#ff0000;stroke-width:4;stroke-linecap:square;stroke-linejoin:round;stroke-miterlimit:10;stroke-dasharray:none;stroke-opacity:0.3"
           d="m 77.16875,205.05785 6.729648,4.10447 2.243216,2.08793 2.243216,1.84497 2.243216,1.16507 2.243217,1.30881 2.243216,1.61831 2.243216,1.46034 2.243216,1.21122 2.243219,1.65047 4.48643,2.69925 2.24321,0.88718 4.48644,3.15778 2.24321,0.91099 2.24322,1.6372 2.24322,0.53136 2.24321,1.55263 2.24322,1.08073 2.24321,1.27006 2.24322,0.0858 2.24322,1.55078 2.24321,0.25195 2.24322,1.21388 4.48643,2.00173 4.48643,1.92168 2.24322,0.85329 4.48643,2.729 4.48643,3.19333 2.24322,1.22579 2.24321,2.30537 2.24322,1.93841 4.48643,4.54321 4.48643,4.44163 2.24322,1.88318 2.24322,2.44149 2.24321,2.11245 2.24322,2.64999 6.72965,6.24449 4.48643,4.65311 2.24322,2.55661 2.24321,1.7752 2.24322,2.7868 4.48643,4.45762 6.72965,7.11625 2.24321,2.14521 2.24322,1.50627 2.24322,2.82002 2.24321,2.05321 2.24322,1.87112 2.24321,1.38992 2.24322,2.30615 4.48643,2.99351 2.24322,1.28175 4.48643,1.98014 6.72965,1.54301 4.48643,0.24112 2.24322,-0.004 2.24321,0.16391 6.72965,-0.63531 2.24322,-0.25428 2.24322,-0.4549 2.24321,0.21316 2.24322,-0.6462 2.24321,-0.33528 6.72965,-1.4982 2.24322,0.18674 2.24321,-0.89289 2.24322,0.18518 2.24321,-1.04006 2.24322,-0.0907 4.48643,-0.81294 2.24322,-0.0794 2.24322,-0.41816 2.24321,-0.27713 2.24322,-0.44639 4.48643,-0.51797 2.24322,0.11681 2.24321,-0.61461 4.48643,-0.1569 2.24322,0.42412 2.24322,0.0379 2.24321,-0.6253 2.24322,0.39992 2.24321,-0.81574 2.24322,0.45268 2.24322,-0.21153 2.24321,0.13676 4.48643,-0.8556 2.24322,0.45424 2.24322,-0.29595 6.72965,-0.21395 2.24321,-0.62588 4.48643,0.13421 2.24322,-0.21203 2.24322,0.0217 2.24321,-0.12715 2.24322,-0.50317 4.48643,-0.28487 2.24322,-0.83856 2.24321,-0.4498 2.24322,-0.19331 2.24321,-0.75264 2.24322,-1.32218 2.24322,-1.49569 2.24321,-1.25042 6.72965,-4.33087 2.24322,-1.25527 2.24321,-2.1483 2.24322,-0.83758 2.24322,-1.56832 6.72964,-5.1404 2.24322,-1.30397 2.24322,-2.16872 2.24321,-1.82712 4.48643,-4.0325 8.97287,-8.791 4.48643,-5.24782 2.24322,-2.46093 4.48643,-6.0303 2.24321,-2.30296 2.24322,-3.54086 2.24322,-2.5118 2.24321,-3.41916 2.24322,-2.84191 4.48643,-6.24187 2.24322,-3.69855 2.24321,-3.07533 2.24322,-3.59956 2.24322,-2.95533 2.24321,-3.72142 2.24322,-3.12162 2.24321,-3.35094 2.24322,-3.92831 2.24322,-3.00646 2.24321,-3.67074 2.24322,-2.949 2.24321,-3.66671 2.24322,-3.9622 2.24322,-2.90251 4.48643,-6.95039 2.24321,-3.86418 4.48644,-6.94318 2.24321,-3.70109 2.24322,-3.27349 4.48643,-7.14686 2.24322,-3.1761 2.24321,-3.53565 2.24322,-3.30951 2.24322,-3.55254 2.24321,-1.92311 2.24322,-3.89941 2.24321,-2.713 2.24322,-2.42137 v 0" /></g></g><g
       id="g279"><g
         clip-path="url(#clipPath285)"
         id="g281"><path
           id="path287"
           style="fill:none;stroke:#ff0000;stroke-width:4;stroke-linecap:square;stroke-linejoin:round;stroke-miterlimit:10;stroke-dasharray:none;stroke-opacity:0.3"
           d="m 77.16875,205.08796 2.243216,1.72315 4.486432,2.00479 2.243216,1.69315 2.243216,1.30478 4.486433,2.05611 2.243216,2.34267 2.243216,0.1478 2.243216,1.84892 2.243219,0.94996 2.24321,1.1674 2.24322,1.30077 2.24321,1.47698 2.24322,1.29971 2.24322,0.65562 2.24321,1.76746 2.24322,0.79871 2.24322,0.94864 4.48643,3.354 6.72965,2.71132 4.48643,3.06508 2.24321,0.70493 2.24322,1.31819 2.24322,0.44097 2.24321,1.34384 2.24322,0.66843 6.72965,4.15744 2.24321,0.68569 4.48643,2.65246 2.24322,0.77921 2.24322,1.71091 2.24321,1.35796 2.24322,1.05307 2.24321,1.53141 2.24322,1.19284 4.48643,3.47476 2.24322,1.34347 2.24322,1.76469 2.24321,2.19715 2.24322,1.69959 2.24321,2.21553 2.24322,2.62115 2.24322,2.39785 4.48643,5.30864 2.24321,2.93528 2.24322,2.28105 2.24322,2.86926 4.48643,6.15556 2.24321,2.66063 2.24322,3.24492 4.48643,5.66643 4.48643,5.67553 4.48644,6.04343 2.24321,2.96474 2.24322,3.23632 4.48643,5.62949 2.24322,3.44073 2.24321,2.0701 4.48644,5.71682 4.48643,5.10219 2.24321,2.81755 2.24322,2.44521 2.24322,2.26155 2.24321,2.54316 2.24322,3.10671 2.24322,1.98954 4.48643,4.71274 2.24321,2.73667 8.97287,6.76853 2.24321,0.89888 2.24322,1.54939 2.24321,1.0708 2.24322,0.7386 2.24322,1.16017 2.24321,0.56011 2.24322,0.10401 2.24322,-0.30758 2.24321,0.62649 2.24322,-0.49031 2.24321,0.005 2.24322,-0.62502 2.24322,0.0628 2.24321,-0.40518 2.24322,-1.11834 2.24321,-0.69151 2.24322,-0.0895 2.24322,-1.39854 4.48643,-2.11882 2.24321,-1.51639 2.24322,-1.02505 2.24322,-1.57558 2.24321,-2.0182 2.24322,-1.68787 2.24321,-2.2181 2.24322,-2.89255 2.24322,-2.36982 2.24321,-2.78296 2.24322,-2.51388 2.24322,-3.25813 2.24321,-2.89569 2.24322,-2.5267 6.72965,-8.65444 4.48643,-5.32681 11.21608,-13.36873 2.24321,-3.05469 2.24322,-2.76932 2.24322,-2.37975 2.24321,-3.24586 2.24322,-2.1052 2.24321,-2.66788 11.21609,-12.36209 2.24321,-2.90902 2.24322,-2.30644 2.24321,-2.65058 2.24322,-3.05476 2.24322,-2.01058 4.48643,-5.52791 4.48643,-4.63028 2.24322,-1.77687 2.24321,-2.68213 6.72965,-4.74978 2.24322,-1.24315 2.24321,-1.87343 2.24322,-0.96052 2.24321,-1.30151 2.24322,-1.80294 2.24322,-1.19727 2.24321,-1.42123 2.24322,-1.59274 2.24321,-2.00002 11.21609,-8.70714 11.21608,-10.1931 2.24321,-2.30667 6.72965,-7.4817 2.24322,-2.71249 4.48643,-6.54487 2.24321,-2.69714 2.24322,-4.14805 2.24322,-3.3563 2.24321,-4.09284 2.24322,-4.51201 4.48643,-8.22881 2.24322,-4.46015 2.24321,-5.16479 2.24322,-4.48635 6.72965,-14.75019 4.48643,-9.60604 v 0" /></g></g><g
       id="g289"><g
         clip-path="url(#clipPath295)"
         id="g291"><path
           id="path297"
           style="fill:none;stroke:#ff0000;stroke-width:4;stroke-linecap:square;stroke-linejoin:round;stroke-miterlimit:10;stroke-dasharray:none;stroke-opacity:0.3"
           d="m 77.16875,205.19643 2.243216,0.62057 2.243216,0.0556 2.243216,0.32535 2.243216,0.50993 2.243216,-0.21732 2.243216,0.73193 2.243217,0.34488 2.243216,0.64064 2.243216,0.28048 2.243216,-0.17136 2.243219,0.6851 2.24321,0.20498 2.24322,0.92469 6.72965,2.08159 2.24321,0.24668 2.24322,1.5496 2.24322,1.38708 2.24321,1.77579 2.24322,1.61439 6.72965,6.16615 2.24321,1.66911 4.48643,4.44172 2.24322,2.34147 2.24322,2.84317 4.48643,4.40734 4.48643,5.36361 4.48643,5.65587 2.24322,2.97139 2.24321,2.47854 2.24322,3.29094 2.24322,2.41346 6.72964,9.40921 2.24322,2.89888 2.24322,2.06215 2.24321,3.59864 2.24322,2.31904 2.24322,2.89602 4.48643,5.10235 2.24321,3.10572 2.24322,2.2348 2.24322,3.10717 4.48643,4.56537 2.24321,1.44875 2.24322,2.2735 2.24322,1.91739 2.24321,1.10112 2.24322,1.44831 2.24321,0.93921 2.24322,0.67753 6.72965,2.87582 2.24321,-0.21995 4.48644,0.4782 2.24321,-0.32853 2.24322,0.10948 2.24322,0.31715 2.24321,0.18987 2.24322,0.67465 2.24321,0.13954 2.24322,0.79539 4.48643,0.90898 2.24322,1.01397 2.24321,0.31572 2.24322,1.39637 6.72965,2.79136 2.24322,1.3451 2.24321,1.04836 2.24322,0.87309 2.24321,0.71695 2.24322,0.91258 4.48643,1.25871 4.48643,2.15044 6.72965,1.69282 2.24322,1.38218 2.24321,0.17222 2.24322,0.61842 2.24322,0.97746 2.24321,0.005 2.24322,0.85662 2.24321,-0.27209 2.24322,0.93149 2.24322,-0.54586 2.24321,0.16109 2.24322,-0.53185 2.24321,-0.34662 4.48644,-0.19931 2.24321,-0.79745 2.24322,0.0223 2.24321,-0.48796 2.24322,-0.36895 2.24322,-0.2124 2.24321,-0.0768 2.24322,-0.9681 2.24321,-0.55391 2.24322,0.25892 2.24322,-0.72762 2.24321,-0.40815 2.24322,-0.6058 2.24322,-0.40691 2.24321,-1.09467 2.24322,-0.83562 2.24321,-0.45085 2.24322,-1.79072 2.24322,-0.93213 2.24321,-1.66981 2.24322,-1.45677 2.24321,-1.65609 2.24322,-1.90016 2.24322,-1.55436 8.97286,-7.53425 2.24322,-2.26579 2.24321,-1.64708 6.72965,-6.46685 2.24322,-1.87667 2.24321,-1.16632 2.24322,-2.21891 2.24322,-1.73143 2.24321,-1.54075 2.24322,-1.79712 2.24321,-1.30362 2.24322,-1.54566 2.24322,-1.69657 4.48643,-3.16444 4.48643,-3.48321 4.48643,-3.10162 2.24322,-2.01421 2.24321,-2.19335 2.24322,-2.64969 2.24322,-2.1038 2.24321,-2.46552 2.24322,-3.73571 2.24321,-2.29025 2.24322,-3.99594 2.24322,-3.0594 2.24321,-4.1383 2.24322,-3.83831 4.48643,-8.40821 2.24322,-4.93532 2.24321,-4.60168 8.97287,-19.57053 2.24321,-5.54161 2.24322,-4.90216 2.24322,-4.56677 2.24321,-5.30046 4.48643,-9.81147 2.24322,-4.89779 4.48643,-10.83684 4.48643,-9.81122 2.24322,-5.987 2.24322,-4.93875 4.48643,-10.21225 4.48643,-10.22565 2.24322,-3.86066 2.24321,-4.9931 6.72965,-13.483659 2.24322,-4.619101 2.24321,-3.674027 2.24322,-4.432003 v 0" /></g></g><g
       id="g299"><path
         id="path301"
         style="fill:none;stroke:#000000;stroke-width:0.80000001;stroke-linecap:square;stroke-linejoin:miter;stroke-miterlimit:10;stroke-dasharray:none;stroke-opacity:1"
         d="M 77.16875,70.465625 V 396.62563" /><path
         id="path303"
         style="fill:none;stroke:#000000;stroke-width:0.80000001;stroke-linecap:square;stroke-linejoin:miter;stroke-miterlimit:10;stroke-dasharray:none;stroke-opacity:1"
         d="M 523.56875,70.465625 V 396.62563" /><path
         id="path305"
         style="fill:none;stroke:#000000;stroke-width:0.80000001;stroke-linecap:square;stroke-linejoin:miter;stroke-miterlimit:10;stroke-dasharray:none;stroke-opacity:1"
         d="m 77.16875,70.465625 h 446.4" /><path
         id="path307"
         style="fill:none;stroke:#000000;stroke-width:0.80000001;stroke-linecap:square;stroke-linejoin:miter;stroke-miterlimit:10;stroke-dasharray:none;stroke-opacity:1"
         d="m 77.16875,396.62563 h 446.4" /></g></g></svg>