<?xml version="1.0" encoding="UTF-8" standalone="no"?>
<!-- Created with Inkscape (http://www.inkscape.org/) -->

<svg
   xmlns:dc="http://purl.org/dc/elements/1.1/"
   xmlns:cc="http://creativecommons.org/ns#"
   xmlns:rdf="http://www.w3.org/1999/02/22-rdf-syntax-ns#"
   xmlns:svg="http://www.w3.org/2000/svg"
   xmlns="http://www.w3.org/2000/svg"
   xmlns:sodipodi="http://sodipodi.sourceforge.net/DTD/sodipodi-0.dtd"
   xmlns:inkscape="http://www.inkscape.org/namespaces/inkscape"
   width="200.89474mm"
   height="57.7799mm"
   viewBox="0 0 200.89475 57.7799"
   version="1.1"
   id="svg8"
   sodipodi:docname="logo_bayeso_inkscape.svg"
   inkscape:version="0.92.3 (2405546, 2018-03-11)">
  <defs
     id="defs2">
    <clipPath
       id="clipPath3748"
       clipPathUnits="userSpaceOnUse">
      <path
         inkscape:connector-curvature="0"
         id="path3746"
         d="M 7.2,7.2 H 230.4 V 173.52 H 7.2 Z" />
    </clipPath>
    <clipPath
       id="clipPath3758"
       clipPathUnits="userSpaceOnUse">
      <path
         inkscape:connector-curvature="0"
         id="path3756"
         d="M 7.2,7.2 H 230.4 V 173.52 H 7.2 Z" />
    </clipPath>
    <clipPath
       id="clipPath4617"
       clipPathUnits="userSpaceOnUse">
      <path
         inkscape:connector-curvature="0"
         id="path4615"
         d="M 7.2,7.2 H 230.4 V 173.52 H 7.2 Z" />
    </clipPath>
    <clipPath
       id="clipPath4627"
       clipPathUnits="userSpaceOnUse">
      <path
         inkscape:connector-curvature="0"
         id="path4625"
         d="M 7.2,7.2 H 230.4 V 173.52 H 7.2 Z" />
    </clipPath>
    <clipPath
       id="clipPath943"
       clipPathUnits="userSpaceOnUse">
      <path
         inkscape:connector-curvature="0"
         id="path941"
         d="M 7.2,7.2 H 230.4 V 173.52 H 7.2 Z" />
    </clipPath>
    <clipPath
       id="clipPath953"
       clipPathUnits="userSpaceOnUse">
      <path
         inkscape:connector-curvature="0"
         id="path951"
         d="M 7.2,7.2 H 230.4 V 173.52 H 7.2 Z" />
    </clipPath>
  </defs>
  <sodipodi:namedview
     id="base"
     pagecolor="#ffffff"
     bordercolor="#666666"
     borderopacity="1.0"
     inkscape:pageopacity="0.0"
     inkscape:pageshadow="2"
     inkscape:zoom="1.979899"
     inkscape:cx="233.27076"
     inkscape:cy="-1.4604279"
     inkscape:document-units="mm"
     inkscape:current-layer="layer1"
     showgrid="false"
     inkscape:window-width="2560"
     inkscape:window-height="1326"
     inkscape:window-x="0"
     inkscape:window-y="371"
     inkscape:window-maximized="1" />
  <metadata
     id="metadata5">
    <rdf:RDF>
      <cc:Work
         rdf:about="">
        <dc:format>image/svg+xml</dc:format>
        <dc:type
           rdf:resource="http://purl.org/dc/dcmitype/StillImage" />
        <dc:title />
      </cc:Work>
    </rdf:RDF>
  </metadata>
  <g
     inkscape:label="Layer 1"
     inkscape:groupmode="layer"
     id="layer1"
     transform="translate(-3.9484821,-111.34169)">
    <g
       id="g945">
      <text
         id="text3775"
         y="161.23093"
         x="82.852386"
         style="font-style:normal;font-weight:normal;font-size:10.58333302px;line-height:1.25;font-family:sans-serif;letter-spacing:0px;word-spacing:0px;fill:#c80150;fill-opacity:1;stroke:none;stroke-width:0.26458332"
         xml:space="preserve"><tspan
           style="font-style:normal;font-variant:normal;font-weight:normal;font-stretch:normal;font-size:35.27777863px;font-family:serif;-inkscape-font-specification:serif;fill:#c80150;fill-opacity:1;stroke-width:0.26458332"
           y="161.23093"
           x="82.852386"
           id="tspan3773"
           sodipodi:role="line">bayeso</tspan></text>
      <g
         id="g935"
         inkscape:label="logo_bayeso_left"
         transform="matrix(0.35277777,0,0,-0.35277777,-0.32559095,171.66159)">
        <g
           id="g937">
          <g
             id="g939"
             clip-path="url(#clipPath943)">
            <path
               d="m 17.345455,100.83223 2.049586,-4.924137 2.049587,-4.901665 2.049587,-4.869691 2.049587,-4.827656 2.049586,-4.774981 2.049587,-4.71106 2.049587,-4.635263 2.049587,-4.546933 2.049587,-4.445384 2.049586,-4.329906 2.049587,-4.199757 2.049587,-4.054165 2.049587,-3.892327 2.049586,-3.713407 2.049587,-3.516538 2.049587,-3.300815 2.049587,-3.065298 2.049587,-2.809011 2.049586,-2.530939 2.049587,-2.230026 2.049587,-1.905199 2.049587,-1.555705 2.049586,-1.181709 2.049587,-0.784442 2.049587,-0.366216 2.049587,0.06958 2.049587,0.518458 2.049586,0.974855 2.049587,1.432093 2.049587,1.882384 2.049587,2.316883 2.049586,2.726453 2.049587,3.10278 2.049587,3.438602 2.049587,3.7277 2.049587,3.96489 2.049586,4.146014 2.049587,4.267933 2.049587,4.328524 2.049587,4.326674 2.049584,4.26228 2.04959,4.136247 2.04959,3.950493 2.04958,3.70795 2.04959,3.412565 2.04959,3.069312 2.04958,2.684199 2.04959,2.264273 2.04959,1.817635 2.04958,1.353452 2.04959,0.881843 2.04959,0.412999 2.04958,-0.04371 2.04959,-0.47983 2.04959,-0.887831 2.04958,-1.261077 2.04959,-1.593827 2.04959,-1.881221 2.04958,-2.119271 2.04959,-2.304863 2.04959,-2.435738 2.04958,-2.510505 2.04959,-2.528622 2.04959,-2.490409 2.04958,-2.397042 2.04959,-2.250552 2.04959,-2.053837 2.04958,-1.810658 2.04959,-1.525649 2.04959,-1.204322 2.04959,-0.852925 2.04958,-0.477775 2.04959,-0.08478 2.04959,0.320576 2.04958,0.733241 2.04959,1.148572 2.04959,1.562342 2.04958,1.97072 2.04959,2.370273 2.04959,2.75796 2.04958,3.131119 2.04959,3.487477 2.04959,3.825133 2.04958,4.14256 2.04959,4.438602 2.04959,4.712476 2.04958,4.963762 2.04959,5.19241 2.04959,5.39873 2.04958,5.58342 2.04959,5.74743 2.04959,5.89182 2.04959,6.01758 2.04958,6.12571 2.04959,6.21709 2.04958,6.29267 2.04959,6.35325 2.04959,6.39969 2.04958,6.43276"
               style="fill:none;stroke:#ffb300;stroke-width:8;stroke-linecap:square;stroke-linejoin:round;stroke-miterlimit:10;stroke-dasharray:none;stroke-opacity:1"
               id="path945"
               inkscape:connector-curvature="0" />
          </g>
        </g>
        <g
           id="g947">
          <g
             id="g949"
             clip-path="url(#clipPath953)">
            <path
               d="m 59.884364,15.329833 h 18 m -9,-9 v 18"
               style="fill:#c80150;fill-opacity:1;fill-rule:nonzero;stroke:#c80150;stroke-width:6;stroke-linecap:butt;stroke-linejoin:round;stroke-miterlimit:10;stroke-dasharray:none;stroke-opacity:1"
               id="path955"
               inkscape:connector-curvature="0" />
          </g>
        </g>
      </g>
    </g>
  </g>
</svg>
